<?xml version="1.0" encoding="utf-8"?>
<svg version="1.0" id="layer_1" xmlns="http://www.w3.org/2000/svg" xmlns:xlink="http://www.w3.org/1999/xlink" x="0px" y="0px" viewBox="0 0 800 800" enable-background="new 0 0 800 800" xml:space="preserve">
<g id="_x31__2_">
	<g id="身体_10_">
		<path fill="#FFDCD0" stroke="#000000" stroke-width="1.4173" stroke-miterlimit="10" d="M291.3,599.9c0.9-16.5,4-26.1,6.4-31.4
			C293.8,577.2,292.1,589,291.3,599.9l-0.4,14.5c0,9.2,0.5,24.7,0.5,24.7l13.1,58.4l71.6,1.9l9.4-39.9c0,0,3.8,0.4,6.6,0.4
			c2.8,0,6.6-0.4,6.6-0.4l9.4,39.9l71.6-1.9l13.1-58.4c0,0,0.5-15.2,0.5-24.1c0,0-0.2-33.1-6.8-46.5c2.1,3.2,5.8,16.1,6.5,34.5
			l0.4,12c3.6,39.4,49.8,38.6,49.8-5c0-45.3-33.4-74.5-41.8-80c-15.2-10.7-43.5-17.3-43.5-17.3h-65.7H392h-65.7
			c0,0-28.3,6.6-43.5,17.3c-8.4,5.5-41.8,34.7-41.8,80c0,43.8,46.6,44.3,49.8,4.4L291.3,599.9z"/>
		<path fill="#EEB6A0" d="M335,647.2c0,0,21.3,7.5,57,7.5s56.3-7.5,56.3-7.5s-22.2,12.3-55.9,12.3c-2.9,0-4.9-0.1-7.6-0.3l-9.2,39.1
			l-3.2-4c2.3-7.2,1.4-30.3-0.1-36.2C352.5,655.2,340.1,650.3,335,647.2z"/>
		<path fill="#EEB6A0" d="M493.4,633l-13.8,64.5l-5.4-5.8c1.4-4.1,8.4-36.4,12.4-61.3c2.6-37.6-1.1-65.5-1.1-65.5
			C493.8,592.7,494.5,622.4,493.4,633z"/>
		<path fill="#EEB6A0" d="M542.8,609.5c0,10.4-6.2,31.3-16,29.3c4.2-12,3.7-32.8,3.7-32.8c1.9-45.3-26.9-73.4-26.9-73.4
			C534.1,556.9,542.8,591.9,542.8,609.5z"/>
		<path fill="#EEB6A0" d="M274.7,616.1c0,5.8-1.1,21.3-7.7,26.7c11.5,0,18.5-11.9,19.9-14.8c3.3-7.1,3.3-18,3.3-18
			c-0.3-34.8,10.2-48.6,10.2-48.6C282,576.8,274.7,606.2,274.7,616.1z"/>
		<path fill="#EEB6A0" d="M459.6,514.5c-4.6-8.2-28.1-15.9-64-17c-13.9-0.4-69.1-2.1-64.6,6.1c4.9,8.9,20.3,23,61.8,26
			C428.7,532.2,465.3,524.7,459.6,514.5z"/>
	</g>
	<g id="衣服_18_">
		<g id="衣服_16_">
			<path fill="#963600" stroke="#000000" stroke-miterlimit="10" d="M291.6,633.1c1,1.2,13.5,67.3,13.5,67.3h71.2
				c0,0,6.9-39.5,16-39.5c5.6,0,16,39.5,16,39.5l71.6-1.9l13.1-66.1c0,0-44.9,8.9-103.1,9.4C359.3,642,325,638.9,291.6,633.1z"/>
			<path fill="#5E2814" d="M335.3,648.3c0,0,21.3,7.5,57,7.5s56.3-7.5,56.3-7.5s-22.2,12.3-55.9,12.3c-2.9,0-4.9,2.2-6,4.1
				c-5.9,9.9-10.4,35.8-10.4,35.8l-7.3,0.2c0.4-3.6,5.1-35.6,3.5-41.5C352.8,656.2,340.4,651.4,335.3,648.3z"/>
			<path fill="#5E2814" d="M492.5,632.5l-11.2,61.3l-6.8,1.8c0.8-2.3,4.3-21.2,7.3-37.5c0.3-1.8-5.8-0.5-5.8-0.5s7.4-8.1,7.7-9.7
				c1.5-8.4,2.6-14.4,2.6-14.4L492.5,632.5z"/>
			<path stroke="#000000" stroke-width="0.25" stroke-miterlimit="10" d="M293.1,640.6c0,0,53,8.5,93.8,8.5s105.2-10.3,105.2-10.3
				l1-6.4c0,0-64.9,9.8-106.2,9.8s-95.2-8.9-95.2-8.9L293.1,640.6z"/>
			<path fill="#FFFFFF" stroke="#000000" stroke-miterlimit="10" d="M265.8,547.2c2.9,0.5,11.6,1.4,20.7,6
				c6.3,3.2,12.2,6.9,12.8,11.9c-6.2,11.4-9.7,40.1-7.5,68.2c26.4,3.7,80.6,10,103.9,8.3c23.3-1.7,58.9-2,97.4-10
				c0.7-8.8,1.6-50.9-7.2-65.8c1.4-4.8,9.4-10.3,16.3-13.2c5.5-2.3,11.3-3.6,17.6-4.5c-5.4-7.7-19.1-20-32.9-25.3
				c-16.4-6.3-27.3-10.1-27.3-10.1L392,543.5l-64.3-31.7c0,0-25.7,8.9-34.8,13.3C283.8,529.5,269.2,542.1,265.8,547.2z"/>
			<g>
				<defs>
					<path id="SVGID_1_" d="M265.8,547.2c2.9,0.5,9.3-0.3,19.7,4.9c6.8,3.4,13.8,8,14.4,13c-6.2,11.4-10.2,39.6-8.1,67.7
						c26.4,3.7,80.5,10,103.8,8.3c23.3-1.7,58.9-2.1,97.4-10c0.7-8.8,1-50.4-7.8-65.3c1.4-4.8,9.8-10.6,16.8-13.5
						c5.5-2.3,10.4-3.5,16.7-4.3c-5.4-7.7-18.4-19.3-32.2-24.6c-16.4-6.3-26.9-10.1-26.9-10.1L392,544l-63.9-31.2
						c0,0-26,8.6-35,12.9C284.1,530.1,269.2,542.1,265.8,547.2z"/>
				</defs>
				<clipPath id="SVGID_2_">
					<use xlink:href="#SVGID_1_"  overflow="visible"/>
				</clipPath>
				<g clip-path="url(#SVGID_2_)">
					<rect x="268.5" y="512.8" fill="#ECECE4" width="4" height="132"/>
					<rect x="274" y="512.8" fill="#ECECE4" width="1" height="132"/>
					<rect x="284" y="512.8" fill="#ECECE4" width="1" height="132"/>
					<rect x="294" y="512.8" fill="#ECECE4" width="1" height="132"/>
					<rect x="304" y="512.8" fill="#ECECE4" width="1" height="132"/>
					<rect x="314" y="512.8" fill="#ECECE4" width="1" height="132"/>
					<rect x="324" y="512.8" fill="#ECECE4" width="1" height="132"/>
					<rect x="334" y="512.8" fill="#ECECE4" width="1" height="132"/>
					<rect x="344" y="512.8" fill="#ECECE4" width="1" height="132"/>
					<rect x="354" y="512.8" fill="#ECECE4" width="1" height="132"/>
					<rect x="364" y="512.8" fill="#ECECE4" width="1" height="132"/>
					<rect x="374" y="512.8" fill="#ECECE4" width="1" height="132"/>
					<rect x="384" y="512.8" fill="#ECECE4" width="1" height="132"/>
					<rect x="394" y="512.8" fill="#ECECE4" width="1" height="132"/>
					<rect x="404" y="512.8" fill="#ECECE4" width="1" height="132"/>
					<rect x="414" y="512.8" fill="#ECECE4" width="1" height="132"/>
					<rect x="424" y="512.8" fill="#ECECE4" width="1" height="132"/>
					<rect x="434" y="512.8" fill="#ECECE4" width="1" height="132"/>
					<rect x="444" y="512.8" fill="#ECECE4" width="1" height="132"/>
					<rect x="454" y="512.8" fill="#ECECE4" width="1" height="132"/>
					<rect x="464" y="512.8" fill="#ECECE4" width="1" height="132"/>
					<rect x="474" y="512.8" fill="#ECECE4" width="1" height="132"/>
					<rect x="484" y="512.8" fill="#ECECE4" width="1" height="132"/>
					<rect x="494" y="512.8" fill="#ECECE4" width="1" height="132"/>
					<rect x="504" y="512.8" fill="#ECECE4" width="1" height="132"/>
					<rect x="514" y="512.8" fill="#ECECE4" width="1" height="132"/>
					<rect x="278.5" y="512.8" fill="#ECECE4" width="4" height="132"/>
					<rect x="288.5" y="512.8" fill="#ECECE4" width="4" height="132"/>
					<rect x="298.5" y="512.8" fill="#ECECE4" width="4" height="132"/>
					<rect x="308.5" y="512.8" fill="#ECECE4" width="4" height="132"/>
					<rect x="318.5" y="512.8" fill="#ECECE4" width="4" height="132"/>
					<rect x="328.5" y="512.8" fill="#ECECE4" width="4" height="132"/>
					<rect x="338.5" y="512.8" fill="#ECECE4" width="4" height="132"/>
					<rect x="348.5" y="512.8" fill="#ECECE4" width="4" height="132"/>
					<rect x="358.5" y="512.8" fill="#ECECE4" width="4" height="132"/>
					<rect x="368.5" y="512.8" fill="#ECECE4" width="4" height="132"/>
					<rect x="378.5" y="512.8" fill="#ECECE4" width="4" height="132"/>
					<rect x="388.5" y="512.8" fill="#ECECE4" width="4" height="132"/>
					<rect x="398.5" y="512.8" fill="#ECECE4" width="4" height="132"/>
					<rect x="408.5" y="512.8" fill="#ECECE4" width="4" height="132"/>
					<rect x="418.5" y="512.8" fill="#ECECE4" width="4" height="132"/>
					<rect x="428.5" y="512.8" fill="#ECECE4" width="4" height="132"/>
					<rect x="438.5" y="512.8" fill="#ECECE4" width="4" height="132"/>
					<rect x="448.5" y="512.8" fill="#ECECE4" width="4" height="132"/>
					<rect x="458.5" y="512.8" fill="#ECECE4" width="4" height="132"/>
					<rect x="468.5" y="512.8" fill="#ECECE4" width="4" height="132"/>
					<rect x="478.5" y="512.8" fill="#ECECE4" width="4" height="132"/>
					<rect x="488.5" y="512.8" fill="#ECECE4" width="4" height="132"/>
					<rect x="498.5" y="512.8" fill="#ECECE4" width="4" height="132"/>
					<rect x="508.5" y="512.8" fill="#ECECE4" width="4" height="132"/>
				</g>
			</g>
			<polygon fill="#FFFFFF" stroke="#000000" stroke-width="0.5" stroke-miterlimit="10" points="394.3,641.7 390.3,641.9 
				390.3,544.3 394.3,542.4 			"/>
			<path fill="#FFFFFF" stroke="#000000" stroke-width="0.5" stroke-miterlimit="10" d="M485.7,565.5c0,0,2.6-7.3,16.2-13
				c10.5-4.4,17.4-4.5,17.4-4.5l-6.7-7.7c0,0-8.4,1.4-16.2,5.6c-7.8,4.2-14.7,11.1-14.7,11.1L485.7,565.5z"/>
			<path fill="#FFFFFF" stroke="#000000" stroke-width="0.5" stroke-miterlimit="10" d="M299.4,564.8c0,0-2.6-7.3-16.2-13
				c-10.5-4.4-17.4-4.5-17.4-4.5l6.7-7.7c0,0,8.4,1.4,16.3,5.6c7.8,4.2,14.7,11.1,14.7,11.1L299.4,564.8z"/>
			<path opacity="0.5" fill="#404040" d="M481.4,557c13.9,23.9,13.1,70.3,11.1,74l-7.9,1.4C484.6,632.5,490.7,589,481.4,557z"/>
			<path opacity="0.6" fill="#404040" d="M313.6,541.9c-5.9,5.2-13.4,15-15.5,20.1c1,2.3,1.4,4.5,1.4,4.5S306.8,550.2,313.6,541.9z"
				/>
			<g>
				<path fill="#A3A3A3" stroke="#000000" stroke-width="0.25" stroke-miterlimit="10" d="M376.3,638v14.9h29V638H376.3z
					 M399.9,650.2h-18.3v-9.4h18.3V650.2z"/>
				<polygon fill="#666666" points="391.4,638.1 391.4,640.6 400,640.6 400,650.4 391.4,650.4 391.4,652.7 405.1,652.7 405.1,638.1 
									"/>
			</g>
			<g id="扣子_2_">
				<g>
					<ellipse cx="395.3" cy="625.8" rx="4" ry="4.2"/>
					<circle fill="#393434" cx="395.1" cy="625.4" r="4"/>
					<polygon fill="#FFFFFF" points="396.8,626.4 395.8,625.4 396.8,624.3 396.1,623.6 395.1,624.7 394,623.6 393.3,624.3 
						394.4,625.4 393.3,626.4 394,627.2 395.1,626.1 396.1,627.2 					"/>
				</g>
				<g>
					<ellipse cx="395.3" cy="595.8" rx="4" ry="4.2"/>
					<circle fill="#393434" cx="395.1" cy="595.4" r="4"/>
					<polygon fill="#FFFFFF" points="396.8,596.4 395.8,595.4 396.8,594.3 396.1,593.6 395.1,594.7 394,593.6 393.3,594.3 
						394.4,595.4 393.3,596.4 394,597.2 395.1,596.1 396.1,597.2 					"/>
				</g>
				<g>
					<ellipse cx="395.3" cy="565.8" rx="4" ry="4.2"/>
					<circle fill="#393434" cx="395.1" cy="565.4" r="4"/>
					<polygon fill="#FFFFFF" points="396.8,566.4 395.8,565.4 396.8,564.3 396.1,563.6 395.1,564.7 394,563.6 393.3,564.3 
						394.4,565.4 393.3,566.4 394,567.2 395.1,566.1 396.1,567.2 					"/>
				</g>
			</g>
		</g>
		<path opacity="0.6" fill="#5E2814" d="M308,522c3.5,6.7,4.1,27.9-1.2,40.3c-1.4,2.3-3.6,5.8-4.3,7.4c-5.5,8.8-7,52.8-6.4,66.1
			l16.6,16.9l45-4.3l8.4-52.5l-6.6-41.8c-22.2-8.7-26.6-32.2-25.9-43L308,522z"/>
		<polygon fill="#5E2814" points="312.7,653.2 342.8,651.9 357.7,648.5 341.5,646.6 		"/>
		<path fill="#963600" stroke="#000000" stroke-miterlimit="10" d="M302.5,519.8c3.5,6.7,4.1,27.9-1.2,40.3
			c-1.4,2.3-3.6,5.8-4.3,7.4c-5.5,8.8-7,52.8-6.4,66.1l22.1,19.1l39.5-6.5l8.4-52.5L354,552c-22.2-8.7-16-36.7-15.3-47.5
			L302.5,519.8z"/>
		<path fill="#963600" stroke="#000000" stroke-miterlimit="10" d="M482.8,520.3c-3.5,6.7-3.7,27.4,1.7,39.9
			c1.4,2.3,3.6,5.8,4.3,7.4c5.5,8.8,7,52.8,6.4,66.1L476,657.5l-42.1-8.9l-8.7-54.7l6.6-41.8c22.2-8.7,16.9-35,16.2-45.8
			L482.8,520.3z"/>
		<path fill="#5E2814" d="M484,560.7c10.9,31.6,4.9,67.2,4.9,67.2l5.2-2.8C494.1,625.1,498,584.6,484,560.7z"/>
		<g id="扣子">
			<circle fill="#FFF200" stroke="#000000" stroke-miterlimit="10" cx="350.9" cy="565.1" r="3.6"/>
			<path fill="#E29A00" d="M352.9,562.9c0.1,0.3,0.2,0.6,0.2,0.9c0,1.7-1.4,3.1-3.1,3.1c-0.8,0-1.5-0.3-2-0.8
				c0.4,1.2,1.5,2.1,2.9,2.1c1.7,0,3.1-1.4,3.1-3.1C354,564.3,353.5,563.4,352.9,562.9z"/>
			<circle fill="#FFF200" stroke="#000000" stroke-miterlimit="10" cx="354.5" cy="595.1" r="3.6"/>
			<path fill="#E29A00" d="M356.5,592.8c0.1,0.3,0.2,0.6,0.2,0.9c0,1.7-1.4,3.1-3.1,3.1c-0.8,0-1.5-0.3-2-0.8
				c0.4,1.2,1.5,2.1,2.9,2.1c1.7,0,3.1-1.4,3.1-3.1C357.6,594.2,357.2,593.4,356.5,592.8z"/>
			<circle fill="#FFF200" stroke="#000000" stroke-miterlimit="10" cx="349.3" cy="624.3" r="4.1"/>
			<path fill="#E29A00" d="M351.7,621.7c0.1,0.3,0.2,0.7,0.2,1.1c0,2-1.6,3.6-3.6,3.6c-0.9,0-1.7-0.3-2.3-0.9
				c0.5,1.4,1.8,2.5,3.4,2.5c2,0,3.6-1.6,3.6-3.6C352.9,623.3,352.5,622.3,351.7,621.7z"/>
		</g>
		<path fill="#FF0A13" stroke="#000000" stroke-miterlimit="10" d="M467.2,512.5l-3.2-5.8h-9.5c0,0-24.9,25.6-53.3,31.1
			c-4.8,0.9-11.9-3.2-16.4-3.3c-31.4-0.6-49.5-33.6-49.5-33.6l-14.9,5.8l-3.2,5.8c0,0,18.9,48.5,39.1,53.3c20.2,4.8,35,44.9,35,44.9
			s29.2-34.3,39.5-44.7S467.2,512.5,467.2,512.5z"/>
		<path opacity="0.6" fill="#5E2814" d="M465.9,513.3c0,0-28.6,48.8-38.5,57.2c-9.9,8.4-32.2,26.1-34.7,25.9s-10.4-2.3-10.4-2.3
			s11.2,17.9,11.3,22.1c4.4-5,40.7-45.6,40.7-45.6s26.3-36.8,36-55.2C469.1,514.8,465.9,513.3,465.9,513.3z"/>
		<path fill="#B20A13" d="M463.3,510c0,0-28.1,45.2-38.1,53.6c-9.9,8.4-32.2,26.1-34.7,25.9s-10.4-2.3-10.4-2.3s11.2,17.9,11.3,22.1
			c4.4-5,40.7-45.6,40.7-45.6s24-32,33.8-50.4C465.1,511.2,463.3,510,463.3,510z"/>
		<path fill="#B20A13" d="M368.5,541.9c-15.5-1.5-39.5-15.9-44.8-32.6c-1-3.2,7.6-0.9,7.3-4.7c4,15.7,25.7,35.9,57,35.9
			C384,542.7,368.5,541.9,368.5,541.9z"/>
		<path fill="#B20A13" d="M409.6,557.1c-9.6,3.5-39.1,3.5-52.8-9c-0.4-4.7,51.8,17.4,95.8-35.3C438.5,537.9,419.1,553.6,409.6,557.1
			z"/>
	</g>
	<g id="脚_20_">
		<g id="鞋_8_">
			<path fill="#4F00DE" stroke="#000000" stroke-miterlimit="10" d="M482.8,707.7c0,0,3.2-16.7-12.5-18.4c-16.1,0-50.7,0-50.7,0
				s-14.2,1.1-14.2,19.1l38.7,1.6L482.8,707.7z"/>
			<path fill="#FFFFFF" stroke="#000000" stroke-width="0.982" stroke-miterlimit="10" d="M403,716.2c0,0,10,3.9,39.5,3.9
				c29.5,0,41.5-3.9,41.5-3.9s1.6-9.3,0-10c-1.6-0.7-15,3.9-41.5,3.9c-26.5,0-38.3-5.1-39.5-3.9C401.8,707.4,403,716.2,403,716.2z"
				/>
			<path fill="#BFBFBF" d="M484.2,708.1c0,0-15.2,6.3-39.7,4.9c0,6-28.3,5.1-28.3,5.1s39.4,4.7,67.6-2.4L484.2,708.1z"/>
			<line fill="none" stroke="#000000" stroke-width="0.982" stroke-miterlimit="10" x1="479" y1="706.8" x2="479" y2="717.3"/>
			<line fill="none" stroke="#000000" stroke-width="0.982" stroke-miterlimit="10" x1="473.5" y1="707.7" x2="473.5" y2="718.1"/>
			<line fill="none" stroke="#000000" stroke-width="0.982" stroke-miterlimit="10" x1="467.8" y1="708.4" x2="467.8" y2="718.8"/>
			<line fill="none" stroke="#000000" stroke-width="0.982" stroke-miterlimit="10" x1="461.4" y1="709.2" x2="461.4" y2="719.4"/>
			<line fill="none" stroke="#000000" stroke-width="0.982" stroke-miterlimit="10" x1="454.4" y1="709.7" x2="454.4" y2="719.8"/>
			<line fill="none" stroke="#000000" stroke-width="0.982" stroke-miterlimit="10" x1="447" y1="710" x2="447" y2="720.1"/>
			<line fill="none" stroke="#000000" stroke-width="0.982" stroke-miterlimit="10" x1="439" y1="709.8" x2="439" y2="719.8"/>
			<line fill="none" stroke="#000000" stroke-width="0.982" stroke-miterlimit="10" x1="432" y1="709.8" x2="432" y2="719.8"/>
			<line fill="none" stroke="#000000" stroke-width="0.982" stroke-miterlimit="10" x1="423.4" y1="709.2" x2="423.4" y2="719.2"/>
			<line fill="none" stroke="#000000" stroke-width="0.982" stroke-miterlimit="10" x1="415.8" y1="707.6" x2="415.8" y2="718.6"/>
			<line fill="none" stroke="#000000" stroke-width="0.982" stroke-miterlimit="10" x1="409.5" y1="706.7" x2="409.5" y2="717.7"/>
			<path fill="#A668FF" d="M448.4,691.4c0,0-19-2-29.1,1.9c-5.3,1.8-7.4,11.3-7.5,12.7c4.5,1.3,9.6,1.6,9.6,1.6s-2.3-6.6,2.1-10.1
				S438.3,690.6,448.4,691.4z"/>
		</g>
		<g id="鞋_7_">
			<path fill="#4F00DE" stroke="#000000" stroke-miterlimit="10" d="M378.8,707.7c0,0,3.2-16.7-12.5-18.4c-16.1,0-50.7,0-50.7,0
				s-14.2,1.1-14.2,19.1l38.7,1.6L378.8,707.7z"/>
			<path fill="#FFFFFF" stroke="#000000" stroke-width="0.982" stroke-miterlimit="10" d="M301,716.2c0,0,10,3.9,39.5,3.9
				c29.5,0,41.5-3.9,41.5-3.9s1.6-9.3,0-10c-1.6-0.7-15,3.9-41.5,3.9c-26.5,0-38.3-5.1-39.5-3.9C299.8,707.4,301,716.2,301,716.2z"
				/>
			<path fill="#BFBFBF" d="M382.2,708.1c0,0-15.3,6.3-39.7,4.9c0,6-28.3,5.1-28.3,5.1s39.4,4.7,67.6-2.4L382.2,708.1z"/>
			<line fill="none" stroke="#000000" stroke-width="0.982" stroke-miterlimit="10" x1="375" y1="706.8" x2="375" y2="717.3"/>
			<line fill="none" stroke="#000000" stroke-width="0.982" stroke-miterlimit="10" x1="369.5" y1="707.7" x2="369.5" y2="718.1"/>
			<line fill="none" stroke="#000000" stroke-width="0.982" stroke-miterlimit="10" x1="363.8" y1="708.4" x2="363.8" y2="718.8"/>
			<line fill="none" stroke="#000000" stroke-width="0.982" stroke-miterlimit="10" x1="357.4" y1="709.2" x2="357.4" y2="719.4"/>
			<line fill="none" stroke="#000000" stroke-width="0.982" stroke-miterlimit="10" x1="350.4" y1="709.7" x2="350.4" y2="719.8"/>
			<line fill="none" stroke="#000000" stroke-width="0.982" stroke-miterlimit="10" x1="343" y1="710" x2="343" y2="720.1"/>
			<line fill="none" stroke="#000000" stroke-width="0.982" stroke-miterlimit="10" x1="335" y1="709.8" x2="335" y2="719.8"/>
			<line fill="none" stroke="#000000" stroke-width="0.982" stroke-miterlimit="10" x1="328" y1="709.8" x2="328" y2="719.8"/>
			<line fill="none" stroke="#000000" stroke-width="0.982" stroke-miterlimit="10" x1="319.4" y1="709.2" x2="319.4" y2="719.2"/>
			<line fill="none" stroke="#000000" stroke-width="0.982" stroke-miterlimit="10" x1="311.8" y1="707.6" x2="311.8" y2="718.6"/>
			<line fill="none" stroke="#000000" stroke-width="0.982" stroke-miterlimit="10" x1="305.5" y1="706.7" x2="305.5" y2="717.7"/>
			<path fill="#A668FF" d="M344.4,691.4c0,0-19-2-29.1,1.9c-5.3,1.8-7.4,11.3-7.5,12.7c4.5,1.3,9.6,1.6,9.6,1.6s-2.3-6.6,2.1-10.1
				C323.8,694,334.3,690.6,344.4,691.4z"/>
		</g>
	</g>
	<g id="手_7_">
		<g id="手_12_">
			<g id="左手_8_">
				<path fill="#FFD2BE" stroke="#000000" stroke-width="1.4173" stroke-miterlimit="10" d="M497.9,632.8
					c-3.6,16.8,3.9,27.2,20.5,27.2c16.6,0,29-17.2,29-32.7c0-15.5-10.2-28.6-26.8-28.6c-12.7,0-19.4,3.8-25.4,14.1
					C491.3,619.7,498.6,629.3,497.9,632.8z"/>
				<path fill="#FFD2BE" stroke="#000000" stroke-width="1.4173" stroke-miterlimit="10" d="M514.6,627.5
					c-1.5,13-12.8,16.2-19.6,11.8c-6.1-3.8-9.1-14.5,0-25.9"/>
			</g>
			<path fill="#E6A082" d="M514.6,618.2c0,0,0,22.3-21,19C502.1,645.9,519.4,636.7,514.6,618.2z"/>
			<path fill="#E6A082" d="M510.4,638.2c0,0-3.7,4.8-12.5,3.3C497.1,651.7,510.1,643.2,510.4,638.2z"/>
			<path fill="#E6A082" d="M538.6,606.6c2.8,5.9,5.8,23.3-2.8,37c-6,9.5-11.9,15.1-21.2,15.5c16.1,2.1,24.9-10.8,27.2-14.6
				C547.3,635.9,550.3,618.5,538.6,606.6z"/>
		</g>
		<g id="手_8_">
			<g id="左手_5_">
				<path fill="#FFD2BE" stroke="#000000" stroke-width="1.4173" stroke-miterlimit="10" d="M287.8,632.8
					c3.6,16.8-3.9,27.2-20.5,27.2s-29-17.2-29-32.7c0-15.5,10.2-28.6,26.8-28.6c12.7,0,19.4,3.8,25.4,14.1
					C294.4,619.7,287.1,629.3,287.8,632.8z"/>
				<path fill="#FFD2BE" stroke="#000000" stroke-width="1.4173" stroke-miterlimit="10" d="M271.1,627.5
					c1.5,13,12.8,16.2,19.6,11.8c6.1-3.8,9.1-14.5,0-25.9"/>
			</g>
			<path fill="#E6A082" d="M292,616.4c1.5,2.4,2.9,11.3-0.7,17.3c-1.8,3-7.3,6.4-12.2,5.5c6.1,3.2,12.8,0.3,15.3-5.2
				C297.9,626.6,293.5,618.2,292,616.4z"/>
			<path fill="#E6A082" d="M273,621.6c-8,10.9,4.5,21.2,2.9,28.4c-0.8,3.5-5.9,10.4-15,8.3c7.4,2.5,19.4,0.3,23.5-5.7
				c1.1-1.6,3.4-4.2,3.7-11.2C277.2,644.1,266.8,632.9,273,621.6z"/>
		</g>
		<g id="手套_6_">
			<g id="手套_8_">
				<path fill="#6C6B86" d="M492.7,617.9c0,0,17.3-1.4,21.4,13.4c3-2,22.1,6.4,19.9,22.1c4.6-2.6,10.5-11.3,12.1-20.8
					c2-11.1-1.4-23.3-10.8-28.9c-16.1-9.6-31.8-1.7-35.1,3.3C498.2,609.2,493.7,616.2,492.7,617.9z"/>
				<path fill="#404040" d="M514.1,631.3c0,0,2.1-9.2,2.1-12.3c-1.9,5.9-3.6,8.5-3.6,8.5L514.1,631.3z"/>
				<path fill="#404040" d="M534,653.4c0.9,0.3,21.5-17.6,8.6-42.5c4.8,22.1-8.9,35.9-8.9,35.9S534.5,651.7,534,653.4z"/>
			</g>
			<g id="手套_7_">
				<path fill="#6C6B86" d="M292.8,617.9c0,0-17.3-1.4-21.4,13.4c-3-2-22.1,6.4-19.9,22.1c-4.6-2.6-10.5-11.3-12.1-20.8
					c-2-11.1,1.4-23.3,10.8-28.9c16.1-9.6,31.8-1.7,35.1,3.3C287.3,609.2,291.9,616.2,292.8,617.9z"/>
				<path fill="#404040" d="M270.3,631c0,0-1.2-6.8,1.9-12.6c-1.9,7-0.8,12.9-0.8,12.9L270.3,631z"/>
			</g>
		</g>
	</g>
	<g id="耳朵_44_">
		<g id="耳朵_51_">
			<path fill="#C87A4A" stroke="#000000" stroke-width="1.4173" stroke-miterlimit="10" d="M341.7,208.4
				c-4.2-24.9-60.1-92.9-138.2-48.3C149,192,149.8,274,208.3,326.7L341.7,208.4z"/>
			<path fill="#AA5834" d="M254.9,145.3c43,6.6,70.9,44.8,73.8,62.1l13,1C338.5,189.4,305.2,145.3,254.9,145.3z"/>
			<path fill="#FFBEBA" stroke="#000000" stroke-width="0.7087" stroke-miterlimit="10" d="M229.5,277.8c-5-0.4-41.5-52.2-2-77.4
				c38.8-24.8,76.6,15.4,76,22.4L229.5,277.8z"/>
		</g>
		<g id="耳朵_45_">
			<path fill="#C87A4A" stroke="#000000" stroke-width="1.4173" stroke-miterlimit="10" d="M441.5,208.4
				c4.2-24.9,60.1-92.9,138.2-48.3c54.6,31.9,53.8,113.9-4.8,166.6L441.5,208.4z"/>
			<path fill="#AA5834" d="M579.7,160.1c-1.1-0.6-2.2-1.2-3.3-1.8C622.1,193,619,268,565,317.9l9.9,8.7
				C633.5,274,634.2,192,579.7,160.1z"/>
			<path fill="#FFBEBA" stroke="#000000" stroke-width="0.7087" stroke-miterlimit="10" d="M553.7,277.8c5-0.4,41.5-52.2,2-77.4
				c-38.8-24.8-76.6,15.4-76,22.4L553.7,277.8z"/>
		</g>
	</g>
	<g id="面部_3_">
		<path id="面部_4_" fill="#8BBBFF" stroke="#000000" stroke-width="1.4173" stroke-miterlimit="10" d="M214.3,278.3
			c11.2-30.5,46.9-77.2,129.7-100c36.3-10,61.8-8.8,96.6,0.5c41.8,11.2,105.2,42.4,128.8,98.9c11.7,28,11.7,87.7,11.7,87.7
			s23.3,12,23.3,49.3c0,32.5-52.7,87.4-157.3,100.9c-15.4,2-29.3,11.1-53.3,11.1s-38-9.3-54.8-11.6C236.1,501,179,448.5,179,414.7
			c0-34.2,25.5-48.8,25.5-48.8S201,314.7,214.3,278.3z"/>
		<path fill="#6EA0DC" d="M532.7,227.5c34.8,34.5,46.6,60.2,47.7,138.2c0,0-7.3,1.1-13.4,5.4C573.9,347.5,572.5,271,532.7,227.5z"/>
		<path fill="#6EA0DC" d="M267,496.2c18.9,9.2,64.8,17.7,77.4,19.2c6.4,1.4,29.4,10.5,47,10.5s30.2-3.9,46.7-9.6
			c29.3-2.6,80.2-15.3,104.8-31c-30.3,13.1-68.9,21.4-97.6,25.7c3.7-3.3,8.2-5.9,11.8-11.9c-15.7,13.9-34.1,19.9-61.5,20.6
			C384.7,519.9,312,509.5,267,496.2z"/>
	</g>
	<g id="鼻子_21_">
		<ellipse fill="#FFD2BE" stroke="#000000" stroke-width="1.4173" stroke-miterlimit="10" cx="391.3" cy="421.3" rx="90" ry="59"/>
		<path fill="#E6A082" d="M392,467.5c-28.1,1.3-47.3-1.5-68.3-8.4c6.1,6,32.9,20.6,67.2,20.6c48.4,0,89.7-24.6,89.7-58.4
			C475.8,438.2,445.9,465,392,467.5z"/>
		<g id="鼻子_22_">
			<path fill="#69301B" stroke="#000000" stroke-miterlimit="10" d="M404.4,385.7c-5.2,0-8,2.3-13.5,2.4c-5.5-0.1-8.3-2.4-13.5-2.4
				c-10,0-18.5,8.3-18.5,15.5c0,7.3,6.2,16.9,19.6,18.3c3.1,0.3,22,0.4,24.7,0c13.3-2,19.6-11,19.6-18.3
				C422.9,394,414.4,385.7,404.4,385.7z"/>
			<path fill="#3F1000" d="M420.8,406c0,4.5-6.4,10.1-14,12.3c-4.9,1.4-10,1-16.5,1c-5.7,0-10.3,0.4-14.8-0.7
				c-8.7-2.1-14.9-8.3-14.9-12.6c0-6.6,13.4-9,30-9S420.8,399.3,420.8,406z"/>
		</g>
	</g>
	<g id="眼睛_46_">
		<linearGradient id="SVGID_3_" gradientUnits="userSpaceOnUse" x1="448.5415" y1="351.7919" x2="532.2632" y2="351.7919">
			<stop  offset="0" style="stop-color:#269E96"/>
			<stop  offset="1" style="stop-color:#32D2C8"/>
		</linearGradient>
		<path fill="url(#SVGID_3_)" d="M524.7,326.7c17.5,42.8,2.8,76.1-24.6,76.1s-47.7-28.8-50.6-44.6c-4-20.6,4.9-42.7,20.5-51.1
			C489.5,296.5,512.7,297.3,524.7,326.7z"/>
		<linearGradient id="SVGID_4_" gradientUnits="userSpaceOnUse" x1="237.0114" y1="334.1588" x2="297.4662" y2="365.2986">
			<stop  offset="0" style="stop-color:#269E96"/>
			<stop  offset="1" style="stop-color:#32D2C8"/>
		</linearGradient>
		<path fill="url(#SVGID_4_)" d="M304.6,326.7c20.7,41.4-1.1,75.1-24.6,76.1c-18.5,0.8-31.7-19.4-34.5-35.2
			c-4-20.6,0.4-34.5,11-48.8C264.4,308,291.7,300.7,304.6,326.7z"/>
		<g id="眼睛_48_">
			<radialGradient id="SVGID_5_" cx="281.6733" cy="358.1066" r="37.8513" gradientUnits="userSpaceOnUse">
				<stop  offset="0" style="stop-color:#4D4D4D"/>
				<stop  offset="1" style="stop-color:#1A1A1A"/>
			</radialGradient>
			<ellipse fill="url(#SVGID_5_)" stroke="#000000" stroke-miterlimit="10" cx="281.7" cy="358.1" rx="30" ry="44.3"/>
			
				<radialGradient id="SVGID_6_" cx="285.6263" cy="358.1066" r="28.178" gradientTransform="matrix(0.9851 0 0 1 0.3083 0)" gradientUnits="userSpaceOnUse">
				<stop  offset="0" style="stop-color:#333333"/>
				<stop  offset="1" style="stop-color:#000000"/>
			</radialGradient>
			<ellipse fill="url(#SVGID_6_)" cx="281.7" cy="358.1" rx="22" ry="33"/>
			
				<ellipse transform="matrix(0.3609 -0.9326 0.9326 0.3609 -147.2983 475.2638)" fill="#F2F2F2" cx="273.1" cy="345.1" rx="7" ry="5.7"/>
			<ellipse cx="281.7" cy="358.1" rx="8" ry="13"/>
			<path fill="#FFFFFF" d="M298.1,378.9c-1.4,2.5-3.6,4.4-4.3,3.6c-0.8-0.8,0.9-0.9,2.7-4.4c1.9-3.5,1.5-4.6,2.6-4.5
				C300.1,373.7,299.5,376.4,298.1,378.9z"/>
			<ellipse fill="#FFFFFF" cx="264.4" cy="359.7" rx="2.8" ry="4.1"/>
		</g>
		<g id="眼睛_47_">
			<radialGradient id="SVGID_7_" cx="502.6734" cy="358.1066" r="37.8513" gradientUnits="userSpaceOnUse">
				<stop  offset="0" style="stop-color:#4D4D4D"/>
				<stop  offset="1" style="stop-color:#1A1A1A"/>
			</radialGradient>
			<ellipse fill="url(#SVGID_7_)" stroke="#000000" stroke-miterlimit="10" cx="502.7" cy="358.1" rx="30" ry="44.3"/>
			
				<radialGradient id="SVGID_8_" cx="509.9735" cy="358.1066" r="28.178" gradientTransform="matrix(0.9851 0 0 1 0.3083 0)" gradientUnits="userSpaceOnUse">
				<stop  offset="0" style="stop-color:#333333"/>
				<stop  offset="1" style="stop-color:#000000"/>
			</radialGradient>
			<ellipse fill="url(#SVGID_8_)" cx="502.7" cy="358.1" rx="22" ry="33"/>
			
				<ellipse transform="matrix(0.3609 -0.9326 0.9326 0.3609 -6.0616 681.3678)" fill="#F2F2F2" cx="494.1" cy="345.1" rx="7" ry="5.7"/>
			<ellipse cx="502.7" cy="358.1" rx="8" ry="13"/>
			<path fill="#FFFFFF" d="M519.1,378.9c-1.4,2.5-3.6,4.4-4.3,3.6c-0.8-0.8,0.9-0.9,2.7-4.4c1.9-3.5,1.5-4.6,2.6-4.5
				C521.1,373.7,520.5,376.4,519.1,378.9z"/>
			<ellipse fill="#FFFFFF" cx="485.4" cy="359.7" rx="2.8" ry="4.1"/>
		</g>
		<path d="M499.6,283.5c-24.5,0-40.8,1.1-56,15.8c-11.2,10.5-28.8,19.2-49.1,19.2c-20.3,0-40.3-8-50.5-17.6
			c-15.1-13.4-34.9-17-58.2-17c-45.8,0-82.9,32.2-82.9,72c0,39.8,29.1,68,74.9,68c39.5,0,80.6-20,88.9-52.2
			c2.8-10.7,11.9-13.7,22.9-14.9c0.1,0,3.3-0.2,5,0c11.4,1,21.1,4,24,15c8.5,31.9,41.4,55.7,80.8,55.7c63.4,0,80.8-48.7,80.8-88.5
			C580.4,299.3,545.4,283.5,499.6,283.5z M285.9,402c-23.3,0-51.6-18.8-51.6-46.1c0-27.3,23.9-45.9,51.6-45.9s51.6,18.7,51.6,45.9
			C337.5,383.1,309.2,402,285.9,402z M499.6,399.9c-28.5,0-51.6-17.1-51.6-44.4c0-27.3,23.1-46.4,51.6-46.4s51.6,6.6,51.6,33.8
			C551.2,370.3,528.1,399.9,499.6,399.9z"/>
	</g>
	<g id="嘴巴_8_">
		<path id="嘴巴_9_" fill="#FFFFFF" stroke="#000000" stroke-width="1.0614" stroke-miterlimit="10" d="M455,491
			c0,3.3-28.1,18.4-62.8,18.4s-62.8-15.1-62.8-18.4s28.1,3.4,62.8,3.4S455,487.7,455,491z"/>
		<g>
			<line fill="none" stroke="#000000" stroke-width="1.0614" stroke-miterlimit="10" x1="344.4" y1="491.1" x2="344.2" y2="498.9"/>
			<line fill="none" stroke="#000000" stroke-width="1.0614" stroke-miterlimit="10" x1="353.5" y1="492.2" x2="353.3" y2="501.1"/>
			<line fill="none" stroke="#000000" stroke-width="1.0614" stroke-miterlimit="10" x1="363.5" y1="493.1" x2="363.3" y2="503"/>
			<line fill="none" stroke="#000000" stroke-width="1.0614" stroke-miterlimit="10" x1="373.2" y1="493.9" x2="372.9" y2="504.4"/>
			<line fill="none" stroke="#000000" stroke-width="1.0614" stroke-miterlimit="10" x1="384" y1="494.8" x2="383.8" y2="504.7"/>
			<line fill="none" stroke="#000000" stroke-width="1.0614" stroke-miterlimit="10" x1="394" y1="494.8" x2="394.2" y2="505.5"/>
			<line fill="none" stroke="#000000" stroke-width="1.0614" stroke-miterlimit="10" x1="404.9" y1="494.8" x2="404.9" y2="504.4"/>
			<line fill="none" stroke="#000000" stroke-width="1.0614" stroke-miterlimit="10" x1="414" y1="493.7" x2="414.3" y2="503.4"/>
			<line fill="none" stroke="#000000" stroke-width="1.0614" stroke-miterlimit="10" x1="423.6" y1="492.9" x2="424" y2="501.9"/>
			<line fill="none" stroke="#000000" stroke-width="1.0614" stroke-miterlimit="10" x1="433" y1="491.9" x2="433" y2="500.2"/>
			<line fill="none" stroke="#000000" stroke-width="1.0614" stroke-miterlimit="10" x1="440.8" y1="491.1" x2="440.7" y2="498.3"/>
			<path fill="none" stroke="#000000" stroke-width="1.0614" stroke-miterlimit="10" d="M339.9,498.1c0,0,24.3,7.7,53,7
				c28.7-0.7,52.2-7.8,53.6-8"/>
		</g>
	</g>
	<g id="头发_12_">
		<path fill="#FFB5A8" stroke="#000000" stroke-width="1.4173" stroke-miterlimit="10" d="M364.8,196.7
			c-26.6-6.4-37.6-38.8-23.1-58.7c-3.2,16.8,9.8,36.2,37.8,33.6"/>
		<path fill="#EA969E" d="M340.5,141.2c0,0-1.2,8.3,0.4,14.6c2.3,8.7,10.2,15.5,10.2,15.5s-6.1,0.6-8.9-2.4c0.3,0.6,4.9,4.7,5.9,5.3
			c12.1,7.9,23.3,8.5,23.3,8.5s-8.9,1.1-14.9-0.6c6.7,4.3,21.7,4.9,21.7,4.9s-4.8,2.7-9.9,1.4c6.3,2.5,15.9,3.4,22.8,1.7l-14.4-17.4
			C371.2,173.3,340.9,171.3,340.5,141.2z"/>
		<path fill="#FFB5A8" stroke="#000000" stroke-width="1.4173" stroke-miterlimit="10" d="M445.2,180.1c-16.5-4.2-20.3-24.4-6-27.6
			c-14.9-3.3-21.7,16.3-17.7,21.8c-13.6-1-48-22.5-40.8-55.3c-13,15.5-24.8,68.8,30.3,77.7"/>
		<path fill="#EA969E" d="M400.3,184.9c-23.7-12-27.2-38.2-20.8-62.1c-4.5,32.1,32,54.1,47.5,53.1c-4-5.5-4.3-18,8.8-23
			c-10.9,5.4-7.1,23.8,9.3,28c0,0-7.1,0.9-18.1-5c0,1.1,15.7,9,15.7,9l-21.8-8.9l20.7,13.1l-15-3l6.8,5l-17.1-6.9l22.3,14.4
			L400.3,184.9z"/>
	</g>
	<g id="头巾">
		<path fill="#FF58FF" stroke="#000000" stroke-miterlimit="10" d="M407.6,195.8c0,0-3.9-18.3-1.2-20.7c2.7-2.4,30.3,12.9,36.3,14.7
			s33.2-3.5,33.2,1c0,4.5-38.8,24.5-48.5,26.5C417.6,219.3,407.6,195.8,407.6,195.8z"/>
		<path fill="#FF58FF" stroke="#000000" stroke-miterlimit="10" d="M337.4,235.1c0,0-10.6,5.4-19.9,12.2c-7.7,5.5-14.5,12-13.8,17
			c1.6,11.1,34.1-4.8,39.5-1.8c5.5,3.1,20,14.4,26.7,13.5c6.7-1,27.1-32.5,21.8-40.9C386.4,226.7,337.4,235.1,337.4,235.1z"/>
		<path fill="#B058DC" d="M354.5,236.2c0,0-19.2,8-38,12.4c10.9-8.6,32.2-18.8,32.2-18.8l41.5,17.5c0,0-3.4,7.6-7.8,14.4
			c-4.3,6.7-9.9,15.5-15.2,13.5c5,1.5,17.1-17.4,17.8-26c0.6-8.4-15.7-8.2-16.1-8.1c-4.7,0.7-9.3,8-11.4,11.5c0,2.6,2.2-7.9,2.8-9.9
			c-2.8,1.4-18,6.5-31.8,9.9C345.4,244.1,354.5,236.2,354.5,236.2z"/>
		<path fill="#B058DC" d="M427.4,215.2c0,0-9.9-2.8-9.8-3.2c1-3.8,4.7-12.3,6.8-15.8c0.6,3.1,0.1,10.3-0.5,12.3
			c2.8-1.4,15.6-8.7,29.4-12.1C436.5,204.9,427.4,215.2,427.4,215.2z"/>
		<path fill="#B058DC" d="M464,196.7l-42,21.6l7.2,0.2c0,0,49.1-24.9,45.9-28C469.8,193.9,464,196.7,464,196.7z"/>
		<path fill="#FF58FF" stroke="#000000" stroke-miterlimit="10" d="M545.2,190.6c0,0,49.3,69.5,25.6,86.7
			C537.7,289,376.7,249,342.3,233.2c14-6,39.8-14.3,67.5-18.5c40-6,77.3-14.6,84.2-14.9c2-0.1-13.1-6.8-17.3-8
			C494.3,185,535.3,182.2,545.2,190.6z"/>
		<path fill="#B058DC" d="M361.4,225.3c1.5-0.7,56.5-26.2,58-11.6c-4.2,2.5-15.1,3-24.2,4.8c-11.9,2.4-21.6,5.9-20.5,8.3
			c9.5,0,22.1-3,36.2-3.1c13.3,1-1.9,11.3,19.6,16.3c-22.7-3-49.1-9.3-61.7-12.6c-0.6-0.1-10.5,8.2,9.8,17.8
			c-11.3-2.9-32.9-10.9-35.3-12.2C342.3,230.9,359.2,226.4,361.4,225.3z"/>
		<path fill="#FF58FF" stroke="#000000" stroke-miterlimit="10" d="M237,191.1c-7.7,4.6-51.3,69.5-27.6,86.7
			c31.6,6.2,154.5-61.7,209.7-64.5c1.8-30.7-117.7-14.3-129.4-14.8c8.7-3.2,20.2-8.1,18-8.8C297.9,187.1,244.7,186.5,237,191.1z"/>
		<path fill="#B058DC" d="M478.3,191.7c12.5-4.3,50.6-6.6,57.1,1c2,2.9,4.2,5.8-8.6,5.8c-5.6,0-22.5,2.5-32,1.1
			C489.1,195.7,479.7,192.4,478.3,191.7z"/>
		<path fill="#B058DC" d="M307.2,190.1c-3-0.7-49.7-4.2-56.2,3.4c-2,2.9-4.9,7.2,7.8,7.2c6.1,0,18.3,0.8,28.4-1.8
			C295,196.2,306.4,191.3,307.2,190.1z"/>
		<path fill="#B058DC" d="M418.6,212.7c0.3-3.8-3.3-10.3-11.1-11.1c-18.6-2.1-51.6,7.1-56.2,12.5c23.5-7.3,33-6.1,44.3-6.1
			c5.6,2.8-19.2,8.8-45.3,18.6c-11.7,4.4-151,75.6-147.3,31.5c-1.1,8,2.1,16.8,6.8,19.2c12,3.1,55.1-12.8,95.9-29.2
			c23.4-9.4,47.4-18.9,79.6-28.9C392.7,217.1,409,213.1,418.6,212.7z"/>
		<path fill="#B058DC" d="M546,192.6c0,0-0.8,11.8,1.1,15.8c6.4,11.5,18,44.5,12.4,59.2c-5.7,14.7-116.4-5.1-116.4-5.1
			s103.2,24.5,126.2,15.2C592.3,268.3,556,205.4,546,192.6z"/>
		<path fill="#FF92FF" d="M261.5,189.2c0,0-16.4,4.9-11.1,10c3.9,3.7,37.9-0.8,73.4-2.6c30.2-1.6,42.4-3.1,70.8,1.8
			c-36.2-2.3-108.3,8.6-127.3,8c-21-0.7-42.4,7.5-51.3,16.6c-4.3,4.4-14.6,32.6,117.6,4.1C330.9,230.5,220,258,208.3,241
			c-3-4.3,21.9-42.5,26.4-47.8C238.6,188.4,261.5,189.2,261.5,189.2z"/>
		<path fill="#FF92FF" d="M368,225.9c2.1,0,85.1,20.6,117.4,19.8c-11.7,2.8-71.3-3.1-92-7.1c-20.7-4-25.4-4.4-27-6
			C364.8,231.1,365.6,225.9,368,225.9z"/>
		<path fill="#FF92FF" d="M538.4,197.3c-5.3,1.4-28.4,1.8-54.7,5.3c-22.6,3-47.8,9.1-62.9,11.3c6.3-1,43.8-0.8,64.5-4.8
			c20.7-4,37.8-5.1,39.4-6.7C526.2,200.9,540.6,196.7,538.4,197.3z"/>
	</g>
</g>
</svg>