<?xml version="1.0" encoding="utf-8"?>
<svg version="1.0" id="layer_1" xmlns="http://www.w3.org/2000/svg" xmlns:xlink="http://www.w3.org/1999/xlink" x="0px" y="0px" viewBox="0 0 800 800" enable-background="new 0 0 800 800" xml:space="preserve">
<g id="_x31__2_">
	<g id="身体_5_">
		<path fill="#FF96BE" stroke="#000000" stroke-width="1.4173" stroke-miterlimit="10" d="M291.3,599.9c0.9-16.5,4-26.1,6.4-31.4
			C293.8,577.2,292.1,589,291.3,599.9l-0.4,14.5c0,9.2,0.5,24.7,0.5,24.7l13.1,58.4l71.6,1.9l9.4-39.9c0,0,3.8,0.4,6.6,0.4
			c2.8,0,6.6-0.4,6.6-0.4l9.4,39.9l71.6-1.9l13.1-58.4c0,0,0.5-15.2,0.5-24.1c0,0-0.2-33.1-6.8-46.5c2.1,3.2,5.8,16.1,6.5,34.5
			l0.4,12c3.6,39.4,49.8,38.6,49.8-5c0-45.3-33.4-74.5-41.8-80c-15.2-10.7-43.5-17.3-43.5-17.3h-65.7H392h-65.7
			c0,0-28.3,6.6-43.5,17.3c-8.4,5.5-41.8,34.7-41.8,80c0,43.8,46.6,44.3,49.8,4.4L291.3,599.9z"/>
		<path opacity="0.1" fill="#FFD2BE" d="M437.7,576.5c-10.9-19-1-39.8-11.4-39.8c-10.4,0-14.2,9.4-33,9.4c-0.1,0-0.7,0-0.8,0
			c-18.8,0-22.6-9.4-33-9.4s-0.5,20.8-11.4,39.8c-22.8,39.7,5.8,74.2,42.6,74.2c0.8,0,3.7,0,4.4,0
			C431.9,650.8,460.5,616.2,437.7,576.5z"/>
		<path fill="#D264D2" d="M542.8,609.5c0,10.4-6.2,31.3-16,29.3c4.2-12,3.7-32.8,3.7-32.8c1.9-45.3-26.9-73.4-26.9-73.4
			C534.1,556.9,542.8,591.9,542.8,609.5z"/>
		<path fill="#D264D2" d="M274.7,616.1c0,5.8-1.1,21.3-7.7,26.7c11.5,0,18.5-11.9,19.9-14.8c3.3-7.1,3.3-18,3.3-18
			c-0.3-34.8,10.2-48.6,10.2-48.6C282,576.8,274.7,606.2,274.7,616.1z"/>
		<path fill="#D264D2" d="M459.6,514.5c-4.6-8.2-28.1-15.9-64-17c-13.9-0.4-69.1-2.1-64.6,6.1c4.9,8.9,20.3,23,61.8,26
			C428.7,532.2,465.3,524.7,459.6,514.5z"/>
		<path fill="#D264D2" d="M335,647.2c0,0,21.3,7.5,57,7.5s56.3-7.5,56.3-7.5s-22.2,12.3-55.9,12.3c-2.9,0-4.9-0.1-7.6-0.3l-9.2,39.1
			l-3.2-4c2.3-7.2,1.4-30.3-0.1-36.2C352.5,655.2,340.1,650.3,335,647.2z"/>
		<path fill="#D264D2" d="M493.4,633l-13.7,59.8l-5.5-1c1.4-4.1,8.4-36.4,12.4-61.3c2.6-37.6-1.1-65.5-1.1-65.5
			C493.8,592.7,494.5,622.4,493.4,633z"/>
	</g>
	<g id="衣服_3_">
		<g id="领带">
			<polygon fill="#FF8018" stroke="#000000" stroke-miterlimit="10" points="388.2,551.9 380.5,603.5 405.2,603.5 396.5,551.9 			
				"/>
			<polygon fill="#FF8018" stroke="#000000" stroke-miterlimit="10" points="383.7,542.8 387,553.6 397.9,553.6 402,542.8 			"/>
			<g>
				<defs>
					<polygon id="SVGID_46_" points="403.9,599.8 396.1,552.7 397.6,552.7 401.5,542.5 384.2,542.5 387.3,552.7 388.6,552.7 
						381.7,599.8 					"/>
				</defs>
				<clipPath id="SVGID_2_">
					<use xlink:href="#SVGID_46_"  overflow="visible"/>
				</clipPath>
				<g clip-path="url(#SVGID_2_)">
					<rect x="380.4" y="543" fill="#FF0000" width="23.7" height="0.5"/>
					<rect x="380.4" y="545.9" fill="#FF0000" width="23.7" height="0.5"/>
					<rect x="380.4" y="548.7" fill="#FF0000" width="23.7" height="0.5"/>
					<rect x="380.4" y="551.5" fill="#FF0000" width="23.7" height="0.5"/>
					<rect x="380.4" y="554.4" fill="#FF0000" width="23.7" height="0.5"/>
					<rect x="380.4" y="557.2" fill="#FF0000" width="23.7" height="0.5"/>
					<rect x="380.4" y="560.1" fill="#FF0000" width="23.7" height="0.5"/>
					<rect x="380.4" y="562.9" fill="#FF0000" width="23.7" height="0.5"/>
					<rect x="380.4" y="565.7" fill="#FF0000" width="23.7" height="0.5"/>
					<rect x="380.4" y="568.6" fill="#FF0000" width="23.7" height="0.5"/>
					<rect x="380.4" y="571.4" fill="#FF0000" width="23.7" height="0.5"/>
					<rect x="380.4" y="574.2" fill="#FF0000" width="23.7" height="0.5"/>
					<rect x="380.4" y="577.1" fill="#FF0000" width="23.7" height="0.5"/>
					<rect x="380.4" y="579.9" fill="#FF0000" width="23.7" height="0.5"/>
					<rect x="380.4" y="582.7" fill="#FF0000" width="23.7" height="0.5"/>
					<rect x="380.4" y="585.6" fill="#FF0000" width="23.7" height="0.5"/>
					<rect x="380.4" y="588.4" fill="#FF0000" width="23.7" height="0.5"/>
					<rect x="380.4" y="591.3" fill="#FF0000" width="23.7" height="0.5"/>
					<rect x="380.4" y="594.1" fill="#FF0000" width="23.7" height="0.5"/>
				</g>
			</g>
		</g>
		<g id="裤子_1_">
			<path fill="#490957" stroke="#000000" stroke-miterlimit="10" d="M291,639l13.1,58.4l71.6,1.9l9.4-39.9c0,0,3.8,0.4,6.6,0.4
				c2.8,0,6.6-0.4,6.6-0.4l9.4,39.9l71.6-1.9l13.1-58.4l1.2-15.6l-15.5-0.1l-188.3-1.6L291,639z"/>
			<polygon fill="#FF6C2B" points="483,625.2 471.3,699.3 476,699.3 488.3,625.2 			"/>
			<polygon fill="#FFD551" points="483.9,626.7 474,689.8 475.4,689.8 486.2,626.6 			"/>
			<polygon fill="#FF6C2B" points="300.5,625.2 312.3,699.3 307.5,699.3 295.3,625.2 			"/>
			<polygon fill="#FFD551" points="299.6,626.7 309.5,689.8 308.1,689.8 297.3,626.6 			"/>
			<path fill="#25052C" d="M335,647.2c0,0,21.3,7.5,57,7.5s56.3-7.5,56.3-7.5s-22.2,12.3-55.9,12.3c-2.9,0-4.9-0.1-7.6-0.3
				l-9.2,39.1l-3.2-4c2.3-7.2,1.4-30.3-0.1-36.2C352.5,655.2,340.1,650.3,335,647.2z"/>
			<path opacity="0.8" fill="#25052C" d="M495.3,621.6l-15.5,71.2h-2.7c1.4-4.1,7.1-42.6,11.2-67.5L495.3,621.6z"/>
		</g>
		<g id="上衣">
			<path fill="#8600A4" stroke="#000000" stroke-miterlimit="10" d="M316.9,511.2c-20.2,1.9-44.1,19.4-49.9,29.5
				c-0.6,1.1-11.9,14.2-18.1,29.7c-6.6,16.3-8.2,35-7.9,35.6c3-2.3,23.3-17.6,49.6-1.4c0.8-8.9,3.6-33.1,11.4-45.6
				c-10.5,18-12.4,49-11.7,64.3c3,3.7,31.4,24.7,101.4,24.7s101.9-24.7,101.9-24.7s3.5-41.7-10.3-64.3c7.9,11,10.3,36.7,11.2,45.7
				c13.7-11.7,41.7-7.7,48.6-1.2c0.6-0.7,0-16.3-6.2-30.8c-6.9-16.4-19.5-32-20.5-33.5c-6.1-9.6-26.6-24.4-45-28
				c-11.1-1.5-33.9,4.1-33.9,4.1L392,599.5l-44.6-84.2L316.9,511.2z"/>
			<path fill="#65007B" d="M482.9,559.3c10.9,31.6,4.9,67.2,4.9,67.2l5.2-2.8C493,623.7,496.9,583.2,482.9,559.3z"/>
			<path fill="#65007B" d="M301.5,559.3c-9.1,26.4-4,72.4-4.9,67.2l-5.2-2.8C291.4,623.7,287.5,583.2,301.5,559.3z"/>
			<g>
				<path fill="#FF6C2B" d="M471.3,514.1c0,0,30,10.8,46,32.2c15.6,20.9,19.5,52.5,19.5,52.5L530,597c0,0-6.7-36.7-20.2-52.1
					c-13.5-15.4-42-29.2-42-29.2L471.3,514.1z"/>
				<path fill="#FFD551" d="M470.3,514.5c0,0,29.7,11.4,45.7,32.8c15.6,20.9,18.8,50.9,18.8,50.9l-1.2-0.3c0,0-3.3-32.1-23-55.5
					c-13.2-15.6-41.3-27.5-41.3-27.5L470.3,514.5z"/>
			</g>
			<g>
				<path fill="#FF6C2B" d="M313.3,514.1c0,0-30,10.8-46,32.2c-15.6,20.9-19.5,52.5-19.5,52.5l6.8-1.8c0,0,6.7-36.7,20.2-52.1
					c13.5-15.4,42-29.2,42-29.2L313.3,514.1z"/>
				<path fill="#FFD551" d="M314.2,514.5c0,0-29.7,11.4-45.7,32.8c-15.6,20.9-18.8,50.9-18.8,50.9l1.2-0.3c0,0,3.3-32.1,23-55.5
					c13.2-15.6,41.3-27.5,41.3-27.5L314.2,514.5z"/>
			</g>
			<g>
				<path fill="#FFFFFF" stroke="#000000" stroke-miterlimit="10" d="M243.3,589.2c0,0-5.8,0-6,4.5c-0.1,2.8,1,5.7-0.2,6.6
					c-1.2,0.8,0.1,4.9,2.3,5.6c2.6,0.8,15.1-6.9,26-6c10.8,0.8,24.9,6.7,26.1,5.3c1.2-1.3,3-3.3,1.9-5.7s1.2-3.3,0-5.7
					c-1.2-2.4-17.1-6.6-29.1-6.8C252.3,586.8,243.3,589.2,243.3,589.2z"/>
				<path fill="#D3D2E0" d="M292.8,596.7c0,0-13.5-1-17.9-2.3c3,2,15.4,4.6,16.5,4.3c-1.7,3.9-9.1,2.2-25.1,0.3
					c-4.8-0.6-12.7,0.5-20,3.1c-7.3,2.6-8.9-0.3-8.9-1.4c-0.3,0.4-0.5,3.5,2.3,4.6c2.5,0.2,16.8-7.2,26.5-5.7
					c7.4,1.1,23.2,6.3,24.7,5.3c1.5-1,2.9-3.8,2.5-4.4C293,600,292.2,598,292.8,596.7z"/>
			</g>
			<g>
				<path fill="#FFFFFF" stroke="#000000" stroke-miterlimit="10" d="M542.2,589.2c0,0,5.8,0,6,4.5c0.1,2.8-1,5.7,0.2,6.6
					c1.2,0.8-0.1,4.9-2.3,5.6c-2.6,0.8-15.1-6.9-26-6c-10.8,0.8-24.9,6.7-26.1,5.3c-1.2-1.3-3-3.3-1.9-5.7c1-2.4-1.2-3.3,0-5.7
					c1.2-2.4,17.1-6.6,29.1-6.8C533.2,586.8,542.2,589.2,542.2,589.2z"/>
				<path fill="#D3D2E0" d="M492.7,596.7c0,0,13.5-1,17.9-2.3c-3,2-15.4,4.6-16.5,4.3c1.7,3.9,9.1,2.2,25.1,0.3
					c4.8-0.6,12.7,0.5,20,3.1c7.3,2.6,8.9-0.3,8.9-1.4c0.3,0.4,0.5,3.5-2.3,4.6c-2.5,0.2-16.8-7.2-26.5-5.7
					c-7.4,1.1-23.2,6.3-24.7,5.3c-1.5-1-2.9-3.8-2.5-4.4C492.5,600,493.3,598,492.7,596.7z"/>
			</g>
			<g id="领子">
				<path id="腰带_3_" fill="#65007B" d="M291.1,616.6c0,0,33,23.1,89.6,26.5c24.8,1.5,47.5-1.7,66.4-6.2
					c0.5-0.1,21.4-125.1,21.8-125.2c2.2-0.5,4.3-1.1,6.4-1.6c0.8-0.2-18.9,124.5-18.2,124.2c19.1-5.3,33.4-11.5,40.5-14.2
					c0,7.4,0,10.3,0,10.3s-45.5,24.1-114.7,22.3c-69.2-1.8-91.8-25.9-91.8-25.9V616.6z"/>
				<path id="腰带" stroke="#FFC265" stroke-miterlimit="10" d="M288.8,614.7c0,0,33,23.1,89.6,26.5c24.8,1.5,47.5-1.7,66.4-6.2
					c0.5-0.1,21.4-125.1,21.8-125.2c2.2-0.5,4.3-1.1,6.4-1.6c0.8-0.2-18.9,124.5-18.2,124.2c19.1-5.3,33.4-11.5,40.5-14.2
					c0,7.4,0,10.3,0,10.3s-45.5,24.1-114.7,22.3s-91.8-25.9-91.8-25.9V614.7z"/>
				<polygon fill="#FFFFFF" stroke="#000000" stroke-miterlimit="10" points="356.7,510.9 392.9,538.2 423.7,514.2 445.9,515.7 
					406.7,556.5 392.9,539 379.4,557.4 342.7,522.2 				"/>
				<polygon fill="#D3D2E0" points="352,508.9 381.1,530.2 358.1,523.1 367.9,544.9 338.1,520.2 				"/>
				<path fill="#65007B" d="M488.4,519c1.5,10.3-6.4,10.4-5,12.7c-4.2-1.2-6.5-0.5-9,1.3c-3,2.3-0.3,2-1.7,5.2
					c-1.3,3.2-10.4,2.7-11.4,3.8s0.7,8-3.3,11.7c-4,3.7-9,3.9-11,6.7c1.7,2.7,1.7,7.5,0,9.3c-0.3-3-6.7-0.8-8,1.3
					c-1.3,2.2,2.8,4.7,0,10c-2.8,5.3-5.8,1.3-7.5,4.5c5.2,0.5,3.3,9.8,2.5,11.3c-1.7-2.5-13.9,5.1-10.2,6.1c-5,0.5,1.8,6.7-0.2,9.5
					s-10.7,2.1-10.7,2.1s2.2,8.4,0.7,10.6c-1.5,2.2-9.2,9.8-12.2,10.8c3.8,1.4,7.2-0.5,9-0.4c1.7,1.9,4.6,4,9.4,3.3
					c-0.5,0.8-6.7,1.2-9.2,1.2c-6.9-0.2-18.3-2.6-18.3-2.6l-14.3-0.1l70.2-137.9C448.4,499.2,486.9,508.7,488.4,519z"/>
				<path fill="#FFFFFF" stroke="#000000" stroke-miterlimit="10" d="M293.6,507.3c-1.5,10.3,6.4,10.4,5,12.7c4.2-1.2,6.5-0.5,9,1.3
					c3,2.3,0,3.7,1.4,6.8c1.3,3.2,7.5,2.9,8.5,4s0.2,4.8,4.2,8.5c4,3.7,11.3,5.2,13.3,8c-1.7,2.7-1.7,7.5,0,9.3c0.3-3,6.7-0.8,8,1.3
					c1.3,2.2-2.8,4.7,0,10c2.8,5.3,11.3,3.9,13,7c-5.2,0.5-2.5,5.5-1.7,7c1.7-2.5,5.1,0,6.3,2.4c1.2,2.4-1,1.8,0,4.9
					c1,3.1,11.7,2.6,13.7,5.3c2,2.8,0,2.8,0,2.8s-1.5,1.3,0,3.4c1.5,2.2,7.2-1.7,9.3,0c2.1,1.7,5.7,4.5,5.7,4.5l2.7-7.2l-58.4-111.9
					C333.7,487.5,295.2,497,293.6,507.3z"/>
				<path fill="#D3D2E0" d="M327.8,493.1c0,0,4,19.6,7.2,25.9c3.3,6.3,22.7,25,24.6,31.5c1.9,6.5,0.8,15.6,9.1,22.8
					c8.3,7.2,23.4,30.2,23.4,30.2l0.7-0.8L336,493.1H327.8z"/>
				<path fill="#FFFFFF" stroke="#000000" stroke-miterlimit="10" d="M485.2,517.1c1.5,10.3-6.4,10.4-5,12.7c-4.2-1.2-6.5-0.5-9,1.3
					c-3,2.3,0,3.7-1.4,6.8c-1.3,3.2-7.5,2.9-8.5,4s-0.2,4.8-4.2,8.5c-4,3.7-11.3,5.2-13.3,8c1.7,2.7,1.7,7.5,0,9.3
					c-0.3-3-6.7-0.8-8,1.3c-1.3,2.2,2.8,4.7,0,10c-2.8,5.3-5.8,1.3-7.5,4.5c5.2,0.5,3.3,9.8,2.5,11.3c-1.7-2.5-13.9,5.1-10.2,6.1
					c-5,0.5,1.8,6.7-0.2,9.5c-2,2.8-10.7,2.1-10.7,2.1s2.2,8.4,0.7,10.6c-1.5,2.2-5.4,6.8-8.4,7.8c-5.2-6.6-6.9,2.7-1.6,4.9
					c-1.9,3-11.3-0.5-11.3-0.5l-14.3-0.1l70.2-137.9C445.2,497.3,483.7,506.8,485.2,517.1z"/>
				<path fill="#D3D2E0" d="M484.7,517c-0.3-2.2-2-3.7-4.8-5.7c1,1.1-6.2-4-12.7,1c-3.2,2.4,4.9,5.8,2.3,8.3c-4.2-1.2,1,5.7-1.5,7.5
					c-3,2.3-8.9,9.8-9.9,10.8s-2,7-6,10.6s-14.5,7-19.8,7.9c1.7,2.7,1.7,6.5,0.4,8.7c-0.3,0.5-4.4,8.5-7.4,7.2
					c-1.6,4.3,0.9,9.3-1.2,12.5c-3.1,4.7-6.3,2.7-6.7,3.4c-4.2,2-3.3,16.3,0.4,19.8c-2,2.8-8.6,3-8.6,3s1.3,7.1,0.6,8.6
					c-1.1,2.4-7.9,6.4-11,7.4c-1.4-0.1-5.1,4.2-2.7,6.3c-2.1,1.6-5.5-0.6-9-0.5s-11.2,0.9-11.2,0.9l13.4,0.4c0,0,8.8,2.4,10.4,0.8
					c-5.2-2.9-2.6-12.2,2.6-5.6c3-1,6.6-5.4,7.9-7.6c1.2-1.9-1-10.7-1-10.7s9,0.9,11-1.9c1.7-2.3-4.3-7.8-0.5-9.5
					c-1.2-2.4,9.6-8.5,11.3-6c0.8-1.5,2.7-10.8-2.5-11.3c1.7-3.1,4.6,0.9,7.5-4.5c2.8-5.3-1.3-7.8,0-10c1.3-2.2,7.7-4.3,8-1.3
					c1.7-1.8,1.7-6.7,0-9.3c2-2.8,9.3-4.3,13.3-8c4-3.7,3.2-7.4,4.2-8.5s7.2-0.8,8.5-4c1.3-3.2-1.6-4.6,1.4-6.8
					c2.4-1.8,4.2-3,8.4-1.8C479.5,526.8,486.1,526.7,484.7,517z"/>
				<path fill="#E0D9D9" stroke="#000000" stroke-miterlimit="10" d="M372,635.8v20.4h38.2v-20.4H372z M405.8,652h-29.3v-11.9h29.3
					V652z"/>
				<polygon fill="#ABAABE" points="394.3,636.3 394.3,639.6 406.3,639.6 406.3,652.4 394.3,652.4 394.3,655.7 409.7,655.7 
					409.7,636.3 				"/>
			</g>
		</g>
	</g>
	<g id="脚_6_">
		<g id="脚_2_">
			<path fill="#FFD2BE" stroke="#000000" stroke-width="1.4173" stroke-miterlimit="10" d="M381.8,706.4c0,9.4-18.8,11-43.7,11
				s-43.1,0.7-43.1-14.4c0-5.4,7.6-11.8,18.5-8.8c2.2-3.3,8.4-7.1,15.3-6.9c4.4,0.1,10.4,1.2,13.3,5.1c6-5.4,15-3.3,18.1,0.7
				C377.1,686.5,381.8,699,381.8,706.4z"/>
			<g>
				<path fill="#78D2BE" stroke="#000000" stroke-width="1.4173" stroke-miterlimit="10" d="M292.2,708.1c0,0-3.3,3.9,0,7.9
					c1.9,1.8,21.8,5,46.4,5c24.7,0,43.8-2.4,46.5-4.3c1.5-1.1,2.4-6.6-0.6-7.1s-28.7,2.4-46.4,2.4C320.5,712,293.4,709,292.2,708.1z
					"/>
				<path fill="#58D2BE" stroke="#000000" stroke-width="1.4173" stroke-miterlimit="10" d="M358.7,690.1
					c-0.3,0.9-0.1,21.1-0.1,21.1l5.2-0.4c0,0-0.1-19.2-0.6-20.8S359.5,687.7,358.7,690.1z"/>
				<path fill="#3CB4D8" d="M360.7,689.2c1.2,3.5,0.6,21.1,0.6,21.1l1.7-0.2c0,0,0.1-17.8-0.4-19.4
					C362.1,689,361.7,689.2,360.7,689.2z"/>
				<path fill="#3CB4D8" d="M385.9,713c-21.6,10.3-93.1,2.7-93.1,2.7c9.2,4.1,66.9,7.5,91.3,0.9C385.7,716.1,385.9,713.9,385.9,713z
					"/>
				<path fill="#E6A082" d="M342,693.5c0,0,4.2,4.6,2.1,15.3c2.2-2.2,2.8-14.4-0.6-16.4L342,693.5z"/>
				<path fill="#E6A082" d="M364.2,692.6c0,0,0.3,7.3,0.4,17.4c0.2-2.1,3.5-15.5,1-17.7L364.2,692.6z"/>
				<path fill="#E6A082" d="M313.9,694.7c0,0,3.7,2.2,3.2,12.7c1.3-3.7,1.7-11.8-1.8-13.9L313.9,694.7z"/>
			</g>
		</g>
		<g id="脚_7_">
			<path fill="#FFD2BE" stroke="#000000" stroke-width="1.4173" stroke-miterlimit="10" d="M399.5,706.4c0,9.4,18.8,11,43.7,11
				s43.1,0.7,43.1-14.4c0-5.4-7.6-11.8-18.5-8.8c-2.2-3.3-8.4-7.1-15.3-6.9c-4.4,0.1-10.4,1.2-13.3,5.1c-6-5.4-15-3.3-18.1,0.7
				C404.2,686.5,399.5,699,399.5,706.4z"/>
			<g>
				<path fill="#78D2BE" stroke="#000000" stroke-width="1.4173" stroke-miterlimit="10" d="M489.1,708.1c0,0,3.3,3.9,0,7.9
					c-1.9,1.8-21.8,5-46.4,5s-43.8-2.4-46.5-4.3c-1.5-1.1-2.4-6.6,0.6-7.1s28.7,2.4,46.4,2.4C460.9,712,487.9,709,489.1,708.1z"/>
				<path fill="#58D2BE" stroke="#000000" stroke-width="1.4173" stroke-miterlimit="10" d="M422.6,690.1c0.3,0.9,0.1,21.1,0.1,21.1
					l-5.2-0.4c0,0,0.1-19.2,0.6-20.8C418.6,688.4,421.9,687.7,422.6,690.1z"/>
				<path fill="#3CB4D8" d="M420.6,689.2c-1.2,3.5-0.6,21.1-0.6,21.1l-1.7-0.2c0,0-0.1-17.8,0.4-19.4S419.6,689.2,420.6,689.2z"/>
				<path fill="#3CB4D8" d="M395.5,713c21.6,10.3,93.1,2.7,93.1,2.7c-9.2,4.1-66.9,7.5-91.3,0.9C395.6,716.1,395.4,713.9,395.5,713z
					"/>
				<path fill="#E6A082" d="M439.3,693.5c0,0-4.2,4.6-2.1,15.3c-2.2-2.2-2.8-14.4,0.6-16.4L439.3,693.5z"/>
				<path fill="#E6A082" d="M417.1,692.6c0,0-0.3,7.3-0.4,17.4c-0.2-2.1-3.5-15.5-1-17.7L417.1,692.6z"/>
				<path fill="#E6A082" d="M467.4,694.7c0,0-3.7,2.2-3.2,12.7c-1.3-3.7-1.7-11.8,1.8-13.9L467.4,694.7z"/>
			</g>
		</g>
	</g>
	<g id="手_47_">
		<g id="手_49_">
			<g id="左手_34_">
				<path fill="#FFD2BE" stroke="#000000" stroke-width="1.4173" stroke-miterlimit="10" d="M497.2,632.8
					c-3.6,16.8,3.9,27.2,20.5,27.2c16.6,0,29-17.2,29-32.7c0-15.5-10.2-28.6-26.8-28.6c-12.7,0-19.4,3.8-25.4,14.1
					C490.7,619.7,498,629.3,497.2,632.8z"/>
				<path fill="#FFD2BE" stroke="#000000" stroke-width="1.4173" stroke-miterlimit="10" d="M513.9,627.5
					c-1.5,13-12.7,16.2-19.6,11.8c-6.1-3.8-9.1-14.5,0-25.9"/>
			</g>
			<path fill="#E6A082" d="M513.9,618.2c0,0,0,22.3-21,19C501.5,645.9,518.7,636.7,513.9,618.2z"/>
			<path fill="#E6A082" d="M509.8,638.2c0,0-3.7,4.8-12.5,3.3C496.4,651.7,509.4,643.2,509.8,638.2z"/>
			<path fill="#E6A082" d="M537.9,606.6c2.8,5.9,5.8,23.3-2.8,37c-6,9.5-11.9,15.1-21.2,15.5c16.1,2.1,24.9-10.8,27.2-14.6
				C546.7,635.9,549.6,618.5,537.9,606.6z"/>
		</g>
		<g id="手_48_">
			<g id="左手_33_">
				<path fill="#FFD2BE" stroke="#000000" stroke-width="1.4173" stroke-miterlimit="10" d="M287.2,632.8
					c3.6,16.8-3.9,27.2-20.5,27.2s-29-17.2-29-32.7c0-15.5,10.2-28.6,26.8-28.6c12.7,0,19.4,3.8,25.4,14.1
					C293.8,619.7,286.4,629.3,287.2,632.8z"/>
				<path fill="#FFD2BE" stroke="#000000" stroke-width="1.4173" stroke-miterlimit="10" d="M270.5,627.5
					c1.5,13,12.8,16.2,19.6,11.8c6.1-3.8,9.1-14.5,0-25.9"/>
			</g>
			<path fill="#E6A082" d="M291.4,616.4c1.5,2.4,2.9,11.3-0.7,17.3c-1.8,3-7.3,6.4-12.2,5.5c6.1,3.2,12.8,0.3,15.3-5.2
				C297.3,626.6,292.9,618.2,291.4,616.4z"/>
			<path fill="#E6A082" d="M272.3,621.6c-8,10.9,4.5,21.2,2.9,28.4c-0.8,3.5-5.9,10.4-15,8.3c7.4,2.5,19.4,0.3,23.5-5.7
				c1.1-1.6,3.4-4.2,3.7-11.2C276.6,644.1,266.1,632.9,272.3,621.6z"/>
		</g>
		<g id="手套_3_">
			<path fill="#963600" stroke="#000000" stroke-miterlimit="10" d="M270.6,627c3.6,16.8-24.3,13.5-26.8,19.6
				c-3.9-5.8-6.1-12.7-6.1-19.2c0-15.5,10.2-28.6,26.8-28.6c12.7,0,19.4,3.8,25.4,14.1C278.6,611.9,269.8,623.5,270.6,627z"/>
			<path fill="#5E2814" d="M269.4,617.2c0,0-0.2,3.8,1.3,6.6c-0.6,1.3-0.8,2.7-0.8,2.7S267.4,621,269.4,617.2z"/>
			<path fill="#963600" stroke="#000000" stroke-miterlimit="10" d="M514.8,627.3c-3.6,16.8,22.7,25.5,27.7,16.3
				c2.7-5.1,4.3-10.8,4.3-16.2c0-15.5-10.2-28.6-26.8-28.6c-12.7,0-19.4,3.8-25.4,14.1C502.9,612.7,515.5,623.8,514.8,627.3z"/>
			<path fill="#5E2814" d="M537.9,606.6c2.8,5.9,3.7,26.2-4.9,39.9c1.9,0.1,6.9-0.2,8-2C546.7,635.9,549.6,618.5,537.9,606.6z"/>
			<path fill="#5E2814" d="M515.2,626.1c0,0,0.9-7.2,0.3-10.8c-0.6,4.4-1.9,7.9-1.9,7.9S515,624.9,515.2,626.1z"/>
		</g>
	</g>
	<g id="耳朵_8_">
		<g id="耳朵_25_">
			<path fill="#FFCDAD" stroke="#000000" stroke-width="1.4173" stroke-miterlimit="10" d="M340.9,204.1
				c-4.2-24.9-60.1-92.9-138.2-48.3c-54.6,31.9-53.8,113.9,4.8,166.6L340.9,204.1z"/>
			<path fill="#E4B27A" d="M254,141c43,6.6,70.9,44.8,73.8,62.1l13,1C337.6,185.1,304.3,141,254,141z"/>
			<path fill="#FF9A5C" d="M228.6,273.5c-5-0.4-41.5-52.2-2-77.4c38.8-24.8,76.6,15.4,76,22.4L228.6,273.5z"/>
		</g>
		<g id="耳朵_12_">
			<path fill="#FFCDAD" stroke="#000000" stroke-width="1.4173" stroke-miterlimit="10" d="M440.6,204.1
				c4.2-24.9,60.1-92.9,138.2-48.3c54.6,31.9,53.8,113.9-4.8,166.6L440.6,204.1z"/>
			<path fill="#E4B27A" d="M578.8,155.8c-1.1-0.6-2.2-1.2-3.3-1.8c45.7,34.7,42.6,109.7-11.4,159.6l9.9,8.7
				C632.6,269.7,633.4,187.7,578.8,155.8z"/>
			<path fill="#FF9A5C" d="M552.8,273.5c5-0.4,41.5-52.2,2-77.4c-38.8-24.8-76.6,15.4-76,22.4L552.8,273.5z"/>
		</g>
	</g>
	<g id="面部_19_">
		<path id="面部_20_" fill="#FFDCD0" stroke="#000000" stroke-width="1.4173" stroke-miterlimit="10" d="M214.3,278.3
			c11.2-30.5,46.9-77.2,129.7-100c36.3-10,61.8-8.8,96.6,0.5c41.8,11.2,105.2,42.4,128.8,98.9c11.7,28,11.7,87.7,11.7,87.7
			s23.3,12,23.3,49.3c0,32.5-52.7,87.4-157.3,100.9c-15.4,2-29.3,11.1-53.3,11.1s-38-9.3-54.8-11.6C236.1,501,179,448.5,179,414.7
			c0-34.2,25.5-48.8,25.5-48.8S201,314.7,214.3,278.3z"/>
		<path fill="#EEB6A0" d="M532.7,227.5c34.8,34.5,46.6,60.2,47.7,138.2c0,0-7.3,1.1-13.4,5.4C573.9,347.5,572.5,271,532.7,227.5z"/>
		<path fill="#EEB6A0" d="M267,496.2c18.9,9.2,64.8,17.7,77.4,19.2c6.4,1.4,29.4,10.5,47,10.5s30.2-3.9,46.7-9.6
			c29.3-2.6,80.2-15.3,104.8-31c-30.3,13.1-68.9,21.4-97.6,25.7c3.7-3.3,8.2-5.9,11.8-11.9c-15.7,13.9-34.1,19.9-61.5,20.6
			C384.7,519.9,312,509.5,267,496.2z"/>
	</g>
	<g id="鼻子_9_">
		<ellipse fill="#FFBECC" stroke="#000000" stroke-width="1.4173" stroke-miterlimit="10" cx="391.3" cy="421.3" rx="90" ry="59"/>
		<path fill="#E6A082" d="M392,467.5c-28.1,1.3-47.3-1.5-68.3-8.4c6.1,6,32.9,20.6,67.2,20.6c48.4,0,89.7-24.6,89.7-58.4
			C475.8,438.2,445.9,465,392,467.5z"/>
		<g id="鼻子_10_">
			<path fill="#69301B" stroke="#000000" stroke-miterlimit="10" d="M404.4,385.7c-5.2,0-8,2.3-13.5,2.4c-5.5-0.1-8.3-2.4-13.5-2.4
				c-10,0-18.5,8.3-18.5,15.5c0,7.3,6.2,16.9,19.6,18.3c3.1,0.3,22,0.4,24.7,0c13.3-2,19.6-11,19.6-18.3
				C422.9,394,414.4,385.7,404.4,385.7z"/>
			<path fill="#3F1000" d="M420.8,406c0,4.5-6.4,10.1-14,12.3c-4.9,1.4-10,1-16.5,1c-5.7,0-10.3,0.4-14.8-0.7
				c-8.7-2.1-14.9-8.3-14.9-12.6c0-6.6,13.4-9,30-9S420.8,399.3,420.8,406z"/>
		</g>
	</g>
	<g id="眼睛_46_">
		<linearGradient id="SVGID_3_" gradientUnits="userSpaceOnUse" x1="448.5415" y1="351.7919" x2="532.2632" y2="351.7919">
			<stop  offset="0" style="stop-color:#269E96"/>
			<stop  offset="1" style="stop-color:#32D2C8"/>
		</linearGradient>
		<path fill="url(#SVGID_3_)" d="M524.7,326.7c17.5,42.8,2.8,76.1-24.6,76.1s-47.7-28.8-50.6-44.6c-4-20.6,4.9-42.7,20.5-51.1
			C489.5,296.5,512.7,297.3,524.7,326.7z"/>
		<linearGradient id="SVGID_4_" gradientUnits="userSpaceOnUse" x1="237.0114" y1="334.1588" x2="297.4662" y2="365.2986">
			<stop  offset="0" style="stop-color:#269E96"/>
			<stop  offset="1" style="stop-color:#32D2C8"/>
		</linearGradient>
		<path fill="url(#SVGID_4_)" d="M304.6,326.7c20.7,41.4-1.1,75.1-24.6,76.1c-18.5,0.8-31.7-19.4-34.5-35.2
			c-4-20.6,0.4-34.5,11-48.8C264.4,308,291.7,300.7,304.6,326.7z"/>
		<g id="眼睛_48_">
			<radialGradient id="SVGID_5_" cx="281.6733" cy="358.1066" r="37.8513" gradientUnits="userSpaceOnUse">
				<stop  offset="0" style="stop-color:#4D4D4D"/>
				<stop  offset="1" style="stop-color:#1A1A1A"/>
			</radialGradient>
			<ellipse fill="url(#SVGID_5_)" stroke="#000000" stroke-miterlimit="10" cx="281.7" cy="358.1" rx="30" ry="44.3"/>
			
				<radialGradient id="SVGID_6_" cx="285.6263" cy="358.1066" r="28.178" gradientTransform="matrix(0.9851 0 0 1 0.3083 0)" gradientUnits="userSpaceOnUse">
				<stop  offset="0" style="stop-color:#333333"/>
				<stop  offset="1" style="stop-color:#000000"/>
			</radialGradient>
			<ellipse fill="url(#SVGID_6_)" cx="281.7" cy="358.1" rx="22" ry="33"/>
			
				<ellipse transform="matrix(0.3609 -0.9326 0.9326 0.3609 -147.2983 475.2638)" fill="#F2F2F2" cx="273.1" cy="345.1" rx="7" ry="5.7"/>
			<ellipse cx="281.7" cy="358.1" rx="8" ry="13"/>
			<path fill="#FFFFFF" d="M298.1,378.9c-1.4,2.5-3.6,4.4-4.3,3.6c-0.8-0.8,0.9-0.9,2.7-4.4c1.9-3.5,1.5-4.6,2.6-4.5
				C300.1,373.7,299.5,376.4,298.1,378.9z"/>
			<ellipse fill="#FFFFFF" cx="264.4" cy="359.7" rx="2.8" ry="4.1"/>
		</g>
		<g id="眼睛_47_">
			<radialGradient id="SVGID_7_" cx="502.6734" cy="358.1066" r="37.8513" gradientUnits="userSpaceOnUse">
				<stop  offset="0" style="stop-color:#4D4D4D"/>
				<stop  offset="1" style="stop-color:#1A1A1A"/>
			</radialGradient>
			<ellipse fill="url(#SVGID_7_)" stroke="#000000" stroke-miterlimit="10" cx="502.7" cy="358.1" rx="30" ry="44.3"/>
			
				<radialGradient id="SVGID_8_" cx="509.9735" cy="358.1066" r="28.178" gradientTransform="matrix(0.9851 0 0 1 0.3083 0)" gradientUnits="userSpaceOnUse">
				<stop  offset="0" style="stop-color:#333333"/>
				<stop  offset="1" style="stop-color:#000000"/>
			</radialGradient>
			<ellipse fill="url(#SVGID_8_)" cx="502.7" cy="358.1" rx="22" ry="33"/>
			
				<ellipse transform="matrix(0.3609 -0.9326 0.9326 0.3609 -6.0616 681.3678)" fill="#F2F2F2" cx="494.1" cy="345.1" rx="7" ry="5.7"/>
			<ellipse cx="502.7" cy="358.1" rx="8" ry="13"/>
			<path fill="#FFFFFF" d="M519.1,378.9c-1.4,2.5-3.6,4.4-4.3,3.6c-0.8-0.8,0.9-0.9,2.7-4.4c1.9-3.5,1.5-4.6,2.6-4.5
				C521.1,373.7,520.5,376.4,519.1,378.9z"/>
			<ellipse fill="#FFFFFF" cx="485.4" cy="359.7" rx="2.8" ry="4.1"/>
		</g>
		<path d="M499.6,283.5c-24.5,0-40.8,1.1-56,15.8c-11.2,10.5-28.8,19.2-49.1,19.2c-20.3,0-40.3-8-50.5-17.6
			c-15.1-13.4-34.9-17-58.2-17c-45.8,0-82.9,32.2-82.9,72c0,39.8,29.1,68,74.9,68c39.5,0,80.6-20,88.9-52.2
			c2.8-10.7,11.9-13.7,22.9-14.9c0.1,0,3.3-0.2,5,0c11.4,1,21.1,4,24,15c8.5,31.9,41.4,55.7,80.8,55.7c63.4,0,80.8-48.7,80.8-88.5
			C580.4,299.3,545.4,283.5,499.6,283.5z M285.9,402c-23.3,0-51.6-18.8-51.6-46.1c0-27.3,23.9-45.9,51.6-45.9s51.6,18.7,51.6,45.9
			C337.5,383.1,309.2,402,285.9,402z M499.6,399.9c-28.5,0-51.6-17.1-51.6-44.4c0-27.3,23.1-46.4,51.6-46.4s51.6,6.6,51.6,33.8
			C551.2,370.3,528.1,399.9,499.6,399.9z"/>
	</g>

	<g id="头发_1_">
		<path d="M480.6,221.5c0,0-38.5,22.2-113.4,45.5c10.5-5.8,37.9-19.8,44.7-29.3c-26.5,19.2-71.5,33.5-88,34c13.3-2,76-34.3,88-50.5
			c-15.5,10.3-59.3,43.3-122.3,55.3c-24.9,4.7-63.8,5.8-81.4,24.4c0-39.4,45.9-105.5,118.2-127.2c2.8-0.8,16.3-3.9,19.1-4.6
			c-7.8-2.5-4.2-16.4,0-16.4c-1.8,7.3,9.3,12.7,17.5,13c48.4-8.6,91.5-2.1,116.1,10.7c9,4.7,8.8,7,9.4,11.6c6-5.3,22-13.3,30-8.7
			c-14.2-1.4-18.6,13.5-13.2,16.3c20.2,10.3,64.2,50.7,72.8,103.8C532.5,307.6,478.4,244.3,480.6,221.5z"/>
		<path fill="#999999" d="M338.7,178c0,0-16.3,0.3-45.1,17.3c-28.8,17-44.1,36.3-44.1,36.3l21.2-13.9L230,260.4l43.2-32.9
			l-13.4,16.2l75.5-34.4l-25.8,24.4l39.4-20.1l-16.2,19.2l49.9-19.2l-18.8,17.9l50.1-28.4l-50.7,8.5l25.7-20.3L353.2,203l14.7-12.7
			L321,203.1l22.5-17.5L314.5,196L338.7,178z"/>
		<polygon fill="#999999" points="490.3,224 532.3,278.3 509.9,254.6 509.2,262 		"/>
	</g>
</g>
</svg>