<?xml version="1.0" encoding="utf-8"?>
<svg version="1.0" id="layer_1" xmlns="http://www.w3.org/2000/svg" xmlns:xlink="http://www.w3.org/1999/xlink" x="0px" y="0px" viewBox="0 0 800 800" enable-background="new 0 0 800 800" xml:space="preserve">
<g id="_x31__2_">
	<g id="身体_18_">
		<path fill="#C87A4A" stroke="#000000" stroke-width="1.4173" stroke-miterlimit="10" d="M291.3,599.9c0.9-16.5,4-26.1,6.4-31.4
			C293.8,577.2,292.1,589,291.3,599.9l-0.4,14.5c0,9.2,0.5,24.7,0.5,24.7l13.1,58.4l71.6,1.9l9.4-39.9c0,0,3.8,0.4,6.6,0.4
			c2.8,0,6.6-0.4,6.6-0.4l9.4,39.9l71.6-1.9l13.1-58.4c0,0,0.5-15.2,0.5-24.1c0,0-0.2-33.1-6.8-46.5c2.1,3.2,5.8,16.1,6.5,34.5
			l0.4,12c3.6,39.4,49.8,38.6,49.8-5c0-45.3-33.4-74.5-41.8-80c-15.2-10.7-43.5-17.3-43.5-17.3h-65.7H392h-65.7
			c0,0-28.3,6.6-43.5,17.3c-8.4,5.5-41.8,34.7-41.8,80c0,43.8,46.6,44.3,49.8,4.4L291.3,599.9z"/>
		<path opacity="0.1" fill="#FFD2BE" d="M437.7,576.5c-10.9-19-1-39.8-11.4-39.8c-10.4,0-14.2,9.4-33,9.4c-0.1,0-0.7,0-0.8,0
			c-18.8,0-22.6-9.4-33-9.4s-0.5,20.8-11.4,39.8c-22.8,39.7,5.8,74.2,42.6,74.2c0.8,0,3.7,0,4.4,0
			C431.9,650.8,460.5,616.2,437.7,576.5z"/>
		<path fill="#AA5834" d="M335,647.2c0,0,21.3,7.5,57,7.5s56.3-7.5,56.3-7.5s-22.2,12.3-55.9,12.3c-2.9,0-4.9-0.1-7.6-0.3l-9.2,39.1
			l-3.2-4c2.3-7.2,1.4-30.3-0.1-36.2C352.5,655.2,340.1,650.3,335,647.2z"/>
		<path fill="#AA5834" d="M493.4,633l-13.7,59.8l-5.5-1c1.4-4.1,8.4-36.4,12.4-61.3c2.6-37.6-1.1-65.5-1.1-65.5
			C493.8,592.7,494.5,622.4,493.4,633z"/>
		<path fill="#AA5834" d="M542.8,609.5c0,10.4-6.2,31.3-16,29.3c4.2-12,3.7-32.8,3.7-32.8c1.9-45.3-26.9-73.4-26.9-73.4
			C534.1,556.9,542.8,591.9,542.8,609.5z"/>
		<path fill="#AA5834" d="M274.7,616.1c0,5.8-1.1,21.3-7.7,26.7c11.5,0,18.5-11.9,19.9-14.8c3.3-7.1,3.3-18,3.3-18
			c-0.3-34.8,10.2-48.6,10.2-48.6C282,576.8,274.7,606.2,274.7,616.1z"/>
		<path fill="#AA5834" d="M459.6,514.5c-4.6-8.2-28.1-15.9-64-17c-13.9-0.4-69.1-2.1-64.6,6.1c4.9,8.9,20.3,23,61.8,26
			C428.7,532.2,465.3,524.7,459.6,514.5z"/>
	</g>
	<g id="衣服_17_">
		<path fill="#DCA46E" stroke="#000000" stroke-width="1.4173" stroke-miterlimit="10" d="M316.9,511.2
			c-24.6,2.3-54.5,27.6-50.9,34.8c4.5-3.4,31.2,0.6,36,13c-10.5,18-12.4,49-11.7,64.3c3,3.7,31.8,61.5,101.8,61.5
			s101.5-61.5,101.5-61.5s3.5-41.7-10.3-64.3c1.5-6.7,26.2-16.5,34.2-13c5.4-6.4-22.2-30.1-46.1-34.8c-11.1-1.5-28.2,4.1-28.2,4.1
			c-1.8,8.8-17.2,19.6-32.4,24.1c-1.7,0.5-5.9,2.2-5.9,2.2s-10.9-0.2-12.9-0.5c-17.1-2.2-38.3-13.8-44.6-25.8L316.9,511.2z"/>
		<g>
			<defs>
				<path id="SVGID_9_" d="M316.9,511.2c-24.6,2.3-54.5,27.6-50.9,34.8c4.5-3.4,31.2,0.6,36,13c-10.5,18-12.4,49-11.7,64.3
					c3,3.7,31.8,61.5,101.8,61.5s101.5-61.5,101.5-61.5s3.5-41.7-10.3-64.3c1.5-6.7,26.2-16.5,34.2-13c5.4-6.4-22.2-30.1-46.1-34.8
					c-11.1-1.5-28.2,4.1-28.2,4.1c-2.4,11.4-27.6,26.2-45.4,26.2s-43.2-12.8-50.3-26.2L316.9,511.2z"/>
			</defs>
			<clipPath id="SVGID_2_">
				<use xlink:href="#SVGID_9_"  overflow="visible"/>
			</clipPath>
			<g clip-path="url(#SVGID_2_)">
				<polygon fill="#FFFF00" points="352.5,577 349,579.5 345.5,577 346,581.3 342,583 346,584.8 345.5,589 349,586.5 352.5,589 
					352,584.7 356,583 352,581.3 				"/>
				<polygon fill="#FFFF00" points="316,531.9 320,533.7 319.5,538 323,535.4 326.5,538 326,533.7 330,531.9 326,530.2 326.5,525.9 
					323,528.4 319.5,525.9 320,530.2 				"/>
				<polygon fill="#FFFF00" points="294,525.9 298,524.1 294,522.4 294.5,518.1 291,520.6 287.5,518.1 288,522.4 284,524.1 
					288,525.9 287.5,530.2 291,527.6 294.5,530.2 				"/>
				<polygon fill="#FFFF00" points="309,514.4 308.5,518.7 312,516.1 315.5,518.6 315,514.3 319,512.6 315,510.9 315.5,506.6 
					312,509.1 308.5,506.6 309,510.9 305,512.6 				"/>
				<polygon fill="#FFFF00" points="314.3,554.1 310.3,552.4 310.8,548.1 307.3,550.6 303.8,548.1 304.3,552.4 300.3,554.1 
					304.3,555.9 303.8,560.2 307.3,557.6 310.8,560.1 310.3,555.8 				"/>
				<polygon fill="#FFFF00" points="324.3,581.7 328.2,579.9 324.3,578.2 324.7,573.9 321.3,576.5 317.8,573.9 318.2,578.2 
					314.3,580 318.2,581.7 317.8,586 321.3,583.4 324.8,586 				"/>
				<polygon fill="#FFFF00" points="339.9,558.9 343.4,561.5 342.9,557.2 346.8,555.4 342.9,553.7 343.3,549.4 339.8,552 
					336.4,549.4 336.8,553.7 332.9,555.5 336.8,557.2 336.4,561.5 				"/>
				<polygon fill="#FFFF00" points="384.3,574.9 380.4,573.2 380.8,568.9 377.3,571.5 373.9,568.9 374.3,573.2 370.4,575 
					374.3,576.7 373.9,581 377.4,578.4 380.9,581 380.4,576.7 				"/>
				<polygon fill="#FFFF00" points="388.3,560.1 387.9,564.4 391.3,561.8 394.8,564.4 394.4,560.1 398.3,558.3 394.4,556.6 
					394.8,552.3 391.3,554.8 387.8,552.3 388.3,556.6 384.4,558.3 				"/>
				<polygon fill="#FFFF00" points="421.9,569.2 422.3,564.9 418.8,567.5 415.3,564.9 415.8,569.2 411.9,571 415.8,572.7 415.4,577 
					418.8,574.4 422.3,577 421.9,572.7 425.8,570.9 				"/>
				<polygon fill="#FFFF00" points="398.3,591.6 394.8,589.1 395.3,593.4 391.3,595.1 395.3,596.8 394.8,601.1 398.3,598.6 
					401.8,601.1 401.3,596.8 405.3,595.1 401.3,593.3 401.8,589 				"/>
				<polygon fill="#FFFF00" points="371.5,619.8 372,615.5 368.5,618.1 365,615.5 365.5,619.8 361.5,621.6 365.5,623.3 365,627.6 
					368.5,625 372,627.6 371.5,623.3 375.5,621.5 				"/>
				<polygon fill="#FFFF00" points="332,614.6 332.5,610.3 329,612.9 325.5,610.4 326,614.6 322,616.4 326,618.1 325.5,622.4 
					329,619.9 332.5,622.4 332,618.1 336,616.4 				"/>
				<polygon fill="#FFFF00" points="438.8,620.7 439.3,616.4 435.8,618.9 432.3,616.4 432.8,620.7 428.8,622.4 432.8,624.2 
					432.3,628.5 435.8,625.9 439.3,628.5 438.8,624.2 442.8,622.4 				"/>
				<polygon fill="#FFFF00" points="461.5,590.3 462,586 458.5,588.5 455,586 455.5,590.3 451.5,592.1 455.5,593.8 455,598.1 
					458.5,595.5 462,598.1 461.5,593.8 465.5,592 				"/>
				<polygon fill="#FFFF00" points="464.5,546.2 461,548.8 457.5,546.2 458,550.5 454,552.3 458,554 457.5,558.3 461,555.8 
					464.5,558.3 464,554 468,552.3 464,550.5 				"/>
				<polygon fill="#FFFF00" points="482.3,523.9 481.9,528.2 485.4,525.6 488.8,528.2 488.4,523.9 492.3,522.1 488.4,520.4 
					488.8,516.1 485.3,518.6 481.8,516.1 482.3,520.4 478.4,522.1 				"/>
				<polygon fill="#FFFF00" points="493.2,607.3 489.2,605.6 489.7,601.3 486.2,603.8 482.7,601.3 483.2,605.6 479.2,607.3 
					483.2,609.1 482.7,613.4 486.2,610.8 489.7,613.4 489.2,609.1 				"/>
				<polygon fill="#FFFF00" points="454.5,639.4 455,635.1 451.5,637.7 448,635.1 448.5,639.4 444.5,641.2 448.5,642.9 448,647.2 
					451.5,644.6 455,647.2 454.5,642.9 458.5,641.1 				"/>
				<polygon fill="#FFFF00" points="393.2,657.6 393.6,653.3 390.1,655.8 386.6,653.3 387.1,657.6 383.2,659.3 387.1,661.1 
					386.7,665.4 390.1,662.8 393.6,665.4 393.2,661.1 397.1,659.3 				"/>
				<polygon fill="#FFFF00" points="408.3,627.6 408.8,623.3 405.3,625.9 401.8,623.3 402.3,627.6 398.3,629.4 402.3,631.1 
					401.8,635.4 405.3,632.9 408.8,635.4 408.3,631.1 412.3,629.4 				"/>
				<polygon fill="#FFFF00" points="349.8,645.5 350.3,641.2 346.8,643.8 343.3,641.2 343.8,645.5 339.9,647.3 343.8,649 
					343.4,653.3 346.8,650.7 350.3,653.3 349.9,649 353.8,647.2 				"/>
				<polygon fill="#FFFF00" points="303.3,587.3 303.8,583 300.3,585.6 296.8,583 297.3,587.3 293.4,589.1 297.3,590.8 296.9,595.1 
					300.3,592.5 303.8,595.1 303.4,590.8 307.3,589 				"/>
			</g>
		</g>
		<g>
			<path fill="#FFD88E" stroke="#000000" stroke-width="1.4173" stroke-miterlimit="10" d="M393.6,672.7c-70,0-98.8-60.9-101.8-64.5
				c-0.1-2.2-0.1-4.8-0.1-7.6c-0.8,8.9-1,17-0.7,22.9c3,3.7,31.8,61.5,101.8,61.5s101.5-61.5,101.5-61.5s0.5-5.9,0.4-14.5
				C490.8,616.2,459,672.7,393.6,672.7z"/>
		</g>
		<path fill="#BF8F32" d="M477.5,551.5c10.9,31.6,10.3,75.1,10.3,75.1l5.2-2.8C493,623.7,496.1,575.4,477.5,551.5z"/>
		<path fill="#FFD88E" stroke="#000000" stroke-width="1.4173" stroke-miterlimit="10" d="M266.5,544.8c0,0-2.2-2.5,10-13.8
			c7.1-0.5,16.6,2.8,19,3.9c2.9,1.3,9.5,5.4,12.8,11.5c-1.1,3.2-5.9,11.9-5.9,11.9s-7.8-7.9-16.8-11.2
			C277.3,544,266.5,544.8,266.5,544.8z"/>
		<path fill="#FFD88E" stroke="#000000" stroke-width="1.4173" stroke-miterlimit="10" d="M518,544.8c0,0,2.2-2.5-10-13.8
			c-7.1-0.5-16.6,2.8-19,3.9c-2.9,1.3-9.5,5.4-12.8,11.5c1.1,3.2,5.9,11.9,5.9,11.9s7.8-7.9,16.8-11.2
			C507.3,544,518,544.8,518,544.8z"/>
		<g id="领子_1_">
			<path fill="#FFD88E" stroke="#000000" stroke-width="1.4173" stroke-miterlimit="10" d="M395.5,541.3c-11-0.3-45.5-20.9-48-26
				l-17.7-2.2l37.7,43L395.5,541.3z"/>
			<path fill="#FFD88E" stroke="#000000" stroke-width="1.4173" stroke-miterlimit="10" d="M444.2,515.6
				c-12,9.9-26.7,22.4-39.8,24.9l-8.2,0.9l0.8,45.1l7.9-0.6l-0.3-44.5l23.8,14.5l27.3-41.1L444.2,515.6z"/>
		</g>
		<g id="口子">
			<ellipse fill="#FF658E" cx="400.6" cy="552.4" rx="2.8" ry="2.4"/>
			<path fill="#BF4C6B" d="M402.3,550.5c0.3,0.4,0.5,0.9,0.5,1.4c0,1.3-1.3,2.4-2.8,2.4c-0.6,0-1.2-0.2-1.7-0.5c0.5,0.6,1.4,1,2.3,1
				c1.6,0,2.8-1.1,2.8-2.4C403.5,551.7,403,551,402.3,550.5z"/>
			<ellipse fill="#FF658E" cx="400.6" cy="572.2" rx="2.8" ry="2.4"/>
			<path fill="#BF4C6B" d="M402.3,570.3c0.3,0.4,0.5,0.9,0.5,1.4c0,1.3-1.3,2.4-2.8,2.4c-0.6,0-1.2-0.2-1.7-0.5c0.5,0.6,1.4,1,2.3,1
				c1.6,0,2.8-1.1,2.8-2.4C403.5,571.4,403,570.7,402.3,570.3z"/>
		</g>
	</g>
	<g id="脚_33_">
		<g id="脚_35_">
			<path fill="#128AB2" stroke="#000000" stroke-width="1.4173" stroke-miterlimit="10" d="M401.2,709.1c0,9.4,20.1,8.3,45,8.3
				s45,0.4,45-14.6c0-7.4-15.6-18.6-41.2-17.9s-36.2,6.9-41.1,14.5C402.7,700.1,401.2,702.7,401.2,709.1z"/>
			<path fill="#0D6886" d="M486.4,696c0,0,2.5,10.7-7.5,14s-76.4,6.8-77-2.8c-0.7,6.2,4,9.3,21.6,9.5c6.2,0,37.1,0,37.1,0
				s24.1,0.4,28.3-8C492.3,701.7,489.3,698.7,486.4,696z"/>
		</g>
		<g id="脚_34_">
			<path fill="#128AB2" stroke="#000000" stroke-width="1.4173" stroke-miterlimit="10" d="M383.2,709.1c0,9.4-20.1,8.3-45,8.3
				s-45,0.4-45-14.6c0-7.4,15.6-18.6,41.2-17.9s36.2,6.9,41.1,14.5C381.6,700.1,383.2,702.7,383.2,709.1z"/>
			<path fill="#0D6886" d="M379,701c0,0,5.3,6.6-4.8,9.9s-73.1,5.8-79.4-3.4c1.8,5.8,12.4,8.9,22.7,9.2c6.2,0.2,37.1,0,37.1,0
				s21.9,0.9,26.5-4.4C383.6,710.2,382.8,702.1,379,701z"/>
		</g>
	</g>
	<g id="手_38_">
		<g id="手_39_">
			<g id="左手_27_">
				<path fill="#FFD2BE" stroke="#000000" stroke-width="1.4173" stroke-miterlimit="10" d="M287.2,632.8
					c3.6,16.8-3.9,27.2-20.5,27.2s-29-17.2-29-32.7c0-15.5,10.2-28.6,26.8-28.6c12.7,0,19.4,3.8,25.4,14.1
					C293.8,619.7,286.4,629.3,287.2,632.8z"/>
				<path fill="#FFD2BE" stroke="#000000" stroke-width="1.4173" stroke-miterlimit="10" d="M270.5,627.5
					c1.5,13,12.8,16.2,19.6,11.8c2.2-1.4,4-3.7,5-6.7c1.7-5.1,0.8-12-5-19.3"/>
			</g>
			<path fill="#E6A082" d="M291.4,616.4c1.5,2.4,2.9,11.3-0.7,17.3c-1.8,3-7.3,6.4-12.2,5.5c6.1,3.2,12.8,0.3,15.3-5.2
				C297.3,626.6,292.9,618.2,291.4,616.4z"/>
			<path fill="#E6A082" d="M272.3,621.6c-8,10.9,4.5,21.2,2.9,28.4c-0.8,3.5-5.9,10.4-15,8.3c7.4,2.5,19.4,0.3,23.5-5.7
				c1.1-1.6,3.4-4.2,3.7-11.2C276.6,644.1,266.1,632.9,272.3,621.6z"/>
			<path fill="#608EFF" stroke="#000000" stroke-miterlimit="10" d="M269.9,626.6c3.6,16.8-20.5,28-25.7,20.6
				c-4.2-5.9-6.6-13.1-6.6-19.9c0-15.5,10.2-28.6,26.8-28.6c12.7,0,19.4,3.8,25.4,14.1C293.8,619.7,272.7,629.4,269.9,626.6z"/>
		</g>
		<g id="手_53_">
			<g id="左手_37_">
				<path fill="#FFD2BE" stroke="#000000" stroke-width="1.4173" stroke-miterlimit="10" d="M496.3,632.8
					c-3.6,16.8,3.9,27.2,20.5,27.2c16.6,0,29-17.2,29-32.7c0-15.5-10.2-28.6-26.8-28.6c-12.7,0-19.4,3.8-25.4,14.1
					C489.7,619.7,497.1,629.3,496.3,632.8z"/>
				<path fill="#FFD2BE" stroke="#000000" stroke-width="1.4173" stroke-miterlimit="10" d="M513,627.5c-1.5,13-12.8,16.2-19.6,11.8
					c-2.2-1.4-4-3.7-5-6.7c-1.7-5.1-0.8-12,5-19.3"/>
			</g>
			<path fill="#E6A082" d="M512.9,618.2c0,0,0,22.3-21,19C500.5,645.9,517.7,636.7,512.9,618.2z"/>
			<path fill="#E6A082" d="M508.8,638.2c0,0-3.7,4.8-12.5,3.3C495.4,651.7,508.4,643.2,508.8,638.2z"/>
			<path fill="#E6A082" d="M536.9,606.6c2.8,5.9,5.8,23.3-2.8,37c-6,9.5-11.9,15.1-21.2,15.5c16.1,2.1,24.9-10.8,27.2-14.6
				C545.7,635.9,548.6,618.5,536.9,606.6z"/>
			<path fill="#608EFF" stroke="#000000" stroke-miterlimit="10" d="M513.6,626.6c-3.6,16.8,20.5,28,25.7,20.6
				c4.2-5.9,6.6-13.1,6.6-19.9c0-15.5-10.2-28.6-26.8-28.6c-12.7,0-19.4,3.8-25.4,14.1C489.7,619.7,510.8,629.4,513.6,626.6z"/>
			<path fill="#282E82" d="M537.4,606.6c2.8,5.9,2.9,28-5.7,41.7c-0.1,1.6,5.8,0.9,8.1-2.9C545.5,636.8,549.1,618.5,537.4,606.6z"/>
		</g>
	</g>
	<g id="耳朵_49_">
		<g id="耳朵_50_">
			<path fill="#32D2C8" stroke="#000000" stroke-width="0.9989" stroke-miterlimit="10" d="M499.6,230.5
				c6.6-16.5,55.2-55.1,102.4-12.8c32.9,30.1,20.2,86.5-28,114.1L499.6,230.5z"/>
			<path fill="#269E96" d="M602,217.7c-0.7-0.6-1.3-1.2-2-1.7c26.3,30.7,13.1,81.9-31.5,108.3l5.5,7.5
				C622.2,304.2,634.8,247.8,602,217.7z"/>
			<path fill="#FFBEBA" stroke="#000000" stroke-width="0.4994" stroke-miterlimit="10" d="M566.6,295c3.5,0.4,36.3-29.8,12.8-53.1
				c-23.1-22.9-55.1-0.8-55.7,4.1L566.6,295z"/>
		</g>
		<g id="耳朵_43_">
			<path fill="#32D2C8" stroke="#000000" stroke-width="0.9989" stroke-miterlimit="10" d="M290.3,230.5
				c-6.6-16.5-55.2-55.1-102.4-12.8c-32.9,30.1-20.2,86.5,28,114.1L290.3,230.5z"/>
			<path fill="#269E96" d="M187.9,217.7c0.7-0.6,1.3-1.2,2-1.7c-26.3,30.7-13.1,81.9,31.5,108.3l-5.5,7.5
				C167.7,304.2,155.1,247.8,187.9,217.7z"/>
			<path fill="#FFBEBA" stroke="#000000" stroke-width="0.4994" stroke-miterlimit="10" d="M223.3,295c-3.5,0.4-36.3-29.8-12.8-53.1
				c23.1-22.9,55.1-0.8,55.7,4.1L223.3,295z"/>
		</g>
	</g>
	<g id="面部_19_">
		<path id="面部_20_" fill="#FFDCD0" stroke="#000000" stroke-width="1.4173" stroke-miterlimit="10" d="M214.3,278.3
			c11.2-30.5,46.9-77.2,129.7-100c36.3-10,61.8-8.8,96.6,0.5c41.8,11.2,105.2,42.4,128.8,98.9c11.7,28,11.7,87.7,11.7,87.7
			s23.3,12,23.3,49.3c0,32.5-52.7,87.4-157.3,100.9c-15.4,2-29.3,11.1-53.3,11.1s-38-9.3-54.8-11.6C236.1,501,179,448.5,179,414.7
			c0-34.2,25.5-48.8,25.5-48.8S201,314.7,214.3,278.3z"/>
		<path fill="#EEB6A0" d="M532.7,227.5c34.8,34.5,46.6,60.2,47.7,138.2c0,0-7.3,1.1-13.4,5.4C573.9,347.5,572.5,271,532.7,227.5z"/>
		<path fill="#EEB6A0" d="M267,496.2c18.9,9.2,64.8,17.7,77.4,19.2c6.4,1.4,29.4,10.5,47,10.5s30.2-3.9,46.7-9.6
			c29.3-2.6,80.2-15.3,104.8-31c-30.3,13.1-68.9,21.4-97.6,25.7c3.7-3.3,8.2-5.9,11.8-11.9c-15.7,13.9-34.1,19.9-61.5,20.6
			C384.7,519.9,312,509.5,267,496.2z"/>
	</g>
	<g id="鼻子_23_">
		<ellipse fill="#FFD2BE" stroke="#000000" stroke-width="1.4173" stroke-miterlimit="10" cx="391.3" cy="421.3" rx="90" ry="59"/>
		<path fill="#E6A082" d="M392,467.5c-28.1,1.3-47.3-1.5-68.3-8.4c6.1,6,32.9,20.6,67.2,20.6c48.4,0,89.7-24.6,89.7-58.4
			C475.8,438.2,445.9,465,392,467.5z"/>
		<g id="鼻子_24_">
			<path fill="#69301B" stroke="#000000" stroke-miterlimit="10" d="M404.4,385.7c-5.2,0-8,2.3-13.5,2.4c-5.5-0.1-8.3-2.4-13.5-2.4
				c-10,0-18.5,8.3-18.5,15.5c0,7.3,6.2,16.9,19.6,18.3c3.1,0.3,22,0.4,24.7,0c13.3-2,19.6-11,19.6-18.3
				C422.9,394,414.4,385.7,404.4,385.7z"/>
			<path fill="#3F1000" d="M420.8,406c0,4.5-6.4,10.1-14,12.3c-4.9,1.4-10,1-16.5,1c-5.7,0-10.3,0.4-14.8-0.7
				c-8.7-2.1-14.9-8.3-14.9-12.6c0-6.6,13.4-9,30-9S420.8,399.3,420.8,406z"/>
		</g>
	</g>
	<g id="眼睛_13_">
		<g id="眼睛_15_">
			<linearGradient id="SVGID_4_" gradientUnits="userSpaceOnUse" x1="244.0376" y1="355.8311" x2="312.9216" y2="355.8311">
				<stop  offset="0" style="stop-color:#F2B484;stop-opacity:0.6"/>
				<stop  offset="1" style="stop-color:#C87A4A;stop-opacity:0"/>
			</linearGradient>
			<path fill="url(#SVGID_4_)" d="M304.6,326.7c20.7,41.4-1.1,75.1-24.6,76.1c-18.5,0.8-31.7-19.4-34.5-35.2
				c-4-20.6,0.4-34.5,11-48.8C264.4,308,291.7,300.7,304.6,326.7z"/>
			<radialGradient id="SVGID_5_" cx="281.6733" cy="358.1066" r="37.8513" gradientUnits="userSpaceOnUse">
				<stop  offset="0" style="stop-color:#4D4D4D"/>
				<stop  offset="1" style="stop-color:#1A1A1A"/>
			</radialGradient>
			<ellipse fill="url(#SVGID_5_)" stroke="#000000" stroke-miterlimit="10" cx="281.7" cy="358.1" rx="30" ry="44.3"/>
			
				<radialGradient id="SVGID_6_" cx="298.3482" cy="358.1066" r="28.178" gradientTransform="matrix(0.9851 0 0 1 -12.2238 0)" gradientUnits="userSpaceOnUse">
				<stop  offset="0" style="stop-color:#333333"/>
				<stop  offset="1" style="stop-color:#000000"/>
			</radialGradient>
			<ellipse fill="url(#SVGID_6_)" cx="281.7" cy="358.1" rx="22" ry="33"/>
			
				<ellipse transform="matrix(0.3609 -0.9326 0.9326 0.3609 -147.2983 475.2638)" fill="#F2F2F2" cx="273.1" cy="345.1" rx="7" ry="5.7"/>
			<ellipse cx="281.7" cy="358.1" rx="8" ry="13"/>
			<path fill="#FFFFFF" d="M298.1,378.9c-1.4,2.5-3.6,4.4-4.3,3.6c-0.8-0.8,0.9-0.9,2.7-4.4c1.9-3.5,1.5-4.6,2.6-4.5
				C300.1,373.7,299.5,376.4,298.1,378.9z"/>
			<ellipse fill="#FFFFFF" cx="264.4" cy="359.7" rx="2.8" ry="4.1"/>
		</g>
		<g id="眼睛_14_">
			<linearGradient id="SVGID_7_" gradientUnits="userSpaceOnUse" x1="448.5415" y1="351.7919" x2="532.2632" y2="351.7919">
				<stop  offset="0" style="stop-color:#F2B484;stop-opacity:0.6"/>
				<stop  offset="1" style="stop-color:#C87A4A;stop-opacity:0"/>
			</linearGradient>
			<path fill="url(#SVGID_7_)" d="M524.7,326.7c17.5,42.8,2.8,76.1-24.6,76.1s-47.7-28.8-50.6-44.6c-4-20.6,4.9-42.7,20.5-51.1
				C489.5,296.5,512.7,297.3,524.7,326.7z"/>
			<radialGradient id="SVGID_8_" cx="502.6734" cy="358.1066" r="37.8513" gradientUnits="userSpaceOnUse">
				<stop  offset="0" style="stop-color:#4D4D4D"/>
				<stop  offset="1" style="stop-color:#1A1A1A"/>
			</radialGradient>
			<ellipse fill="url(#SVGID_8_)" stroke="#000000" stroke-miterlimit="10" cx="502.7" cy="358.1" rx="30" ry="44.3"/>
			
				<radialGradient id="SVGID_10_" cx="522.6954" cy="358.1066" r="28.178" gradientTransform="matrix(0.9851 0 0 1 -12.2238 0)" gradientUnits="userSpaceOnUse">
				<stop  offset="0" style="stop-color:#333333"/>
				<stop  offset="1" style="stop-color:#000000"/>
			</radialGradient>
			<ellipse fill="url(#SVGID_10_)" cx="502.7" cy="358.1" rx="22" ry="33"/>
			
				<ellipse transform="matrix(0.3609 -0.9326 0.9326 0.3609 -6.0616 681.3678)" fill="#F2F2F2" cx="494.1" cy="345.1" rx="7" ry="5.7"/>
			<ellipse cx="502.7" cy="358.1" rx="8" ry="13"/>
			<path fill="#FFFFFF" d="M519.1,378.9c-1.4,2.5-3.6,4.4-4.3,3.6c-0.8-0.8,0.9-0.9,2.7-4.4c1.9-3.5,1.5-4.6,2.6-4.5
				C521.1,373.7,520.5,376.4,519.1,378.9z"/>
			<ellipse fill="#FFFFFF" cx="485.4" cy="359.7" rx="2.8" ry="4.1"/>
		</g>
	</g>
	<g id="眉毛_8_">
		<g>
			<polygon points="458.3,325.9 520.3,305.9 520.3,280.9 458.3,311.9 			"/>
			<polygon points="524.1,304.8 529.8,302.9 529.8,276.8 523.8,279.8 			"/>
			<polygon points="533.5,276.5 533.8,301.6 539.5,299.6 539.5,273.6 			"/>
		</g>
		<g>
			<polygon points="325.5,325.9 263.5,305.9 263.5,280.9 325.5,311.9 			"/>
			<polygon points="259.6,304.8 254,302.9 254,276.8 260,279.8 			"/>
			<polygon points="250.3,276.5 249.9,301.6 244.3,299.6 244.3,273.6 			"/>
		</g>
	</g>
	<g id="口罩_1_">
		<path fill="#BDC3FF" stroke="#000000" stroke-width="1.0614" stroke-miterlimit="10" d="M188.8,412c21.2-11.7,130,34,211.2,35.5
			s187.8-48,198.4-36.6c12.6,13.5,6.8,56.5-109.2,98.1s-227.1-12.9-238.3-18.8C239.7,484.2,165.9,444.7,188.8,412z"/>
		<path fill="#B2A8EA" d="M490.4,450.5c0,0-7,3.5-15.2,5.7c-0.3,3.8-8.7,16.6-18.8,26c2.8-0.9,15-9.2,24.2-16.4
			c0.9-0.7,45.5-13.4,46.4-14.1c-6.3,0-33.2,3.5-32.3,2.8c3.1-2.8,18-18.5,20.7-20.2C518.1,432.7,496.6,447.7,490.4,450.5z"/>
		<path fill="#B2A8EA" d="M293,450.5c0,0,7,3.5,15.2,5.7c0.3,3.8,8.7,16.6,18.8,26c-2.8-0.9-15-9.2-24.2-16.4
			c-0.9-0.7-45.5-13.4-46.4-14.1c6.3,0,33.2,3.5,32.3,2.8c-3.1-2.8-18-18.5-20.7-20.2C265.3,432.7,286.8,447.7,293,450.5z"/>
		<path fill="#B2A8EA" d="M335.4,492.7c0,0,35,18.3,87.5,11.3c9.9-1,35.7-6.9,46.2-12.7c-4.2,4-10,7.3-24.9,11.2
			c3.1,2,55.4,0.9,102.5-22.8c-67.6,32.9-102.1,47.9-155.9,44.7c-53.8-3.2-115.5-26-123.7-28.2c37.8,9.4,66.9,13.7,84.3,14
			C345,505.6,335.4,492.7,335.4,492.7z"/>
		<g>
			<path fill="#BDC3FF" stroke="#000000" stroke-width="1.0614" stroke-miterlimit="10" d="M591,412c0,0,10.2-10.9,7.5-26.3
				c3.4,4.6,3.8,11.1,3.8,11.1s0.7,12.5-4.5,17.5L591,412z"/>
			<line fill="none" stroke="#000000" stroke-width="1.0614" stroke-miterlimit="10" x1="593.8" y1="411.2" x2="595.6" y2="412"/>
			<line fill="none" stroke="#000000" stroke-width="1.0614" stroke-miterlimit="10" x1="596.7" y1="412.5" x2="598.3" y2="413.3"/>
		</g>
		<g>
			<path fill="#BDC3FF" stroke="#000000" stroke-width="1.0614" stroke-miterlimit="10" d="M193.4,412c0,0-10.2-10.9-7.5-26.3
				c-3.4,4.6-3.8,11.1-3.8,11.1s-0.7,12.5,4.5,17.5L193.4,412z"/>
			<line fill="none" stroke="#000000" stroke-width="1.0614" stroke-miterlimit="10" x1="190.5" y1="411.2" x2="188.8" y2="412"/>
			<line fill="none" stroke="#000000" stroke-width="1.0614" stroke-miterlimit="10" x1="187.7" y1="412.5" x2="186.1" y2="413.3"/>
		</g>
	</g>
	<g id="头发_14_">
		<path fill="#A66AFF" stroke="#000000" stroke-width="1.4173" stroke-miterlimit="10" d="M364.8,196.7
			c-26.6-6.4-37.6-38.8-23.1-58.7c-3.2,16.8,9.8,36.2,37.8,33.6"/>
		<path fill="#8C54A2" d="M340.5,141.2c0,0-1.2,8.3,0.4,14.6c2.3,8.7,10.2,15.5,10.2,15.5s-6.1,0.6-8.9-2.4c0.3,0.6,4.9,4.7,5.9,5.3
			c12.1,7.9,23.3,8.5,23.3,8.5s-8.9,1.1-14.9-0.6c6.7,4.3,21.7,4.9,21.7,4.9s-4.8,2.7-9.9,1.4c6.3,2.5,15.9,3.4,22.8,1.7l-14.4-17.4
			C371.2,173.3,340.9,171.3,340.5,141.2z"/>
		<path fill="#A66AFF" stroke="#000000" stroke-width="1.4173" stroke-miterlimit="10" d="M445.2,180.1c-16.5-4.2-20.3-24.4-6-27.6
			c-14.9-3.3-21.7,16.3-17.7,21.8c-13.6-1-48-22.5-40.8-55.3c-13,15.5-24.8,68.8,30.3,77.7"/>
		<path fill="#8C54A2" d="M400.3,184.9c-23.7-12-27.2-38.2-20.8-62.1c-4.5,32.1,32,54.1,47.5,53.1c-4-5.5-4.3-18,8.8-23
			c-10.9,5.4-7.1,23.8,9.3,28c0,0-7.1,0.9-18.1-5c0,1.1,15.7,9,15.7,9l-21.8-8.9l20.7,13.1l-15-3l6.8,5l-17.1-6.9l22.3,14.4
			L400.3,184.9z"/>
	</g>
	<g id="帽子_13_">
		<path fill="#FDAA8A" d="M390.7,72.5c0,0-261.7,110.3-276.4,129.5s48.2,80.8,276.4,80.8s291.6-75.3,274.3-91.7
			S390.7,72.5,390.7,72.5z"/>
		<path fill="#DC8E64" d="M392.1,269.8c-191.2,0-266.3-43.3-277-68.6c-0.3,0.3-0.5,0.6-0.7,0.8c-14.7,19.2,48.2,80.8,276.4,80.8
			c219.1,0,286.3-69.4,276-89.4C652.7,220.9,575.8,269.8,392.1,269.8z"/>
		<path fill="#DC8E64" d="M388.8,74.1l0.9-1.2c0,0,0,0-0.1,0l-1.2,1.4l-256,159.8c5.4,3.7,11.9,7.5,19.7,11.3L387.7,75.1
			L220.9,267.6c6.1,1.3,12.4,2.6,19.1,3.7L388.3,74.6l2.5-1.8l0.2,0.6l-70.2,207.3c4.9,0.3,10,0.6,15.2,0.9l55-208l75.5,206.2
			c5.3-0.5,10.6-1,15.7-1.5L391.1,73.4l0.1-0.4l184.7,187.1c6.9-2.1,13.4-4.3,19.5-6.5L391.2,72.9l0-0.1L649,224.9
			c6.7-5.4,11.5-10.7,14.5-15.4L391.3,72.7l0-0.1c0,0,0,0,0,0l0,0.1l-0.2-0.1l0,0c0,0,0,0,0,0l0,0l-0.4-0.2l0.3,0.2l-0.1,0l-0.3-0.2
			l0.2,0.3l-0.1,0.1l-0.1-0.3l0.1,0.3L388.8,74.1z M391.1,72.7l0.2,0.1l0,0.1L391.1,72.7L391.1,72.7z M391,72.7l0.2,0.2l-0.1,0.3
			l-0.2-0.5L391,72.7z"/>
		<path fill="#FFC28E" d="M388.5,74.1l0.9-1.2c0,0-0.1,0-0.1,0l-1.2,1.4L143.4,227.1c5.3,3.8,7.2,3.6,14.9,7.5l229-159.5
			L225.8,255.3c6,1.4,11.6,2.3,18.3,3.6L388,74.7l2.5-1.8l0.2,0.6l-69.4,194.1l9.7,0.6l59.8-194.5L458,267.5l10.4-0.8L390.8,73.5
			l0.1-0.4l170.2,178.5l10.3-3.5L390.9,73l0-0.1l243.9,149.7l6.8-4.9L391,72.9l0-0.1c0,0,0,0,0,0l0,0.1l-0.2-0.1l0,0c0,0,0,0,0,0
			l0,0l-0.4-0.2l0.3,0.2l-0.1,0l-0.3-0.2l0.2,0.3l-0.1,0.1l-0.1-0.3l0.1,0.3L388.5,74.1z M390.8,72.8l0.2,0.1l0,0.1L390.8,72.8
			L390.8,72.8z M390.7,72.8l0.2,0.2l-0.1,0.3l-0.2-0.5L390.7,72.8z"/>
		<path opacity="0.2" fill="#6E5237" d="M665,191.5C647.6,175.2,390.7,72.9,390.7,72.9s142.5,100.1,156,112.8
			c16.8,15.8,14.6,92.2-195.6,96.9c12.6,0.4,25.8,0.7,39.6,0.7C618.9,283.2,682.3,207.9,665,191.5z"/>
	</g>
</g>
</svg>