<?xml version="1.0" encoding="utf-8"?>
<svg version="1.0" id="layer_1" xmlns="http://www.w3.org/2000/svg" xmlns:xlink="http://www.w3.org/1999/xlink" x="0px" y="0px" viewBox="0 0 800 800" enable-background="new 0 0 800 800" xml:space="preserve">
<g id="_x31__2_">
	<g id="身体_17_">
		<path opacity="0.1" fill="#FFD2BE" d="M437.7,577.5c-10.9-19-1-39.8-11.4-39.8c-10.4,0-14.2,9.4-33,9.4c-0.1,0-0.7,0-0.8,0
			c-18.8,0-22.6-9.4-33-9.4s-0.5,20.8-11.4,39.8c-22.8,39.7,5.8,74.2,42.6,74.2c0.8,0,3.7,0,4.4,0
			C431.9,651.8,460.5,617.2,437.7,577.5z"/>
		<path fill="#269E96" d="M493.4,634l-13.7,59.8l-5.5-1c1.4-4.1,8.4-36.4,12.4-61.3c2.6-37.6-1.1-65.5-1.1-65.5
			C493.8,593.7,494.5,623.4,493.4,634z"/>
		<path fill="#269E96" d="M542.8,610.5c0,10.4-6.2,31.3-16,29.3c4.2-12,3.7-32.8,3.7-32.8c1.9-45.3-26.9-73.4-26.9-73.4
			C534.1,557.9,542.8,592.9,542.8,610.5z"/>
		<path fill="#269E96" d="M274.7,617.1c0,5.8-1.1,21.3-7.7,26.7c11.5,0,18.5-11.9,19.9-14.8c3.3-7.1,3.3-18,3.3-18
			c-0.3-34.8,10.2-48.6,10.2-48.6C282,577.8,274.7,607.2,274.7,617.1z"/>
		<path fill="#269E96" d="M459.6,515.5c-4.6-8.2-28.1-15.9-64-17c-13.9-0.4-69.1-2.1-64.6,6.1c4.9,8.9,20.3,23,61.8,26
			C428.7,533.2,465.3,525.7,459.6,515.5z"/>
		<g id="身体_4_">
			<path fill="#32D2C8" stroke="#000000" stroke-width="1.4173" stroke-miterlimit="10" d="M291.6,601c0.9-16.5,4-26.1,6.4-31.4
				C294.1,578.4,292.4,590.1,291.6,601l-0.4,14.5c0,9.2,0.5,17.7,0.5,17.7l13.1,65.4l71.6,1.9l9.4-39.9c0,0,3.8,0.4,6.6,0.4
				c2.8,0,6.6-0.4,6.6-0.4l9.4,39.9l71.6-1.9l13.1-65.4c0,0,0.5-8.2,0.5-17.1c0,0-0.2-33.1-6.8-46.5c2.1,3.2,5.8,16.1,6.5,34.5
				l0.4,12c3.6,39.4,49.8,38.6,49.8-5c0-45.3-33.4-74.5-41.8-80c-15.2-10.7-43.5-17.3-43.5-17.3h-65.7h-0.1h-65.7
				c0,0-28.3,6.6-43.5,17.3c-8.4,5.5-41.8,34.7-41.8,80c0,43.8,46.6,44.3,49.8,4.4L291.6,601z"/>
			<path opacity="0.1" fill="#FFD2BE" d="M438,577.7c-10.9-19-1-39.8-11.4-39.8c-10.4,0-14.2,9.4-33,9.4c-0.1,0-0.7,0-0.8,0
				c-18.8,0-22.6-9.4-33-9.4s-0.5,20.8-11.4,39.8c-22.8,39.7,5.8,74.2,42.6,74.2c0.8,0,3.7,0,4.4,0
				C432.2,651.9,460.9,617.3,438,577.7z"/>
			<path fill="#269E96" d="M543.1,610.6c0,10.4-6.2,31.3-16,29.3c4.2-12,3.7-32.8,3.7-32.8c1.9-45.3-26.9-73.4-26.9-73.4
				C534.5,558,543.1,593.1,543.1,610.6z"/>
			<path fill="#269E96" d="M275,617.3c0,5.8-1.1,21.3-7.7,26.7c11.5,0,18.5-11.9,19.9-14.8c3.3-7.1,3.3-18,3.3-18
				c-0.3-34.8,10.2-48.6,10.2-48.6C282.3,578,275,607.4,275,617.3z"/>
			<path fill="#269E96" d="M460,515.6c-4.6-8.2-28.1-15.9-64-17c-13.9-0.4-69.1-2.1-64.6,6.1c4.9,8.9,20.3,23,61.8,26
				C429,533.4,465.7,525.8,460,515.6z"/>
			<path fill="#269E96" d="M335.3,648.4c0,0,21.3,7.5,57,7.5s56.3-7.5,56.3-7.5s-22.2,12.3-55.9,12.3c-2.9,0-4.9-0.1-7.6-0.3
				l-9.2,39.1l-3.2-4c2.3-7.2,1.4-30.3-0.1-36.2C352.8,656.3,340.5,651.5,335.3,648.4z"/>
			<path fill="#269E96" d="M493.1,631.8l-13,55.1l-5.5,6c1.4-4.1,8.4-36.4,12.4-61.3c2.6-37.6-1.1-65.5-1.1-65.5
				C494.5,591,493.6,627.9,493.1,631.8z"/>
		</g>
	</g>
	<g id="衣服_8_">
		<path fill="#004E3B" stroke="#000000" stroke-width="0.7087" stroke-miterlimit="10" d="M291.4,632.1c1,1.2,13.5,67.3,13.5,67.3
			h71.2c0,0,6.9-39.5,16-39.5c5.6,0,16,39.5,16,39.5l71.6-1.9l13.1-66.1c0,0-44.9,8.9-103.1,9.4C359,641,324.7,637.9,291.4,632.1z"
			/>
		<path opacity="0.8" fill="#393434" d="M335,647.2c0,0,21.3,7.5,57,7.5s56.3-7.5,56.3-7.5s-22.2,12.3-55.9,12.3
			c-2.9,0-4.9,2.2-6,4.1c-5.9,9.9-10.4,35.8-10.4,35.8l-7.3,0.2c0.4-3.6,5.1-35.6,3.5-41.5C352.5,655.2,340.1,650.3,335,647.2z"/>
		<path opacity="0.8" fill="#393434" d="M492.3,631.4L481,692.7l-6.8,1.8c1.4-4.1,11.8-62.1,11.8-62.1L492.3,631.4z"/>
		<path fill="#8F6400" stroke="#000000" stroke-width="0.25" stroke-miterlimit="10" d="M292.8,639.6c0,0,53,8.5,93.8,8.5
			s105.2-10.3,105.2-10.3l1-6.4c0,0-64.9,9.8-106.2,9.8s-95.2-8.9-95.2-8.9L292.8,639.6z"/>
		<path fill="#006717" stroke="#000000" stroke-miterlimit="10" d="M265.5,546.2c2.9,0.5,11.6,1.4,20.7,6
			c6.3,3.2,12.2,6.9,12.8,11.9c-6.2,11.4-9.7,40.1-7.5,68.2c26.4,3.7,80.6,10,103.9,8.3s58.9-2,97.4-10c0.7-8.8,1.6-50.9-7.2-65.8
			c1.4-4.8,9.4-10.3,16.3-13.2c5.5-2.3,11.3-3.6,17.6-4.5c-5.4-7.7-19.1-20-32.9-25.3c-16.4-6.3-27.3-10.1-27.3-10.1l-67.5,30.6
			l-64.3-31.7c0,0-25.7,8.9-34.8,13.3C283.6,528.4,269,541.1,265.5,546.2z"/>
		<polygon fill="#008A57" stroke="#000000" stroke-width="0.5" stroke-miterlimit="10" points="394.1,640.7 390.1,640.9 390,543.3 
			394.1,541.4 		"/>
		<polygon fill="#008A57" stroke="#000000" stroke-width="0.2523" stroke-miterlimit="10" points="444.9,571.9 444.9,567.9 
			469.4,567.8 469.5,571.9 		"/>
		<polygon fill="#003314" stroke="#000000" stroke-width="0.1248" stroke-miterlimit="10" points="391.7,575.9 391.7,571.9 
			397.7,571.9 397.7,575.9 		"/>
		<polygon fill="#003314" stroke="#000000" stroke-width="0.1248" stroke-miterlimit="10" points="391.7,599.2 391.7,595.2 
			397.7,595.1 397.7,599.2 		"/>
		<polygon fill="#003314" stroke="#000000" stroke-width="0.1248" stroke-miterlimit="10" points="391.7,621.6 391.7,617.6 
			397.7,617.5 397.7,621.6 		"/>
		<polygon fill="#008F63" stroke="#000000" stroke-miterlimit="10" points="322.7,508.7 390.9,542.1 372.3,569.8 316.8,514.5 
			320.1,508.7 		"/>
		<polygon fill="#008F63" stroke="#000000" stroke-miterlimit="10" points="461.1,508.7 392.8,542.1 415.4,569.8 466.9,514.5 
			463.7,508.7 		"/>
		<path fill="#008F63" stroke="#000000" stroke-width="0.5" stroke-miterlimit="10" d="M485.4,564.5c0,0,2.6-7.3,16.2-13
			c10.5-4.4,17.4-4.5,17.4-4.5l-6.7-7.7c0,0-8.4,1.4-16.3,5.6c-7.8,4.2-14.7,11.1-14.7,11.1L485.4,564.5z"/>
		<path fill="#008F63" stroke="#000000" stroke-width="0.5" stroke-miterlimit="10" d="M299.1,563.7c0,0-2.6-7.3-16.2-13
			c-10.5-4.4-17.4-4.5-17.4-4.5l6.7-7.7c0,0,8.4,1.4,16.3,5.6c7.8,4.2,14.7,11.1,14.7,11.1L299.1,563.7z"/>
		<path opacity="0.5" fill="#404040" d="M481.2,556c13.9,23.9,13.1,70.3,11.1,74l-7.9,1.4C484.4,631.4,490.4,588,481.2,556z"/>
		<path opacity="0.6" fill="#404040" d="M313.3,540.9c-5.9,5.2-13.4,15-15.5,20.1c1,2.3,1.4,4.5,1.4,4.5S306.5,549.2,313.3,540.9z"
			/>
		<polygon fill="#F93300" stroke="#000000" stroke-miterlimit="10" points="429.9,537.7 408.2,554 415.9,563.7 435,543.3 		"/>
		<polygon fill="#F93300" stroke="#000000" stroke-miterlimit="10" points="493.4,525.1 467.9,515.2 468,517.9 493.9,527.7 		"/>
		<polygon fill="#F93300" stroke="#000000" stroke-miterlimit="10" points="291.3,524.8 316.8,514.9 316.7,517.6 290.8,527.4 		"/>
		<polygon fill="#F93300" stroke="#000000" stroke-miterlimit="10" points="357.4,537.7 379,554 371.4,563.7 352.2,543.3 		"/>
	</g>
	<g id="脚_36_">
		<g id="脚_38_">
			<path fill="#471E0F" stroke="#000000" stroke-width="1.4173" stroke-miterlimit="10" d="M401.2,709.1c0,9.4,20.1,8.3,45,8.3
				s45,0.4,45-14.6c0-7.4-15.6-18.6-41.2-17.9s-36.2,6.9-41.1,14.5C402.7,700.1,401.2,702.7,401.2,709.1z"/>
			<path fill="#180A05" d="M486.4,696c0,0,2.5,10.7-7.5,14s-76.4,6.8-77-2.8c-0.7,6.2,4,9.3,21.6,9.5c6.2,0,37.1,0,37.1,0
				s24.1,0.4,28.3-8C492.3,701.7,489.3,698.7,486.4,696z"/>
		</g>
		<g id="脚_37_">
			<path fill="#471E0F" stroke="#000000" stroke-width="1.4173" stroke-miterlimit="10" d="M383.2,709.1c0,9.4-20.1,8.3-45,8.3
				s-45,0.4-45-14.6c0-7.4,15.6-18.6,41.2-17.9s36.2,6.9,41.1,14.5C381.6,700.1,383.2,702.7,383.2,709.1z"/>
			<path fill="#180A05" d="M379,701c0,0,5.3,6.6-4.8,9.9s-73.1,5.8-79.4-3.4c1.8,5.8,12.4,8.9,22.7,9.2c6.2,0.2,37.1,0,37.1,0
				s21.9,0.9,26.5-4.4C383.6,710.2,382.8,702.1,379,701z"/>
		</g>
		<path fill="#7E5343" d="M430.3,692.9c0,0-9.7,3.9-11.2,10.9l4.4,0.5C423.6,704.3,426,695,430.3,692.9z"/>
		<path fill="#E0AD9A" d="M429.8,693.2c0,0-4.7,4.1-6.2,11.1l4.3,0.6C427.9,705,426.7,695.3,429.8,693.2z"/>
		<path fill="#7E5343" d="M312.7,688.9c0,0-9.7,3.9-11.2,10.9l4.4,0.5C306,700.4,308.4,691,312.7,688.9z"/>
		<path fill="#E0AD9A" d="M312.2,689.2c0,0-4.7,4.1-6.2,11.1l4.3,0.6C310.3,701,309.1,691.3,312.2,689.2z"/>
	</g>
	<g id="手_16_">
		<g id="手_18_">
			<g id="左手_12_">
				<path fill="#FFD2BE" stroke="#000000" stroke-width="1.4173" stroke-miterlimit="10" d="M497.2,632.8
					c-3.6,16.8,3.9,27.2,20.5,27.2c16.6,0,29-17.2,29-32.7c0-15.5-10.2-28.6-26.8-28.6c-12.7,0-19.4,3.8-25.4,14.1
					C490.7,619.7,498,629.3,497.2,632.8z"/>
				<path fill="#FFD2BE" stroke="#000000" stroke-width="1.4173" stroke-miterlimit="10" d="M513.9,627.5
					c-1.5,13-12.7,16.2-19.6,11.8c-6.1-3.8-9.1-14.5,0-25.9"/>
			</g>
			<path fill="#F2B484" d="M513.9,618.2c0,0,0,22.3-21,19C501.5,645.9,518.7,636.7,513.9,618.2z"/>
			<path fill="#F2B484" d="M509.8,638.2c0,0-3.7,4.8-12.5,3.3C496.4,651.7,509.4,643.2,509.8,638.2z"/>
			<path fill="#F2B484" d="M537.9,606.6c2.8,5.9,5.8,23.3-2.8,37c-6,9.5-11.9,15.1-21.2,15.5c16.1,2.1,24.9-10.8,27.2-14.6
				C546.7,635.9,549.6,618.5,537.9,606.6z"/>
		</g>
		<g id="手_17_">
			<g id="左手_11_">
				<path fill="#FFD2BE" stroke="#000000" stroke-width="1.4173" stroke-miterlimit="10" d="M287.2,632.8
					c3.6,16.8-3.9,27.2-20.5,27.2s-29-17.2-29-32.7c0-15.5,10.2-28.6,26.8-28.6c12.7,0,19.4,3.8,25.4,14.1
					C293.8,619.7,286.4,629.3,287.2,632.8z"/>
				<path fill="#FFD2BE" stroke="#000000" stroke-width="1.4173" stroke-miterlimit="10" d="M270.5,627.5
					c1.5,13,12.8,16.2,19.6,11.8c6.1-3.8,9.1-14.5,0-25.9"/>
			</g>
			<path fill="#F2B484" d="M291.4,616.4c1.5,2.4,2.9,11.3-0.7,17.3c-1.8,3-7.3,6.4-12.2,5.5c6.1,3.2,12.8,0.3,15.3-5.2
				C297.3,626.6,292.9,618.2,291.4,616.4z"/>
			<path fill="#F2B484" d="M272.3,621.6c-8,10.9,4.5,21.2,2.9,28.4c-0.8,3.5-5.9,10.4-15,8.3c7.4,2.5,19.4,0.3,23.5-5.7
				c1.1-1.6,3.4-4.2,3.7-11.2C276.6,644.1,266.1,632.9,272.3,621.6z"/>
		</g>
	</g>
	<g id="耳朵_13_">
		<g id="耳朵_15_">
			<path fill="#FF96BE" stroke="#000000" stroke-width="1.4173" stroke-miterlimit="10" d="M341.7,208.4
				c-4.2-24.9-60.1-92.9-138.2-48.3C149,192,149.8,274,208.3,326.7L341.7,208.4z"/>
			<path fill="#D264D2" d="M254.9,145.3c43,6.6,70.9,44.8,73.8,62.1l13,1C338.5,189.4,305.2,145.3,254.9,145.3z"/>
			<path fill="#D2468C" d="M229.5,277.8c-5-0.4-41.5-52.2-2-77.4c38.8-24.8,76.6,15.4,76,22.4L229.5,277.8z"/>
		</g>
		<g id="耳朵_14_">
			<path fill="#FF96BE" stroke="#000000" stroke-width="1.4173" stroke-miterlimit="10" d="M441.5,208.4
				c4.2-24.9,60.1-92.9,138.2-48.3c54.6,31.9,53.8,113.9-4.8,166.6L441.5,208.4z"/>
			<path fill="#D264D2" d="M579.7,160.1c-1.1-0.6-2.2-1.2-3.3-1.8C622.1,193,619,268,565,317.9l9.9,8.7
				C633.5,274,634.2,192,579.7,160.1z"/>
			<path fill="#D2468C" d="M553.7,277.8c5-0.4,41.5-52.2,2-77.4c-38.8-24.8-76.6,15.4-76,22.4L553.7,277.8z"/>
		</g>
	</g>
	<g id="面部_29_">
		<path id="面部_30_" fill="#FFC6D6" stroke="#000000" stroke-width="1.4173" stroke-miterlimit="10" d="M214.3,278.3
			c11.2-30.5,46.9-77.2,129.7-100c36.3-10,61.8-8.8,96.6,0.5c41.8,11.2,105.2,42.4,128.8,98.9c11.7,28,11.7,87.7,11.7,87.7
			s23.3,12,23.3,49.3c0,32.5-52.7,87.4-157.3,100.9c-15.4,2-29.3,11.1-53.3,11.1s-38-9.3-54.8-11.6C236.1,501,179,448.5,179,414.7
			c0-34.2,25.5-48.8,25.5-48.8S201,314.7,214.3,278.3z"/>
		<path fill="#CC869C" d="M532.7,227.5c34.8,34.5,46.6,60.2,47.7,138.2c0,0-7.3,1.1-13.4,5.4C573.9,347.5,572.5,271,532.7,227.5z"/>
		<path fill="#CC869C" d="M267,496.2c18.9,9.2,64.8,17.7,77.4,19.2c6.4,1.4,29.4,10.5,47,10.5s30.2-3.9,46.7-9.6
			c29.3-2.6,80.2-15.3,104.8-31c-30.3,13.1-68.9,21.4-97.6,25.7c3.7-3.3,8.2-5.9,11.8-11.9c-15.7,13.9-34.1,19.9-61.5,20.6
			C384.7,519.9,312,509.5,267,496.2z"/>
	</g>
	<g id="鼻子_3_">
		<ellipse fill="#C8D6FF" stroke="#000000" stroke-width="1.4173" stroke-miterlimit="10" cx="391.3" cy="421.3" rx="90" ry="59"/>
		<path fill="#8CAEE6" d="M392,467.5c-28.1,1.3-47.3-1.5-68.3-8.4c6.1,6,32.9,20.6,67.2,20.6c48.4,0,89.7-24.6,89.7-58.4
			C475.8,438.2,445.9,465,392,467.5z"/>
		<g id="鼻子_4_">
			<path fill="#69301B" stroke="#000000" stroke-miterlimit="10" d="M404.4,385.7c-5.2,0-8,2.3-13.5,2.4c-5.5-0.1-8.3-2.4-13.5-2.4
				c-10,0-18.5,8.3-18.5,15.5c0,7.3,6.2,16.9,19.6,18.3c3.1,0.3,22,0.4,24.7,0c13.3-2,19.6-11,19.6-18.3
				C422.9,394,414.4,385.7,404.4,385.7z"/>
			<path fill="#3F1000" d="M420.8,406c0,4.5-6.4,10.1-14,12.3c-4.9,1.4-10,1-16.5,1c-5.7,0-10.3,0.4-14.8-0.7
				c-8.7-2.1-14.9-8.3-14.9-12.6c0-6.6,13.4-9,30-9S420.8,399.3,420.8,406z"/>
		</g>
	</g>
	<g id="眼睛_43_">
		<linearGradient id="SVGID_3_" gradientUnits="userSpaceOnUse" x1="448.5415" y1="351.7919" x2="532.2632" y2="351.7919">
			<stop  offset="0" style="stop-color:#591380"/>
			<stop  offset="1" style="stop-color:#B226FF"/>
		</linearGradient>
		<path fill="url(#SVGID_3_)" d="M524.7,326.7c17.5,42.8,2.8,76.1-24.6,76.1s-47.7-28.8-50.6-44.6c-4-20.6,4.9-42.7,20.5-51.1
			C489.5,296.5,512.7,297.3,524.7,326.7z"/>
		<linearGradient id="SVGID_4_" gradientUnits="userSpaceOnUse" x1="237.0114" y1="334.1588" x2="297.4662" y2="365.2986">
			<stop  offset="0" style="stop-color:#591380"/>
			<stop  offset="1" style="stop-color:#B226FF"/>
		</linearGradient>
		<path fill="url(#SVGID_4_)" d="M304.6,326.7c20.7,41.4-1.1,75.1-24.6,76.1c-18.5,0.8-31.7-19.4-34.5-35.2
			c-4-20.6,0.4-34.5,11-48.8C264.4,308,291.7,300.7,304.6,326.7z"/>
		<g id="眼睛_45_">
			<radialGradient id="SVGID_5_" cx="281.6733" cy="358.1066" r="37.8513" gradientUnits="userSpaceOnUse">
				<stop  offset="0" style="stop-color:#4D4D4D"/>
				<stop  offset="1" style="stop-color:#1A1A1A"/>
			</radialGradient>
			<ellipse fill="url(#SVGID_5_)" stroke="#000000" stroke-miterlimit="10" cx="281.7" cy="358.1" rx="30" ry="44.3"/>
			
				<radialGradient id="SVGID_6_" cx="272.9043" cy="358.1066" r="28.178" gradientTransform="matrix(0.9851 0 0 1 12.8405 0)" gradientUnits="userSpaceOnUse">
				<stop  offset="0" style="stop-color:#333333"/>
				<stop  offset="1" style="stop-color:#000000"/>
			</radialGradient>
			<ellipse fill="url(#SVGID_6_)" cx="281.7" cy="358.1" rx="22" ry="33"/>
			
				<ellipse transform="matrix(0.3609 -0.9326 0.9326 0.3609 -147.2983 475.2638)" fill="#F2F2F2" cx="273.1" cy="345.1" rx="7" ry="5.7"/>
			<ellipse cx="281.7" cy="358.1" rx="8" ry="13"/>
			<path fill="#FFFFFF" d="M298.1,378.9c-1.4,2.5-3.6,4.4-4.3,3.6c-0.8-0.8,0.9-0.9,2.7-4.4c1.9-3.5,1.5-4.6,2.6-4.5
				C300.1,373.7,299.5,376.4,298.1,378.9z"/>
			<ellipse fill="#FFFFFF" cx="264.4" cy="359.7" rx="2.8" ry="4.1"/>
		</g>
		<g id="眼睛_44_">
			<radialGradient id="SVGID_7_" cx="502.6734" cy="358.1066" r="37.8513" gradientUnits="userSpaceOnUse">
				<stop  offset="0" style="stop-color:#4D4D4D"/>
				<stop  offset="1" style="stop-color:#1A1A1A"/>
			</radialGradient>
			<ellipse fill="url(#SVGID_7_)" stroke="#000000" stroke-miterlimit="10" cx="502.7" cy="358.1" rx="30" ry="44.3"/>
			
				<radialGradient id="SVGID_8_" cx="497.2515" cy="358.1066" r="28.178" gradientTransform="matrix(0.9851 0 0 1 12.8405 0)" gradientUnits="userSpaceOnUse">
				<stop  offset="0" style="stop-color:#333333"/>
				<stop  offset="1" style="stop-color:#000000"/>
			</radialGradient>
			<ellipse fill="url(#SVGID_8_)" cx="502.7" cy="358.1" rx="22" ry="33"/>
			
				<ellipse transform="matrix(0.3609 -0.9326 0.9326 0.3609 -6.0616 681.3678)" fill="#F2F2F2" cx="494.1" cy="345.1" rx="7" ry="5.7"/>
			<ellipse cx="502.7" cy="358.1" rx="8" ry="13"/>
			<path fill="#FFFFFF" d="M519.1,378.9c-1.4,2.5-3.6,4.4-4.3,3.6c-0.8-0.8,0.9-0.9,2.7-4.4c1.9-3.5,1.5-4.6,2.6-4.5
				C521.1,373.7,520.5,376.4,519.1,378.9z"/>
			<ellipse fill="#FFFFFF" cx="485.4" cy="359.7" rx="2.8" ry="4.1"/>
		</g>
	</g>
	<g id="眉毛_7_">
		<linearGradient id="SVGID_10_" gradientUnits="userSpaceOnUse" x1="466.4285" y1="304.0323" x2="513.9102" y2="304.0323">
			<stop  offset="0" style="stop-color:#333333"/>
			<stop  offset="1" style="stop-color:#000000"/>
		</linearGradient>
		<path fill="url(#SVGID_10_)" d="M466.4,312.4c0,0,19.1-18,34.2-16.6c15.1,1.3,14.8,5.1,11.2,9.1
			C507.9,309.2,466.4,312.4,466.4,312.4z"/>
		
			<linearGradient id="SVGID_11_" gradientUnits="userSpaceOnUse" x1="675.9246" y1="305.8623" x2="723.4062" y2="305.8623" gradientTransform="matrix(-1 0 0 1 984.3386 0)">
			<stop  offset="0" style="stop-color:#333333"/>
			<stop  offset="1" style="stop-color:#000000"/>
		</linearGradient>
		<path fill="url(#SVGID_11_)" d="M308.4,314.2c0,0-19.1-18-34.2-16.6s-14.8,5.1-11.2,9.1C266.9,311.1,308.4,314.2,308.4,314.2z"/>
	</g>
	<g id="嘴巴_8_">
		<path id="嘴巴_9_" fill="#FFFFFF" stroke="#000000" stroke-width="1.0614" stroke-miterlimit="10" d="M455,491
			c0,3.3-28.1,18.4-62.8,18.4s-62.8-15.1-62.8-18.4s28.1,3.4,62.8,3.4S455,487.7,455,491z"/>
		<g>
			<line fill="none" stroke="#000000" stroke-width="1.0614" stroke-miterlimit="10" x1="344.4" y1="491.1" x2="344.2" y2="498.9"/>
			<line fill="none" stroke="#000000" stroke-width="1.0614" stroke-miterlimit="10" x1="353.5" y1="492.2" x2="353.3" y2="501.1"/>
			<line fill="none" stroke="#000000" stroke-width="1.0614" stroke-miterlimit="10" x1="363.5" y1="493.1" x2="363.3" y2="503"/>
			<line fill="none" stroke="#000000" stroke-width="1.0614" stroke-miterlimit="10" x1="373.2" y1="493.9" x2="372.9" y2="504.4"/>
			<line fill="none" stroke="#000000" stroke-width="1.0614" stroke-miterlimit="10" x1="384" y1="494.8" x2="383.8" y2="504.7"/>
			<line fill="none" stroke="#000000" stroke-width="1.0614" stroke-miterlimit="10" x1="394" y1="494.8" x2="394.2" y2="505.5"/>
			<line fill="none" stroke="#000000" stroke-width="1.0614" stroke-miterlimit="10" x1="404.9" y1="494.8" x2="404.9" y2="504.4"/>
			<line fill="none" stroke="#000000" stroke-width="1.0614" stroke-miterlimit="10" x1="414" y1="493.7" x2="414.3" y2="503.4"/>
			<line fill="none" stroke="#000000" stroke-width="1.0614" stroke-miterlimit="10" x1="423.6" y1="492.9" x2="424" y2="501.9"/>
			<line fill="none" stroke="#000000" stroke-width="1.0614" stroke-miterlimit="10" x1="433" y1="491.9" x2="433" y2="500.2"/>
			<line fill="none" stroke="#000000" stroke-width="1.0614" stroke-miterlimit="10" x1="440.8" y1="491.1" x2="440.7" y2="498.3"/>
			<path fill="none" stroke="#000000" stroke-width="1.0614" stroke-miterlimit="10" d="M339.9,498.1c0,0,24.3,7.7,53,7
				c28.7-0.7,52.2-7.8,53.6-8"/>
		</g>
	</g>
	<g id="头发_5_">
		<path fill="#FFF6E1" stroke="#000000" stroke-width="1.4173" stroke-miterlimit="10" d="M364.8,196.7
			c-26.6-6.4-37.6-38.8-23.1-58.7c-3.2,16.8,9.8,36.2,37.8,33.6"/>
		<path fill="#EED4BE" d="M340.5,141.2c0,0-1.2,8.3,0.4,14.6c2.3,8.7,10.2,15.5,10.2,15.5s-6.1,0.6-8.9-2.4c0.3,0.6,4.9,4.7,5.9,5.3
			c12.1,7.9,23.3,8.5,23.3,8.5s-8.9,1.1-14.9-0.6c6.7,4.3,21.7,4.9,21.7,4.9s-4.8,2.7-9.9,1.4c6.3,2.5,15.9,3.4,22.8,1.7l-14.4-17.4
			C371.2,173.3,340.9,171.3,340.5,141.2z"/>
		<path fill="#FFF6E1" stroke="#000000" stroke-width="1.4173" stroke-miterlimit="10" d="M445.2,180.1c-16.5-4.2-20.3-24.4-6-27.6
			c-14.9-3.3-21.7,16.3-17.7,21.8c-13.6-1-48-22.5-40.8-55.3c-13,15.5-24.8,68.8,30.3,77.7"/>
		<path fill="#EED4BE" d="M400.3,184.9c-23.7-12-27.2-38.2-20.8-62.1c-4.5,32.1,32,54.1,47.5,53.1c-4-5.5-4.3-18,8.8-23
			c-10.9,5.4-7.1,23.8,9.3,28c0,0-7.1,0.9-18.1-5c0,1.1,15.7,9,15.7,9l-21.8-8.9l20.7,13.1l-15-3l6.8,5l-17.1-6.9l22.3,14.4
			L400.3,184.9z"/>
	</g>
	<g id="帽子_4_">
		<path fill="#001F61" d="M505.4,189.7H276.6c0,0-15.3-6.6-23.5-19.1s-3.3-20.9-0.7-24.9c5.9-8.5,50.1-41,137.8-41
			s133.2,35.5,141.1,44.4c3.3,4.5,3.5,14.7-4.5,25.5C519,185.3,505.4,189.7,505.4,189.7z"/>
		<path fill="#00043C" d="M533,153.2c-4.1,8.4-9.9,10.9-31.9,14.3c-22,3.4-72.9-9.7-110.3-9.7s-74,7.3-110,13.5
			c-17,0.6-29-2.7-30.9-6.8c1.6,5.4,11,18.4,26.5,25.2c8.7,0.3,228.8,0,228.8,0s16.6-6.7,22.5-16.4C534,163.2,534,156.3,533,153.2z"
			/>
		<path d="M281.4,198.6c-2.5,10.9,1.3,112.3,109.2,112.3s116.7-102,112.4-112.3S439.8,188,392.9,188S283.9,187.7,281.4,198.6z"/>
		<path fill="none" stroke="#666666" stroke-width="2" stroke-miterlimit="10" d="M290.8,199.1c-0.4,9.8,7.6,100.2,100,100.2
			s102.4-90.6,102.2-100.2"/>
		<polygon opacity="0.8" fill="#FFFFFF" points="317.8,271.2 314.8,267.7 309.5,190.4 312,190.2 		"/>
		<polygon opacity="0.8" fill="#FFFFFF" points="333.7,284.6 322.7,275.9 317,189.5 328,189 		"/>
		<polygon opacity="0.4" fill="#FFFFFF" points="340.1,288.3 333.7,284.6 328.2,192.9 334.4,192.7 		"/>
		<polygon opacity="0.3" fill="#FFFFFF" points="473,256.8 475.3,253.2 473.2,192.8 470.7,192.6 		"/>
		<polygon opacity="0.3" fill="#FFFFFF" points="458.1,274.4 468.3,263.4 467.3,192.7 456.2,192.2 		"/>
		<path fill="#D31F00" d="M503,201.8c0,0-12.5-4.3-32.3-6.8c-21.3-2.7-50.3-4.7-77.3-4.7c-28.3,0-60.5,1.8-82.4,4.7
			c-18.4,2.4-29.5,6.8-29.5,6.8l-4.8-12.2c0,0,7.4-10.8,20.1-15c25.9-8.7,63.2-11.6,95.5-11.6c35.2,0,77,5.4,98.2,13.8
			c10.7,4.2,15,12.9,15,12.9L503,201.8z"/>
		<path fill="#861400" d="M483.8,174.4c0,0-5.9,15.1-23.4,14.6s-87,1.6-87,1.6s84.7,3.8,96.5,4.3c17.5,0.9,33.1,6.9,33.1,6.9
			l2.4-12.2C505.4,189.7,499.6,177.7,483.8,174.4z"/>
		<polygon fill="#D31F00" points="391.7,118.9 397.9,131.5 411.7,133.5 401.7,143.3 404.1,157.1 391.7,150.5 379.3,157.1 
			381.6,143.3 371.6,133.5 385.5,131.5 		"/>
	</g>
</g>
</svg>