<?xml version="1.0" encoding="utf-8"?>
<svg version="1.0" id="layer_1" xmlns="http://www.w3.org/2000/svg" xmlns:xlink="http://www.w3.org/1999/xlink" x="0px" y="0px" viewBox="0 0 800 800" enable-background="new 0 0 800 800" xml:space="preserve">
<g id="_x31__2_">
	<g id="身体_5_">
		<path fill="#FF96BE" stroke="#000000" stroke-width="1.4173" stroke-miterlimit="10" d="M291.3,599.9c0.9-16.5,4-26.1,6.4-31.4
			C293.8,577.2,292.1,589,291.3,599.9l-0.4,14.5c0,9.2,0.5,24.7,0.5,24.7l13.1,58.4l71.6,1.9l9.4-39.9c0,0,3.8,0.4,6.6,0.4
			c2.8,0,6.6-0.4,6.6-0.4l9.4,39.9l71.6-1.9l13.1-58.4c0,0,0.5-15.2,0.5-24.1c0,0-0.2-33.1-6.8-46.5c2.1,3.2,5.8,16.1,6.5,34.5
			l0.4,12c3.6,39.4,49.8,38.6,49.8-5c0-45.3-33.4-74.5-41.8-80c-15.2-10.7-43.5-17.3-43.5-17.3h-65.7H392h-65.7
			c0,0-28.3,6.6-43.5,17.3c-8.4,5.5-41.8,34.7-41.8,80c0,43.8,46.6,44.3,49.8,4.4L291.3,599.9z"/>
		<path opacity="0.1" fill="#FFD2BE" d="M437.7,576.5c-10.9-19-1-39.8-11.4-39.8c-10.4,0-14.2,9.4-33,9.4c-0.1,0-0.7,0-0.8,0
			c-18.8,0-22.6-9.4-33-9.4s-0.5,20.8-11.4,39.8c-22.8,39.7,5.8,74.2,42.6,74.2c0.8,0,3.7,0,4.4,0
			C431.9,650.8,460.5,616.2,437.7,576.5z"/>
		<path fill="#D264D2" d="M542.8,609.5c0,10.4-6.2,31.3-16,29.3c4.2-12,3.7-32.8,3.7-32.8c1.9-45.3-26.9-73.4-26.9-73.4
			C534.1,556.9,542.8,591.9,542.8,609.5z"/>
		<path fill="#D264D2" d="M274.7,616.1c0,5.8-1.1,21.3-7.7,26.7c11.5,0,18.5-11.9,19.9-14.8c3.3-7.1,3.3-18,3.3-18
			c-0.3-34.8,10.2-48.6,10.2-48.6C282,576.8,274.7,606.2,274.7,616.1z"/>
		<path fill="#D264D2" d="M459.6,514.5c-4.6-8.2-28.1-15.9-64-17c-13.9-0.4-69.1-2.1-64.6,6.1c4.9,8.9,20.3,23,61.8,26
			C428.7,532.2,465.3,524.7,459.6,514.5z"/>
		<path fill="#D264D2" d="M335,647.2c0,0,21.3,7.5,57,7.5s56.3-7.5,56.3-7.5s-22.2,12.3-55.9,12.3c-2.9,0-4.9-0.1-7.6-0.3l-9.2,39.1
			l-3.2-4c2.3-7.2,1.4-30.3-0.1-36.2C352.5,655.2,340.1,650.3,335,647.2z"/>
		<path fill="#D264D2" d="M493.4,633l-13.7,59.8l-5.5-1c1.4-4.1,8.4-36.4,12.4-61.3c2.6-37.6-1.1-65.5-1.1-65.5
			C493.8,592.7,494.5,622.4,493.4,633z"/>
	</g>
	<g id="衣服_17_">
		<path fill="#DCA46E" stroke="#000000" stroke-width="1.4173" stroke-miterlimit="10" d="M316.9,511.2
			c-24.6,2.3-54.5,27.6-50.9,34.8c4.5-3.4,31.2,0.6,36,13c-10.5,18-12.4,49-11.7,64.3c3,3.7,31.8,61.5,101.8,61.5
			s101.5-61.5,101.5-61.5s3.5-41.7-10.3-64.3c1.5-6.7,26.2-16.5,34.2-13c5.4-6.4-22.2-30.1-46.1-34.8c-11.1-1.5-28.2,4.1-28.2,4.1
			c-1.8,8.8-17.2,19.6-32.4,24.1c-1.7,0.5-5.9,2.2-5.9,2.2s-10.9-0.2-12.9-0.5c-17.1-2.2-38.3-13.8-44.6-25.8L316.9,511.2z"/>
		<g>
			<defs>
				<path id="SVGID_9_" d="M316.9,511.2c-24.6,2.3-54.5,27.6-50.9,34.8c4.5-3.4,31.2,0.6,36,13c-10.5,18-12.4,49-11.7,64.3
					c3,3.7,31.8,61.5,101.8,61.5s101.5-61.5,101.5-61.5s3.5-41.7-10.3-64.3c1.5-6.7,26.2-16.5,34.2-13c5.4-6.4-22.2-30.1-46.1-34.8
					c-11.1-1.5-28.2,4.1-28.2,4.1c-2.4,11.4-27.6,26.2-45.4,26.2s-43.2-12.8-50.3-26.2L316.9,511.2z"/>
			</defs>
			<clipPath id="SVGID_2_">
				<use xlink:href="#SVGID_9_"  overflow="visible"/>
			</clipPath>
			<g clip-path="url(#SVGID_2_)">
				<polygon fill="#FFFF00" points="352.5,577 349,579.5 345.5,577 346,581.3 342,583 346,584.8 345.5,589 349,586.5 352.5,589 
					352,584.7 356,583 352,581.3 				"/>
				<polygon fill="#FFFF00" points="316,531.9 320,533.7 319.5,538 323,535.4 326.5,538 326,533.7 330,531.9 326,530.2 326.5,525.9 
					323,528.4 319.5,525.9 320,530.2 				"/>
				<polygon fill="#FFFF00" points="294,525.9 298,524.1 294,522.4 294.5,518.1 291,520.6 287.5,518.1 288,522.4 284,524.1 
					288,525.9 287.5,530.2 291,527.6 294.5,530.2 				"/>
				<polygon fill="#FFFF00" points="309,514.4 308.5,518.7 312,516.1 315.5,518.6 315,514.3 319,512.6 315,510.9 315.5,506.6 
					312,509.1 308.5,506.6 309,510.9 305,512.6 				"/>
				<polygon fill="#FFFF00" points="314.3,554.1 310.3,552.4 310.8,548.1 307.3,550.6 303.8,548.1 304.3,552.4 300.3,554.1 
					304.3,555.9 303.8,560.2 307.3,557.6 310.8,560.1 310.3,555.8 				"/>
				<polygon fill="#FFFF00" points="324.3,581.7 328.2,579.9 324.3,578.2 324.7,573.9 321.3,576.5 317.8,573.9 318.2,578.2 
					314.3,580 318.2,581.7 317.8,586 321.3,583.4 324.8,586 				"/>
				<polygon fill="#FFFF00" points="339.9,558.9 343.4,561.5 342.9,557.2 346.8,555.4 342.9,553.7 343.3,549.4 339.8,552 
					336.4,549.4 336.8,553.7 332.9,555.5 336.8,557.2 336.4,561.5 				"/>
				<polygon fill="#FFFF00" points="384.3,574.9 380.4,573.2 380.8,568.9 377.3,571.5 373.9,568.9 374.3,573.2 370.4,575 
					374.3,576.7 373.9,581 377.4,578.4 380.9,581 380.4,576.7 				"/>
				<polygon fill="#FFFF00" points="388.3,560.1 387.9,564.4 391.3,561.8 394.8,564.4 394.4,560.1 398.3,558.3 394.4,556.6 
					394.8,552.3 391.3,554.8 387.8,552.3 388.3,556.6 384.4,558.3 				"/>
				<polygon fill="#FFFF00" points="421.9,569.2 422.3,564.9 418.8,567.5 415.3,564.9 415.8,569.2 411.9,571 415.8,572.7 415.4,577 
					418.8,574.4 422.3,577 421.9,572.7 425.8,570.9 				"/>
				<polygon fill="#FFFF00" points="398.3,591.6 394.8,589.1 395.3,593.4 391.3,595.1 395.3,596.8 394.8,601.1 398.3,598.6 
					401.8,601.1 401.3,596.8 405.3,595.1 401.3,593.3 401.8,589 				"/>
				<polygon fill="#FFFF00" points="371.5,619.8 372,615.5 368.5,618.1 365,615.5 365.5,619.8 361.5,621.6 365.5,623.3 365,627.6 
					368.5,625 372,627.6 371.5,623.3 375.5,621.5 				"/>
				<polygon fill="#FFFF00" points="332,614.6 332.5,610.3 329,612.9 325.5,610.4 326,614.6 322,616.4 326,618.1 325.5,622.4 
					329,619.9 332.5,622.4 332,618.1 336,616.4 				"/>
				<polygon fill="#FFFF00" points="438.8,620.7 439.3,616.4 435.8,618.9 432.3,616.4 432.8,620.7 428.8,622.4 432.8,624.2 
					432.3,628.5 435.8,625.9 439.3,628.5 438.8,624.2 442.8,622.4 				"/>
				<polygon fill="#FFFF00" points="461.5,590.3 462,586 458.5,588.5 455,586 455.5,590.3 451.5,592.1 455.5,593.8 455,598.1 
					458.5,595.5 462,598.1 461.5,593.8 465.5,592 				"/>
				<polygon fill="#FFFF00" points="464.5,546.2 461,548.8 457.5,546.2 458,550.5 454,552.3 458,554 457.5,558.3 461,555.8 
					464.5,558.3 464,554 468,552.3 464,550.5 				"/>
				<polygon fill="#FFFF00" points="482.3,523.9 481.9,528.2 485.4,525.6 488.8,528.2 488.4,523.9 492.3,522.1 488.4,520.4 
					488.8,516.1 485.3,518.6 481.8,516.1 482.3,520.4 478.4,522.1 				"/>
				<polygon fill="#FFFF00" points="493.2,607.3 489.2,605.6 489.7,601.3 486.2,603.8 482.7,601.3 483.2,605.6 479.2,607.3 
					483.2,609.1 482.7,613.4 486.2,610.8 489.7,613.4 489.2,609.1 				"/>
				<polygon fill="#FFFF00" points="454.5,639.4 455,635.1 451.5,637.7 448,635.1 448.5,639.4 444.5,641.2 448.5,642.9 448,647.2 
					451.5,644.6 455,647.2 454.5,642.9 458.5,641.1 				"/>
				<polygon fill="#FFFF00" points="393.2,657.6 393.6,653.3 390.1,655.8 386.6,653.3 387.1,657.6 383.2,659.3 387.1,661.1 
					386.7,665.4 390.1,662.8 393.6,665.4 393.2,661.1 397.1,659.3 				"/>
				<polygon fill="#FFFF00" points="408.3,627.6 408.8,623.3 405.3,625.9 401.8,623.3 402.3,627.6 398.3,629.4 402.3,631.1 
					401.8,635.4 405.3,632.9 408.8,635.4 408.3,631.1 412.3,629.4 				"/>
				<polygon fill="#FFFF00" points="349.8,645.5 350.3,641.2 346.8,643.8 343.3,641.2 343.8,645.5 339.9,647.3 343.8,649 
					343.4,653.3 346.8,650.7 350.3,653.3 349.9,649 353.8,647.2 				"/>
				<polygon fill="#FFFF00" points="303.3,587.3 303.8,583 300.3,585.6 296.8,583 297.3,587.3 293.4,589.1 297.3,590.8 296.9,595.1 
					300.3,592.5 303.8,595.1 303.4,590.8 307.3,589 				"/>
			</g>
		</g>
		<g>
			<path fill="#FFD88E" stroke="#000000" stroke-width="1.4173" stroke-miterlimit="10" d="M393.6,672.7c-70,0-98.8-60.9-101.8-64.5
				c-0.1-2.2-0.1-4.8-0.1-7.6c-0.8,8.9-1,17-0.7,22.9c3,3.7,31.8,61.5,101.8,61.5s101.5-61.5,101.5-61.5s0.5-5.9,0.4-14.5
				C490.8,616.2,459,672.7,393.6,672.7z"/>
		</g>
		<path fill="#BF8F32" d="M477.5,551.5c10.9,31.6,10.3,75.1,10.3,75.1l5.2-2.8C493,623.7,496.1,575.4,477.5,551.5z"/>
		<path fill="#FFD88E" stroke="#000000" stroke-width="1.4173" stroke-miterlimit="10" d="M266.5,544.8c0,0-2.2-2.5,10-13.8
			c7.1-0.5,16.6,2.8,19,3.9c2.9,1.3,9.5,5.4,12.8,11.5c-1.1,3.2-5.9,11.9-5.9,11.9s-7.8-7.9-16.8-11.2
			C277.3,544,266.5,544.8,266.5,544.8z"/>
		<path fill="#FFD88E" stroke="#000000" stroke-width="1.4173" stroke-miterlimit="10" d="M518,544.8c0,0,2.2-2.5-10-13.8
			c-7.1-0.5-16.6,2.8-19,3.9c-2.9,1.3-9.5,5.4-12.8,11.5c1.1,3.2,5.9,11.9,5.9,11.9s7.8-7.9,16.8-11.2
			C507.3,544,518,544.8,518,544.8z"/>
		<g id="领子_1_">
			<path fill="#FFD88E" stroke="#000000" stroke-width="1.4173" stroke-miterlimit="10" d="M395.5,541.3c-11-0.3-45.5-20.9-48-26
				l-17.7-2.2l37.7,43L395.5,541.3z"/>
			<path fill="#FFD88E" stroke="#000000" stroke-width="1.4173" stroke-miterlimit="10" d="M444.2,515.6
				c-12,9.9-26.7,22.4-39.8,24.9l-8.2,0.9l0.8,45.1l7.9-0.6l-0.3-44.5l23.8,14.5l27.3-41.1L444.2,515.6z"/>
		</g>
		<g id="口子">
			<ellipse fill="#FF658E" cx="400.6" cy="552.4" rx="2.8" ry="2.4"/>
			<path fill="#BF4C6B" d="M402.3,550.5c0.3,0.4,0.5,0.9,0.5,1.4c0,1.3-1.3,2.4-2.8,2.4c-0.6,0-1.2-0.2-1.7-0.5c0.5,0.6,1.4,1,2.3,1
				c1.6,0,2.8-1.1,2.8-2.4C403.5,551.7,403,551,402.3,550.5z"/>
			<ellipse fill="#FF658E" cx="400.6" cy="572.2" rx="2.8" ry="2.4"/>
			<path fill="#BF4C6B" d="M402.3,570.3c0.3,0.4,0.5,0.9,0.5,1.4c0,1.3-1.3,2.4-2.8,2.4c-0.6,0-1.2-0.2-1.7-0.5c0.5,0.6,1.4,1,2.3,1
				c1.6,0,2.8-1.1,2.8-2.4C403.5,571.4,403,570.7,402.3,570.3z"/>
		</g>
	</g>
	<g id="脚_10_">
		<g id="脚_12_">
			<path fill="#D00E00" stroke="#000000" stroke-width="1.4173" stroke-miterlimit="10" d="M401.2,709.1c0,9.4,20.1,8.3,45,8.3
				s45,0.4,45-14.6c0-7.4-15.6-18.6-41.2-17.9s-36.2,6.9-41.1,14.5C402.7,700.1,401.2,702.7,401.2,709.1z"/>
			<path fill="#680000" d="M486.4,696c0,0,2.5,10.7-7.5,14s-76.4,6.8-77-2.8c-0.7,6.2,4,9.3,21.6,9.5c6.2,0,37.1,0,37.1,0
				s24.1,0.4,28.3-8C492.3,701.7,489.3,698.7,486.4,696z"/>
		</g>
		<g id="脚_11_">
			<path fill="#D00E00" stroke="#000000" stroke-width="1.4173" stroke-miterlimit="10" d="M383.2,709.1c0,9.4-20.1,8.3-45,8.3
				s-45,0.4-45-14.6c0-7.4,15.6-18.6,41.2-17.9s36.2,6.9,41.1,14.5C381.6,700.1,383.2,702.7,383.2,709.1z"/>
			<path fill="#680000" d="M294.7,706.7c0,3,6.2,9.8,23.8,9.9c6.2,0,37.1,0,37.1,0s28.5,2.1,26.8-9
				C373,714.6,301.9,715.2,294.7,706.7z"/>
		</g>
	</g>
	<g id="手_1_">
		<g id="手_3_">
			<g id="左手_2_">
				<path fill="#FFFFFF" stroke="#000000" stroke-width="1.4173" stroke-miterlimit="10" d="M497.2,632.8
					c-3.6,16.8,3.9,27.2,20.5,27.2c16.6,0,29-17.2,29-32.7c0-15.5-10.2-28.6-26.8-28.6c-12.7,0-19.4,3.8-25.4,14.1
					C490.7,619.7,498,629.3,497.2,632.8z"/>
				<path fill="#FFFFFF" stroke="#000000" stroke-width="1.4173" stroke-miterlimit="10" d="M513.9,627.5
					c-1.5,13-12.7,16.2-19.6,11.8c-6.1-3.8-9.1-14.5,0-25.9"/>
			</g>
			<path fill="#BFBFBF" d="M513.9,618.2c0,0,0,22.3-21,19C501.5,645.9,518.7,636.7,513.9,618.2z"/>
			<path fill="#BFBFBF" d="M509.8,638.2c0,0-3.7,4.8-12.5,3.3C496.4,651.7,509.4,643.2,509.8,638.2z"/>
			<path fill="#BFBFBF" d="M537.9,606.6c2.8,5.9,5.8,23.3-2.8,37c-6,9.5-11.9,15.1-21.2,15.5c16.1,2.1,24.9-10.8,27.2-14.6
				C546.7,635.9,549.6,618.5,537.9,606.6z"/>
		</g>
		<g id="手_2_">
			<g id="左手_1_">
				<path fill="#FFFFFF" stroke="#000000" stroke-width="1.4173" stroke-miterlimit="10" d="M287.2,632.8
					c3.6,16.8-3.9,27.2-20.5,27.2s-29-17.2-29-32.7c0-15.5,10.2-28.6,26.8-28.6c12.7,0,19.4,3.8,25.4,14.1
					C293.8,619.7,286.4,629.3,287.2,632.8z"/>
				<path fill="#FFFFFF" stroke="#000000" stroke-width="1.4173" stroke-miterlimit="10" d="M270.5,627.5
					c1.5,13,12.8,16.2,19.6,11.8c6.1-3.8,9.1-14.5,0-25.9"/>
			</g>
			<path fill="#BFBFBF" d="M291.4,616.4c1.5,2.4,2.9,11.3-0.7,17.3c-1.8,3-7.3,6.4-12.2,5.5c6.1,3.2,12.8,0.3,15.3-5.2
				C297.3,626.6,292.9,618.2,291.4,616.4z"/>
			<path fill="#BFBFBF" d="M272.3,621.6c-8,10.9,4.5,21.2,2.9,28.4c-0.8,3.5-5.9,10.4-15,8.3c7.4,2.5,19.4,0.3,23.5-5.7
				c1.1-1.6,3.4-4.2,3.7-11.2C276.6,644.1,266.1,632.9,272.3,621.6z"/>
		</g>
	</g>
	<g id="耳朵_4_">
		<g id="耳朵_19_">
			<path fill="#8BBBFF" stroke="#000000" stroke-width="1.4173" stroke-miterlimit="10" d="M341.7,208.4
				c-4.2-24.9-60.1-92.9-138.2-48.3C149,192,149.8,274,208.3,326.7L341.7,208.4z"/>
			<path fill="#6EA0DC" d="M254.9,145.3c43,6.6,70.9,44.8,73.8,62.1l13,1C338.5,189.4,305.2,145.3,254.9,145.3z"/>
			<path fill="#E68AD6" stroke="#000000" stroke-width="0.7087" stroke-miterlimit="10" d="M229.5,277.8c-5-0.4-41.5-52.2-2-77.4
				c38.8-24.8,76.6,15.4,76,22.4L229.5,277.8z"/>
		</g>
		<g id="耳朵_6_">
			<path fill="#8BBBFF" stroke="#000000" stroke-width="1.4173" stroke-miterlimit="10" d="M441.5,208.4
				c4.2-24.9,60.1-92.9,138.2-48.3c54.6,31.9,53.8,113.9-4.8,166.6L441.5,208.4z"/>
			<path fill="#6EA0DC" d="M579.7,160.1c-1.1-0.6-2.2-1.2-3.3-1.8C622.1,193,619,268,565,317.9l9.9,8.7
				C633.5,274,634.2,192,579.7,160.1z"/>
			<path fill="#E68AD6" stroke="#000000" stroke-width="0.7087" stroke-miterlimit="10" d="M553.7,277.8c5-0.4,41.5-52.2,2-77.4
				c-38.8-24.8-76.6,15.4-76,22.4L553.7,277.8z"/>
		</g>
	</g>
	<g id="面部_15_">
		<path id="面部_16_" fill="#FFCA59" stroke="#000000" stroke-width="1.4173" stroke-miterlimit="10" d="M214.3,278.3
			c11.2-30.5,46.9-77.2,129.7-100c36.3-10,61.8-8.8,96.6,0.5c41.8,11.2,105.2,42.4,128.8,98.9c11.7,28,11.7,87.7,11.7,87.7
			s23.3,12,23.3,49.3c0,32.5-52.7,87.4-157.3,100.9c-15.4,2-29.3,11.1-53.3,11.1s-38-9.3-54.8-11.6C236.1,501,179,448.5,179,414.7
			c0-34.2,25.5-48.8,25.5-48.8S201,314.7,214.3,278.3z"/>
		<path fill="#E2A048" d="M532.7,227.5c34.8,34.5,46.6,60.2,47.7,138.2c0,0-7.3,1.1-13.4,5.4C573.9,347.5,572.5,271,532.7,227.5z"/>
		<path fill="#E2A048" d="M267,496.2c18.9,9.2,64.8,17.7,77.4,19.2c6.4,1.4,29.4,10.5,47,10.5s30.2-3.9,46.7-9.6
			c29.3-2.6,80.2-15.3,104.8-31c-30.3,13.1-68.9,21.4-97.6,25.7c3.7-3.3,8.2-5.9,11.8-11.9c-15.7,13.9-34.1,19.9-61.5,20.6
			C384.7,519.9,312,509.5,267,496.2z"/>
	</g>
	<g id="鼻子_3_">
		<ellipse fill="#C8D6FF" stroke="#000000" stroke-width="1.4173" stroke-miterlimit="10" cx="391.3" cy="421.3" rx="90" ry="59"/>
		<path fill="#8CAEE6" d="M392,467.5c-28.1,1.3-47.3-1.5-68.3-8.4c6.1,6,32.9,20.6,67.2,20.6c48.4,0,89.7-24.6,89.7-58.4
			C475.8,438.2,445.9,465,392,467.5z"/>
		<g id="鼻子_4_">
			<path fill="#69301B" stroke="#000000" stroke-miterlimit="10" d="M404.4,385.7c-5.2,0-8,2.3-13.5,2.4c-5.5-0.1-8.3-2.4-13.5-2.4
				c-10,0-18.5,8.3-18.5,15.5c0,7.3,6.2,16.9,19.6,18.3c3.1,0.3,22,0.4,24.7,0c13.3-2,19.6-11,19.6-18.3
				C422.9,394,414.4,385.7,404.4,385.7z"/>
			<path fill="#3F1000" d="M420.8,406c0,4.5-6.4,10.1-14,12.3c-4.9,1.4-10,1-16.5,1c-5.7,0-10.3,0.4-14.8-0.7
				c-8.7-2.1-14.9-8.3-14.9-12.6c0-6.6,13.4-9,30-9S420.8,399.3,420.8,406z"/>
		</g>
	</g>
	<g id="眼睛_37_">
		<linearGradient id="SVGID_2_" gradientUnits="userSpaceOnUse" x1="448.5415" y1="351.7919" x2="532.2632" y2="351.7919">
			<stop  offset="0" style="stop-color:#EA969E"/>
			<stop  offset="1" style="stop-color:#FFB5A8"/>
		</linearGradient>
		<path fill="url(#SVGID_2_)" d="M524.7,326.7c17.5,42.8,2.8,76.1-24.6,76.1s-47.7-28.8-50.6-44.6c-4-20.6,4.9-42.7,20.5-51.1
			C489.5,296.5,512.7,297.3,524.7,326.7z"/>
		<linearGradient id="SVGID_3_" gradientUnits="userSpaceOnUse" x1="237.0114" y1="334.1588" x2="297.4662" y2="365.2986">
			<stop  offset="0" style="stop-color:#EA969E"/>
			<stop  offset="1" style="stop-color:#FFB5A8"/>
		</linearGradient>
		<path fill="url(#SVGID_3_)" d="M304.6,326.7c20.7,41.4-1.1,75.1-24.6,76.1c-18.5,0.8-31.7-19.4-34.5-35.2
			c-4-20.6,0.4-34.5,11-48.8C264.4,308,291.7,300.7,304.6,326.7z"/>
		<g id="眼睛_39_">
			<radialGradient id="SVGID_4_" cx="281.6733" cy="358.1066" r="37.8513" gradientUnits="userSpaceOnUse">
				<stop  offset="0" style="stop-color:#4D4D4D"/>
				<stop  offset="1" style="stop-color:#1A1A1A"/>
			</radialGradient>
			<ellipse fill="url(#SVGID_4_)" stroke="#000000" stroke-miterlimit="10" cx="281.7" cy="358.1" rx="30" ry="44.3"/>
			
				<radialGradient id="SVGID_5_" cx="247.4604" cy="358.1066" r="28.178" gradientTransform="matrix(0.9851 0 0 1 37.9048 0)" gradientUnits="userSpaceOnUse">
				<stop  offset="0" style="stop-color:#333333"/>
				<stop  offset="1" style="stop-color:#000000"/>
			</radialGradient>
			<ellipse fill="url(#SVGID_5_)" cx="281.7" cy="358.1" rx="22" ry="33"/>
			
				<ellipse transform="matrix(0.3609 -0.9326 0.9326 0.3609 -147.2983 475.2638)" fill="#F2F2F2" cx="273.1" cy="345.1" rx="7" ry="5.7"/>
			<ellipse cx="281.7" cy="358.1" rx="8" ry="13"/>
			<path fill="#FFFFFF" d="M298.1,378.9c-1.4,2.5-3.6,4.4-4.3,3.6c-0.8-0.8,0.9-0.9,2.7-4.4c1.9-3.5,1.5-4.6,2.6-4.5
				C300.1,373.7,299.5,376.4,298.1,378.9z"/>
			<ellipse fill="#FFFFFF" cx="264.4" cy="359.7" rx="2.8" ry="4.1"/>
		</g>
		<g id="眼睛_38_">
			<radialGradient id="SVGID_6_" cx="502.6734" cy="358.1066" r="37.8513" gradientUnits="userSpaceOnUse">
				<stop  offset="0" style="stop-color:#4D4D4D"/>
				<stop  offset="1" style="stop-color:#1A1A1A"/>
			</radialGradient>
			<ellipse fill="url(#SVGID_6_)" stroke="#000000" stroke-miterlimit="10" cx="502.7" cy="358.1" rx="30" ry="44.3"/>
			
				<radialGradient id="SVGID_7_" cx="471.8076" cy="358.1066" r="28.178" gradientTransform="matrix(0.9851 0 0 1 37.9048 0)" gradientUnits="userSpaceOnUse">
				<stop  offset="0" style="stop-color:#333333"/>
				<stop  offset="1" style="stop-color:#000000"/>
			</radialGradient>
			<ellipse fill="url(#SVGID_7_)" cx="502.7" cy="358.1" rx="22" ry="33"/>
			
				<ellipse transform="matrix(0.3609 -0.9326 0.9326 0.3609 -6.0616 681.3678)" fill="#F2F2F2" cx="494.1" cy="345.1" rx="7" ry="5.7"/>
			<ellipse cx="502.7" cy="358.1" rx="8" ry="13"/>
			<path fill="#FFFFFF" d="M519.1,378.9c-1.4,2.5-3.6,4.4-4.3,3.6c-0.8-0.8,0.9-0.9,2.7-4.4c1.9-3.5,1.5-4.6,2.6-4.5
				C521.1,373.7,520.5,376.4,519.1,378.9z"/>
			<ellipse fill="#FFFFFF" cx="485.4" cy="359.7" rx="2.8" ry="4.1"/>
		</g>
	</g>
	<g id="眼镜">
		<path fill="#FF0000" stroke="#000000" stroke-miterlimit="10" d="M526.5,289.4l-22.5,5.5l-20-5c-27.9-7-54.9,14.1-54.9,42.8
			c0.2,0-18.1-5.9-37-6c-19.5-0.1-31.5,3.5-37.7,6.1c-2.2-26.7-27.9-45.6-54.5-39.1l-22.5,5.5l-20-5c-27.9-7-54.9,14.1-54.9,42.8
			v0.2c0,18.2,7.8,35.5,21.4,47.6l53.6,47.7l55.1-47.6c9.7-8.4,16.5-19.3,19.8-31.4c7.3-2.8,23.4-8.2,40.3-8.2
			c18.9,0,34.3,6.6,39.8,9.6c3.6,9,10.6,19.1,18,25.7l53.6,47.7l55.1-47.6c14-12.1,22-29.7,22-48.2v0
			C581.1,303.6,554.3,282.6,526.5,289.4z M318,374.1l-40.3,32.4l-39.2-32.4c-9.9-8.2-15.6-20-15.6-32.3v-0.1
			c0-19.5,19.8-33.8,40.2-29.1l14.6,3.4l16.5-3.7c20.3-4.6,40,9.7,40,29.1C334.1,354,328.2,365.9,318,374.1z M544.5,369.9
			l-40.3,32.4L465,369.9c-9.9-8.2-15.6-20-15.6-32.3v-0.1c0-19.5,19.8-33.8,40.2-29.1l14.6,3.4l16.5-3.7c20.3-4.6,40,9.7,40,29.1
			C560.7,349.8,554.8,361.7,544.5,369.9z"/>
		<path fill="#FF9272" d="M275.7,300.9c0,0-17.4-5.5-34.7-4.2c-14.9,1.1-34.1,17.4-34.3,36.8c-0.2,18.3,5.7,28.8,5.7,28.8
			s-5.7-21.3-1.7-33.1c3.8-11.2,12.9-26.3,33.4-29.9C260.3,296.5,275.7,300.9,275.7,300.9z"/>
		<path fill="#FF9272" d="M284,300.9c4.3-1.7,10.6-4.4,23.7-5.9c5.8-0.8,14,0.6,16.3,1.5c-1.6,0-5.1-1.1-14.2-0.5
			C301.1,296.6,292,298.5,284,300.9z"/>
		<path fill="#FF9272" d="M507.6,295.5c4.3-1.7,12-5,25.1-6.5c5.8-0.8,12.7,1.2,14.9,2.1c-1.6,0-4.2-0.1-13.2,0.5
			C525.6,292.2,515.8,293.6,507.6,295.5z"/>
		<path fill="#BE0000" d="M277.7,407.2l-39.4-32.6c-9.9-8.2-15.9-19.8-15.9-32.5c0-20.3,17.8-36.1,40.8-30l14.5,3.4l-0.9-3.3
			c-5.6-2.4-17.9-3.7-21.3-4.3c-20.8-2.8-39.2,10.1-39.2,31.9v0.1c0,13.8,6.4,27,17.5,36.1l43.9,35.3V407.2z"/>
		<path fill="#FF9272" d="M334.7,341c0,12.6-5.9,25.3-16.2,33.5l-40.7,32.7c0.3,0.9,0.4,2.8,0.1,4c9.9-6.6,35-27.5,35-27.5
			c11.4-9.2,23.8-20.4,25.2-34.7c0.8-15.4-4.1-25.7-17.3-36.2c2.9,3.9,7.3,9.8,8.7,12.3C331.8,327.8,334.7,335.1,334.7,341z"/>
		<path fill="#BE0000" d="M277.4,431.3v-5.5c0,0,47.9-40.5,55.1-47.6c12.3-12.2,15.6-30.9,15.6-30.9s21.7-7.8,42.1-7.8
			c20.4,0,40.4,8.3,40.4,8.3l2,6c0,0-18.2-9.5-42.1-9.1c-23.9,0.4-38.7,8.3-38.7,8.3s-4.6,18.4-17,28.7
			C327.9,387.6,277.4,431.3,277.4,431.3z"/>
		<path fill="#BE0000" d="M504,427.3v-5.5c0,0,47.9-40.5,55.1-47.6c12.3-12.2,15.6-30.9,15.6-30.9s4.6-28.1-11.3-45.3
			c24.5,18.6,14.9,51,14.9,51s-4.6,18.4-17,28.7C554.5,383.6,504,427.3,504,427.3z"/>
		<path fill="#FF9272" d="M358.9,332.8c0,0,17-6.1,34.5-5.8c18.8,0.4,33.3,5.8,36,6.5c-7.9-1-22.6-3.3-34.8-3.1
			C382.5,330.7,374.2,330.2,358.9,332.8z"/>
		<path fill="#BE0000" d="M332.1,298.9c0,0,11,6.1,16.3,16.4c5.3,10.3,5.5,18.3,5.5,18.3s-4.7,0.4-5.8,1.9
			c-1.4-6.1-1.2-12.8-5.7-22.3C337.8,303.6,332.1,298.9,332.1,298.9z"/>
		<path fill="#BE0000" d="M277.7,315.4c4-0.3,23.1-7,33.5-3.3c10.5,3.8,15.7,8.8,18.2,12.6c-2.1-7.5-12.1-15.2-20.1-17.1
			c-7.4-1.7-24,1.5-31,4.5L277.7,315.4z"/>
		<path fill="#BE0000" d="M504,402.7l-39.4-32.6c-9.9-8.2-15.9-19.8-15.9-32.5c0-20.3,17.8-36.1,40.8-30L504,311l-0.9-3.3
			c-5.6-2.4-17.9-3.7-21.3-4.3c-20.8-2.8-39.2,10.1-39.2,31.9v0.1c0,13.8,6.4,27,17.5,36.1l43.9,35.3V402.7z"/>
		<path fill="#FF9272" d="M561,336.5c0,12.6-5.9,25.3-16.2,33.5l-40.7,32.7c0.3,0.9,0.4,2.8,0.1,4c9.9-6.6,35-27.5,35-27.5
			c11.4-9.2,23.8-20.4,25.2-34.7c0.8-15.4-4.1-25.7-17.3-36.2c2.9,3.9,7.3,9.8,8.7,12.3C558.1,323.4,561,330.7,561,336.5z"/>
		<path fill="#BE0000" d="M504,311c4-0.3,23.1-7,33.5-3.3c10.5,3.8,15.7,8.8,18.2,12.6c-2.1-7.5-12.1-15.2-20.1-17.1
			c-7.4-1.7-24,1.5-31,4.5L504,311z"/>
		<path fill="#FF9272" d="M479.3,289.5c0,0-15.6-2.9-29.9,6.3s-18.5,25.5-18.5,25.5s-1.8,9.6-1.5,11.8c2.1,0.4,2.4,1.9,2.4,1.9
			s0.4-15.3,8.3-24.7C447.9,301.1,455.3,291.1,479.3,289.5z"/>
	</g>
	<g id="口罩_1_">
		<path fill="#BDC3FF" stroke="#000000" stroke-width="1.0614" stroke-miterlimit="10" d="M188.8,412c21.2-11.7,130,34,211.2,35.5
			s187.8-48,198.4-36.6c12.6,13.5,6.8,56.5-109.2,98.1s-227.1-12.9-238.3-18.8C239.7,484.2,165.9,444.7,188.8,412z"/>
		<path fill="#B2A8EA" d="M490.4,450.5c0,0-7,3.5-15.2,5.7c-0.3,3.8-8.7,16.6-18.8,26c2.8-0.9,15-9.2,24.2-16.4
			c0.9-0.7,45.5-13.4,46.4-14.1c-6.3,0-33.2,3.5-32.3,2.8c3.1-2.8,18-18.5,20.7-20.2C518.1,432.7,496.6,447.7,490.4,450.5z"/>
		<path fill="#B2A8EA" d="M293,450.5c0,0,7,3.5,15.2,5.7c0.3,3.8,8.7,16.6,18.8,26c-2.8-0.9-15-9.2-24.2-16.4
			c-0.9-0.7-45.5-13.4-46.4-14.1c6.3,0,33.2,3.5,32.3,2.8c-3.1-2.8-18-18.5-20.7-20.2C265.3,432.7,286.8,447.7,293,450.5z"/>
		<path fill="#B2A8EA" d="M335.4,492.7c0,0,35,18.3,87.5,11.3c9.9-1,35.7-6.9,46.2-12.7c-4.2,4-10,7.3-24.9,11.2
			c3.1,2,55.4,0.9,102.5-22.8c-67.6,32.9-102.1,47.9-155.9,44.7c-53.8-3.2-115.5-26-123.7-28.2c37.8,9.4,66.9,13.7,84.3,14
			C345,505.6,335.4,492.7,335.4,492.7z"/>
		<g>
			<path fill="#BDC3FF" stroke="#000000" stroke-width="1.0614" stroke-miterlimit="10" d="M591,412c0,0,10.2-10.9,7.5-26.3
				c3.4,4.6,3.8,11.1,3.8,11.1s0.7,12.5-4.5,17.5L591,412z"/>
			<line fill="none" stroke="#000000" stroke-width="1.0614" stroke-miterlimit="10" x1="593.8" y1="411.2" x2="595.6" y2="412"/>
			<line fill="none" stroke="#000000" stroke-width="1.0614" stroke-miterlimit="10" x1="596.7" y1="412.5" x2="598.3" y2="413.3"/>
		</g>
		<g>
			<path fill="#BDC3FF" stroke="#000000" stroke-width="1.0614" stroke-miterlimit="10" d="M193.4,412c0,0-10.2-10.9-7.5-26.3
				c-3.4,4.6-3.8,11.1-3.8,11.1s-0.7,12.5,4.5,17.5L193.4,412z"/>
			<line fill="none" stroke="#000000" stroke-width="1.0614" stroke-miterlimit="10" x1="190.5" y1="411.2" x2="188.8" y2="412"/>
			<line fill="none" stroke="#000000" stroke-width="1.0614" stroke-miterlimit="10" x1="187.7" y1="412.5" x2="186.1" y2="413.3"/>
		</g>
	</g>
	<g id="头发_7_">
		<path fill="#C87A4A" stroke="#000000" stroke-width="1.4173" stroke-miterlimit="10" d="M364.8,196.7
			c-26.6-6.4-37.6-38.8-23.1-58.7c-3.2,16.8,9.8,36.2,37.8,33.6"/>
		<path fill="#AA5834" d="M340.5,141.2c0,0-1.2,8.3,0.4,14.6c2.3,8.7,10.2,15.5,10.2,15.5s-6.1,0.6-8.9-2.4c0.3,0.6,4.9,4.7,5.9,5.3
			c12.1,7.9,23.3,8.5,23.3,8.5s-8.9,1.1-14.9-0.6c6.7,4.3,21.7,4.9,21.7,4.9s-4.8,2.7-9.9,1.4c6.3,2.5,15.9,3.4,22.8,1.7l-14.4-17.4
			C371.2,173.3,340.9,171.3,340.5,141.2z"/>
		<path fill="#C87A4A" stroke="#000000" stroke-width="1.4173" stroke-miterlimit="10" d="M445.2,180.1c-16.5-4.2-20.3-24.4-6-27.6
			c-14.9-3.3-21.7,16.3-17.7,21.8c-13.6-1-48-22.5-40.8-55.3c-13,15.5-24.8,68.8,30.3,77.7"/>
		<path fill="#AA5834" d="M400.3,184.9c-23.7-12-27.2-38.2-20.8-62.1c-4.5,32.1,32,54.1,47.5,53.1c-4-5.5-4.3-18,8.8-23
			c-10.9,5.4-7.1,23.8,9.3,28c0,0-7.1,0.9-18.1-5c0,1.1,15.7,9,15.7,9l-21.8-8.9l20.7,13.1l-15-3l6.8,5l-17.1-6.9l22.3,14.4
			L400.3,184.9z"/>
	</g>
	<g id="帽子_5_">
		<path fill="#6C6B86" d="M616.1,177.7c0,0-15-9.9-43.4-2.4c-18.7,5-34.4,14.2-46.4,10.7c-5.5-2.7-16.2-20.2-20.7-41.5
			C491,74.9,455.1,56,442.9,55.6s-18.4,8.3-35.8,6.9c-17.4-1.5-30.4-11.4-45.8-6.8c-15.4,4.6-43.7,22.8-69.1,79.9
			c-4.7,10.5-19.6,41.2-25.8,43.8c-10.4,7.6-43.2-22.6-77.9-19.4c-34.6,3.2-54.2,64.6,57.4,82.2c76.5,12.1,216.2,13.2,304.5-7.8
			C638.8,213.3,621.7,181.5,616.1,177.7z"/>
		<path fill="#484759" d="M377.1,59.1c3.9-1.1,23.3,6.9,30.4,6.9s21.3-4.2,23.3-4.8s9.2-3.7,5.3,3.4c-4.3,7.8-17.5,9.8-25.2,9.8
			c-10.2,0-23.4-1.5-29.8-6.5C377.5,65,373.2,60.2,377.1,59.1z"/>
		<path fill="#484759" d="M597.7,181.8c-11.4-8.6-27.8,3.5-34.9,6.5c-11.3,4.8-23.3,2-34.5-0.5c7.4,8.9,19.5,13.5,22,14.5
			c3.5,1.4,3.3,7-14,15c-12.3,5.7-41.1,14.6-48.1,15.3c-9.4,0.9-68.3,9.6-95.7,9.7c-31.2,0-65.1-4.9-78.2-6.8
			c-14.5-2.2-39.6-6.9-67.4-17.1c-7.2-2.7-19.8-15.3-18.9-18.2c3.2,0.1,29.8-5.2,36.9-18.2c-11.2,2.6-23.4,2.2-34.8-2.7
			c-7.1-3-30.8-17.1-42.2-8.6c-4.7,3.5-1.6,19.6,7.4,25c34.1,26.5,115.5,50,197.2,48.6c93.7-1.7,181.1-21.3,198.9-45.2
			C597.8,192.9,601.6,184.8,597.7,181.8z"/>
		<path fill="#FEB3AE" d="M278.6,162.8c0,0,72.5-8,119.2-5c46.7,3,110,2.2,114,5.4c4,3.1,13.7,21,13.5,22s-94.8,1-132.6,0.2
			c-37.5-0.8-125.7-3.6-126.1-6.1C269.3,176.9,277.1,163.9,278.6,162.8z"/>
		<path fill="#B79CC1" d="M179,162.4c-14.9,6.1-23.1,25.4-13.5,40.8c16.3,26.2,42.9,30.1,66.3,36.4c9.4,2.5,20.8,4.3,30.9,5.5
			c6.2,0.7,72.3,7.9,136.7,5.5c39.1-0.9,106.3-5.6,152.3-16.5c14.5-3.4,32.4-9.1,40.9-13.7c-6,2.2-33.1,10-46.7,13.1
			c-46.2,10.6-109.2,14-147.3,15.3c-64,2.2-130.9-5.1-135.1-6.1c-18.3-4.4-38.3-11-51.8-16.3c-19.8-7.7-36.8-21.8-40.6-34.6
			C169.1,185.3,168.7,171.3,179,162.4z"/>
		<path fill="#BD605B" d="M511.7,163.2c1.7,1.1,13.3,18.2,13.5,22c-5.9,0.8-106.4,1.3-135.5,0.1c20.1-1.3,62-2.1,73.3-7.8
			c4.7-2.4,27.8-14.6,31.8-16.2C499.4,161.5,510,162.1,511.7,163.2z"/>
		<path fill="#595050" d="M454.6,59.2c9.1,2.7,37.3,31,46.3,66.6c5.3,16,9.8,35.4,10.8,37.4c-1.6,0.4-75.5-3.7-75.5-3.7
			c11.9-1.4,45.3-0.4,47.3-1.2c-0.8-6.9-3.8-29.8-7.2-44.7c-4-17.7-15.4-34.1-22.7-41.4C456.8,70.3,457.7,68.4,454.6,59.2z"/>
		<path fill="#595050" d="M518.3,186c0,0,8.9,13.4,24.9,19.3c-31.3,17.9-111.8,31.4-132.2,27.7c21.4-3.5,64.1-23.2,68.6-29.2
			c3.1-4.2,4.3-9.6,4.9-13.5c-2.1-0.4-13.5-2.1-20.8-2.6c-7.4-0.5-84-2.7-84-2.7L518.3,186z"/>
	</g>
</g>
</svg>