<?xml version="1.0" encoding="utf-8"?>
<svg version="1.0" id="layer_1" xmlns="http://www.w3.org/2000/svg" xmlns:xlink="http://www.w3.org/1999/xlink" x="0px" y="0px" viewBox="0 0 800 800" enable-background="new 0 0 800 800" xml:space="preserve">
<g id="_x31__2_">
	<g id="身体_8_">
		<path fill="#FFCA59" stroke="#000000" stroke-width="1.4173" stroke-miterlimit="10" d="M291.3,599.9c0.9-16.5,4-26.1,6.4-31.4
			C293.8,577.2,292.1,589,291.3,599.9l-0.4,14.5c0,9.2,0.5,17.7,0.5,17.7l13.1,65.4l71.6,1.9l9.4-39.9c0,0,3.8,0.4,6.6,0.4
			c2.8,0,6.6-0.4,6.6-0.4l9.4,39.9l71.6-1.9l13.1-65.4c0,0,0.5-8.2,0.5-17.1c0,0-0.2-33.1-6.8-46.5c2.1,3.2,5.8,16.1,6.5,34.5
			l0.4,12c3.6,39.4,49.8,38.6,49.8-5c0-45.3-33.4-74.5-41.8-80c-15.2-10.7-43.5-17.3-43.5-17.3h-65.7H392h-65.7
			c0,0-28.3,6.6-43.5,17.3c-8.4,5.5-41.8,34.7-41.8,80c0,43.8,46.6,44.3,49.8,4.4L291.3,599.9z"/>
		<path opacity="0.1" fill="#FFD2BE" d="M437.7,576.5c-10.9-19-1-39.8-11.4-39.8c-10.4,0-14.2,9.4-33,9.4c-0.1,0-0.7,0-0.8,0
			c-18.8,0-22.6-9.4-33-9.4s-0.5,20.8-11.4,39.8c-22.8,39.7,5.8,74.2,42.6,74.2c0.8,0,3.7,0,4.4,0
			C431.9,650.8,460.5,616.2,437.7,576.5z"/>
		<path fill="#E2A048" d="M542.8,609.5c0,10.4-6.2,31.3-16,29.3c4.2-12,3.7-32.8,3.7-32.8c1.9-45.3-26.9-73.4-26.9-73.4
			C534.1,556.9,542.8,591.9,542.8,609.5z"/>
		<path fill="#E2A048" d="M274.7,616.1c0,5.8-1.1,21.3-7.7,26.7c11.5,0,18.5-11.9,19.9-14.8c3.3-7.1,3.3-18,3.3-18
			c-0.3-34.8,10.2-48.6,10.2-48.6C282,576.8,274.7,606.2,274.7,616.1z"/>
		<path fill="#E2A048" d="M459.6,514.5c-4.6-8.2-28.1-15.9-64-17c-13.9-0.4-69.1-2.1-64.6,6.1c4.9,8.9,20.3,23,61.8,26
			C428.7,532.2,465.3,524.7,459.6,514.5z"/>
		<path fill="#F2B484" d="M335,647.2c0,0,21.3,7.5,57,7.5s56.3-7.5,56.3-7.5s-22.2,12.3-55.9,12.3c-2.9,0-4.9-0.1-7.6-0.3l-9.2,39.1
			l-3.2-4c2.3-7.2,1.4-30.3-0.1-36.2C352.5,655.2,340.1,650.3,335,647.2z"/>
		<path fill="#F2B484" d="M492.7,630.7l-13,55.1l-5.5,6c1.4-4.1,8.4-36.4,12.4-61.3c2.6-37.6-1.1-65.5-1.1-65.5
			C494.2,589.8,493.2,626.7,492.7,630.7z"/>
	</g>
	<g id="衣服_10_">
		<path fill="#262222" stroke="#000000" stroke-width="0.7087" stroke-miterlimit="10" d="M316.9,511.2
			c-24.6,2.3-54.5,27.6-50.9,34.8c4.5-3.4,31.2,0.6,36,13c-11.6,17.2-12.4,49-11.7,64.3c3,3.7,31.4,24.7,101.4,24.7
			s101.9-24.7,101.9-24.7s3.5-41.7-10.3-64.3c1.5-6.7,26.2-16.5,34.2-13c5.4-6.4-22.2-30.1-46.1-34.8c-11.1-1.5-33.9,4.1-33.9,4.1
			c-6.1,9.8-27.6,19.5-45.4,19.5s-37.5-6.1-44.6-19.5L316.9,511.2z"/>
		<polygon fill="#FFB464" points="391.3,569.5 403.7,584.6 431.3,587 411.3,598.8 416.1,615.5 391.3,607.6 366.6,615.5 371.3,598.8 
			351.3,587 379,584.6 		"/>
		<path d="M482.9,559.3c10.9,31.6,4.9,67.2,4.9,67.2l5.2-2.8C493,623.7,496.9,583.2,482.9,559.3z"/>
		<g>
			<path stroke="#000000" stroke-width="0.7087" stroke-miterlimit="10" d="M344.3,510.9l12.1,56.3l2.4,105.5l-59.6,4.7l1.8,8.2
				l-13.7,1.4l-2.4-40.8c0,0-1.8-35.7,5.9-52.5c-4.8-6.1-47-6.7-47-6.7s13.2-63.1,65.2-74.5c9.4-3,17.2-3.8,23.1-3.6
				C339.9,509.2,344.3,510.9,344.3,510.9z"/>
			<polygon fill="#333333" stroke="#333333" stroke-width="0.7087" stroke-miterlimit="10" points="330.8,510.9 315.6,561.8 
				339.9,564.9 313.4,576.5 357.3,642.8 355.2,567.3 343,510.2 			"/>
			<path stroke="#000000" stroke-width="0.7087" stroke-miterlimit="10" d="M440.5,510.9l-12.1,56.3l-2.4,105.5l59.2,4.7l-1.7,8.2
				l14,1.5l2.4-40.8c0,0,1.8-35.7-5.9-52.5c4.8-6.1,47-6.7,47-6.7s-13.2-63.1-65.2-74.5c-9.4-3-17.2-3.8-23.1-3.6
				C444.9,509.2,440.5,510.9,440.5,510.9z"/>
			<polygon fill="#333333" stroke="#333333" stroke-width="0.7087" stroke-miterlimit="10" points="454,510.9 469.2,561.8 
				444.9,564.9 471.4,576.5 427.4,642.8 429.6,567.3 441.8,510.2 			"/>
		</g>
		<polygon stroke="#000000" stroke-width="0.7087" stroke-miterlimit="10" points="380.3,681.3 404,681.3 399.1,659.5 385.4,659.5 
					"/>
	</g>
	<g id="脚_20_">
		<g id="鞋_8_">
			<path fill="#4F00DE" stroke="#000000" stroke-miterlimit="10" d="M482.8,707.7c0,0,3.2-16.7-12.5-18.4c-16.1,0-50.7,0-50.7,0
				s-14.2,1.1-14.2,19.1l38.7,1.6L482.8,707.7z"/>
			<path fill="#FFFFFF" stroke="#000000" stroke-width="0.982" stroke-miterlimit="10" d="M403,716.2c0,0,10,3.9,39.5,3.9
				c29.5,0,41.5-3.9,41.5-3.9s1.6-9.3,0-10c-1.6-0.7-15,3.9-41.5,3.9c-26.5,0-38.3-5.1-39.5-3.9C401.8,707.4,403,716.2,403,716.2z"
				/>
			<path fill="#BFBFBF" d="M484.2,708.1c0,0-15.2,6.3-39.7,4.9c0,6-28.3,5.1-28.3,5.1s39.4,4.7,67.6-2.4L484.2,708.1z"/>
			<line fill="none" stroke="#000000" stroke-width="0.982" stroke-miterlimit="10" x1="479" y1="706.8" x2="479" y2="717.3"/>
			<line fill="none" stroke="#000000" stroke-width="0.982" stroke-miterlimit="10" x1="473.5" y1="707.7" x2="473.5" y2="718.1"/>
			<line fill="none" stroke="#000000" stroke-width="0.982" stroke-miterlimit="10" x1="467.8" y1="708.4" x2="467.8" y2="718.8"/>
			<line fill="none" stroke="#000000" stroke-width="0.982" stroke-miterlimit="10" x1="461.4" y1="709.2" x2="461.4" y2="719.4"/>
			<line fill="none" stroke="#000000" stroke-width="0.982" stroke-miterlimit="10" x1="454.4" y1="709.7" x2="454.4" y2="719.8"/>
			<line fill="none" stroke="#000000" stroke-width="0.982" stroke-miterlimit="10" x1="447" y1="710" x2="447" y2="720.1"/>
			<line fill="none" stroke="#000000" stroke-width="0.982" stroke-miterlimit="10" x1="439" y1="709.8" x2="439" y2="719.8"/>
			<line fill="none" stroke="#000000" stroke-width="0.982" stroke-miterlimit="10" x1="432" y1="709.8" x2="432" y2="719.8"/>
			<line fill="none" stroke="#000000" stroke-width="0.982" stroke-miterlimit="10" x1="423.4" y1="709.2" x2="423.4" y2="719.2"/>
			<line fill="none" stroke="#000000" stroke-width="0.982" stroke-miterlimit="10" x1="415.8" y1="707.6" x2="415.8" y2="718.6"/>
			<line fill="none" stroke="#000000" stroke-width="0.982" stroke-miterlimit="10" x1="409.5" y1="706.7" x2="409.5" y2="717.7"/>
			<path fill="#A668FF" d="M448.4,691.4c0,0-19-2-29.1,1.9c-5.3,1.8-7.4,11.3-7.5,12.7c4.5,1.3,9.6,1.6,9.6,1.6s-2.3-6.6,2.1-10.1
				S438.3,690.6,448.4,691.4z"/>
		</g>
		<g id="鞋_7_">
			<path fill="#4F00DE" stroke="#000000" stroke-miterlimit="10" d="M378.8,707.7c0,0,3.2-16.7-12.5-18.4c-16.1,0-50.7,0-50.7,0
				s-14.2,1.1-14.2,19.1l38.7,1.6L378.8,707.7z"/>
			<path fill="#FFFFFF" stroke="#000000" stroke-width="0.982" stroke-miterlimit="10" d="M301,716.2c0,0,10,3.9,39.5,3.9
				c29.5,0,41.5-3.9,41.5-3.9s1.6-9.3,0-10c-1.6-0.7-15,3.9-41.5,3.9c-26.5,0-38.3-5.1-39.5-3.9C299.8,707.4,301,716.2,301,716.2z"
				/>
			<path fill="#BFBFBF" d="M382.2,708.1c0,0-15.3,6.3-39.7,4.9c0,6-28.3,5.1-28.3,5.1s39.4,4.7,67.6-2.4L382.2,708.1z"/>
			<line fill="none" stroke="#000000" stroke-width="0.982" stroke-miterlimit="10" x1="375" y1="706.8" x2="375" y2="717.3"/>
			<line fill="none" stroke="#000000" stroke-width="0.982" stroke-miterlimit="10" x1="369.5" y1="707.7" x2="369.5" y2="718.1"/>
			<line fill="none" stroke="#000000" stroke-width="0.982" stroke-miterlimit="10" x1="363.8" y1="708.4" x2="363.8" y2="718.8"/>
			<line fill="none" stroke="#000000" stroke-width="0.982" stroke-miterlimit="10" x1="357.4" y1="709.2" x2="357.4" y2="719.4"/>
			<line fill="none" stroke="#000000" stroke-width="0.982" stroke-miterlimit="10" x1="350.4" y1="709.7" x2="350.4" y2="719.8"/>
			<line fill="none" stroke="#000000" stroke-width="0.982" stroke-miterlimit="10" x1="343" y1="710" x2="343" y2="720.1"/>
			<line fill="none" stroke="#000000" stroke-width="0.982" stroke-miterlimit="10" x1="335" y1="709.8" x2="335" y2="719.8"/>
			<line fill="none" stroke="#000000" stroke-width="0.982" stroke-miterlimit="10" x1="328" y1="709.8" x2="328" y2="719.8"/>
			<line fill="none" stroke="#000000" stroke-width="0.982" stroke-miterlimit="10" x1="319.4" y1="709.2" x2="319.4" y2="719.2"/>
			<line fill="none" stroke="#000000" stroke-width="0.982" stroke-miterlimit="10" x1="311.8" y1="707.6" x2="311.8" y2="718.6"/>
			<line fill="none" stroke="#000000" stroke-width="0.982" stroke-miterlimit="10" x1="305.5" y1="706.7" x2="305.5" y2="717.7"/>
			<path fill="#A668FF" d="M344.4,691.4c0,0-19-2-29.1,1.9c-5.3,1.8-7.4,11.3-7.5,12.7c4.5,1.3,9.6,1.6,9.6,1.6s-2.3-6.6,2.1-10.1
				C323.8,694,334.3,690.6,344.4,691.4z"/>
		</g>
	</g>
	<g id="手_41_">
		<g id="手_43_">
			<g id="左手_30_">
				<path fill="#FFD6DA" stroke="#000000" stroke-width="1.4173" stroke-miterlimit="10" d="M497.2,632.8
					c-3.6,16.8,3.9,27.2,20.5,27.2c16.6,0,29-17.2,29-32.7c0-15.5-10.2-28.6-26.8-28.6c-12.7,0-19.4,3.8-25.4,14.1
					C490.7,619.7,498,629.3,497.2,632.8z"/>
				<path fill="#FFD6DA" stroke="#000000" stroke-width="1.4173" stroke-miterlimit="10" d="M513.9,627.5
					c-1.5,13-12.7,16.2-19.6,11.8c-6.1-3.8-9.1-14.5,0-25.9"/>
			</g>
			<path fill="#E6B4AA" d="M513.9,618.2c0,0,0,22.3-21,19C501.5,645.9,518.7,636.7,513.9,618.2z"/>
			<path fill="#E6B4AA" d="M509.8,638.2c0,0-3.7,4.8-12.5,3.3C496.4,651.7,509.4,643.2,509.8,638.2z"/>
			<path fill="#E6B4AA" d="M537.9,606.6c2.8,5.9,5.8,23.3-2.8,37c-6,9.5-11.9,15.1-21.2,15.5c16.1,2.1,24.9-10.8,27.2-14.6
				C546.7,635.9,549.6,618.5,537.9,606.6z"/>
		</g>
		<g id="手_42_">
			<g id="左手_29_">
				<path fill="#FFD6DA" stroke="#000000" stroke-width="1.4173" stroke-miterlimit="10" d="M287.2,632.8
					c3.6,16.8-3.9,27.2-20.5,27.2s-29-17.2-29-32.7c0-15.5,10.2-28.6,26.8-28.6c12.7,0,19.4,3.8,25.4,14.1
					C293.8,619.7,286.4,629.3,287.2,632.8z"/>
				<path fill="#FFD6DA" stroke="#000000" stroke-width="1.4173" stroke-miterlimit="10" d="M270.5,627.5
					c1.5,13,12.8,16.2,19.6,11.8c6.1-3.8,9.1-14.5,0-25.9"/>
			</g>
			<path fill="#E6B4AA" d="M291.4,616.4c1.5,2.4,2.9,11.3-0.7,17.3c-1.8,3-7.3,6.4-12.2,5.5c6.1,3.2,12.8,0.3,15.3-5.2
				C297.3,626.6,292.9,618.2,291.4,616.4z"/>
			<path fill="#E6B4AA" d="M272.3,621.6c-8,10.9,4.5,21.2,2.9,28.4c-0.8,3.5-5.9,10.4-15,8.3c7.4,2.5,19.4,0.3,23.5-5.7
				c1.1-1.6,3.4-4.2,3.7-11.2C276.6,644.1,266.1,632.9,272.3,621.6z"/>
		</g>
	</g>
	<g id="耳朵_9_">
		<g id="耳朵_11_">
			<path fill="#FFB683" stroke="#000000" stroke-width="1.4173" stroke-miterlimit="10" d="M341.7,208.4
				c-4.2-24.9-60.1-92.9-138.2-48.3C149,192,149.8,274,208.3,326.7L341.7,208.4z"/>
			<path fill="#BF8962" d="M254.9,145.3c43,6.6,70.9,44.8,73.8,62.1l13,1C338.5,189.4,305.2,145.3,254.9,145.3z"/>
			<path fill="#FFBEBA" stroke="#000000" stroke-width="0.7087" stroke-miterlimit="10" d="M229.5,277.8c-5-0.4-41.5-52.2-2-77.4
				c38.8-24.8,76.6,15.4,76,22.4L229.5,277.8z"/>
		</g>
		<g id="耳朵_10_">
			<path fill="#FFB683" stroke="#000000" stroke-width="1.4173" stroke-miterlimit="10" d="M441.5,208.4
				c4.2-24.9,60.1-92.9,138.2-48.3c54.6,31.9,53.8,113.9-4.8,166.6L441.5,208.4z"/>
			<path fill="#BF8962" d="M579.7,160.1c-1.1-0.6-2.2-1.2-3.3-1.8C622.1,193,619,268,565,317.9l9.9,8.7
				C633.5,274,634.2,192,579.7,160.1z"/>
			<path fill="#FFBEBA" stroke="#000000" stroke-width="0.7087" stroke-miterlimit="10" d="M553.7,277.8c5-0.4,41.5-52.2,2-77.4
				c-38.8-24.8-76.6,15.4-76,22.4L553.7,277.8z"/>
		</g>
	</g>
	<g id="面部_13_">
		<path id="面部_14_" fill="#FFF6E1" stroke="#000000" stroke-width="1.4173" stroke-miterlimit="10" d="M214.3,278.3
			c11.2-30.5,46.9-77.2,129.7-100c36.3-10,61.8-8.8,96.6,0.5c41.8,11.2,105.2,42.4,128.8,98.9c11.7,28,11.7,87.7,11.7,87.7
			s23.3,12,23.3,49.3c0,32.5-52.7,87.4-157.3,100.9c-15.4,2-29.3,11.1-53.3,11.1s-38-9.3-54.8-11.6C236.1,501,179,448.5,179,414.7
			c0-34.2,25.5-48.8,25.5-48.8S201,314.7,214.3,278.3z"/>
		<path fill="#EED4BE" d="M532.7,227.5c34.8,34.5,46.6,60.2,47.7,138.2c0,0-7.3,1.1-13.4,5.4C573.9,347.5,572.5,271,532.7,227.5z"/>
		<path fill="#EED4BE" d="M267,496.2c18.9,9.2,64.8,17.7,77.4,19.2c6.4,1.4,29.4,10.5,47,10.5s30.2-3.9,46.7-9.6
			c29.3-2.6,80.2-15.3,104.8-31c-30.3,13.1-68.9,21.4-97.6,25.7c3.7-3.3,8.2-5.9,11.8-11.9c-15.7,13.9-34.1,19.9-61.5,20.6
			C384.7,519.9,312,509.5,267,496.2z"/>
	</g>
	<g id="鼻子_31_">
		<ellipse fill="#CE7EDC" stroke="#000000" stroke-width="1.4173" stroke-miterlimit="10" cx="391.3" cy="421.3" rx="90" ry="59"/>
		<path fill="#A0689E" d="M392,467.5c-28.1,1.3-47.3-1.5-68.3-8.4c6.1,6,32.9,20.6,67.2,20.6c48.4,0,89.7-24.6,89.7-58.4
			C475.8,438.2,445.9,465,392,467.5z"/>
		<g id="鼻子_32_">
			<path fill="#69301B" stroke="#000000" stroke-miterlimit="10" d="M404.4,385.7c-5.2,0-8,2.3-13.5,2.4c-5.5-0.1-8.3-2.4-13.5-2.4
				c-10,0-18.5,8.3-18.5,15.5c0,7.3,6.2,16.9,19.6,18.3c3.1,0.3,22,0.4,24.7,0c13.3-2,19.6-11,19.6-18.3
				C422.9,394,414.4,385.7,404.4,385.7z"/>
			<path fill="#3F1000" d="M420.8,406c0,4.5-6.4,10.1-14,12.3c-4.9,1.4-10,1-16.5,1c-5.7,0-10.3,0.4-14.8-0.7
				c-8.7-2.1-14.9-8.3-14.9-12.6c0-6.6,13.4-9,30-9S420.8,399.3,420.8,406z"/>
		</g>
	</g>
	<g id="眼睛_43_">
		<linearGradient id="SVGID_3_" gradientUnits="userSpaceOnUse" x1="448.5415" y1="351.7919" x2="532.2632" y2="351.7919">
			<stop  offset="0" style="stop-color:#591380"/>
			<stop  offset="1" style="stop-color:#B226FF"/>
		</linearGradient>
		<path fill="url(#SVGID_3_)" d="M524.7,326.7c17.5,42.8,2.8,76.1-24.6,76.1s-47.7-28.8-50.6-44.6c-4-20.6,4.9-42.7,20.5-51.1
			C489.5,296.5,512.7,297.3,524.7,326.7z"/>
		<linearGradient id="SVGID_4_" gradientUnits="userSpaceOnUse" x1="237.0114" y1="334.1588" x2="297.4662" y2="365.2986">
			<stop  offset="0" style="stop-color:#591380"/>
			<stop  offset="1" style="stop-color:#B226FF"/>
		</linearGradient>
		<path fill="url(#SVGID_4_)" d="M304.6,326.7c20.7,41.4-1.1,75.1-24.6,76.1c-18.5,0.8-31.7-19.4-34.5-35.2
			c-4-20.6,0.4-34.5,11-48.8C264.4,308,291.7,300.7,304.6,326.7z"/>
		<g id="眼睛_45_">
			<radialGradient id="SVGID_5_" cx="281.6733" cy="358.1066" r="37.8513" gradientUnits="userSpaceOnUse">
				<stop  offset="0" style="stop-color:#4D4D4D"/>
				<stop  offset="1" style="stop-color:#1A1A1A"/>
			</radialGradient>
			<ellipse fill="url(#SVGID_5_)" stroke="#000000" stroke-miterlimit="10" cx="281.7" cy="358.1" rx="30" ry="44.3"/>
			
				<radialGradient id="SVGID_6_" cx="272.9043" cy="358.1066" r="28.178" gradientTransform="matrix(0.9851 0 0 1 12.8405 0)" gradientUnits="userSpaceOnUse">
				<stop  offset="0" style="stop-color:#333333"/>
				<stop  offset="1" style="stop-color:#000000"/>
			</radialGradient>
			<ellipse fill="url(#SVGID_6_)" cx="281.7" cy="358.1" rx="22" ry="33"/>
			
				<ellipse transform="matrix(0.3609 -0.9326 0.9326 0.3609 -147.2983 475.2638)" fill="#F2F2F2" cx="273.1" cy="345.1" rx="7" ry="5.7"/>
			<ellipse cx="281.7" cy="358.1" rx="8" ry="13"/>
			<path fill="#FFFFFF" d="M298.1,378.9c-1.4,2.5-3.6,4.4-4.3,3.6c-0.8-0.8,0.9-0.9,2.7-4.4c1.9-3.5,1.5-4.6,2.6-4.5
				C300.1,373.7,299.5,376.4,298.1,378.9z"/>
			<ellipse fill="#FFFFFF" cx="264.4" cy="359.7" rx="2.8" ry="4.1"/>
		</g>
		<g id="眼睛_44_">
			<radialGradient id="SVGID_7_" cx="502.6734" cy="358.1066" r="37.8513" gradientUnits="userSpaceOnUse">
				<stop  offset="0" style="stop-color:#4D4D4D"/>
				<stop  offset="1" style="stop-color:#1A1A1A"/>
			</radialGradient>
			<ellipse fill="url(#SVGID_7_)" stroke="#000000" stroke-miterlimit="10" cx="502.7" cy="358.1" rx="30" ry="44.3"/>
			
				<radialGradient id="SVGID_8_" cx="497.2515" cy="358.1066" r="28.178" gradientTransform="matrix(0.9851 0 0 1 12.8405 0)" gradientUnits="userSpaceOnUse">
				<stop  offset="0" style="stop-color:#333333"/>
				<stop  offset="1" style="stop-color:#000000"/>
			</radialGradient>
			<ellipse fill="url(#SVGID_8_)" cx="502.7" cy="358.1" rx="22" ry="33"/>
			
				<ellipse transform="matrix(0.3609 -0.9326 0.9326 0.3609 -6.0616 681.3678)" fill="#F2F2F2" cx="494.1" cy="345.1" rx="7" ry="5.7"/>
			<ellipse cx="502.7" cy="358.1" rx="8" ry="13"/>
			<path fill="#FFFFFF" d="M519.1,378.9c-1.4,2.5-3.6,4.4-4.3,3.6c-0.8-0.8,0.9-0.9,2.7-4.4c1.9-3.5,1.5-4.6,2.6-4.5
				C521.1,373.7,520.5,376.4,519.1,378.9z"/>
			<ellipse fill="#FFFFFF" cx="485.4" cy="359.7" rx="2.8" ry="4.1"/>
		</g>
	</g>
	<g id="眉毛_7_">
		<linearGradient id="SVGID_10_" gradientUnits="userSpaceOnUse" x1="466.4285" y1="304.0323" x2="513.9102" y2="304.0323">
			<stop  offset="0" style="stop-color:#333333"/>
			<stop  offset="1" style="stop-color:#000000"/>
		</linearGradient>
		<path fill="url(#SVGID_10_)" d="M466.4,312.4c0,0,19.1-18,34.2-16.6c15.1,1.3,14.8,5.1,11.2,9.1
			C507.9,309.2,466.4,312.4,466.4,312.4z"/>
		
			<linearGradient id="SVGID_11_" gradientUnits="userSpaceOnUse" x1="675.9246" y1="305.8623" x2="723.4062" y2="305.8623" gradientTransform="matrix(-1 0 0 1 984.3386 0)">
			<stop  offset="0" style="stop-color:#333333"/>
			<stop  offset="1" style="stop-color:#000000"/>
		</linearGradient>
		<path fill="url(#SVGID_11_)" d="M308.4,314.2c0,0-19.1-18-34.2-16.6s-14.8,5.1-11.2,9.1C266.9,311.1,308.4,314.2,308.4,314.2z"/>
	</g>
	<g id="胡子">
		<path id="嘴巴_7_" fill="#FF8E82" stroke="#000000" stroke-width="0.7087" stroke-miterlimit="10" d="M420.2,496.9
			c0,3.3-18.7,1.2-28,1.2s-29.4,2.1-29.4-1.2c0-3.3,14-9.3,29.4-9.3C407.7,487.5,420.2,493.6,420.2,496.9z"/>
		<path fill="#601D00" d="M478.4,478c7.7,0.5,18.3,13.9,4,24.3c-13.2,9.5-39.7-22.4-90.3-22.6c0,0-1.1,0-1.1,0
			c-50.6,0.2-77.1,32.1-90.3,22.6c-14.3-10.3-3.8-23.8,4-24.3c-13.2-0.8-19.2,10.4-13.9,21c4,8,14.1,15.1,41.1,15.1
			c24.8,0,43.9-17,53.5-18.8c2.5-0.5,4.5-1.1,6.2-1.8c1.7,0.7,3.7,1.3,6.2,1.8c9.6,1.8,28.7,18.8,53.5,18.8c27,0,37.1-7.1,41.1-15.1
			C497.5,488.4,491.6,477.2,478.4,478z"/>
		<path fill="#320014" d="M304.6,478c0,0-14.4,1-12.2,15.3c1.7,11.9,14.3,12.4,16.8,12c3.5-0.4,11.1-3.6,14-6.5
			c-3.8,1.1-12.9,7.3-20.8,4.5c-6.3-3.3-10.4-10.4-8.1-16.6C297.1,478.7,304.6,478,304.6,478z"/>
		<path fill="#320014" d="M390.7,481.5c0,0-10.5,7.1-13.9,7.1c1.5,1,11.5-2.6,11.5-2.6s0.1,3.5-3,5.6c-2.9,2-10.8,4.4-17.4,8.9
			c-11.3,7.8-22.1,11.8-22.1,11.8s15.8-5,22.4-9c7.4-4.5,15.6-7.2,23.3-9.8c-0.3-0.5,0.3-1.9,0-3.8c-0.2-1.5-0.1-3.5-0.1-4.9
			C391.3,483.3,390.3,482.1,390.7,481.5z"/>
		<path fill="#320014" d="M478.4,478c0,0,13.5-1.2,15.6,10.6c2.1,11.8-9,18.5-9,18.5s-9.8,7-28.6,7c-18.7,0-25.3-3.5-25.3-3.5
			s31.1,3.7,42.5-0.8c9.7-3.9,16.3-8.5,17.3-14.2S492.4,479.7,478.4,478z"/>
	</g>
	<g id="头发_16_">
		<path fill="#C87A4A" stroke="#000000" stroke-width="1.4173" stroke-miterlimit="10" d="M364.8,196.7
			c-26.6-6.4-37.6-38.8-23.1-58.7c-3.2,16.8,9.8,36.2,37.8,33.6"/>
		<path fill="#AA5834" d="M340.5,141.2c0,0-1.2,8.3,0.4,14.6c2.3,8.7,10.2,15.5,10.2,15.5s-6.1,0.6-8.9-2.4c0.3,0.6,4.9,4.7,5.9,5.3
			c12.1,7.9,23.3,8.5,23.3,8.5s-8.9,1.1-14.9-0.6c6.7,4.3,21.7,4.9,21.7,4.9s-4.8,2.7-9.9,1.4c6.3,2.5,15.9,3.4,22.8,1.7l-14.4-17.4
			C371.2,173.3,340.9,171.3,340.5,141.2z"/>
		<path fill="#C87A4A" stroke="#000000" stroke-width="1.4173" stroke-miterlimit="10" d="M445.2,180.1c-16.5-4.2-20.3-24.4-6-27.6
			c-14.9-3.3-21.7,16.3-17.7,21.8c-13.6-1-48-22.5-40.8-55.3c-13,15.5-24.8,68.8,30.3,77.7"/>
		<path fill="#AA5834" d="M400.3,184.9c-23.7-12-27.2-38.2-20.8-62.1c-4.5,32.1,32,54.1,47.5,53.1c-4-5.5-4.3-18,8.8-23
			c-10.9,5.4-7.1,23.8,9.3,28c0,0-7.1,0.9-18.1-5c0,1.1,15.7,9,15.7,9l-21.8-8.9l20.7,13.1l-15-3l6.8,5l-17.1-6.9l22.3,14.4
			L400.3,184.9z"/>
	</g>
</g>
</svg>