<?xml version="1.0" encoding="utf-8"?>
<svg version="1.0" id="layer_1" xmlns="http://www.w3.org/2000/svg" xmlns:xlink="http://www.w3.org/1999/xlink" x="0px" y="0px" viewBox="0 0 800 800" enable-background="new 0 0 800 800" xml:space="preserve">
<g id="_x31__2_">
	<g id="身体_6_">
		<path fill="#FFCFB3" stroke="#000000" stroke-width="1.4173" stroke-miterlimit="10" d="M291.3,599.9c0.9-16.5,4-26.1,6.4-31.4
			C293.8,577.2,292.1,589,291.3,599.9l-0.4,14.5c0,9.2,0.5,17.7,0.5,17.7l13.1,65.4l71.6,1.9l9.4-39.9c0,0,3.8,0.4,6.6,0.4
			c2.8,0,6.6-0.4,6.6-0.4l9.4,39.9l71.6-1.9l13.1-65.4c0,0,0.5-8.2,0.5-17.1c0,0-0.2-33.1-6.8-46.5c2.1,3.2,5.8,16.1,6.5,34.5
			l0.4,12c3.6,39.4,49.8,38.6,49.8-5c0-45.3-33.4-74.5-41.8-80c-15.2-10.7-43.5-17.3-43.5-17.3h-65.7H392h-65.7
			c0,0-28.3,6.6-43.5,17.3c-8.4,5.5-41.8,34.7-41.8,80c0,43.8,46.6,44.3,49.8,4.4L291.3,599.9z"/>
		<path opacity="0.1" fill="#FFD2BE" d="M437.7,576.5c-10.9-19-1-39.8-11.4-39.8c-10.4,0-14.2,9.4-33,9.4c-0.1,0-0.7,0-0.8,0
			c-18.8,0-22.6-9.4-33-9.4s-0.5,20.8-11.4,39.8c-22.8,39.7,5.8,74.2,42.6,74.2c0.8,0,3.7,0,4.4,0
			C431.9,650.8,460.5,616.2,437.7,576.5z"/>
		<path fill="#F2B484" d="M542.8,609.5c0,10.4-6.2,31.3-16,29.3c4.2-12,3.7-32.8,3.7-32.8c1.9-45.3-26.9-73.4-26.9-73.4
			C534.1,556.9,542.8,591.9,542.8,609.5z"/>
		<path fill="#F2B484" d="M274.7,616.1c0,5.8-1.1,21.3-7.7,26.7c11.5,0,18.5-11.9,19.9-14.8c3.3-7.1,3.3-18,3.3-18
			c-0.3-34.8,10.2-48.6,10.2-48.6C282,576.8,274.7,606.2,274.7,616.1z"/>
		<path fill="#F2B484" d="M459.6,514.5c-4.6-8.2-28.1-15.9-64-17c-13.9-0.4-69.1-2.1-64.6,6.1c4.9,8.9,20.3,23,61.8,26
			C428.7,532.2,465.3,524.7,459.6,514.5z"/>
		<path fill="#F2B484" d="M335,647.2c0,0,21.3,7.5,57,7.5s56.3-7.5,56.3-7.5s-22.2,12.3-55.9,12.3c-2.9,0-4.9-0.1-7.6-0.3l-9.2,39.1
			l-3.2-4c2.3-7.2,1.4-30.3-0.1-36.2C352.5,655.2,340.1,650.3,335,647.2z"/>
		<path fill="#F2B484" d="M492.7,630.7l-13,55.1l-5.5,6c1.4-4.1,8.4-36.4,12.4-61.3c2.6-37.6-1.1-65.5-1.1-65.5
			C494.2,589.8,493.2,626.7,492.7,630.7z"/>
	</g>
	<g id="衣服_9_">
		<path fill="#67A153" stroke="#000000" stroke-width="0.7087" stroke-miterlimit="10" d="M291.4,632.1c1,1.2,13.5,67.3,13.5,67.3
			h71.2c0,0,6.9-39.5,16-39.5c5.6,0,16,39.5,16,39.5l71.6-1.9l13.1-66.1c0,0-44.9,8.9-103.1,9.4C359,641,324.7,637.9,291.4,632.1z"
			/>
		<path opacity="0.8" fill="#345129" d="M335,647.2c0,0,21.3,7.5,57,7.5s56.3-7.5,56.3-7.5s-22.2,12.3-55.9,12.3
			c-2.9,0-4.9,2.2-6,4.1c-5.9,9.9-10.4,35.8-10.4,35.8l-7.3,0.2c0.4-3.6,5.1-35.6,3.5-41.5C352.5,655.2,340.1,650.3,335,647.2z"/>
		<path opacity="0.8" fill="#345129" d="M492.3,631.4L481,692.7l-6.8,1.8c1.4-4.1,11.8-62.1,11.8-62.1L492.3,631.4z"/>
		<path fill="#FF67BB" stroke="#000000" stroke-miterlimit="10" d="M265.5,546.2c2.9,0.5,11.6,1.4,20.7,6
			c6.3,3.2,12.2,6.9,12.8,11.9c-6.2,11.4-9.7,40.1-7.5,68.2c26.4,3.7,80.6,10,103.9,8.3s58.9-2,97.4-10c0.7-8.8,1.6-50.9-7.2-65.8
			c1.4-4.8,9.4-10.3,16.3-13.2c5.5-2.3,11.3-3.6,17.6-4.5c-5.4-7.7-19.1-20-32.9-25.3c-16.4-6.3-27.3-10.1-27.3-10.1l-67.5,30.6
			l-64.3-31.7c0,0-25.7,8.9-34.8,13.3C283.6,528.4,269,541.1,265.5,546.2z"/>
		<polygon fill="#4233FF" stroke="#000000" stroke-width="0.5" stroke-miterlimit="10" points="404.1,612.4 391.7,640.8 
			378.7,611.8 387,556.8 381.7,555.8 390,543.3 394.1,543.6 402.7,555 397.1,556.8 		"/>
		<g opacity="0.6">
			<defs>
				<polygon id="SVGID_94_" opacity="0.6" points="404.1,612.4 391.7,640.8 378.7,611.8 387,556.8 381.7,555.8 390,543.3 
					394.1,543.6 402.7,555 397.1,556.8 				"/>
			</defs>
			<clipPath id="SVGID_2_">
				<use xlink:href="#SVGID_94_"  overflow="visible"/>
			</clipPath>
			<g clip-path="url(#SVGID_2_)">
				<rect x="377.3" y="634.7" fill="#4A50EE" width="29.8" height="1.9"/>
				<rect x="377.3" y="629.7" fill="#4A50EE" width="29.8" height="1.9"/>
				<rect x="377.3" y="624.7" fill="#4A50EE" width="29.8" height="1.9"/>
				<rect x="377.3" y="619.7" fill="#4A50EE" width="29.8" height="1.9"/>
				<rect x="377.3" y="614.7" fill="#4A50EE" width="29.8" height="1.9"/>
				<rect x="377.3" y="609.7" fill="#4A50EE" width="29.8" height="1.9"/>
				<rect x="377.3" y="604.7" fill="#4A50EE" width="29.8" height="1.9"/>
				<rect x="377.3" y="599.7" fill="#4A50EE" width="29.8" height="1.9"/>
				<rect x="377.3" y="594.7" fill="#4A50EE" width="29.8" height="1.9"/>
				<rect x="377.3" y="589.7" fill="#4A50EE" width="29.8" height="1.9"/>
				<rect x="377.3" y="584.7" fill="#4A50EE" width="29.8" height="1.9"/>
				<rect x="377.3" y="579.7" fill="#4A50EE" width="29.8" height="1.9"/>
				<rect x="377.3" y="574.7" fill="#4A50EE" width="29.8" height="1.9"/>
				<rect x="377.3" y="569.7" fill="#4A50EE" width="29.8" height="1.9"/>
				<rect x="377.3" y="564.7" fill="#4A50EE" width="29.8" height="1.9"/>
				<rect x="377.3" y="559.7" fill="#4A50EE" width="29.8" height="1.9"/>
				<rect x="377.3" y="554.7" fill="#4A50EE" width="29.8" height="1.9"/>
				<rect x="377.3" y="549.7" fill="#4A50EE" width="29.8" height="1.9"/>
				<rect x="377.3" y="544.7" fill="#4A50EE" width="29.8" height="1.9"/>
			</g>
		</g>
		<polygon fill="#221AFF" points="389.3,557.3 395.5,557.3 392.5,576.8 		"/>
		<polygon fill="#F2B5FF" stroke="#000000" stroke-miterlimit="10" points="322.7,508.7 390.9,542.1 372.3,569.8 316.8,514.5 
			320.1,508.7 		"/>
		<polygon fill="#F2B5FF" stroke="#000000" stroke-miterlimit="10" points="461.1,508.7 392.8,542.1 415.4,569.8 466.9,514.5 
			463.7,508.7 		"/>
		<path opacity="0.5" fill="#404040" d="M481.2,556c13.9,23.9,13.1,70.3,11.1,74l-7.9,1.4C484.4,631.4,490.4,588,481.2,556z"/>
		<path opacity="0.6" fill="#404040" d="M313.3,540.9c-5.9,5.2-13.4,15-15.5,20.1c1,2.3,1.4,4.5,1.4,4.5S306.5,549.2,313.3,540.9z"
			/>
	</g>
	<g id="脚_33_">
		<g id="脚_35_">
			<path fill="#128AB2" stroke="#000000" stroke-width="1.4173" stroke-miterlimit="10" d="M401.2,709.1c0,9.4,20.1,8.3,45,8.3
				s45,0.4,45-14.6c0-7.4-15.6-18.6-41.2-17.9s-36.2,6.9-41.1,14.5C402.7,700.1,401.2,702.7,401.2,709.1z"/>
			<path fill="#0D6886" d="M486.4,696c0,0,2.5,10.7-7.5,14s-76.4,6.8-77-2.8c-0.7,6.2,4,9.3,21.6,9.5c6.2,0,37.1,0,37.1,0
				s24.1,0.4,28.3-8C492.3,701.7,489.3,698.7,486.4,696z"/>
		</g>
		<g id="脚_34_">
			<path fill="#128AB2" stroke="#000000" stroke-width="1.4173" stroke-miterlimit="10" d="M383.2,709.1c0,9.4-20.1,8.3-45,8.3
				s-45,0.4-45-14.6c0-7.4,15.6-18.6,41.2-17.9s36.2,6.9,41.1,14.5C381.6,700.1,383.2,702.7,383.2,709.1z"/>
			<path fill="#0D6886" d="M379,701c0,0,5.3,6.6-4.8,9.9s-73.1,5.8-79.4-3.4c1.8,5.8,12.4,8.9,22.7,9.2c6.2,0.2,37.1,0,37.1,0
				s21.9,0.9,26.5-4.4C383.6,710.2,382.8,702.1,379,701z"/>
		</g>
	</g>
	<g id="手_16_">
		<g id="手_18_">
			<g id="左手_12_">
				<path fill="#FFD2BE" stroke="#000000" stroke-width="1.4173" stroke-miterlimit="10" d="M497.2,632.8
					c-3.6,16.8,3.9,27.2,20.5,27.2c16.6,0,29-17.2,29-32.7c0-15.5-10.2-28.6-26.8-28.6c-12.7,0-19.4,3.8-25.4,14.1
					C490.7,619.7,498,629.3,497.2,632.8z"/>
				<path fill="#FFD2BE" stroke="#000000" stroke-width="1.4173" stroke-miterlimit="10" d="M513.9,627.5
					c-1.5,13-12.7,16.2-19.6,11.8c-6.1-3.8-9.1-14.5,0-25.9"/>
			</g>
			<path fill="#F2B484" d="M513.9,618.2c0,0,0,22.3-21,19C501.5,645.9,518.7,636.7,513.9,618.2z"/>
			<path fill="#F2B484" d="M509.8,638.2c0,0-3.7,4.8-12.5,3.3C496.4,651.7,509.4,643.2,509.8,638.2z"/>
			<path fill="#F2B484" d="M537.9,606.6c2.8,5.9,5.8,23.3-2.8,37c-6,9.5-11.9,15.1-21.2,15.5c16.1,2.1,24.9-10.8,27.2-14.6
				C546.7,635.9,549.6,618.5,537.9,606.6z"/>
		</g>
		<g id="手_17_">
			<g id="左手_11_">
				<path fill="#FFD2BE" stroke="#000000" stroke-width="1.4173" stroke-miterlimit="10" d="M287.2,632.8
					c3.6,16.8-3.9,27.2-20.5,27.2s-29-17.2-29-32.7c0-15.5,10.2-28.6,26.8-28.6c12.7,0,19.4,3.8,25.4,14.1
					C293.8,619.7,286.4,629.3,287.2,632.8z"/>
				<path fill="#FFD2BE" stroke="#000000" stroke-width="1.4173" stroke-miterlimit="10" d="M270.5,627.5
					c1.5,13,12.8,16.2,19.6,11.8c6.1-3.8,9.1-14.5,0-25.9"/>
			</g>
			<path fill="#F2B484" d="M291.4,616.4c1.5,2.4,2.9,11.3-0.7,17.3c-1.8,3-7.3,6.4-12.2,5.5c6.1,3.2,12.8,0.3,15.3-5.2
				C297.3,626.6,292.9,618.2,291.4,616.4z"/>
			<path fill="#F2B484" d="M272.3,621.6c-8,10.9,4.5,21.2,2.9,28.4c-0.8,3.5-5.9,10.4-15,8.3c7.4,2.5,19.4,0.3,23.5-5.7
				c1.1-1.6,3.4-4.2,3.7-11.2C276.6,644.1,266.1,632.9,272.3,621.6z"/>
		</g>
	</g>
	<g id="耳朵_44_">
		<g id="耳朵_51_">
			<path fill="#C87A4A" stroke="#000000" stroke-width="1.4173" stroke-miterlimit="10" d="M341.7,208.4
				c-4.2-24.9-60.1-92.9-138.2-48.3C149,192,149.8,274,208.3,326.7L341.7,208.4z"/>
			<path fill="#AA5834" d="M254.9,145.3c43,6.6,70.9,44.8,73.8,62.1l13,1C338.5,189.4,305.2,145.3,254.9,145.3z"/>
			<path fill="#FFBEBA" stroke="#000000" stroke-width="0.7087" stroke-miterlimit="10" d="M229.5,277.8c-5-0.4-41.5-52.2-2-77.4
				c38.8-24.8,76.6,15.4,76,22.4L229.5,277.8z"/>
		</g>
		<g id="耳朵_45_">
			<path fill="#C87A4A" stroke="#000000" stroke-width="1.4173" stroke-miterlimit="10" d="M441.5,208.4
				c4.2-24.9,60.1-92.9,138.2-48.3c54.6,31.9,53.8,113.9-4.8,166.6L441.5,208.4z"/>
			<path fill="#AA5834" d="M579.7,160.1c-1.1-0.6-2.2-1.2-3.3-1.8C622.1,193,619,268,565,317.9l9.9,8.7
				C633.5,274,634.2,192,579.7,160.1z"/>
			<path fill="#FFBEBA" stroke="#000000" stroke-width="0.7087" stroke-miterlimit="10" d="M553.7,277.8c5-0.4,41.5-52.2,2-77.4
				c-38.8-24.8-76.6,15.4-76,22.4L553.7,277.8z"/>
		</g>
	</g>
	<g id="面部_27_">
		<path id="面部_28_" fill="#FFB5A8" stroke="#000000" stroke-width="1.4173" stroke-miterlimit="10" d="M214.3,278.3
			c11.2-30.5,46.9-77.2,129.7-100c36.3-10,61.8-8.8,96.6,0.5c41.8,11.2,105.2,42.4,128.8,98.9c11.7,28,11.7,87.7,11.7,87.7
			s23.3,12,23.3,49.3c0,32.5-52.7,87.4-157.3,100.9c-15.4,2-29.3,11.1-53.3,11.1s-38-9.3-54.8-11.6C236.1,501,179,448.5,179,414.7
			c0-34.2,25.5-48.8,25.5-48.8S201,314.7,214.3,278.3z"/>
		<path fill="#EA969E" d="M532.7,227.5c34.8,34.5,46.6,60.2,47.7,138.2c0,0-7.3,1.1-13.4,5.4C573.9,347.5,572.5,271,532.7,227.5z"/>
		<path fill="#EA969E" d="M267,496.2c18.9,9.2,64.8,17.7,77.4,19.2c6.4,1.4,29.4,10.5,47,10.5s30.2-3.9,46.7-9.6
			c29.3-2.6,80.2-15.3,104.8-31c-30.3,13.1-68.9,21.4-97.6,25.7c3.7-3.3,8.2-5.9,11.8-11.9c-15.7,13.9-34.1,19.9-61.5,20.6
			C384.7,519.9,312,509.5,267,496.2z"/>
	</g>
	<g id="鼻子_17_">
		<ellipse fill="#EEAC9E" stroke="#000000" stroke-width="1.4173" stroke-miterlimit="10" cx="391.3" cy="421.3" rx="90" ry="59"/>
		<path fill="#A6746E" d="M392,467.5c-28.1,1.3-47.3-1.5-68.3-8.4c6.1,6,32.9,20.6,67.2,20.6c48.4,0,89.7-24.6,89.7-58.4
			C475.8,438.2,445.9,465,392,467.5z"/>
		<g id="鼻子_18_">
			<path fill="#69301B" stroke="#000000" stroke-miterlimit="10" d="M404.4,385.7c-5.2,0-8,2.3-13.5,2.4c-5.5-0.1-8.3-2.4-13.5-2.4
				c-10,0-18.5,8.3-18.5,15.5c0,7.3,6.2,16.9,19.6,18.3c3.1,0.3,22,0.4,24.7,0c13.3-2,19.6-11,19.6-18.3
				C422.9,394,414.4,385.7,404.4,385.7z"/>
			<path fill="#3F1000" d="M420.8,406c0,4.5-6.4,10.1-14,12.3c-4.9,1.4-10,1-16.5,1c-5.7,0-10.3,0.4-14.8-0.7
				c-8.7-2.1-14.9-8.3-14.9-12.6c0-6.6,13.4-9,30-9S420.8,399.3,420.8,406z"/>
		</g>
	</g>
	<g id="眼睛_22_">
		<g id="眼睛_24_">
			<linearGradient id="SVGID_2_" gradientUnits="userSpaceOnUse" x1="237.0114" y1="334.1588" x2="297.4662" y2="365.2986">
				<stop  offset="0" style="stop-color:#AA5834"/>
				<stop  offset="1" style="stop-color:#C87A4A;stop-opacity:0"/>
			</linearGradient>
			<path fill="url(#SVGID_2_)" d="M304.6,326.7c20.7,41.4-1.1,75.1-24.6,76.1c-18.5,0.8-31.7-19.4-34.5-35.2
				c-4-20.6,0.4-34.5,11-48.8C264.4,308,291.7,300.7,304.6,326.7z"/>
			<radialGradient id="SVGID_3_" cx="281.6733" cy="358.1066" r="37.8513" gradientUnits="userSpaceOnUse">
				<stop  offset="0" style="stop-color:#4D4D4D"/>
				<stop  offset="1" style="stop-color:#1A1A1A"/>
			</radialGradient>
			<ellipse fill="url(#SVGID_3_)" stroke="#000000" stroke-miterlimit="10" cx="281.7" cy="358.1" rx="30" ry="44.3"/>
			
				<radialGradient id="SVGID_4_" cx="260.1823" cy="358.1066" r="28.178" gradientTransform="matrix(0.9851 0 0 1 25.3726 0)" gradientUnits="userSpaceOnUse">
				<stop  offset="0" style="stop-color:#333333"/>
				<stop  offset="1" style="stop-color:#000000"/>
			</radialGradient>
			<ellipse fill="url(#SVGID_4_)" cx="281.7" cy="358.1" rx="22" ry="33"/>
			
				<ellipse transform="matrix(0.3609 -0.9326 0.9326 0.3609 -147.2983 475.2638)" fill="#F2F2F2" cx="273.1" cy="345.1" rx="7" ry="5.7"/>
			<ellipse cx="281.7" cy="358.1" rx="8" ry="13"/>
			<path fill="#FFFFFF" d="M298.1,378.9c-1.4,2.5-3.6,4.4-4.3,3.6c-0.8-0.8,0.9-0.9,2.7-4.4c1.9-3.5,1.5-4.6,2.6-4.5
				C300.1,373.7,299.5,376.4,298.1,378.9z"/>
			<ellipse fill="#FFFFFF" cx="264.4" cy="359.7" rx="2.8" ry="4.1"/>
		</g>
		<g id="眼睛_23_">
			<linearGradient id="SVGID_5_" gradientUnits="userSpaceOnUse" x1="443.1915" y1="327.1581" x2="530.4346" y2="368.58">
				<stop  offset="0" style="stop-color:#AA5834;stop-opacity:0.6"/>
				<stop  offset="1" style="stop-color:#C87A4A;stop-opacity:0"/>
			</linearGradient>
			<path fill="url(#SVGID_5_)" d="M524.7,326.7c17.5,42.8,2.8,76.1-24.6,76.1s-47.7-28.8-50.6-44.6c-4-20.6,4.9-42.7,20.5-51.1
				C489.5,296.5,512.7,297.3,524.7,326.7z"/>
			<radialGradient id="SVGID_6_" cx="502.6734" cy="358.1066" r="37.8513" gradientUnits="userSpaceOnUse">
				<stop  offset="0" style="stop-color:#4D4D4D"/>
				<stop  offset="1" style="stop-color:#1A1A1A"/>
			</radialGradient>
			<ellipse fill="url(#SVGID_6_)" stroke="#000000" stroke-miterlimit="10" cx="502.7" cy="358.1" rx="30" ry="44.3"/>
			
				<radialGradient id="SVGID_7_" cx="484.5296" cy="358.1066" r="28.178" gradientTransform="matrix(0.9851 0 0 1 25.3726 0)" gradientUnits="userSpaceOnUse">
				<stop  offset="0" style="stop-color:#333333"/>
				<stop  offset="1" style="stop-color:#000000"/>
			</radialGradient>
			<ellipse fill="url(#SVGID_7_)" cx="502.7" cy="358.1" rx="22" ry="33"/>
			
				<ellipse transform="matrix(0.3609 -0.9326 0.9326 0.3609 -6.0616 681.3678)" fill="#F2F2F2" cx="494.1" cy="345.1" rx="7" ry="5.7"/>
			<ellipse cx="502.7" cy="358.1" rx="8" ry="13"/>
			<path fill="#FFFFFF" d="M519.1,378.9c-1.4,2.5-3.6,4.4-4.3,3.6c-0.8-0.8,0.9-0.9,2.7-4.4c1.9-3.5,1.5-4.6,2.6-4.5
				C521.1,373.7,520.5,376.4,519.1,378.9z"/>
			<ellipse fill="#FFFFFF" cx="485.4" cy="359.7" rx="2.8" ry="4.1"/>
		</g>
	</g>
	<g id="眉毛_4_">
		<radialGradient id="SVGID_8_" cx="509.9385" cy="302.9295" r="37.428" gradientUnits="userSpaceOnUse">
			<stop  offset="0" style="stop-color:#4D4D4D"/>
			<stop  offset="1" style="stop-color:#1A1A1A"/>
		</radialGradient>
		<path fill="url(#SVGID_8_)" stroke="#000000" stroke-miterlimit="10" d="M459.8,313.8c0.2-8.2,24.8-15.5,42.8-22.1
			c21.1-7.7,26.6-8.8,57.4,3c-27.4-5.8-56.7,5.8-71.1,14.7C466.5,323.2,459.6,322.2,459.8,313.8z"/>
		
			<radialGradient id="SVGID_10_" cx="9972.6094" cy="302.9295" r="37.428" gradientTransform="matrix(-1 0 0 1 10244.5469 0)" gradientUnits="userSpaceOnUse">
			<stop  offset="0" style="stop-color:#4D4D4D"/>
			<stop  offset="1" style="stop-color:#1A1A1A"/>
		</radialGradient>
		<path fill="url(#SVGID_10_)" stroke="#000000" stroke-miterlimit="10" d="M322,313.8c-0.2-8.2-24.8-15.5-42.8-22.1
			c-21.1-7.7-26.6-8.8-57.4,3c27.4-5.8,56.7,5.8,71.1,14.7C315.3,323.2,322.3,322.2,322,313.8z"/>
	</g>
	<g id="嘴巴_17_">
		<path id="嘴巴_14_" fill="#FF8E82" stroke="#000000" stroke-width="0.7087" stroke-miterlimit="10" d="M420.2,495.8
			c0,3.3-12.5,8-28,8c-15.5,0-28-4.7-28-8s12.5-3.5,28-3.5C407.7,492.3,420.2,492.5,420.2,495.8z"/>
		<polygon stroke="#000000" stroke-width="0.7087" stroke-miterlimit="10" points="410,488 470.3,498.2 413.3,480.3 		"/>
		<polygon stroke="#000000" stroke-width="0.7087" stroke-miterlimit="10" points="380.3,488 320,498.2 377,480.3 		"/>
	</g>
	<g id="头发_2_">
		<path fill="#FFB683" stroke="#000000" stroke-width="1.4173" stroke-miterlimit="10" d="M374.8,196.7
			c-26.6-6.4-37.6-38.8-23.1-58.7c-3.2,16.8,9.8,36.2,37.8,33.6"/>
		<path fill="#BF8962" d="M350.5,141.2c0,0-1.2,8.3,0.4,14.6c2.3,8.7,10.2,15.5,10.2,15.5s-6.1,0.6-8.9-2.4c0.3,0.6,4.9,4.7,5.9,5.3
			c12.1,7.9,23.3,8.5,23.3,8.5s-8.9,1.1-14.9-0.6c6.7,4.3,21.7,4.9,21.7,4.9s-4.8,2.7-9.9,1.4c6.3,2.5,15.9,3.4,22.8,1.7l-14.4-17.4
			C381.2,173.3,350.9,171.3,350.5,141.2z"/>
		<path fill="#FFB683" stroke="#000000" stroke-width="1.4173" stroke-miterlimit="10" d="M455.2,180.1c-16.5-4.2-20.3-24.4-6-27.6
			c-14.9-3.3-21.7,16.3-17.7,21.8c-13.6-1-48-22.5-40.8-55.3c-13,15.5-24.8,68.8,30.3,77.7"/>
		<path fill="#BF8962" d="M410.3,184.9c-23.7-12-27.2-38.2-20.8-62.1c-4.5,32.1,32,54.1,47.5,53.1c-4-5.5-4.3-18,8.8-23
			c-10.9,5.4-7.1,23.8,9.3,28c0,0-7.1,0.9-18.1-5c0,1.1,15.7,9,15.7,9l-21.8-8.9l20.7,13.1l-15-3l6.8,5l-17.1-6.9l22.3,14.4
			L410.3,184.9z"/>
	</g>
	<g id="帽子">
		<path fill="#FFFFFF" stroke="#000000" stroke-width="0.7381" stroke-miterlimit="10" d="M543.8,230.2c-2.3,6.4-5.5-2-11.1,2
			C436.1,301.8,320,311.4,256.5,309c-49.6-1.9-90.4-33.8-68-73c12.9-22.5,80.7-45.5,92-50.5c0-4.7,9.7-118.5,124.4-118.5
			c-3.4-2-13.8-15.7,18-14s20.3,15.4,14.9,16.7C542.2,87.8,547.8,199.1,543.8,230.2z"/>
		<path fill="#FFE26C" stroke="#000000" stroke-width="0.7381" stroke-miterlimit="10" d="M282.9,189.5c0,0-79,26.3-91.3,53.5
			c-12.3,27.3,18.1,48,36.7,51.5c90,16.7,213.2-11,304.3-71.5c-49.8,12.1-131.3,15.5-179.7,2.5C317.5,216,293.1,202.5,282.9,189.5z"
			/>
		<path opacity="0.4" d="M396.1,288.2c-94.4,23.9-160.1,21.5-190.4,6.2c12.6,8.1,52.6,31.6,201.2-3c15.5-3.6,83-24.9,125.7-59.2
			l11.4-4.7l0.2-3.8l-15.3,5.1C474,263.8,452.1,274.1,396.1,288.2z"/>
		<path fill="#FFE26C" stroke="#000000" stroke-width="0.7381" stroke-miterlimit="10" d="M435.7,69.5c0,0,2.3,0.1,6.2,1
			c0.6,0.1,4.3,0.9,4.3,0.9s-2.8,0.3-3.9,0.9c18,6.5,59.6,24.3,76,59.7c15.8,34.3,14.5,83,14.5,83l-5.9,2c0,0,4.5-65.5-20.9-97.3
			c-25.4-31.8-70-46.3-70-46.3s24.8,26.2,41,67.4c12.2,31.1,7.7,83.6,7.7,83.6h-5.3c0,0,1.5-43.7-7.9-79.1
			c-9.3-35.3-45.8-71.9-45.8-71.9s-18.7,17.2-36.3,65.5c-4.5,12.3-13.3,84.3-13.3,84.3l-6.8-1c0,0,8.7-71,13-83.3
			c14.5-41.2,30.8-58.2,34.4-65c-7.6,2.7-33.7,11.6-66.6,44.6c-17.3,17.3-32.5,85.9-32.5,85.9l-5.2-2.9c0,0,20.7-72,32.6-85.4
			c21.3-24,55.5-41,63.1-43.6c-19.8,1.5-69.5,17.5-82.7,40.9s-37.2,72.3-37.2,72.3l-3.9-4.4c0,0,28.3-65.4,41-78.8
			c22.1-23.2,58.6-30.9,76.3-32.8c-2.6-1.2-25.5,0.7-29.1,1c0.6,0,26.5-3.4,26.5-3.4c1.2-0.1,6,0.9,7.9,1.2c0.3,0-1.8-1.3-1.8-1.3
			s-7.2-8.2,0.2-11.8c-4.9,4.4,2.7,13.3,5.8,12.2c0.1-0.3-6.6-9.3,3.1-14.1c-5.6,8.8,3.9,15.4,4.6,15.4c-1.2-0.7-8-10.7,3.3-15.4
			c-3.3,8.8,0.7,14.5,1.7,15.5c2.6-2.3,4.6-9.1,3.5-15c7.4,4.8,4.9,12.6,1.7,15c7.2-1.8,10.5-6.2,6.9-12.9
			C445.4,64.8,435.7,69.5,435.7,69.5z"/>
		<path opacity="0.5" fill="#C8C8C8" d="M470.8,81.5c0,0,67.6,56,35,61.5c-61.7,10.5-43.3,54.3-71.3,57.7
			c-64,11.7-125.5-3.5-135-5.9C332.8,227,427,242,534.3,219.4c4.1,0-2.9,7.4,0.7,9.3c0.7,0.4,6.5,4.9,7.9,3.1
			c1.4-1.8,7.9-42.3-14.2-93C521.5,122.3,500.5,90.7,470.8,81.5z"/>
		<path fill="#FFAE74" d="M431.6,62.4c0,0-2.7,3-5.5,3.2c-0.2,1-1.9,3.3-2.5,3.8c-0.9-0.6-2.1-2.7-2.6-4.6c-1.6,0.9-3.8,0.1-4.6-0.5
			c0.4,0.9,1.7,3.8,3.1,4.7c-2.1,0.1-5.3-3.4-6-5c-2,0.5-3.7-1.1-4.2-1.8c0.2,1.1,1.4,4.1,1.8,5.4c-1.7,0.3-3.8-1.3-4.8-2.1
			c0,0-1.9-0.5-2.7-0.8c1.5,2.4,4.1,3.7,4.4,4c0.3,0.3,4.6,2.3,9.3,2.8c4.8,0.5,15.2,1,18.3,0.9c2.8-0.2,4.5-1,6.3-1.4
			c-2.8-1-6.9-1.1-8-1.1c1.8-0.3,5.1-2.5,5.6-5.2c-4.2,4-9.9,4.4-11.9,4.7C428.2,68.5,431.2,68,431.6,62.4z"/>
		<path opacity="0.2" d="M443.5,60.8c0,0-7.8,5.6-18.8,5.2c-15.7-0.5-18.9-2.1-24.1-4.7c1.6,5.5,15.4,13.6,37.1,7.8
			C440.8,68.1,444.9,64.3,443.5,60.8z"/>
		<path fill="#FFE26C" stroke="#000000" stroke-width="0.7381" stroke-miterlimit="10" d="M281.8,174.8c0,0,13.8,33.3,87.8,44
			c74,10.6,153.3,2.7,173.6-10.4c0,8.6,0,7.3,0,7.3s-81.2,24.9-175.3,8.7c-67.9-11.7-87.3-41-87.3-41L281.8,174.8z"/>
		<path fill="#FFAE74" d="M463.3,112.2c0,0,10.6,27.3,12.3,36.5s3.6,75.6,3.6,75.6h5.3c0,0,2.2-54.6-5.4-76.9
			C471.6,125.2,463.3,112.2,463.3,112.2z"/>
		<path fill="#FFAE74" d="M387.1,142.4c0,0-4.2,18.9-5.8,28c-2.3,12.4-9,52.5-9,52.5h3.2c0,0,2.7-22.8,6.2-46.9
			C385.5,153.9,387.1,142.4,387.1,142.4z"/>
		<path fill="#FFAE74" d="M543.2,210.5c0,0-23.6,14.6-94.7,15.7c-31.4,0.5-73.4-0.7-73.4-0.7s41.7,5.3,73.4,4
			c9.6-0.4,16.7,0.8,49.7-4.5c21.5-2.8,41.5-8.6,45-9.9V210.5z"/>
		<path fill="#FFAE74" d="M332.4,150.4c-6.7,13-17.6,49.8-17.6,49.8l2.6,1.5C317.4,201.7,326.1,165.9,332.4,150.4z"/>
		<path fill="#FFAE74" d="M312,136.4c-9.6,12.4-24.9,44.6-24.9,44.6l2.2,2.3C289.3,183.3,304,151.8,312,136.4z"/>
		<path fill="#FFAE74" d="M483,93.1c0,0,26.6,21.3,34.5,44.7c15.7,46.9,9.3,79.1,9.3,79.1l5.6-1.4c0,0,0-53.9-15.1-84.5
			C505.6,107.4,483,93.1,483,93.1z"/>
	</g>
</g>
</svg>