<?xml version="1.0" encoding="utf-8"?>
<svg version="1.0" id="layer_1" xmlns="http://www.w3.org/2000/svg" xmlns:xlink="http://www.w3.org/1999/xlink" x="0px" y="0px" viewBox="0 0 800 800" enable-background="new 0 0 800 800" xml:space="preserve">
<g id="_x31__2_">
	<g id="身体_16_">
		<path fill="#A66AFF" stroke="#000000" stroke-width="1.4173" stroke-miterlimit="10" d="M291.3,599.9c0.9-16.5,4-26.1,6.4-31.4
			C293.8,577.2,292.1,589,291.3,599.9l-0.4,14.5c0,9.2,0.5,24.7,0.5,24.7l13.1,58.4l71.6,1.9l9.4-39.9c0,0,3.8,0.4,6.6,0.4
			c2.8,0,6.6-0.4,6.6-0.4l9.4,39.9l71.6-1.9l13.1-58.4c0,0,0.5-15.2,0.5-24.1c0,0-0.2-33.1-6.8-46.5c2.1,3.2,5.8,16.1,6.5,34.5
			l0.4,12c3.6,39.4,49.8,38.6,49.8-5c0-45.3-33.4-74.5-41.8-80c-15.2-10.7-43.5-17.3-43.5-17.3h-65.7H392h-65.7
			c0,0-28.3,6.6-43.5,17.3c-8.4,5.5-41.8,34.7-41.8,80c0,43.8,46.6,44.3,49.8,4.4L291.3,599.9z"/>
		<path opacity="0.1" fill="#FFD2BE" d="M437.7,576.5c-10.9-19-1-39.8-11.4-39.8c-10.4,0-14.2,9.4-33,9.4c-0.1,0-0.7,0-0.8,0
			c-18.8,0-22.6-9.4-33-9.4s-0.5,20.8-11.4,39.8c-22.8,39.7,5.8,74.2,42.6,74.2c0.8,0,3.7,0,4.4,0
			C431.9,650.8,460.5,616.2,437.7,576.5z"/>
		<path fill="#8C54A2" d="M335,647.2c0,0,21.3,7.5,57,7.5s56.3-7.5,56.3-7.5s-22.2,12.3-55.9,12.3c-2.9,0-4.9-0.1-7.6-0.3l-9.2,39.1
			l-3.2-4c2.3-7.2,1.4-30.3-0.1-36.2C352.5,655.2,340.1,650.3,335,647.2z"/>
		<path fill="#8C54A2" d="M493.4,633l-13.7,59.8l-5.5-1c1.4-4.1,8.4-36.4,12.4-61.3c2.6-37.6-1.1-65.5-1.1-65.5
			C493.8,592.7,494.5,622.4,493.4,633z"/>
		<path fill="#8C54A2" d="M542.8,609.5c0,10.4-6.2,31.3-16,29.3c4.2-12,3.7-32.8,3.7-32.8c1.9-45.3-26.9-73.4-26.9-73.4
			C534.1,556.9,542.8,591.9,542.8,609.5z"/>
		<path fill="#8C54A2" d="M274.7,616.1c0,5.8-1.1,21.3-7.7,26.7c11.5,0,18.5-11.9,19.9-14.8c3.3-7.1,3.3-18,3.3-18
			c-0.3-34.8,10.2-48.6,10.2-48.6C282,576.8,274.7,606.2,274.7,616.1z"/>
		<path fill="#8C54A2" d="M459.6,514.5c-4.6-8.2-28.1-15.9-64-17c-13.9-0.4-69.1-2.1-64.6,6.1c4.9,8.9,20.3,23,61.8,26
			C428.7,532.2,465.3,524.7,459.6,514.5z"/>
	</g>
	<g id="衣服_19_">
		<path fill="#7C22B4" stroke="#000000" stroke-width="0.7087" stroke-miterlimit="10" d="M316.9,511.2
			c-24.6,2.3-54.5,27.6-50.9,34.8c4.5-3.4,31.2,0.6,36,13c-10.5,18-12.4,49-11.7,64.3c3,3.7,31.4,24.7,101.4,24.7
			s101.9-24.7,101.9-24.7s3.5-41.7-10.3-64.3c1.5-6.7,26.2-16.5,34.2-13c5.4-6.4-22.2-30.1-46.1-34.8c-11.1-1.5-33.9,4.1-33.9,4.1
			c-6.1,9.8-27.6,19.5-45.4,19.5s-37.5-6.1-44.6-19.5L316.9,511.2z"/>
		<polygon fill="#FFB464" points="391.3,569.5 403.7,584.6 431.3,587 411.3,598.8 416.1,615.5 391.3,607.6 366.6,615.5 371.3,598.8 
			351.3,587 379,584.6 		"/>
		<path fill="#682873" d="M482.9,559.3c10.9,31.6,4.9,67.2,4.9,67.2l5.2-2.8C493,623.7,496.9,583.2,482.9,559.3z"/>
	</g>
	<g id="脚_22_">
		<g id="脚_28_">
			<path fill="#FFD2BE" stroke="#000000" stroke-width="1.4173" stroke-miterlimit="10" d="M401.2,709.1c0,9.4,20.1,8.3,45,8.3
				s45,0.4,45-14.6c0-7.4-15.6-18.6-41.2-17.9s-36.2,6.9-41.1,14.5C402.7,700.1,401.2,702.7,401.2,709.1z"/>
			<path fill="#E6A082" d="M486.4,696c0,0,2.5,10.7-7.5,14s-76.4,6.8-77-2.8c-0.7,6.2,4,9.3,21.6,9.5c6.2,0,37.1,0,37.1,0
				s24.1,0.4,28.3-8C492.3,701.7,489.3,698.7,486.4,696z"/>
		</g>
		<g id="脚_23_">
			<path fill="#FFD2BE" stroke="#000000" stroke-width="1.4173" stroke-miterlimit="10" d="M383.2,709.1c0,9.4-20.1,8.3-45,8.3
				s-45,0.4-45-14.6c0-7.4,15.6-18.6,41.2-17.9s36.2,6.9,41.1,14.5C381.6,700.1,383.2,702.7,383.2,709.1z"/>
			<path fill="#E6A082" d="M379,701c0,0,5.3,6.6-4.8,9.9s-73.1,5.8-79.4-3.4c1.8,5.8,12.4,8.9,22.7,9.2c6.2,0.2,37.1,0,37.1,0
				s21.9,0.9,26.5-4.4C383.6,710.2,382.8,702.1,379,701z"/>
		</g>
	</g>
	<g id="手_6_">
		<g id="手_22_">
			<g id="左手_4_">
				<path fill="#58735F" stroke="#000000" stroke-width="1.4173" stroke-miterlimit="10" d="M497.2,632.8
					c-3.6,16.8,3.9,27.2,20.5,27.2c16.6,0,29-17.2,29-32.7c0-15.5-10.2-28.6-26.8-28.6c-12.7,0-19.4,3.8-25.4,14.1
					C490.7,619.7,498,629.3,497.2,632.8z"/>
				<path fill="#58735F" stroke="#000000" stroke-width="1.4173" stroke-miterlimit="10" d="M513.9,627.5
					c-1.5,13-12.7,16.2-19.6,11.8c-6.1-3.8-9.1-14.5,0-25.9"/>
			</g>
			<path fill="#2C392F" d="M513.9,618.2c0,0,0,22.3-21,19C501.5,645.9,518.7,636.7,513.9,618.2z"/>
			<path fill="#2C392F" d="M509.8,638.2c0,0-3.7,4.8-12.5,3.3C496.4,651.7,509.4,643.2,509.8,638.2z"/>
			<path fill="#2C392F" d="M537.9,606.6c2.8,5.9,5.8,23.3-2.8,37c-6,9.5-11.9,15.1-21.2,15.5c16.1,2.1,24.9-10.8,27.2-14.6
				C546.7,635.9,549.6,618.5,537.9,606.6z"/>
		</g>
		<g id="手_19_">
			<g id="左手_3_">
				<path fill="#58735F" stroke="#000000" stroke-width="1.4173" stroke-miterlimit="10" d="M287.2,632.8
					c3.6,16.8-3.9,27.2-20.5,27.2s-29-17.2-29-32.7c0-15.5,10.2-28.6,26.8-28.6c12.7,0,19.4,3.8,25.4,14.1
					C293.8,619.7,286.4,629.3,287.2,632.8z"/>
				<path fill="#58735F" stroke="#000000" stroke-width="1.4173" stroke-miterlimit="10" d="M270.5,627.5
					c1.5,13,12.8,16.2,19.6,11.8c6.1-3.8,9.1-14.5,0-25.9"/>
			</g>
			<path fill="#2C392F" d="M291.4,616.4c1.5,2.4,2.9,11.3-0.7,17.3c-1.8,3-7.3,6.4-12.2,5.5c6.1,3.2,12.8,0.3,15.3-5.2
				C297.3,626.6,292.9,618.2,291.4,616.4z"/>
			<path fill="#2C392F" d="M272.3,621.6c-8,10.9,4.5,21.2,2.9,28.4c-0.8,3.5-5.9,10.4-15,8.3c7.4,2.5,19.4,0.3,23.5-5.7
				c1.1-1.6,3.4-4.2,3.7-11.2C276.6,644.1,266.1,632.9,272.3,621.6z"/>
		</g>
	</g>
	<g id="耳朵_22_">
		<g id="耳朵_24_">
			<path fill="#FFCA59" stroke="#000000" stroke-width="1.4173" stroke-miterlimit="10" d="M299.6,220.5
				c-4.2-24.9-52.4-67-110.8-33.3c-40.6,21.2-44.6,99.3,32.9,108.8L299.6,220.5z"/>
			<linearGradient id="SVGID_3_" gradientUnits="userSpaceOnUse" x1="256.5774" y1="248.0823" x2="223.5741" y2="190.9191">
				<stop  offset="2.564103e-03" style="stop-color:#EED2BE;stop-opacity:0.5"/>
				<stop  offset="1" style="stop-color:#FFAE96"/>
			</linearGradient>
			<path fill="url(#SVGID_3_)" d="M221.5,268.3c-5-0.4-49.3-42.5-11-69.7c29-20.5,72,2.3,76.5,8L221.5,268.3z"/>
			<path fill="none" stroke="#000000" stroke-miterlimit="10" d="M188.1,213.6c32.4-39.6,93.5-15.1,97.1-10.3"/>
		</g>
		<g id="耳朵_23_">
			<path fill="#FFCA59" stroke="#000000" stroke-width="1.4173" stroke-miterlimit="10" d="M490.3,220.5
				c4.2-24.9,52.4-67,110.8-33.3c40.6,21.2,44.6,99.3-32.9,108.8L490.3,220.5z"/>
			<path fill="#E2A048" d="M618.5,202.5c32.2,55.3-17.8,90.8-42.7,92.3l-3.5-8.3C580.4,288,639.5,268.3,618.5,202.5z"/>
			
				<linearGradient id="SVGID_4_" gradientUnits="userSpaceOnUse" x1="12514.1631" y1="248.0823" x2="12481.1602" y2="190.9191" gradientTransform="matrix(-1 0 0 1 13047.4883 0)">
				<stop  offset="2.564103e-03" style="stop-color:#EED2BE;stop-opacity:0.5"/>
				<stop  offset="1" style="stop-color:#FFAE96"/>
			</linearGradient>
			<path fill="url(#SVGID_4_)" d="M568.4,268.3c5-0.4,49.3-42.5,11-69.7c-29-20.5-72,2.3-76.5,8L568.4,268.3z"/>
			<path fill="none" stroke="#000000" stroke-miterlimit="10" d="M601.8,213.6c-32.4-39.6-95.3-11.6-98.8-6.9"/>
		</g>
	</g>
	<g id="面部_1_">
		<path id="面部_2_" fill="#FF975E" stroke="#000000" stroke-width="1.4173" stroke-miterlimit="10" d="M214.3,278.3
			c11.2-30.5,46.9-77.2,129.7-100c36.3-10,61.8-8.8,96.6,0.5c41.8,11.2,105.2,42.4,128.8,98.9c11.7,28,11.7,87.7,11.7,87.7
			s23.3,12,23.3,49.3c0,32.5-52.7,87.4-157.3,100.9c-15.4,2-29.3,11.1-53.3,11.1s-38-9.3-54.8-11.6C236.1,501,179,448.5,179,414.7
			c0-34.2,25.5-48.8,25.5-48.8S201,314.7,214.3,278.3z"/>
		<path fill="#AA5834" d="M532.7,227.5c34.8,34.5,46.6,60.2,47.7,138.2c0,0-7.3,1.1-13.4,5.4C573.9,347.5,572.5,271,532.7,227.5z"/>
		<path fill="#AA5834" d="M267,496.2c18.9,9.2,64.8,17.7,77.4,19.2c6.4,1.4,29.4,10.5,47,10.5s30.2-3.9,46.7-9.6
			c29.3-2.6,80.2-15.3,104.8-31c-30.3,13.1-68.9,21.4-97.6,25.7c3.7-3.3,8.2-5.9,11.8-11.9c-15.7,13.9-34.1,19.9-61.5,20.6
			C384.7,519.9,312,509.5,267,496.2z"/>
	</g>
	<g id="鼻子_5_">
		<ellipse fill="#FFCAAE" stroke="#000000" stroke-width="1.4173" stroke-miterlimit="10" cx="391.3" cy="421.3" rx="90" ry="59"/>
		<path fill="#E6A082" d="M392,467.5c-28.1,1.3-47.3-1.5-68.3-8.4c6.1,6,32.9,20.6,67.2,20.6c48.4,0,89.7-24.6,89.7-58.4
			C475.8,438.2,445.9,465,392,467.5z"/>
		<g id="鼻子_8_">
			<path fill="#69301B" stroke="#000000" stroke-miterlimit="10" d="M404.4,385.7c-5.2,0-8,2.3-13.5,2.4c-5.5-0.1-8.3-2.4-13.5-2.4
				c-10,0-18.5,8.3-18.5,15.5c0,7.3,6.2,16.9,19.6,18.3c3.1,0.3,22,0.4,24.7,0c13.3-2,19.6-11,19.6-18.3
				C422.9,394,414.4,385.7,404.4,385.7z"/>
			<path fill="#3F1000" d="M420.8,406c0,4.5-6.4,10.1-14,12.3c-4.9,1.4-10,1-16.5,1c-5.7,0-10.3,0.4-14.8-0.7
				c-8.7-2.1-14.9-8.3-14.9-12.6c0-6.6,13.4-9,30-9S420.8,399.3,420.8,406z"/>
		</g>
	</g>
	<g id="眼睛_4_">
		<linearGradient id="SVGID_3_" gradientUnits="userSpaceOnUse" x1="448.5415" y1="351.7919" x2="532.2632" y2="351.7919">
			<stop  offset="0" style="stop-color:#6EA0DC"/>
			<stop  offset="1" style="stop-color:#8BBBFF;stop-opacity:0"/>
		</linearGradient>
		<path fill="url(#SVGID_3_)" d="M524.7,326.7c17.5,42.8,2.8,76.1-24.6,76.1s-47.7-28.8-50.6-44.6c-4-20.6,4.9-42.7,20.5-51.1
			C489.5,296.5,512.7,297.3,524.7,326.7z"/>
		<linearGradient id="SVGID_4_" gradientUnits="userSpaceOnUse" x1="237.0114" y1="334.1588" x2="297.4662" y2="365.2986">
			<stop  offset="0" style="stop-color:#6EA0DC"/>
			<stop  offset="1" style="stop-color:#8BBBFF;stop-opacity:0"/>
		</linearGradient>
		<path fill="url(#SVGID_4_)" d="M304.6,326.7c20.7,41.4-1.1,75.1-24.6,76.1c-18.5,0.8-31.7-19.4-34.5-35.2
			c-4-20.6,0.4-34.5,11-48.8C264.4,308,291.7,300.7,304.6,326.7z"/>
		<g id="眼睛_6_">
			<radialGradient id="SVGID_5_" cx="281.6733" cy="358.1066" r="37.8513" gradientUnits="userSpaceOnUse">
				<stop  offset="0" style="stop-color:#4D4D4D"/>
				<stop  offset="1" style="stop-color:#1A1A1A"/>
			</radialGradient>
			<ellipse fill="url(#SVGID_5_)" stroke="#000000" stroke-miterlimit="10" cx="281.7" cy="358.1" rx="30" ry="44.3"/>
			
				<radialGradient id="SVGID_6_" cx="311.0702" cy="358.1066" r="28.178" gradientTransform="matrix(0.9851 0 0 1 -24.756 0)" gradientUnits="userSpaceOnUse">
				<stop  offset="0" style="stop-color:#333333"/>
				<stop  offset="1" style="stop-color:#000000"/>
			</radialGradient>
			<ellipse fill="url(#SVGID_6_)" cx="281.7" cy="358.1" rx="22" ry="33"/>
			
				<ellipse transform="matrix(0.3609 -0.9326 0.9326 0.3609 -147.2983 475.2638)" fill="#F2F2F2" cx="273.1" cy="345.1" rx="7" ry="5.7"/>
			<ellipse cx="281.7" cy="358.1" rx="8" ry="13"/>
			<path fill="#FFFFFF" d="M298.1,378.9c-1.4,2.5-3.6,4.4-4.3,3.6c-0.8-0.8,0.9-0.9,2.7-4.4c1.9-3.5,1.5-4.6,2.6-4.5
				C300.1,373.7,299.5,376.4,298.1,378.9z"/>
			<ellipse fill="#FFFFFF" cx="264.4" cy="359.7" rx="2.8" ry="4.1"/>
		</g>
		<g id="眼睛_5_">
			<radialGradient id="SVGID_7_" cx="502.6734" cy="358.1066" r="37.8513" gradientUnits="userSpaceOnUse">
				<stop  offset="0" style="stop-color:#4D4D4D"/>
				<stop  offset="1" style="stop-color:#1A1A1A"/>
			</radialGradient>
			<ellipse fill="url(#SVGID_7_)" stroke="#000000" stroke-miterlimit="10" cx="502.7" cy="358.1" rx="30" ry="44.3"/>
			
				<radialGradient id="SVGID_8_" cx="535.4174" cy="358.1066" r="28.178" gradientTransform="matrix(0.9851 0 0 1 -24.756 0)" gradientUnits="userSpaceOnUse">
				<stop  offset="0" style="stop-color:#333333"/>
				<stop  offset="1" style="stop-color:#000000"/>
			</radialGradient>
			<ellipse fill="url(#SVGID_8_)" cx="502.7" cy="358.1" rx="22" ry="33"/>
			
				<ellipse transform="matrix(0.3609 -0.9326 0.9326 0.3609 -6.0616 681.3678)" fill="#F2F2F2" cx="494.1" cy="345.1" rx="7" ry="5.7"/>
			<ellipse cx="502.7" cy="358.1" rx="8" ry="13"/>
			<path fill="#FFFFFF" d="M519.1,378.9c-1.4,2.5-3.6,4.4-4.3,3.6c-0.8-0.8,0.9-0.9,2.7-4.4c1.9-3.5,1.5-4.6,2.6-4.5
				C521.1,373.7,520.5,376.4,519.1,378.9z"/>
			<ellipse fill="#FFFFFF" cx="485.4" cy="359.7" rx="2.8" ry="4.1"/>
		</g>
	</g>
	<g id="眉毛_1_">
		<linearGradient id="SVGID_10_" gradientUnits="userSpaceOnUse" x1="455.7762" y1="303.4955" x2="552.3399" y2="303.4955">
			<stop  offset="5.128205e-03" style="stop-color:#333333"/>
			<stop  offset="1" style="stop-color:#601D00"/>
		</linearGradient>
		<polygon fill="url(#SVGID_10_)" points="458.5,313.7 519,285.5 552.3,305.5 514.6,303.8 455.8,321.5 		"/>
		<path fill="#320014" d="M460,313.8c0,0,21.2-12.7,37.1-13.9c20.5-0.6,25.4,4.3,25.4,4.3l-7.9-0.3l-58.8,17.7L460,313.8z"/>
		
			<linearGradient id="SVGID_11_" gradientUnits="userSpaceOnUse" x1="-3645.2368" y1="303.4955" x2="-3548.6731" y2="303.4955" gradientTransform="matrix(-1 0 0 1 -3321.897 0)">
			<stop  offset="5.128205e-03" style="stop-color:#333333"/>
			<stop  offset="1" style="stop-color:#601D00"/>
		</linearGradient>
		<polygon fill="url(#SVGID_11_)" points="320.6,313.7 260.1,285.5 226.8,305.5 264.5,303.8 323.3,321.5 		"/>
		<path fill="#320014" d="M319.1,313.8c0,0-21.2-12.7-37.1-13.9c-20.5-0.6-25.4,4.3-25.4,4.3l7.9-0.3l58.8,17.7L319.1,313.8z"/>
	</g>
	<g id="胡子_1_">
		<path fill="#FFFFFF" stroke="#000000" stroke-miterlimit="10" d="M479.6,501.2c-11.9,3.5-71.3,4.1-87,4.1c-15.7,0-75.1-1.6-87-5
			c-38.8-11.3-98.4-37-105.1-44.7c3.7,20.3,14.1,37,27.1,52.4c18.1,21.3,47.8,8.7,59.3,22c-2.2,30.2,32.2,25.1,60.9,31.5
			c29.5,6.2,34.5,13.8,44.8,29.3c10.3-15.4,15.3-23.1,44.8-29.3c28.7-6.5,63.1-1.4,60.9-31.5c11.4-13.3,41.2-0.6,59.3-22
			c13-15.3,23.9-33.6,27.6-53.9C578.5,461.7,518.4,489.9,479.6,501.2z"/>
		<g>
			<path fill="#E0DFD9" d="M281.7,520.4c-11.4-13.3-41.2-0.6-59.2-22c-4.3-5.1-8.3-10.3-11.8-15.7c4.7,8.7,10.6,16.9,17.2,24.6
				c15.7,18.6,40.3,11.4,53.9,18C281.5,523.8,281.5,522.1,281.7,520.4z"/>
			<path fill="#E0DFD9" d="M574.5,461.9c-5.3,14.1-13.2,25.7-22.8,37c-18.1,21.3-47.8,8.7-59.3,22c2.2,30.2-32.2,25.1-60.9,31.5
				c-29.5,6.2-31.6,13.4-41.9,28.8c-10.3-15.4-18.3-22.6-47.8-28.8c-20.5-4.6-43.2-3.7-54.1-13.6c5.2,19.8,34.3,16.4,59.6,22.1
				c29.5,6.2,34.9,13.5,45.2,29c10.3-15.4,14.8-22.3,44.3-28.5c28.7-6.5,63.1-1.4,60.9-31.5c11.4-13.3,41.2-0.6,59.3-22
				c13-15.3,23.6-31.7,27.2-52C583,457.3,579.4,459.1,574.5,461.9z"/>
		</g>
		<path fill="#FFFFFF" stroke="#000000" stroke-miterlimit="10" d="M487.2,459c14.4,4.7,12.9,22.4,1.5,24.3
			c-11.8,1.9-31.4-24.6-53.5-23.8c-15.2,0.6-35.7,9.4-41.1,11.9c-5.4-2.5-25.9-11.3-41.1-11.9c-22.1-0.9-41.8,25.6-53.5,23.8
			c-11.4-1.8-12.9-19.6,1.5-24.3c-19.7-4-27.1,25.8-3.2,38c22.8,11.7,70.6,12.7,96.4-2.2c25.8,14.9,73.5,13.9,96.4,2.2
			C514.3,484.8,507,455,487.2,459z"/>
		<path fill="#E0DFD9" d="M322.7,504.9c1.3,4.1,10.7,15.8,42.9,16.7c11.9,0.3,29.9-6.6,39.3-9c67.8,16.9,86.5-4.4,95.5-8.6
			c8.9-4.2,6.4-11.3,6.4-11.3s-16.6,8.5-42.6,11.8c-17.5,2.2-82.7,4.2-99.8,0.5C344.6,507.3,332.9,506.7,322.7,504.9z"/>
		<path fill="#E0DFD9" d="M379.5,466.1c8.6,8.4,3.4,36.5-42.9,39.1c17.7,0.3,38.6-0.4,57.4-11c12.7,8.4,42,13.3,65.1,10.2
			c22.2-1.8,37-8.5,42.2-17.7c5.8-7.5,6.4-27.5-12-27.5c14.2,2.6,16.1,15.5,11.1,25.2c-3.3,6.5-12.6,11-18.6,12.6
			c-15,3.9-37.4,4.9-45.8,3.8c-17.7-2.3-27.4-5.4-33.9-10.8c-9.3-7.7-8.1-17.9-8.1-17.9S381.9,466.4,379.5,466.1z"/>
	</g>
	<g id="头发_15_">
		<path fill="#32D2C8" stroke="#000000" stroke-width="1.4173" stroke-miterlimit="10" d="M364.8,196.7
			c-26.6-6.4-37.6-38.8-23.1-58.7c-3.2,16.8,9.8,36.2,37.8,33.6"/>
		<path fill="#269E96" d="M340.5,141.2c0,0-1.2,8.3,0.4,14.6c2.3,8.7,10.2,15.5,10.2,15.5s-6.1,0.6-8.9-2.4c0.3,0.6,4.9,4.7,5.9,5.3
			c12.1,7.9,23.3,8.5,23.3,8.5s-8.9,1.1-14.9-0.6c6.7,4.3,21.7,4.9,21.7,4.9s-4.8,2.7-9.9,1.4c6.3,2.5,15.9,3.4,22.8,1.7l-14.4-17.4
			C371.2,173.3,340.9,171.3,340.5,141.2z"/>
		<path fill="#32D2C8" stroke="#000000" stroke-width="1.4173" stroke-miterlimit="10" d="M445.2,180.1c-16.5-4.2-20.3-24.4-6-27.6
			c-14.9-3.3-21.7,16.3-17.7,21.8c-13.6-1-48-22.5-40.8-55.3c-13,15.5-24.8,68.8,30.3,77.7"/>
		<path fill="#269E96" d="M400.3,184.9c-23.7-12-27.2-38.2-20.8-62.1c-4.5,32.1,32,54.1,47.5,53.1c-4-5.5-4.3-18,8.8-23
			c-10.9,5.4-7.1,23.8,9.3,28c0,0-7.1,0.9-18.1-5c0,1.1,15.7,9,15.7,9l-21.8-8.9l20.7,13.1l-15-3l6.8,5l-17.1-6.9l22.3,14.4
			L400.3,184.9z"/>
	</g>
	<g id="帽子_12_">
		<path fill="#B64400" stroke="#000000" stroke-miterlimit="10" d="M510.2,191.5c-26,28.5-59.4,54.4-116.6,56.5
			c-55.5,2-93.6-27-120.9-61.1c16.9,10.9,27.6-3.9,30.9-14.2c7.7-23.9,9.6-49.6,19.8-71.7c1.8-4,15.2-12.1,20.9-16
			C349.1,81.6,356,72.4,360,70c9.9-6,23.1,3.4,32.4,3.4c12.9,0,22.3-9.8,34.1-3.4c3.2,2.3,7.4,11.1,12.3,15.5
			c6.8,6,13.9,8.5,17.9,13.2c14.3,23.1,14.9,52.9,23.9,78.2C484.7,188,493.9,202.4,510.2,191.5z"/>
		<path fill="#963600" stroke="#000000" stroke-miterlimit="10" d="M536.2,231.5c9.1-4.2,30.2-10.7,41.1-34.1
			c15-32.3-1.3-69.9-28.6-49.7c-25.1,19-59.9,100.3-158.5,100.3s-125.8-87.4-152.7-98.5c-22.7-11-43.2,13.2-28.1,45.5
			c10.9,23.4,28.1,33.7,40.7,32.5c0,0,14.1-14.5,31.2-21.9c6.5,5.6,45.4,51.9,106.7,49.9c61.3-2,99.1-37.2,117.1-49.2
			C511.8,209.5,528.1,221.3,536.2,231.5z"/>
		<g>
			<path fill="#983814" d="M329.5,100.8c-0.5-4.5,12.4-9.1,17.8-13.8c5.3-4.7,11.9-14.9,15.1-13.4C369.9,77,383,114,371,122
				S330.7,110.3,329.5,100.8z"/>
			<path fill="#983814" d="M452.5,100.3c0.5-4.5-10.1-6.5-15.4-11.2c-5.3-4.7-8.9-14.2-13.8-14c-8.3,0.3-19.1,36.5-7.1,44.5
				S451.3,109.8,452.5,100.3z"/>
			<path fill="#5E2814" d="M280.8,205.6c0,0-18.3-14.3-34.8-34.3s-37.5,10-18,33c13.8,15.3,29.3,15,29.3,15S279,205.6,280.8,205.6z"
				/>
			<path fill="#5E2814" d="M504.8,206.5c0,0,20.5-14.8,37-34.8s35.3,10.5,15.8,33.5c-13.8,15.3-30.7,16.9-30.7,16.9
				S506.6,206.5,504.8,206.5z"/>
			<g id="帽带">
				<path fill="#802D0E" d="M361,196.2l43.7,1.2l26.8-1.8c0,0,36-4,51.7-11.5c-1-4.3-2.9-8-2.9-8l-118.7,10.3L361,196.2z"/>
				<path fill="#802D0E" d="M456,98.6c11.9,18.5,15.4,41.4,20.5,66.5c2.4,10.3,8.7,24.9,14.7,28S474,211,438.8,217.5
					c0,0,19.2-5.1,24.4-20.2c2.9-8.6,1.3-23.7,0.5-37.7c-0.8-14-7.6-33.5-12.1-48C453.2,108.4,457.7,105.8,456,98.6z"/>
				<path fill="#C86600" d="M344.1,85.9c-0.5,0.5-17.8,10.2-20.3,15.5c-6.3,13.4-13.8,51.3-17,64.2c-3.3,10.4-2.7,15.6,7.3,25.4
					c7.1,7.4,11.7,23.7,24.4,34.6c-4.7-21-14.8-39.8-17.6-48.9c-3.5-12.7,0.8-56.9,4.9-68.1c-0.2-0.9-0.7-1.8-0.9-3
					C324.6,102.4,324.3,101.3,344.1,85.9z"/>
				<path fill="#802D0E" d="M275.2,188.9c4.8,1.9,15.4,6.2,25.2-8.2c18.3,8.9,19.9,24.2,29.2,35.1c10.3,12,17.4,23.3,52.2,31.3
					c-23.3-1.1-46.9-8.5-62.4-18.8C304.9,218.8,290.3,206.9,275.2,188.9z"/>
				<path fill="#C86600" d="M205.8,182.2c0,0-5.4-22.5,10.3-31.8s28.8,4.5,30.4,5.8c4.3,3.6,16.9,18.6,24.2,28.8
					c10.2,14.2,33.2,33.9,34.3,35c-13.6-9.2-32.3-26.1-35.1-29.1c-9.4-10-26.7-28.4-30.3-30.5c-4-2.3-13.6-5.4-20.5-1.3
					c-10.9,6.5-11.5,13.4-9.6,33.8C207.2,189.8,205.8,182.2,205.8,182.2z"/>
				<path fill="#C86600" d="M416.7,68.8c0,0-16.2,2.9-18.2,6.3c-3.2,5.2-5.8,23.2,4.5,44.7c-3-18.5-1.1-35.2,3.6-42.5
					C411.3,70,416.7,68.8,416.7,68.8z"/>
				<g id="装饰">
					<path fill="#696A68" stroke="#000000" stroke-miterlimit="10" d="M306.2,163.4c2.1,0,30,6.3,54.4,2.8c12.9,0,71.1,0,71.1,0
						s30,5.2,45.9,0.3c2,0.5,6.8,15.1,5.4,16.5c-1.3,1.3-37.3,7.8-51.8,12.1l-70.6,0.5c0,0-43.9-10.7-60.6-15.5
						C300,174.4,304.1,163.4,306.2,163.4z"/>
					<path fill="#4F504E" d="M477.4,167.2c-10.8,3.2-31,2.1-45.4-0.3c1.6,4.4,0.6,22.2-0.2,23c-1.3,1.3-15.4,1.9-33.9,3
						c-9.8,0.6-24.9,0.9-36.9,0.1c-10.7-0.7-19-2.6-19-2.6c10.5,2.6,18.6,4.6,18.6,4.6l70.5-0.5c14.4-4.3,49.9-10.6,51.3-12
						S479.5,167.7,477.4,167.2z"/>
					<path fill="#959695" d="M430,188c-1.6,1.6-70.3,3.5-69,4.4s68.2-1.6,70.3-2.8c2.2-1.2,1-20.9,0.5-22.7
						C432,170,431.6,186.4,430,188z"/>
					<path fill="#959695" d="M306,163.9c6.8,3.7,39.5,7.3,50.6,5.7c1.3-0.2,3.4,15,4.2,20c0.2-2.5,0.3-22.8-0.4-22.8
						C342.7,169.8,317.4,166.1,306,163.9z"/>
				</g>
				<g id="圆珠_1_">
					<g id="圆珠">
						<circle fill="#E3D2B4" stroke="#252625" stroke-miterlimit="10" cx="312.1" cy="173.9" r="2.9"/>
						<circle fill="#E3D2B4" stroke="#252625" stroke-miterlimit="10" cx="331.5" cy="178.3" r="2.9"/>
						<circle fill="#E3D2B4" stroke="#252625" stroke-miterlimit="10" cx="348.8" cy="179.4" r="2.9"/>
						<circle fill="#E3D2B4" stroke="#252625" stroke-miterlimit="10" cx="371.8" cy="179.4" r="2.9"/>
						<circle fill="#E3D2B4" stroke="#252625" stroke-miterlimit="10" cx="394.6" cy="179.4" r="2.9"/>
						<circle fill="#E3D2B4" stroke="#252625" stroke-miterlimit="10" cx="420.9" cy="179.4" r="2.9"/>
						<circle fill="#E3D2B4" stroke="#252625" stroke-miterlimit="10" cx="444.4" cy="179.7" r="2.9"/>
						<circle fill="#E3D2B4" stroke="#252625" stroke-miterlimit="10" cx="460.7" cy="179.4" r="2.9"/>
						<circle fill="#E3D2B4" stroke="#252625" stroke-miterlimit="10" cx="475.6" cy="176.8" r="2.9"/>
					</g>
					<g id="阴影">
						<path fill="#71695A" d="M313.1,171.6c0.4,0.4,0.6,1,0.6,1.6c0,1.4-1.1,2.4-2.4,2.4c-0.3,0-0.6-0.1-0.9-0.2
							c0.4,0.5,1.1,0.9,1.8,0.9c1.4,0,2.4-1.1,2.4-2.4C314.6,172.9,314,172,313.1,171.6z"/>
						<path fill="#71695A" d="M332.3,176c0.4,0.4,0.6,1,0.6,1.6c0,1.4-1.1,2.4-2.4,2.4c-0.3,0-0.6-0.1-0.9-0.2
							c0.4,0.5,1.1,0.9,1.8,0.9c1.4,0,2.4-1.1,2.4-2.4C333.9,177.3,333.2,176.4,332.3,176z"/>
						<path fill="#71695A" d="M349.7,177.2c0.4,0.4,0.6,1,0.6,1.6c0,1.4-1.1,2.4-2.4,2.4c-0.3,0-0.6-0.1-0.9-0.2
							c0.4,0.5,1.1,0.9,1.8,0.9c1.4,0,2.4-1.1,2.4-2.4C351.3,178.4,350.6,177.5,349.7,177.2z"/>
						<path fill="#71695A" d="M372.7,177.2c0.4,0.4,0.6,1,0.6,1.6c0,1.4-1.1,2.4-2.4,2.4c-0.3,0-0.6-0.1-0.9-0.2
							c0.4,0.5,1.1,0.9,1.8,0.9c1.4,0,2.4-1.1,2.4-2.4C374.3,178.4,373.6,177.5,372.7,177.2z"/>
						<path fill="#71695A" d="M395.5,177.2c0.4,0.4,0.6,1,0.6,1.6c0,1.4-1.1,2.4-2.4,2.4c-0.3,0-0.6-0.1-0.9-0.2
							c0.4,0.5,1.1,0.9,1.8,0.9c1.4,0,2.4-1.1,2.4-2.4C397,178.4,396.4,177.6,395.5,177.2z"/>
						<path fill="#71695A" d="M421.8,177.2c0.4,0.4,0.6,1,0.6,1.6c0,1.4-1.1,2.4-2.4,2.4c-0.3,0-0.6-0.1-0.9-0.2
							c0.4,0.5,1.1,0.9,1.8,0.9c1.4,0,2.4-1.1,2.4-2.4C423.4,178.4,422.7,177.5,421.8,177.2z"/>
						<path fill="#71695A" d="M445.3,177.4c0.4,0.4,0.6,1,0.6,1.6c0,1.4-1.1,2.4-2.4,2.4c-0.3,0-0.6-0.1-0.9-0.2
							c0.4,0.5,1.1,0.9,1.8,0.9c1.4,0,2.4-1.1,2.4-2.4C446.8,178.6,446.2,177.7,445.3,177.4z"/>
						<path fill="#71695A" d="M461.6,177.2c0.4,0.4,0.6,1,0.6,1.6c0,1.4-1.1,2.4-2.4,2.4c-0.3,0-0.6-0.1-0.9-0.2
							c0.4,0.5,1.1,0.9,1.8,0.9c1.4,0,2.4-1.1,2.4-2.4C463.1,178.5,462.5,177.6,461.6,177.2z"/>
						<path fill="#71695A" d="M476.5,174.5c0.4,0.4,0.6,1,0.6,1.6c0,1.4-1.1,2.4-2.4,2.4c-0.3,0-0.6-0.1-0.9-0.2
							c0.4,0.5,1.1,0.9,1.8,0.9c1.4,0,2.4-1.1,2.4-2.4C478,175.7,477.4,174.8,476.5,174.5z"/>
					</g>
				</g>
			</g>
		</g>
	</g>
</g>
</svg>