<?xml version="1.0" encoding="utf-8"?>
<svg version="1.0" id="layer_1" xmlns="http://www.w3.org/2000/svg" xmlns:xlink="http://www.w3.org/1999/xlink" x="0px" y="0px" viewBox="0 0 800 800" enable-background="new 0 0 800 800" xml:space="preserve">
<g id="_x31__2_">
	<g id="身体_15_">
		<path fill="#FFC6D6" stroke="#000000" stroke-width="1.4173" stroke-miterlimit="10" d="M291.3,599.9c0.9-16.5,4-26.1,6.4-31.4
			C293.8,577.2,292.1,589,291.3,599.9l-0.4,14.5c0,9.2,0.5,24.7,0.5,24.7l13.1,58.4l71.6,1.9l9.4-39.9c0,0,3.8,0.4,6.6,0.4
			c2.8,0,6.6-0.4,6.6-0.4l9.4,39.9l71.6-1.9l13.1-58.4c0,0,0.5-15.2,0.5-24.1c0,0-0.2-33.1-6.8-46.5c2.1,3.2,5.8,16.1,6.5,34.5
			l0.4,12c3.6,39.4,49.8,38.6,49.8-5c0-45.3-33.4-74.5-41.8-80c-15.2-10.7-43.5-17.3-43.5-17.3h-65.7H392h-65.7
			c0,0-28.3,6.6-43.5,17.3c-8.4,5.5-41.8,34.7-41.8,80c0,43.8,46.6,44.3,49.8,4.4L291.3,599.9z"/>
		<path opacity="0.1" fill="#FFFFFF" d="M437.7,576.5c-10.9-19-1-39.8-11.4-39.8c-10.4,0-14.2,9.4-33,9.4c-0.1,0-0.7,0-0.8,0
			c-18.8,0-22.6-9.4-33-9.4s-0.5,20.8-11.4,39.8c-22.8,39.7,5.8,74.2,42.6,74.2c0.8,0,3.7,0,4.4,0
			C431.9,650.8,460.5,616.2,437.7,576.5z"/>
		<path fill="#CC869C" d="M335,647.2c0,0,21.3,7.5,57,7.5s56.3-7.5,56.3-7.5s-22.2,12.3-55.9,12.3c-2.9,0-4.9-0.1-7.6-0.3l-9.2,39.1
			l-3.2-4c2.3-7.2,1.4-30.3-0.1-36.2C352.5,655.2,340.1,650.3,335,647.2z"/>
		<path fill="#CC869C" d="M493.4,633l-13.7,59.8l-5.5-1c1.4-4.1,8.4-36.4,12.4-61.3c2.6-37.6-1.1-65.5-1.1-65.5
			C493.8,592.7,494.5,622.4,493.4,633z"/>
		<path fill="#CC869C" d="M542.8,609.5c0,10.4-6.2,31.3-16,29.3c4.2-12,3.7-32.8,3.7-32.8c1.9-45.3-26.9-73.4-26.9-73.4
			C534.1,556.9,542.8,591.9,542.8,609.5z"/>
		<path fill="#CC869C" d="M274.7,616.1c0,5.8-1.1,21.3-7.7,26.7c11.5,0,18.5-11.9,19.9-14.8c3.3-7.1,3.3-18,3.3-18
			c-0.3-34.8,10.2-48.6,10.2-48.6C282,576.8,274.7,606.2,274.7,616.1z"/>
		<path fill="#CC869C" d="M459.6,514.5c-4.6-8.2-28.1-15.9-64-17c-13.9-0.4-69.1-2.1-64.6,6.1c4.9,8.9,20.3,23,61.8,26
			C428.7,532.2,465.3,524.7,459.6,514.5z"/>
	</g>
	<g id="衣服_19_">
		<path fill="#7C22B4" stroke="#000000" stroke-width="0.7087" stroke-miterlimit="10" d="M316.9,511.2
			c-24.6,2.3-54.5,27.6-50.9,34.8c4.5-3.4,31.2,0.6,36,13c-10.5,18-12.4,49-11.7,64.3c3,3.7,31.4,24.7,101.4,24.7
			s101.9-24.7,101.9-24.7s3.5-41.7-10.3-64.3c1.5-6.7,26.2-16.5,34.2-13c5.4-6.4-22.2-30.1-46.1-34.8c-11.1-1.5-33.9,4.1-33.9,4.1
			c-6.1,9.8-27.6,19.5-45.4,19.5s-37.5-6.1-44.6-19.5L316.9,511.2z"/>
		<polygon fill="#FFB464" points="391.3,569.5 403.7,584.6 431.3,587 411.3,598.8 416.1,615.5 391.3,607.6 366.6,615.5 371.3,598.8 
			351.3,587 379,584.6 		"/>
		<path fill="#682873" d="M482.9,559.3c10.9,31.6,4.9,67.2,4.9,67.2l5.2-2.8C493,623.7,496.9,583.2,482.9,559.3z"/>
	</g>
	<g id="脚_8_">
		<g id="鞋_3_">
			<path fill="#595050" stroke="#000000" stroke-miterlimit="10" d="M301.3,707.7c0,0,3.1-20.9,19.5-28.4c16.1,0,38.7,0,38.7,0
				s19.2,11.1,19.2,29.1L301.3,707.7z"/>
			<polygon fill="#F5FFF7" stroke="#000000" stroke-miterlimit="10" points="355.7,698.4 325.7,698.4 315.7,668.4 365.7,668.4 			
				"/>
			<path fill="#DFF0D7" d="M349,668.8c0,0,1,7.6,0.8,11.7c-0.3,4.1-3,11.8-3,11.8l9.7,1.5l8.5-25H349z"/>
			<path fill="#D3D2E0" stroke="#000000" stroke-width="0.862" stroke-miterlimit="10" d="M340.7,689.5c-17.6,0-31.9,9.3-31.9,20.9
				h63.8C372.6,698.8,358.3,689.5,340.7,689.5z"/>
			<path fill="#FFFFFF" stroke="#000000" stroke-width="0.982" stroke-miterlimit="10" d="M381.2,716.2c0,0-10,3.9-39.5,3.9
				s-41.5-3.9-41.5-3.9s-1.6-9.3,0-10c1.6-0.7,15,3.9,41.5,3.9s38.3-5.1,39.5-3.9C382.4,707.4,381.2,716.2,381.2,716.2z"/>
			<path fill="#BFBFBF" d="M380.9,708.1c0,0-15.3,6.3-39.7,4.9c0,6-28.3,5.1-28.3,5.1s39.4,4.7,67.6-2.4L380.9,708.1z"/>
			<line fill="none" stroke="#000000" stroke-width="0.982" stroke-miterlimit="10" x1="305.1" y1="706.8" x2="305.1" y2="717.3"/>
			<line fill="none" stroke="#000000" stroke-width="0.982" stroke-miterlimit="10" x1="310.6" y1="707.7" x2="310.6" y2="718.1"/>
			<line fill="none" stroke="#000000" stroke-width="0.982" stroke-miterlimit="10" x1="316.4" y1="708.4" x2="316.4" y2="718.8"/>
			<line fill="none" stroke="#000000" stroke-width="0.982" stroke-miterlimit="10" x1="322.7" y1="709.2" x2="322.7" y2="719.4"/>
			<line fill="none" stroke="#000000" stroke-width="0.982" stroke-miterlimit="10" x1="329.7" y1="709.7" x2="329.7" y2="719.8"/>
			<line fill="none" stroke="#000000" stroke-width="0.982" stroke-miterlimit="10" x1="337.1" y1="710" x2="337.1" y2="720.1"/>
			<line fill="none" stroke="#000000" stroke-width="0.982" stroke-miterlimit="10" x1="345.1" y1="709.8" x2="345.1" y2="719.8"/>
			<line fill="none" stroke="#000000" stroke-width="0.982" stroke-miterlimit="10" x1="352.1" y1="709.8" x2="352.1" y2="719.8"/>
			<line fill="none" stroke="#000000" stroke-width="0.982" stroke-miterlimit="10" x1="360.7" y1="709.2" x2="360.7" y2="719.2"/>
			<line fill="none" stroke="#000000" stroke-width="0.982" stroke-miterlimit="10" x1="368.4" y1="707.6" x2="368.4" y2="718.6"/>
			<line fill="none" stroke="#000000" stroke-width="0.982" stroke-miterlimit="10" x1="374.7" y1="706.7" x2="374.7" y2="717.7"/>
			<path fill="#FFFFFF" d="M327.4,693.9c0,0-11.1,5.5-11.9,13.7h5C320.5,707.6,322.3,696.8,327.4,693.9z"/>
		</g>
		<g id="鞋_2_">
			<path fill="#595050" stroke="#000000" stroke-miterlimit="10" d="M482.8,707.7c0,0-3.1-20.9-19.5-28.4c-16.1,0-38.7,0-38.7,0
				s-19.2,11.1-19.2,29.1L482.8,707.7z"/>
			<polygon fill="#F5FFF7" stroke="#000000" stroke-miterlimit="10" points="428.5,698.4 458.5,698.4 468.5,668.4 418.5,668.4 			
				"/>
			<path fill="#DFF0D7" d="M452.5,668.8c0,0,1,7.6,0.8,11.7c-0.3,4.1-3,11.8-3,11.8l9.7,1.5l8.5-25H452.5z"/>
			<path fill="#D3D2E0" stroke="#000000" stroke-width="0.862" stroke-miterlimit="10" d="M443.5,689.5c17.6,0,31.9,9.3,31.9,20.9
				h-63.8C411.6,698.8,425.8,689.5,443.5,689.5z"/>
			<path fill="#FFFFFF" stroke="#000000" stroke-width="0.982" stroke-miterlimit="10" d="M403,716.2c0,0,10,3.9,39.5,3.9
				c29.5,0,41.5-3.9,41.5-3.9s1.6-9.3,0-10c-1.6-0.7-15,3.9-41.5,3.9c-26.5,0-38.3-5.1-39.5-3.9C401.8,707.4,403,716.2,403,716.2z"
				/>
			<path fill="#BFBFBF" d="M484.2,708.1c0,0-15.2,6.3-39.7,4.9c0,6-28.3,5.1-28.3,5.1s39.4,4.7,67.6-2.4L484.2,708.1z"/>
			<line fill="none" stroke="#000000" stroke-width="0.982" stroke-miterlimit="10" x1="479" y1="706.8" x2="479" y2="717.3"/>
			<line fill="none" stroke="#000000" stroke-width="0.982" stroke-miterlimit="10" x1="473.5" y1="707.7" x2="473.5" y2="718.1"/>
			<line fill="none" stroke="#000000" stroke-width="0.982" stroke-miterlimit="10" x1="467.8" y1="708.4" x2="467.8" y2="718.8"/>
			<line fill="none" stroke="#000000" stroke-width="0.982" stroke-miterlimit="10" x1="461.4" y1="709.2" x2="461.4" y2="719.4"/>
			<line fill="none" stroke="#000000" stroke-width="0.982" stroke-miterlimit="10" x1="454.4" y1="709.7" x2="454.4" y2="719.8"/>
			<line fill="none" stroke="#000000" stroke-width="0.982" stroke-miterlimit="10" x1="447" y1="710" x2="447" y2="720.1"/>
			<line fill="none" stroke="#000000" stroke-width="0.982" stroke-miterlimit="10" x1="439" y1="709.8" x2="439" y2="719.8"/>
			<line fill="none" stroke="#000000" stroke-width="0.982" stroke-miterlimit="10" x1="432" y1="709.8" x2="432" y2="719.8"/>
			<line fill="none" stroke="#000000" stroke-width="0.982" stroke-miterlimit="10" x1="423.4" y1="709.2" x2="423.4" y2="719.2"/>
			<line fill="none" stroke="#000000" stroke-width="0.982" stroke-miterlimit="10" x1="415.8" y1="707.6" x2="415.8" y2="718.6"/>
			<line fill="none" stroke="#000000" stroke-width="0.982" stroke-miterlimit="10" x1="409.5" y1="706.7" x2="409.5" y2="717.7"/>
			<path fill="#FFFFFF" d="M428.6,693.9c0,0-11.1,5.5-11.9,13.7h5C421.7,707.6,423.6,696.8,428.6,693.9z"/>
		</g>
	</g>
	<g id="手_41_">
		<g id="手_43_">
			<g id="左手_30_">
				<path fill="#FFD6DA" stroke="#000000" stroke-width="1.4173" stroke-miterlimit="10" d="M497.2,632.8
					c-3.6,16.8,3.9,27.2,20.5,27.2c16.6,0,29-17.2,29-32.7c0-15.5-10.2-28.6-26.8-28.6c-12.7,0-19.4,3.8-25.4,14.1
					C490.7,619.7,498,629.3,497.2,632.8z"/>
				<path fill="#FFD6DA" stroke="#000000" stroke-width="1.4173" stroke-miterlimit="10" d="M513.9,627.5
					c-1.5,13-12.7,16.2-19.6,11.8c-6.1-3.8-9.1-14.5,0-25.9"/>
			</g>
			<path fill="#E6B4AA" d="M513.9,618.2c0,0,0,22.3-21,19C501.5,645.9,518.7,636.7,513.9,618.2z"/>
			<path fill="#E6B4AA" d="M509.8,638.2c0,0-3.7,4.8-12.5,3.3C496.4,651.7,509.4,643.2,509.8,638.2z"/>
			<path fill="#E6B4AA" d="M537.9,606.6c2.8,5.9,5.8,23.3-2.8,37c-6,9.5-11.9,15.1-21.2,15.5c16.1,2.1,24.9-10.8,27.2-14.6
				C546.7,635.9,549.6,618.5,537.9,606.6z"/>
		</g>
		<g id="手_42_">
			<g id="左手_29_">
				<path fill="#FFD6DA" stroke="#000000" stroke-width="1.4173" stroke-miterlimit="10" d="M287.2,632.8
					c3.6,16.8-3.9,27.2-20.5,27.2s-29-17.2-29-32.7c0-15.5,10.2-28.6,26.8-28.6c12.7,0,19.4,3.8,25.4,14.1
					C293.8,619.7,286.4,629.3,287.2,632.8z"/>
				<path fill="#FFD6DA" stroke="#000000" stroke-width="1.4173" stroke-miterlimit="10" d="M270.5,627.5
					c1.5,13,12.8,16.2,19.6,11.8c6.1-3.8,9.1-14.5,0-25.9"/>
			</g>
			<path fill="#E6B4AA" d="M291.4,616.4c1.5,2.4,2.9,11.3-0.7,17.3c-1.8,3-7.3,6.4-12.2,5.5c6.1,3.2,12.8,0.3,15.3-5.2
				C297.3,626.6,292.9,618.2,291.4,616.4z"/>
			<path fill="#E6B4AA" d="M272.3,621.6c-8,10.9,4.5,21.2,2.9,28.4c-0.8,3.5-5.9,10.4-15,8.3c7.4,2.5,19.4,0.3,23.5-5.7
				c1.1-1.6,3.4-4.2,3.7-11.2C276.6,644.1,266.1,632.9,272.3,621.6z"/>
		</g>
	</g>
	<g id="耳朵_5_">
		<g id="耳朵_21_">
			<path fill="#FFF6E1" stroke="#000000" stroke-width="1.4173" stroke-miterlimit="10" d="M299.6,220.5
				c-4.2-24.9-52.4-67-110.8-33.3c-40.6,21.2-44.6,99.3,32.9,108.8L299.6,220.5z"/>
			<linearGradient id="SVGID_4_" gradientUnits="userSpaceOnUse" x1="256.5774" y1="248.0823" x2="223.5741" y2="190.9191">
				<stop  offset="2.564103e-03" style="stop-color:#EED2BE;stop-opacity:0.5"/>
				<stop  offset="1" style="stop-color:#FFAE96"/>
			</linearGradient>
			<path fill="url(#SVGID_4_)" d="M221.5,268.3c-5-0.4-49.3-42.5-11-69.7c29-20.5,72,2.3,76.5,8L221.5,268.3z"/>
			<path fill="none" stroke="#000000" stroke-miterlimit="10" d="M188.1,213.6c32.4-39.6,93.5-15.1,97.1-10.3"/>
		</g>
		<g id="耳朵_20_">
			<path fill="#FFF6E1" stroke="#000000" stroke-width="1.4173" stroke-miterlimit="10" d="M490.3,220.5
				c4.2-24.9,52.4-67,110.8-33.3c40.6,21.2,44.6,99.3-32.9,108.8L490.3,220.5z"/>
			<path fill="#EED4BE" d="M618.5,202.5c32.2,55.3-17.8,90.8-42.7,92.3l-3.5-8.3C580.4,288,639.5,268.3,618.5,202.5z"/>
			
				<linearGradient id="SVGID_5_" gradientUnits="userSpaceOnUse" x1="4114.1631" y1="248.0823" x2="4081.1599" y2="190.9191" gradientTransform="matrix(-1 0 0 1 4647.4888 0)">
				<stop  offset="2.564103e-03" style="stop-color:#EED2BE;stop-opacity:0.5"/>
				<stop  offset="1" style="stop-color:#FFAE96"/>
			</linearGradient>
			<path fill="url(#SVGID_5_)" d="M568.4,268.3c5-0.4,49.3-42.5,11-69.7c-29-20.5-72,2.3-76.5,8L568.4,268.3z"/>
			<path fill="none" stroke="#000000" stroke-miterlimit="10" d="M601.8,213.6c-32.4-39.6-95.3-11.6-98.8-6.9"/>
		</g>
	</g>
	<g id="面部_17_">
		<path id="面部_18_" fill="#C8826A" stroke="#000000" stroke-width="1.4173" stroke-miterlimit="10" d="M214.3,278.3
			c11.2-30.5,46.9-77.2,129.7-100c36.3-10,61.8-8.8,96.6,0.5c41.8,11.2,105.2,42.4,128.8,98.9c11.7,28,11.7,87.7,11.7,87.7
			s23.3,12,23.3,49.3c0,32.5-52.7,87.4-157.3,100.9c-15.4,2-29.3,11.1-53.3,11.1s-38-9.3-54.8-11.6C236.1,501,179,448.5,179,414.7
			c0-34.2,25.5-48.8,25.5-48.8S201,314.7,214.3,278.3z"/>
		<path fill="#AA5834" d="M532.7,227.5c34.8,34.5,46.6,60.2,47.7,138.2c0,0-7.3,1.1-13.4,5.4C573.9,347.5,572.5,271,532.7,227.5z"/>
		<path fill="#AA5834" d="M267,496.2c18.9,9.2,64.8,17.7,77.4,19.2c6.4,1.4,29.4,10.5,47,10.5s30.2-3.9,46.7-9.6
			c29.3-2.6,80.2-15.3,104.8-31c-30.3,13.1-68.9,21.4-97.6,25.7c3.7-3.3,8.2-5.9,11.8-11.9c-15.7,13.9-34.1,19.9-61.5,20.6
			C384.7,519.9,312,509.5,267,496.2z"/>
	</g>
	<g id="鼻子_23_">
		<ellipse fill="#FFD2BE" stroke="#000000" stroke-width="1.4173" stroke-miterlimit="10" cx="391.3" cy="421.3" rx="90" ry="59"/>
		<path fill="#E6A082" d="M392,467.5c-28.1,1.3-47.3-1.5-68.3-8.4c6.1,6,32.9,20.6,67.2,20.6c48.4,0,89.7-24.6,89.7-58.4
			C475.8,438.2,445.9,465,392,467.5z"/>
		<g id="鼻子_24_">
			<path fill="#69301B" stroke="#000000" stroke-miterlimit="10" d="M404.4,385.7c-5.2,0-8,2.3-13.5,2.4c-5.5-0.1-8.3-2.4-13.5-2.4
				c-10,0-18.5,8.3-18.5,15.5c0,7.3,6.2,16.9,19.6,18.3c3.1,0.3,22,0.4,24.7,0c13.3-2,19.6-11,19.6-18.3
				C422.9,394,414.4,385.7,404.4,385.7z"/>
			<path fill="#3F1000" d="M420.8,406c0,4.5-6.4,10.1-14,12.3c-4.9,1.4-10,1-16.5,1c-5.7,0-10.3,0.4-14.8-0.7
				c-8.7-2.1-14.9-8.3-14.9-12.6c0-6.6,13.4-9,30-9S420.8,399.3,420.8,406z"/>
		</g>
	</g>
	<g id="眼睛_1_">
		<linearGradient id="SVGID_2_" gradientUnits="userSpaceOnUse" x1="443.1915" y1="327.1581" x2="530.4346" y2="368.58">
			<stop  offset="0" style="stop-color:#AA5834;stop-opacity:0.6"/>
			<stop  offset="1" style="stop-color:#C87A4A;stop-opacity:0"/>
		</linearGradient>
		<path fill="url(#SVGID_2_)" d="M524.7,326.7c17.5,42.8,2.8,76.1-24.6,76.1s-47.7-28.8-50.6-44.6c-4-20.6,4.9-42.7,20.5-51.1
			C489.5,296.5,512.7,297.3,524.7,326.7z"/>
		<linearGradient id="SVGID_3_" gradientUnits="userSpaceOnUse" x1="237.0114" y1="334.1588" x2="297.4662" y2="365.2986">
			<stop  offset="0" style="stop-color:#AA5834"/>
			<stop  offset="1" style="stop-color:#C87A4A;stop-opacity:0"/>
		</linearGradient>
		<path fill="url(#SVGID_3_)" d="M304.6,326.7c20.7,41.4-1.1,75.1-24.6,76.1c-18.5,0.8-31.7-19.4-34.5-35.2
			c-4-20.6,0.4-34.5,11-48.8C264.4,308,291.7,300.7,304.6,326.7z"/>
		<g id="眼睛_3_">
			<radialGradient id="SVGID_4_" cx="281.6733" cy="358.1066" r="37.8513" gradientUnits="userSpaceOnUse">
				<stop  offset="0" style="stop-color:#4D4D4D"/>
				<stop  offset="1" style="stop-color:#1A1A1A"/>
			</radialGradient>
			<ellipse fill="url(#SVGID_4_)" stroke="#000000" stroke-miterlimit="10" cx="281.7" cy="358.1" rx="30" ry="44.3"/>
			
				<radialGradient id="SVGID_5_" cx="260.1823" cy="358.1066" r="28.178" gradientTransform="matrix(0.9851 0 0 1 25.3726 0)" gradientUnits="userSpaceOnUse">
				<stop  offset="0" style="stop-color:#333333"/>
				<stop  offset="1" style="stop-color:#000000"/>
			</radialGradient>
			<ellipse fill="url(#SVGID_5_)" cx="281.7" cy="358.1" rx="22" ry="33"/>
			
				<ellipse transform="matrix(0.3609 -0.9326 0.9326 0.3609 -147.2983 475.2638)" fill="#F2F2F2" cx="273.1" cy="345.1" rx="7" ry="5.7"/>
			<ellipse cx="281.7" cy="358.1" rx="8" ry="13"/>
			<path fill="#FFFFFF" d="M298.1,378.9c-1.4,2.5-3.6,4.4-4.3,3.6c-0.8-0.8,0.9-0.9,2.7-4.4c1.9-3.5,1.5-4.6,2.6-4.5
				C300.1,373.7,299.5,376.4,298.1,378.9z"/>
			<ellipse fill="#FFFFFF" cx="264.4" cy="359.7" rx="2.8" ry="4.1"/>
		</g>
		<g id="眼睛_2_">
			<radialGradient id="SVGID_6_" cx="502.6734" cy="358.1066" r="37.8513" gradientUnits="userSpaceOnUse">
				<stop  offset="0" style="stop-color:#4D4D4D"/>
				<stop  offset="1" style="stop-color:#1A1A1A"/>
			</radialGradient>
			<ellipse fill="url(#SVGID_6_)" stroke="#000000" stroke-miterlimit="10" cx="502.7" cy="358.1" rx="30" ry="44.3"/>
			
				<radialGradient id="SVGID_7_" cx="484.5296" cy="358.1066" r="28.178" gradientTransform="matrix(0.9851 0 0 1 25.3726 0)" gradientUnits="userSpaceOnUse">
				<stop  offset="0" style="stop-color:#333333"/>
				<stop  offset="1" style="stop-color:#000000"/>
			</radialGradient>
			<ellipse fill="url(#SVGID_7_)" cx="502.7" cy="358.1" rx="22" ry="33"/>
			
				<ellipse transform="matrix(0.3609 -0.9326 0.9326 0.3609 -6.0616 681.3678)" fill="#F2F2F2" cx="494.1" cy="345.1" rx="7" ry="5.7"/>
			<ellipse cx="502.7" cy="358.1" rx="8" ry="13"/>
			<path fill="#FFFFFF" d="M519.1,378.9c-1.4,2.5-3.6,4.4-4.3,3.6c-0.8-0.8,0.9-0.9,2.7-4.4c1.9-3.5,1.5-4.6,2.6-4.5
				C521.1,373.7,520.5,376.4,519.1,378.9z"/>
			<ellipse fill="#FFFFFF" cx="485.4" cy="359.7" rx="2.8" ry="4.1"/>
		</g>
	</g>
	<g id="眉毛">
		<path d="M474.2,308.9c0,0,11.9-18.6,54-5c7.7,2.7,18.9-0.4,22.6-3c-5.7,5.9-10.3,7-12.8,7.6c4.3,1.8,16.8-0.9,20-3.6
			c-3.1,5.1-14.2,9.1-16.1,8.5c2.8,1,7.7,1.7,12.7,0c-8.8,5.9-24.5,7.5-30.5,4.9c-6-2.6-20.8-11.4-37.3,1.7
			C480.7,324.1,466.4,321.1,474.2,308.9z"/>
		<path d="M310.7,308.9c0,0-11.9-18.6-54-5c-7.7,2.7-18.9-0.4-22.6-3c5.7,5.9,10.3,7,12.8,7.6c-4.3,1.8-16.8-0.9-20-3.6
			c3.1,5.1,14.2,9.1,16.1,8.5c-2.8,1-7.7,1.7-12.7,0c8.8,5.9,24.5,7.5,30.5,4.9c6-2.6,20.8-11.4,37.3,1.7
			C304.1,324.1,318.4,321.1,310.7,308.9z"/>
	</g>
	<path id="嘴巴_18_" fill="#FF8E82" stroke="#000000" stroke-width="0.7087" stroke-miterlimit="10" d="M420.2,491
		c0,3.3-12.5,8-28,8c-15.5,0-28-4.7-28-8s12.5-3.5,28-3.5C407.7,487.5,420.2,487.7,420.2,491z"/>
	<g id="头发_8_">
		<path fill="#FFDCD0" stroke="#000000" stroke-width="1.4173" stroke-miterlimit="10" d="M364.8,196.7
			c-26.6-6.4-37.6-38.8-23.1-58.7c-3.2,16.8,9.8,36.2,37.8,33.6"/>
		<path fill="#EEB6A0" d="M340.5,141.2c0,0-1.2,8.3,0.4,14.6c2.3,8.7,10.2,15.5,10.2,15.5s-6.1,0.6-8.9-2.4c0.3,0.6,4.9,4.7,5.9,5.3
			c12.1,7.9,23.3,8.5,23.3,8.5s-8.9,1.1-14.9-0.6c6.7,4.3,21.7,4.9,21.7,4.9s-4.8,2.7-9.9,1.4c6.3,2.5,15.9,3.4,22.8,1.7l-14.4-17.4
			C371.2,173.3,340.9,171.3,340.5,141.2z"/>
		<path fill="#FFDCD0" stroke="#000000" stroke-width="1.4173" stroke-miterlimit="10" d="M445.2,180.1c-16.5-4.2-20.3-24.4-6-27.6
			c-14.9-3.3-21.7,16.3-17.7,21.8c-13.6-1-48-22.5-40.8-55.3c-13,15.5-24.8,68.8,30.3,77.7"/>
		<path fill="#EEB6A0" d="M400.3,184.9c-23.7-12-27.2-38.2-20.8-62.1c-4.5,32.1,32,54.1,47.5,53.1c-4-5.5-4.3-18,8.8-23
			c-10.9,5.4-7.1,23.8,9.3,28c0,0-7.1,0.9-18.1-5c0,1.1,15.7,9,15.7,9l-21.8-8.9l20.7,13.1l-15-3l6.8,5l-17.1-6.9l22.3,14.4
			L400.3,184.9z"/>
	</g>
	<g id="帽子_6_">
		<path fill="#DDA8FF" d="M264.4,199.2l14.1-72.2c0,0,7.8-29.3,43-42c36.9-13.3,89.6-31.1,133.5-19.3c52.1,13.9,86.2,61.9,87.9,78
			c1.6,16.1,8,71.6,4.2,96.4c-14.8-1.7-34.1-8.5-34.1-8.5s-24.9-7.8-53.8-19.2C373.1,178.5,318.5,189.9,264.4,199.2z"/>
		<path fill="#A888A8" d="M528,115.5c3.4,14.8-16.6,24.8-39.3,22.5c-22.7-2.3-27.1,29.7-40.2,35.7s-54.2,10.9-70.4,13.4
			c0,0,54.2,12.2,89.8,28.9c23.9,11.2,77.5,28.7,79.1,24.1c3.3-9.5,3-68.1-5.1-100.5C539.1,130.6,532.4,121.1,528,115.5z"/>
		<path fill="#36293A" d="M547.1,240.1c0,0-8.6,10.6-26.3,26.8c-18.3,16.7-40.1,29.6-78.8,4.4c-23.9-15.5-101.8-36.4-131.3-36.6
			c-38.4-0.2-98.6,3.5-120.8,23.3c0,0,66.3-55.9,74.7-58.8c8.3-2.9,93-31.9,191.2,11.6C529.9,240.1,547.1,240.1,547.1,240.1z"/>
		<path fill="#5E5461" d="M529.7,236.6c-3.6,3.6-7.9,7.7-12.9,12.3c-18.3,16.7-32.7,21.9-75.3,0.6c-46-26.5-106.1-32.8-137.3-31.5
			c-21.3,0.9-57.7-0.2-81,12.4c-20.5,16.5-33.4,27.6-33.4,27.6c22.3-19.8,84.8-23.5,123.2-23.3c29.6,0.2,105.1,21.1,129,36.6
			c37.5,24.4,60.6,12.4,78.8-4.4c17.7-16.2,26.3-26.8,26.3-26.8S542.9,240.1,529.7,236.6z"/>
		<path fill="#AFA9B0" d="M446.9,267.3c-36-20-100.9-37.1-130.5-37.3c-35.5-0.2-88.3,0.5-111.5,15.5c-1.9,1.2-23.8,14.4-15.2,21.8
			c-6.2-9.4,12.6-17.5,16.7-19.2c24.6-9.8,73.7-13.6,106.5-13.4c29.6,0.2,104.9,21.5,129,36.6c34.2,21.4,56,15.2,72.8,1
			C498.9,284.1,481.7,286.6,446.9,267.3z"/>
		<polygon opacity="0.6" fill="#FFC8FF" points="322,97.7 383.8,71 341.4,115.5 346.8,151 391.7,182.3 322,181 287.4,187.1 
			298.1,120.7 		"/>
		<path d="M237.8,240.1c-0.9,0.9-5.5,4.6-18.3,25.5c-20.1,12.6-49,0-17-16C210.6,246.4,225.3,240.8,237.8,240.1z"/>
		<path fill="#897590" d="M428.9,62.2l-106.1,42.1c0,0-13,3.3-17.3,17.3s-11.8,69.4-11.8,69.4l7.9-0.8l8.7-67.3
			c0,0,4.5-12,13.8-15.5s109.8-45.3,109.8-45.3H428.9z"/>
		<path fill="#897590" d="M460.6,67.7l64.8,50.9c0.3,0.2,0.5,0.5,0.7,0.7c2,2.5,12.3,16.4,11.7,33.6c-0.6,14.6,2.3,85.5,2.3,85.5
			L535,238l-0.5-81.7c0,0,0.8-23-15.8-38.7c-7.2-6.8-63.9-51.9-63.9-51.9L460.6,67.7z"/>
		<polygon fill="#897590" points="442.8,63.2 428.8,119 416.6,197 426.3,200 433.8,122.7 445.2,63.5 		"/>
		<path fill="#897590" d="M429.4,62c0,0-8.5-4-2.8-6.5s37.8,0.2,40.5,8.6c0,2.9-6.9,3.6-6.9,3.6S442.3,61.8,429.4,62z"/>
		<polygon fill="#A888A8" points="329.5,123.7 389.8,122.7 384.8,132.6 363.2,132.6 359.8,170.6 340.1,167.3 345.8,132.6 
			324.6,135.5 		"/>
		<polygon fill="#C18054" points="327,122.7 387.8,122.7 382.3,131.6 360.6,131.6 357.4,168.8 340.1,167.3 343.3,131.6 322,134.5 		
			"/>
		<polygon fill="#A888A8" points="413.3,127.1 402.2,168.8 413.8,172.8 419,153.5 436.1,156.6 439.6,146.3 422.1,141.7 425.3,135 
			450.9,139.5 457.2,129 		"/>
		<polygon fill="#C18054" points="410.9,126.6 402.2,168.8 411.4,171.3 416.6,152 433.8,155.1 437.3,145.8 419.7,141.2 422.9,133.5 
			448.5,138 454.9,128.5 		"/>
	</g>
</g>
</svg>