<?xml version="1.0" encoding="utf-8"?>
<svg version="1.0" id="layer_1" xmlns="http://www.w3.org/2000/svg" xmlns:xlink="http://www.w3.org/1999/xlink" x="0px" y="0px" viewBox="0 0 800 800" enable-background="new 0 0 800 800" xml:space="preserve">
<g id="_x31__2_">
	<g id="身体_3_">
		<path fill="#FFB683" stroke="#000000" stroke-width="1.4173" stroke-miterlimit="10" d="M291.3,599.9c0.9-16.5,4-26.1,6.4-31.4
			C293.8,577.2,292.1,589,291.3,599.9l-0.4,14.5c0,9.2,0.5,24.7,0.5,24.7l13.1,58.4l71.6,1.9l9.4-39.9c0,0,3.8,0.4,6.6,0.4
			c2.8,0,6.6-0.4,6.6-0.4l9.4,39.9l71.6-1.9l13.1-58.4c0,0,0.5-15.2,0.5-24.1c0,0-0.2-33.1-6.8-46.5c2.1,3.2,5.8,16.1,6.5,34.5
			l0.4,12c3.6,39.4,49.8,38.6,49.8-5c0-45.3-33.4-74.5-41.8-80c-15.2-10.7-43.5-17.3-43.5-17.3h-65.7H392h-65.7
			c0,0-28.3,6.6-43.5,17.3c-8.4,5.5-41.8,34.7-41.8,80c0,43.8,46.6,44.3,49.8,4.4L291.3,599.9z"/>
		<path opacity="0.1" fill="#FFD2BE" d="M437.7,576.5c-10.9-19-1-39.8-11.4-39.8c-10.4,0-14.2,9.4-33,9.4c-0.1,0-0.7,0-0.8,0
			c-18.8,0-22.6-9.4-33-9.4s-0.5,20.8-11.4,39.8c-22.8,39.7,5.8,74.2,42.6,74.2c0.8,0,3.7,0,4.4,0
			C431.9,650.8,460.5,616.2,437.7,576.5z"/>
		<path fill="#AA5834" d="M493.4,633l-13.7,59.8l-5.5-1c1.4-4.1,8.4-36.4,12.4-61.3c2.6-37.6-1.1-65.5-1.1-65.5
			C493.8,592.7,494.5,622.4,493.4,633z"/>
		<path fill="#BF8962" d="M542.8,609.5c0,10.4-6.2,31.3-16,29.3c4.2-12,3.7-32.8,3.7-32.8c1.9-45.3-26.9-73.4-26.9-73.4
			C534.1,556.9,542.8,591.9,542.8,609.5z"/>
		<path fill="#BF8962" d="M274.7,616.1c0,5.8-1.1,21.3-7.7,26.7c11.5,0,18.5-11.9,19.9-14.8c3.3-7.1,3.3-18,3.3-18
			c-0.3-34.8,10.2-48.6,10.2-48.6C282,576.8,274.7,606.2,274.7,616.1z"/>
		<path fill="#BF8962" d="M459.6,514.5c-4.6-8.2-28.1-15.9-64-17c-13.9-0.4-69.1-2.1-64.6,6.1c4.9,8.9,20.3,23,61.8,26
			C428.7,532.2,465.3,524.7,459.6,514.5z"/>
	</g>
	<g id="衣服">
		<g id="裤子">
			<path fill="#50C8FF" stroke="#000000" stroke-width="0.7087" stroke-miterlimit="10" d="M290.2,632.7c61,26.7,157.2,22.1,203.8,0
				L480.3,696l-71.2,6.6l-10.5-43.2l-13.8-0.3l-10.3,45.1h-68.7L290.2,632.7z"/>
			<path fill="#1D6586" d="M334.2,648.3c0,0,22.1,6.4,57.9,6.4s56.3-6.6,56.3-6.6s-22.2,11.3-55.9,11.3c-2.9,0-4.9-0.1-7.6-0.3
				l-9.2,39.1l-3.2-4c2.3-7.2,1.4-30.3-0.1-36.2C352.5,655.2,339.3,651.4,334.2,648.3z"/>
			<path fill="#1D6586" d="M494.3,632.7l-13.7,62.1l-3.6-1.3c2.3-7.2,8.3-41.8,8.7-57.4L494.3,632.7z"/>
		</g>
		<g id="衣服_5_">
			<path fill="#50C8FF" stroke="#000000" stroke-width="0.7087" stroke-miterlimit="10" d="M322.9,511.2c0.1,5.3-9.3,34.1-20.9,47.8
				c-10.5,18-12.4,49-11.7,64.3c-0.1,17.8,46.8,28.4,101.8,28.4s101.5-21.4,101.5-21.4s3.5-48.7-10.3-71.3c-9-7.3-22.1-38-19.9-47.8
				c-11.1-1.5-12,3.8-12,3.8c-6.1,9.8-12.6,53.5-62,53.5s-51.5-41.2-58.6-54.6L322.9,511.2z"/>
			<g>
				<defs>
					<path id="SVGID_134_" d="M322.9,511.2c0.1,5.3-9.3,34.1-20.9,47.8c-10.5,18-12.4,49-11.7,64.3c-0.1,17.8,46.8,28.4,101.8,28.4
						s101.5-21.4,101.5-21.4s3.5-48.7-10.3-71.3c-9-7.3-22.1-38-19.9-47.8c-11.1-1.5-12,3.8-12,3.8c-6.1,9.8-12.6,53.5-62,53.5
						s-51.5-41.2-58.6-54.6L322.9,511.2z"/>
				</defs>
				<clipPath id="SVGID_2_">
					<use xlink:href="#SVGID_134_"  overflow="visible"/>
				</clipPath>
				<g clip-path="url(#SVGID_2_)">
					<rect x="286.5" y="517.3" fill="#87FF89" width="210" height="4"/>
					<rect x="286.5" y="527.3" fill="#87FF89" width="210" height="4"/>
					<rect x="286.5" y="537.3" fill="#87FF89" width="210" height="4"/>
					<rect x="286.5" y="547.3" fill="#87FF89" width="210" height="4"/>
					<rect x="286.5" y="557.3" fill="#87FF89" width="210" height="4"/>
					<rect x="286.5" y="567.3" fill="#87FF89" width="210" height="4"/>
					<rect x="286.5" y="577.3" fill="#87FF89" width="210" height="4"/>
					<rect x="286.5" y="587.3" fill="#87FF89" width="210" height="4"/>
					<rect x="286.5" y="597.3" fill="#87FF89" width="210" height="4"/>
					<rect x="286.5" y="607.3" fill="#87FF89" width="210" height="4"/>
					<rect x="286.5" y="617.3" fill="#87FF89" width="210" height="4"/>
					<rect x="286.5" y="627.3" fill="#87FF89" width="210" height="4"/>
					<rect x="286.5" y="637.3" fill="#87FF89" width="210" height="4"/>
					<rect x="286.5" y="647.3" fill="#87FF89" width="210" height="4"/>
				</g>
			</g>
			<path fill="#1D6586" d="M482.9,559.3c10.9,31.6,4.9,67.2,4.9,67.2l5.2-2.8C493,623.7,496.9,583.2,482.9,559.3z"/>
		</g>
	</g>
	<g id="脚_27_">
		<g id="脚_29_">
			<path fill="#608EFF" stroke="#000000" stroke-miterlimit="10" d="M401.2,709.1c0,9.4,20.1,8.3,45,8.3s45,0.4,45-14.6
				c0-7.4-26.8-12.8-52.4-12S401.2,702.7,401.2,709.1z"/>
			<path fill="#A2828C" stroke="#000000" stroke-miterlimit="10" d="M446.8,717.4c-24.9,0-42.3-0.2-45.7-6.3
				c0,9.4,17.2,10.4,42.1,10.4c23.8,0,45.6,0.7,47.2-12.4C485.4,718,468.8,717.4,446.8,717.4z"/>
			<path fill="#0458FF" d="M478.9,710c-10,3.3-76.4,6.8-77-2.8c-0.7,6.2,4,9.3,21.6,9.5c6.2,0,37.1,0,37.1,0s24.1,0.4,28.3-8
				C492.3,701.7,488.9,706.7,478.9,710z"/>
		</g>
		<g id="脚_42_">
			<path fill="#608EFF" stroke="#000000" stroke-miterlimit="10" d="M384.1,709.1c0,9.4-20.1,8.3-45,8.3s-45,0.4-45-14.6
				c0-7.4,26.8-12.8,52.4-12S384.1,702.7,384.1,709.1z"/>
			<path fill="#A2828C" stroke="#000000" stroke-miterlimit="10" d="M338.4,717.4c24.9,0,42.3-0.2,45.7-6.3
				c0,9.4-17.2,10.4-42.1,10.4c-23.8,0-45.6,0.7-47.2-12.4C299.9,718,316.5,717.4,338.4,717.4z"/>
			<path fill="#0458FF" d="M306.4,710c10,3.3,76.4,6.8,77-2.8c0.7,6.2-4,9.3-21.6,9.5c-6.2,0-37.1,0-37.1,0s-24.1,0.4-28.3-8
				C292.9,701.7,296.4,706.7,306.4,710z"/>
		</g>
	</g>
	<g id="手_1_">
		<g id="手_3_">
			<g id="左手_2_">
				<path fill="#FFFFFF" stroke="#000000" stroke-width="1.4173" stroke-miterlimit="10" d="M497.2,632.8
					c-3.6,16.8,3.9,27.2,20.5,27.2c16.6,0,29-17.2,29-32.7c0-15.5-10.2-28.6-26.8-28.6c-12.7,0-19.4,3.8-25.4,14.1
					C490.7,619.7,498,629.3,497.2,632.8z"/>
				<path fill="#FFFFFF" stroke="#000000" stroke-width="1.4173" stroke-miterlimit="10" d="M513.9,627.5
					c-1.5,13-12.7,16.2-19.6,11.8c-6.1-3.8-9.1-14.5,0-25.9"/>
			</g>
			<path fill="#BFBFBF" d="M513.9,618.2c0,0,0,22.3-21,19C501.5,645.9,518.7,636.7,513.9,618.2z"/>
			<path fill="#BFBFBF" d="M509.8,638.2c0,0-3.7,4.8-12.5,3.3C496.4,651.7,509.4,643.2,509.8,638.2z"/>
			<path fill="#BFBFBF" d="M537.9,606.6c2.8,5.9,5.8,23.3-2.8,37c-6,9.5-11.9,15.1-21.2,15.5c16.1,2.1,24.9-10.8,27.2-14.6
				C546.7,635.9,549.6,618.5,537.9,606.6z"/>
		</g>
		<g id="手_2_">
			<g id="左手_1_">
				<path fill="#FFFFFF" stroke="#000000" stroke-width="1.4173" stroke-miterlimit="10" d="M287.2,632.8
					c3.6,16.8-3.9,27.2-20.5,27.2s-29-17.2-29-32.7c0-15.5,10.2-28.6,26.8-28.6c12.7,0,19.4,3.8,25.4,14.1
					C293.8,619.7,286.4,629.3,287.2,632.8z"/>
				<path fill="#FFFFFF" stroke="#000000" stroke-width="1.4173" stroke-miterlimit="10" d="M270.5,627.5
					c1.5,13,12.8,16.2,19.6,11.8c6.1-3.8,9.1-14.5,0-25.9"/>
			</g>
			<path fill="#BFBFBF" d="M291.4,616.4c1.5,2.4,2.9,11.3-0.7,17.3c-1.8,3-7.3,6.4-12.2,5.5c6.1,3.2,12.8,0.3,15.3-5.2
				C297.3,626.6,292.9,618.2,291.4,616.4z"/>
			<path fill="#BFBFBF" d="M272.3,621.6c-8,10.9,4.5,21.2,2.9,28.4c-0.8,3.5-5.9,10.4-15,8.3c7.4,2.5,19.4,0.3,23.5-5.7
				c1.1-1.6,3.4-4.2,3.7-11.2C276.6,644.1,266.1,632.9,272.3,621.6z"/>
		</g>
	</g>
	<g id="耳朵_28_">
		<g id="耳朵_30_">
			<path fill="#FFDCD0" stroke="#000000" stroke-width="0.8094" stroke-miterlimit="10" d="M520.9,221.2
				c8.7-11.5,56.3-45.9,84.3-2.8c19.3,30.5-2.6,71.9-46.1,83.3L520.9,221.2z"/>
			<path fill="#EEB6A0" d="M605.2,218.4c-0.4-0.6-0.8-1.2-1.2-1.8c14.1,29.6-7.2,66.8-47.6,78l2.7,7
				C602.6,290.3,624.5,248.9,605.2,218.4z"/>
			<path fill="#FFBEBA" stroke="#000000" stroke-width="0.4047" stroke-miterlimit="10" d="M565.8,276c2.6,1.1,31.9-23.5,18.5-46.7
				c-13.2-22.8-50.5-2.9-52,0.8L565.8,276z"/>
		</g>
		<g id="耳朵_29_">
			<path fill="#FFDCD0" stroke="#000000" stroke-width="0.8094" stroke-miterlimit="10" d="M257.2,221.2
				c-8.7-11.5-56.3-45.9-84.3-2.8c-19.3,30.5,2.6,71.9,46.1,83.3L257.2,221.2z"/>
			<path fill="#EEB6A0" d="M214,198.5c16.2-1.2,36.9,16.3,43.2,22.7l-6.4,8.8C244.8,222,229,205,214,198.5z"/>
			<path fill="#FFBEBA" stroke="#000000" stroke-width="0.4047" stroke-miterlimit="10" d="M217.3,276c-2.6,1.1-31.9-23.5-18.5-46.7
				c13.2-22.8,50.5-2.9,52,0.8L217.3,276z"/>
		</g>
	</g>
	<g id="面部_11_">
		<path id="面部_12_" fill="#FFCFB3" stroke="#000000" stroke-width="1.4173" stroke-miterlimit="10" d="M214.3,278.3
			c11.2-30.5,46.9-77.2,129.7-100c36.3-10,61.8-8.8,96.6,0.5c41.8,11.2,105.2,42.4,128.8,98.9c11.7,28,11.7,87.7,11.7,87.7
			s23.3,12,23.3,49.3c0,32.5-52.7,87.4-157.3,100.9c-15.4,2-29.3,11.1-53.3,11.1s-38-9.3-54.8-11.6C236.1,501,179,448.5,179,414.7
			c0-34.2,25.5-48.8,25.5-48.8S201,314.7,214.3,278.3z"/>
		<path fill="#F2B484" d="M532.7,227.5c34.8,34.5,46.6,60.2,47.7,138.2c0,0-7.3,1.1-13.4,5.4C573.9,347.5,572.5,271,532.7,227.5z"/>
		<path fill="#F2B484" d="M267,496.2c18.9,9.2,64.8,17.7,77.4,19.2c6.4,1.4,29.4,10.5,47,10.5s30.2-3.9,46.7-9.6
			c29.3-2.6,80.2-15.3,104.8-31c-30.3,13.1-68.9,21.4-97.6,25.7c3.7-3.3,8.2-5.9,11.8-11.9c-15.7,13.9-34.1,19.9-61.5,20.6
			C384.7,519.9,312,509.5,267,496.2z"/>
	</g>
	<g id="鼻子_13_">
		<ellipse fill="#FFEEDC" stroke="#000000" stroke-width="1.4173" stroke-miterlimit="10" cx="391.3" cy="421.3" rx="90" ry="59"/>
		<path fill="#EEBA8E" d="M392,467.5c-28.1,1.3-47.3-1.5-68.3-8.4c6.1,6,32.9,20.6,67.2,20.6c48.4,0,89.7-24.6,89.7-58.4
			C475.8,438.2,445.9,465,392,467.5z"/>
		<g id="鼻子_14_">
			<path fill="#69301B" stroke="#000000" stroke-miterlimit="10" d="M404.4,385.7c-5.2,0-8,2.3-13.5,2.4c-5.5-0.1-8.3-2.4-13.5-2.4
				c-10,0-18.5,8.3-18.5,15.5c0,7.3,6.2,16.9,19.6,18.3c3.1,0.3,22,0.4,24.7,0c13.3-2,19.6-11,19.6-18.3
				C422.9,394,414.4,385.7,404.4,385.7z"/>
			<path fill="#3F1000" d="M420.8,406c0,4.5-6.4,10.1-14,12.3c-4.9,1.4-10,1-16.5,1c-5.7,0-10.3,0.4-14.8-0.7
				c-8.7-2.1-14.9-8.3-14.9-12.6c0-6.6,13.4-9,30-9S420.8,399.3,420.8,406z"/>
		</g>
	</g>
	<g id="眼睛_13_">
		<g id="眼睛_15_">
			<linearGradient id="SVGID_4_" gradientUnits="userSpaceOnUse" x1="244.0376" y1="355.8311" x2="312.9216" y2="355.8311">
				<stop  offset="0" style="stop-color:#F2B484;stop-opacity:0.6"/>
				<stop  offset="1" style="stop-color:#C87A4A;stop-opacity:0"/>
			</linearGradient>
			<path fill="url(#SVGID_4_)" d="M304.6,326.7c20.7,41.4-1.1,75.1-24.6,76.1c-18.5,0.8-31.7-19.4-34.5-35.2
				c-4-20.6,0.4-34.5,11-48.8C264.4,308,291.7,300.7,304.6,326.7z"/>
			<radialGradient id="SVGID_5_" cx="281.6733" cy="358.1066" r="37.8513" gradientUnits="userSpaceOnUse">
				<stop  offset="0" style="stop-color:#4D4D4D"/>
				<stop  offset="1" style="stop-color:#1A1A1A"/>
			</radialGradient>
			<ellipse fill="url(#SVGID_5_)" stroke="#000000" stroke-miterlimit="10" cx="281.7" cy="358.1" rx="30" ry="44.3"/>
			
				<radialGradient id="SVGID_6_" cx="298.3482" cy="358.1066" r="28.178" gradientTransform="matrix(0.9851 0 0 1 -12.2238 0)" gradientUnits="userSpaceOnUse">
				<stop  offset="0" style="stop-color:#333333"/>
				<stop  offset="1" style="stop-color:#000000"/>
			</radialGradient>
			<ellipse fill="url(#SVGID_6_)" cx="281.7" cy="358.1" rx="22" ry="33"/>
			
				<ellipse transform="matrix(0.3609 -0.9326 0.9326 0.3609 -147.2983 475.2638)" fill="#F2F2F2" cx="273.1" cy="345.1" rx="7" ry="5.7"/>
			<ellipse cx="281.7" cy="358.1" rx="8" ry="13"/>
			<path fill="#FFFFFF" d="M298.1,378.9c-1.4,2.5-3.6,4.4-4.3,3.6c-0.8-0.8,0.9-0.9,2.7-4.4c1.9-3.5,1.5-4.6,2.6-4.5
				C300.1,373.7,299.5,376.4,298.1,378.9z"/>
			<ellipse fill="#FFFFFF" cx="264.4" cy="359.7" rx="2.8" ry="4.1"/>
		</g>
		<g id="眼睛_14_">
			<linearGradient id="SVGID_7_" gradientUnits="userSpaceOnUse" x1="448.5415" y1="351.7919" x2="532.2632" y2="351.7919">
				<stop  offset="0" style="stop-color:#F2B484;stop-opacity:0.6"/>
				<stop  offset="1" style="stop-color:#C87A4A;stop-opacity:0"/>
			</linearGradient>
			<path fill="url(#SVGID_7_)" d="M524.7,326.7c17.5,42.8,2.8,76.1-24.6,76.1s-47.7-28.8-50.6-44.6c-4-20.6,4.9-42.7,20.5-51.1
				C489.5,296.5,512.7,297.3,524.7,326.7z"/>
			<radialGradient id="SVGID_8_" cx="502.6734" cy="358.1066" r="37.8513" gradientUnits="userSpaceOnUse">
				<stop  offset="0" style="stop-color:#4D4D4D"/>
				<stop  offset="1" style="stop-color:#1A1A1A"/>
			</radialGradient>
			<ellipse fill="url(#SVGID_8_)" stroke="#000000" stroke-miterlimit="10" cx="502.7" cy="358.1" rx="30" ry="44.3"/>
			
				<radialGradient id="SVGID_10_" cx="522.6954" cy="358.1066" r="28.178" gradientTransform="matrix(0.9851 0 0 1 -12.2238 0)" gradientUnits="userSpaceOnUse">
				<stop  offset="0" style="stop-color:#333333"/>
				<stop  offset="1" style="stop-color:#000000"/>
			</radialGradient>
			<ellipse fill="url(#SVGID_10_)" cx="502.7" cy="358.1" rx="22" ry="33"/>
			
				<ellipse transform="matrix(0.3609 -0.9326 0.9326 0.3609 -6.0616 681.3678)" fill="#F2F2F2" cx="494.1" cy="345.1" rx="7" ry="5.7"/>
			<ellipse cx="502.7" cy="358.1" rx="8" ry="13"/>
			<path fill="#FFFFFF" d="M519.1,378.9c-1.4,2.5-3.6,4.4-4.3,3.6c-0.8-0.8,0.9-0.9,2.7-4.4c1.9-3.5,1.5-4.6,2.6-4.5
				C521.1,373.7,520.5,376.4,519.1,378.9z"/>
			<ellipse fill="#FFFFFF" cx="485.4" cy="359.7" rx="2.8" ry="4.1"/>
		</g>
	</g>
	<g id="眉毛_8_">
		<g>
			<polygon points="458.3,325.9 520.3,305.9 520.3,280.9 458.3,311.9 			"/>
			<polygon points="524.1,304.8 529.8,302.9 529.8,276.8 523.8,279.8 			"/>
			<polygon points="533.5,276.5 533.8,301.6 539.5,299.6 539.5,273.6 			"/>
		</g>
		<g>
			<polygon points="325.5,325.9 263.5,305.9 263.5,280.9 325.5,311.9 			"/>
			<polygon points="259.6,304.8 254,302.9 254,276.8 260,279.8 			"/>
			<polygon points="250.3,276.5 249.9,301.6 244.3,299.6 244.3,273.6 			"/>
		</g>
	</g>
	<path id="嘴巴_18_" fill="#FF8E82" stroke="#000000" stroke-width="0.7087" stroke-miterlimit="10" d="M420.2,491
		c0,3.3-12.5,8-28,8c-15.5,0-28-4.7-28-8s12.5-3.5,28-3.5C407.7,487.5,420.2,487.7,420.2,491z"/>
	<g id="头发_14_">
		<path fill="#A66AFF" stroke="#000000" stroke-width="1.4173" stroke-miterlimit="10" d="M364.8,196.7
			c-26.6-6.4-37.6-38.8-23.1-58.7c-3.2,16.8,9.8,36.2,37.8,33.6"/>
		<path fill="#8C54A2" d="M340.5,141.2c0,0-1.2,8.3,0.4,14.6c2.3,8.7,10.2,15.5,10.2,15.5s-6.1,0.6-8.9-2.4c0.3,0.6,4.9,4.7,5.9,5.3
			c12.1,7.9,23.3,8.5,23.3,8.5s-8.9,1.1-14.9-0.6c6.7,4.3,21.7,4.9,21.7,4.9s-4.8,2.7-9.9,1.4c6.3,2.5,15.9,3.4,22.8,1.7l-14.4-17.4
			C371.2,173.3,340.9,171.3,340.5,141.2z"/>
		<path fill="#A66AFF" stroke="#000000" stroke-width="1.4173" stroke-miterlimit="10" d="M445.2,180.1c-16.5-4.2-20.3-24.4-6-27.6
			c-14.9-3.3-21.7,16.3-17.7,21.8c-13.6-1-48-22.5-40.8-55.3c-13,15.5-24.8,68.8,30.3,77.7"/>
		<path fill="#8C54A2" d="M400.3,184.9c-23.7-12-27.2-38.2-20.8-62.1c-4.5,32.1,32,54.1,47.5,53.1c-4-5.5-4.3-18,8.8-23
			c-10.9,5.4-7.1,23.8,9.3,28c0,0-7.1,0.9-18.1-5c0,1.1,15.7,9,15.7,9l-21.8-8.9l20.7,13.1l-15-3l6.8,5l-17.1-6.9l22.3,14.4
			L400.3,184.9z"/>
	</g>
	<g id="帽子_13_">
		<path fill="#FDAA8A" d="M390.7,72.5c0,0-261.7,110.3-276.4,129.5s48.2,80.8,276.4,80.8s291.6-75.3,274.3-91.7
			S390.7,72.5,390.7,72.5z"/>
		<path fill="#DC8E64" d="M392.1,269.8c-191.2,0-266.3-43.3-277-68.6c-0.3,0.3-0.5,0.6-0.7,0.8c-14.7,19.2,48.2,80.8,276.4,80.8
			c219.1,0,286.3-69.4,276-89.4C652.7,220.9,575.8,269.8,392.1,269.8z"/>
		<path fill="#DC8E64" d="M388.8,74.1l0.9-1.2c0,0,0,0-0.1,0l-1.2,1.4l-256,159.8c5.4,3.7,11.9,7.5,19.7,11.3L387.7,75.1
			L220.9,267.6c6.1,1.3,12.4,2.6,19.1,3.7L388.3,74.6l2.5-1.8l0.2,0.6l-70.2,207.3c4.9,0.3,10,0.6,15.2,0.9l55-208l75.5,206.2
			c5.3-0.5,10.6-1,15.7-1.5L391.1,73.4l0.1-0.4l184.7,187.1c6.9-2.1,13.4-4.3,19.5-6.5L391.2,72.9l0-0.1L649,224.9
			c6.7-5.4,11.5-10.7,14.5-15.4L391.3,72.7l0-0.1c0,0,0,0,0,0l0,0.1l-0.2-0.1l0,0c0,0,0,0,0,0l0,0l-0.4-0.2l0.3,0.2l-0.1,0l-0.3-0.2
			l0.2,0.3l-0.1,0.1l-0.1-0.3l0.1,0.3L388.8,74.1z M391.1,72.7l0.2,0.1l0,0.1L391.1,72.7L391.1,72.7z M391,72.7l0.2,0.2l-0.1,0.3
			l-0.2-0.5L391,72.7z"/>
		<path fill="#FFC28E" d="M388.5,74.1l0.9-1.2c0,0-0.1,0-0.1,0l-1.2,1.4L143.4,227.1c5.3,3.8,7.2,3.6,14.9,7.5l229-159.5
			L225.8,255.3c6,1.4,11.6,2.3,18.3,3.6L388,74.7l2.5-1.8l0.2,0.6l-69.4,194.1l9.7,0.6l59.8-194.5L458,267.5l10.4-0.8L390.8,73.5
			l0.1-0.4l170.2,178.5l10.3-3.5L390.9,73l0-0.1l243.9,149.7l6.8-4.9L391,72.9l0-0.1c0,0,0,0,0,0l0,0.1l-0.2-0.1l0,0c0,0,0,0,0,0
			l0,0l-0.4-0.2l0.3,0.2l-0.1,0l-0.3-0.2l0.2,0.3l-0.1,0.1l-0.1-0.3l0.1,0.3L388.5,74.1z M390.8,72.8l0.2,0.1l0,0.1L390.8,72.8
			L390.8,72.8z M390.7,72.8l0.2,0.2l-0.1,0.3l-0.2-0.5L390.7,72.8z"/>
		<path opacity="0.2" fill="#6E5237" d="M665,191.5C647.6,175.2,390.7,72.9,390.7,72.9s142.5,100.1,156,112.8
			c16.8,15.8,14.6,92.2-195.6,96.9c12.6,0.4,25.8,0.7,39.6,0.7C618.9,283.2,682.3,207.9,665,191.5z"/>
	</g>
</g>
</svg>