<?xml version="1.0" encoding="utf-8"?>
<svg version="1.0" id="layer_1" xmlns="http://www.w3.org/2000/svg" xmlns:xlink="http://www.w3.org/1999/xlink" x="0px" y="0px" viewBox="0 0 800 800" enable-background="new 0 0 800 800" xml:space="preserve">
<g id="_x31__2_">
	<g id="身体_12_">
		<path fill="#FFCDAD" stroke="#000000" stroke-width="1.4173" stroke-miterlimit="10" d="M291.3,599.9c0.9-16.5,4-26.1,6.4-31.4
			C293.8,577.2,292.1,589,291.3,599.9l-0.4,14.5c0,9.2,0.5,24.7,0.5,24.7l13.1,58.4l71.6,1.9l9.4-39.9c0,0,3.8,0.4,6.6,0.4
			c2.8,0,6.6-0.4,6.6-0.4l9.4,39.9l71.6-1.9l13.1-58.4c0,0,0.5-15.2,0.5-24.1c0,0-0.2-33.1-6.8-46.5c2.1,3.2,5.8,16.1,6.5,34.5
			l0.4,12c3.6,39.4,49.8,38.6,49.8-5c0-45.3-33.4-74.5-41.8-80c-15.2-10.7-43.5-17.3-43.5-17.3h-65.7H392h-65.7
			c0,0-28.3,6.6-43.5,17.3c-8.4,5.5-41.8,34.7-41.8,80c0,43.8,46.6,44.3,49.8,4.4L291.3,599.9z"/>
		<path fill="#EEB6A0" d="M335,647.2c0,0,21.3,7.5,57,7.5s56.3-7.5,56.3-7.5s-22.2,12.3-55.9,12.3c-2.9,0-4.9-0.1-7.6-0.3l-9.2,39.1
			l-3.2-4c2.3-7.2,1.4-30.3-0.1-36.2C352.5,655.2,340.1,650.3,335,647.2z"/>
		<path fill="#EEB6A0" d="M493.4,633l-13.8,64.5l-7,0.2c1.4-4.1,9.9-42.3,14-67.3c2.6-37.6-1.1-65.5-1.1-65.5
			C493.8,592.7,494.5,622.4,493.4,633z"/>
		<path fill="#E4B27A" d="M542.8,609.5c0,10.4-6.2,31.3-16,29.3c4.2-12,3.7-32.8,3.7-32.8c1.9-45.3-26.9-73.4-26.9-73.4
			C534.1,556.9,542.8,591.9,542.8,609.5z"/>
		<path fill="#E4B27A" d="M274.7,616.1c0,5.8-1.1,21.3-7.7,26.7c11.5,0,18.5-11.9,19.9-14.8c3.3-7.1,3.3-18,3.3-18
			c-0.3-34.8,10.2-48.6,10.2-48.6C282,576.8,274.7,606.2,274.7,616.1z"/>
		<path fill="#E4B27A" d="M459.6,514.5c-4.6-8.2-28.1-15.9-64-17c-13.9-0.4-69.1-2.1-64.6,6.1c4.9,8.9,20.8,26,62.4,29
			C429.2,535.2,465.3,524.7,459.6,514.5z"/>
	</g>
	<g id="衣服">
		<g id="裤子">
			<path fill="#50C8FF" stroke="#000000" stroke-width="0.7087" stroke-miterlimit="10" d="M290.2,632.7c61,26.7,157.2,22.1,203.8,0
				L480.3,696l-71.2,6.6l-10.5-43.2l-13.8-0.3l-10.3,45.1h-68.7L290.2,632.7z"/>
			<path fill="#1D6586" d="M334.2,648.3c0,0,22.1,6.4,57.9,6.4s56.3-6.6,56.3-6.6s-22.2,11.3-55.9,11.3c-2.9,0-4.9-0.1-7.6-0.3
				l-9.2,39.1l-3.2-4c2.3-7.2,1.4-30.3-0.1-36.2C352.5,655.2,339.3,651.4,334.2,648.3z"/>
			<path fill="#1D6586" d="M494.3,632.7l-13.7,62.1l-3.6-1.3c2.3-7.2,8.3-41.8,8.7-57.4L494.3,632.7z"/>
		</g>
		<g id="衣服_5_">
			<path fill="#50C8FF" stroke="#000000" stroke-width="0.7087" stroke-miterlimit="10" d="M322.9,511.2c0.1,5.3-9.3,34.1-20.9,47.8
				c-10.5,18-12.4,49-11.7,64.3c-0.1,17.8,46.8,28.4,101.8,28.4s101.5-21.4,101.5-21.4s3.5-48.7-10.3-71.3c-9-7.3-22.1-38-19.9-47.8
				c-11.1-1.5-12,3.8-12,3.8c-6.1,9.8-12.6,53.5-62,53.5s-51.5-41.2-58.6-54.6L322.9,511.2z"/>
			<g>
				<defs>
					<path id="SVGID_134_" d="M322.9,511.2c0.1,5.3-9.3,34.1-20.9,47.8c-10.5,18-12.4,49-11.7,64.3c-0.1,17.8,46.8,28.4,101.8,28.4
						s101.5-21.4,101.5-21.4s3.5-48.7-10.3-71.3c-9-7.3-22.1-38-19.9-47.8c-11.1-1.5-12,3.8-12,3.8c-6.1,9.8-12.6,53.5-62,53.5
						s-51.5-41.2-58.6-54.6L322.9,511.2z"/>
				</defs>
				<clipPath id="SVGID_2_">
					<use xlink:href="#SVGID_134_"  overflow="visible"/>
				</clipPath>
				<g clip-path="url(#SVGID_2_)">
					<rect x="286.5" y="517.3" fill="#87FF89" width="210" height="4"/>
					<rect x="286.5" y="527.3" fill="#87FF89" width="210" height="4"/>
					<rect x="286.5" y="537.3" fill="#87FF89" width="210" height="4"/>
					<rect x="286.5" y="547.3" fill="#87FF89" width="210" height="4"/>
					<rect x="286.5" y="557.3" fill="#87FF89" width="210" height="4"/>
					<rect x="286.5" y="567.3" fill="#87FF89" width="210" height="4"/>
					<rect x="286.5" y="577.3" fill="#87FF89" width="210" height="4"/>
					<rect x="286.5" y="587.3" fill="#87FF89" width="210" height="4"/>
					<rect x="286.5" y="597.3" fill="#87FF89" width="210" height="4"/>
					<rect x="286.5" y="607.3" fill="#87FF89" width="210" height="4"/>
					<rect x="286.5" y="617.3" fill="#87FF89" width="210" height="4"/>
					<rect x="286.5" y="627.3" fill="#87FF89" width="210" height="4"/>
					<rect x="286.5" y="637.3" fill="#87FF89" width="210" height="4"/>
					<rect x="286.5" y="647.3" fill="#87FF89" width="210" height="4"/>
				</g>
			</g>
			<path fill="#1D6586" d="M482.9,559.3c10.9,31.6,4.9,67.2,4.9,67.2l5.2-2.8C493,623.7,496.9,583.2,482.9,559.3z"/>
		</g>
	</g>
	<g id="脚_6_">
		<g id="脚_2_">
			<path fill="#FFD2BE" stroke="#000000" stroke-width="1.4173" stroke-miterlimit="10" d="M381.8,706.4c0,9.4-18.8,11-43.7,11
				s-43.1,0.7-43.1-14.4c0-5.4,7.6-11.8,18.5-8.8c2.2-3.3,8.4-7.1,15.3-6.9c4.4,0.1,10.4,1.2,13.3,5.1c6-5.4,15-3.3,18.1,0.7
				C377.1,686.5,381.8,699,381.8,706.4z"/>
			<g>
				<path fill="#78D2BE" stroke="#000000" stroke-width="1.4173" stroke-miterlimit="10" d="M292.2,708.1c0,0-3.3,3.9,0,7.9
					c1.9,1.8,21.8,5,46.4,5c24.7,0,43.8-2.4,46.5-4.3c1.5-1.1,2.4-6.6-0.6-7.1s-28.7,2.4-46.4,2.4C320.5,712,293.4,709,292.2,708.1z
					"/>
				<path fill="#58D2BE" stroke="#000000" stroke-width="1.4173" stroke-miterlimit="10" d="M358.7,690.1
					c-0.3,0.9-0.1,21.1-0.1,21.1l5.2-0.4c0,0-0.1-19.2-0.6-20.8S359.5,687.7,358.7,690.1z"/>
				<path fill="#3CB4D8" d="M360.7,689.2c1.2,3.5,0.6,21.1,0.6,21.1l1.7-0.2c0,0,0.1-17.8-0.4-19.4
					C362.1,689,361.7,689.2,360.7,689.2z"/>
				<path fill="#3CB4D8" d="M385.9,713c-21.6,10.3-93.1,2.7-93.1,2.7c9.2,4.1,66.9,7.5,91.3,0.9C385.7,716.1,385.9,713.9,385.9,713z
					"/>
				<path fill="#E6A082" d="M342,693.5c0,0,4.2,4.6,2.1,15.3c2.2-2.2,2.8-14.4-0.6-16.4L342,693.5z"/>
				<path fill="#E6A082" d="M364.2,692.6c0,0,0.3,7.3,0.4,17.4c0.2-2.1,3.5-15.5,1-17.7L364.2,692.6z"/>
				<path fill="#E6A082" d="M313.9,694.7c0,0,3.7,2.2,3.2,12.7c1.3-3.7,1.7-11.8-1.8-13.9L313.9,694.7z"/>
			</g>
		</g>
		<g id="脚_7_">
			<path fill="#FFD2BE" stroke="#000000" stroke-width="1.4173" stroke-miterlimit="10" d="M399.5,706.4c0,9.4,18.8,11,43.7,11
				s43.1,0.7,43.1-14.4c0-5.4-7.6-11.8-18.5-8.8c-2.2-3.3-8.4-7.1-15.3-6.9c-4.4,0.1-10.4,1.2-13.3,5.1c-6-5.4-15-3.3-18.1,0.7
				C404.2,686.5,399.5,699,399.5,706.4z"/>
			<g>
				<path fill="#78D2BE" stroke="#000000" stroke-width="1.4173" stroke-miterlimit="10" d="M489.1,708.1c0,0,3.3,3.9,0,7.9
					c-1.9,1.8-21.8,5-46.4,5s-43.8-2.4-46.5-4.3c-1.5-1.1-2.4-6.6,0.6-7.1s28.7,2.4,46.4,2.4C460.9,712,487.9,709,489.1,708.1z"/>
				<path fill="#58D2BE" stroke="#000000" stroke-width="1.4173" stroke-miterlimit="10" d="M422.6,690.1c0.3,0.9,0.1,21.1,0.1,21.1
					l-5.2-0.4c0,0,0.1-19.2,0.6-20.8C418.6,688.4,421.9,687.7,422.6,690.1z"/>
				<path fill="#3CB4D8" d="M420.6,689.2c-1.2,3.5-0.6,21.1-0.6,21.1l-1.7-0.2c0,0-0.1-17.8,0.4-19.4S419.6,689.2,420.6,689.2z"/>
				<path fill="#3CB4D8" d="M395.5,713c21.6,10.3,93.1,2.7,93.1,2.7c-9.2,4.1-66.9,7.5-91.3,0.9C395.6,716.1,395.4,713.9,395.5,713z
					"/>
				<path fill="#E6A082" d="M439.3,693.5c0,0-4.2,4.6-2.1,15.3c-2.2-2.2-2.8-14.4,0.6-16.4L439.3,693.5z"/>
				<path fill="#E6A082" d="M417.1,692.6c0,0-0.3,7.3-0.4,17.4c-0.2-2.1-3.5-15.5-1-17.7L417.1,692.6z"/>
				<path fill="#E6A082" d="M467.4,694.7c0,0-3.7,2.2-3.2,12.7c-1.3-3.7-1.7-11.8,1.8-13.9L467.4,694.7z"/>
			</g>
		</g>
	</g>
	<g id="手_26_">
		<g id="手_28_">
			<g id="左手_20_">
				<path fill="#FFD2BE" stroke="#000000" stroke-width="1.4173" stroke-miterlimit="10" d="M497.9,632.8
					c-3.6,16.8,3.9,27.2,20.5,27.2c16.6,0,29-17.2,29-32.7c0-15.5-10.2-28.6-26.8-28.6c-12.7,0-19.4,3.8-25.4,14.1
					C491.3,619.7,498.6,629.3,497.9,632.8z"/>
				<path fill="#FFD2BE" stroke="#000000" stroke-width="1.4173" stroke-miterlimit="10" d="M514.6,627.5
					c-1.5,13-12.8,16.2-19.6,11.8c-6.1-3.8-9.1-14.5,0-25.9"/>
			</g>
			<path fill="#E6A082" d="M514.6,618.2c0,0,0,22.3-21,19C502.1,645.9,519.4,636.7,514.6,618.2z"/>
			<path fill="#E6A082" d="M510.4,638.2c0,0-3.7,4.8-12.5,3.3C497.1,651.7,510.1,643.2,510.4,638.2z"/>
			<path fill="#E6A082" d="M538.6,606.6c2.8,5.9,5.8,23.3-2.8,37c-6,9.5-11.9,15.1-21.2,15.5c16.1,2.1,24.9-10.8,27.2-14.6
				C547.3,635.9,550.3,618.5,538.6,606.6z"/>
		</g>
		<g id="手_27_">
			<g id="左手_19_">
				<path fill="#FFD2BE" stroke="#000000" stroke-width="1.4173" stroke-miterlimit="10" d="M287.8,632.8
					c3.6,16.8-3.9,27.2-20.5,27.2s-29-17.2-29-32.7c0-15.5,10.2-28.6,26.8-28.6c12.7,0,19.4,3.8,25.4,14.1
					C294.4,619.7,287.1,629.3,287.8,632.8z"/>
				<path fill="#FFD2BE" stroke="#000000" stroke-width="1.4173" stroke-miterlimit="10" d="M271.1,627.5
					c1.5,13,12.8,16.2,19.6,11.8c6.1-3.8,9.1-14.5,0-25.9"/>
			</g>
			<path fill="#E6A082" d="M292,616.4c1.5,2.4,2.9,11.3-0.7,17.3c-1.8,3-7.3,6.4-12.2,5.5c6.1,3.2,12.8,0.3,15.3-5.2
				C297.9,626.6,293.5,618.2,292,616.4z"/>
			<path fill="#E6A082" d="M273,621.6c-8,10.9,4.5,21.2,2.9,28.4c-0.8,3.5-5.9,10.4-15,8.3c7.4,2.5,19.4,0.3,23.5-5.7
				c1.1-1.6,3.4-4.2,3.7-11.2C277.2,644.1,266.8,632.9,273,621.6z"/>
		</g>
		<g id="手套_9_">
			<g id="手套_11_">
				<path fill="#FF9854" d="M492.7,617.9c0,0,17.3-1.4,21.4,13.4c3-2,22.1,6.4,19.9,22.1c4.6-2.6,10.5-11.3,12.1-20.8
					c2-11.1-1.4-23.3-10.8-28.9c-16.1-9.6-31.8-1.7-35.1,3.3C498.2,609.2,493.7,616.2,492.7,617.9z"/>
				<path fill="#B26029" d="M514.1,631.3c0,0,2.1-9.2,2.1-12.3c-1.9,5.9-3.6,8.5-3.6,8.5L514.1,631.3z"/>
				<path fill="#B26029" d="M534,653.4c0.9,0.3,21.5-17.6,8.6-42.5c4.8,22.1-8.9,35.9-8.9,35.9S534.5,651.7,534,653.4z"/>
			</g>
			<g id="手套_10_">
				<path fill="#FF9854" d="M292.8,617.9c0,0-16.6-3.3-20.7,11.4c-3.9,1-22.8,8.3-20.6,24.1c-4.6-2.6-10.5-11.3-12.1-20.8
					c-2-11.1,1.4-23.3,10.8-28.9c16.1-9.6,31.8-1.7,35.1,3.3C287.3,609.2,291.9,616.2,292.8,617.9z"/>
				<path fill="#BF723F" d="M270.2,630c0,0-1.1-5.8,2-11.6c-1.9,7-0.1,11-0.1,11L270.2,630z"/>
			</g>
		</g>
	</g>
	<g id="耳朵_31_">
		<g id="耳朵_36_">
			<path fill="#FFCDAD" stroke="#000000" stroke-width="1.4173" stroke-miterlimit="10" d="M246,250.5
				c-4.2-24.9-33.2-65.4-72.1-49.5c-40,26.5-25.1,68.7,33.5,121.4L246,250.5z"/>
			<path fill="#E4B27A" d="M173.9,201c37.3-5.8,14.5,34.4,23.5,41.2c21.6,16.1,26.2,5.5,31.9,13.5l15.8-9.2
				C241.9,227.5,214.6,187.7,173.9,201z"/>
			<path fill="#FF9A5C" d="M210.6,292.5c-5-0.4-62.2-42.2-22.6-67.5c-4,34.9,41.4,20.5,41.4,32.2L210.6,292.5z"/>
			<path fill="#E9785C" d="M228,261.7l1.3-4.5c0-11.7-45.4,2.7-41.4-32.2C175.6,257.6,224.1,252.8,228,261.7z"/>
		</g>
		<g id="耳朵_35_">
			<path fill="#FFCDAD" stroke="#000000" stroke-width="1.4173" stroke-miterlimit="10" d="M531.5,250.5
				c4.2-24.9,33.2-65.4,72.1-49.5c40,26.5,25.1,68.7-33.5,121.4L531.5,250.5z"/>
			<path fill="#FF9A5C" d="M566.9,292.5c5-0.4,62.2-42.2,22.6-67.5c4,34.9-41.4,20.5-41.4,32.2L566.9,292.5z"/>
			<path fill="#E9785C" d="M554.4,270l-6.3-12.8c0-11.7,45.4,2.7,41.4-32.2C601.9,257.6,558.3,261,554.4,270z"/>
			<path fill="#E4B27A" d="M622.9,223.2c-2.6-5.5-9.1-13-11-14.3c-22.3-15.5-22.3,16-22.3,16c1.7,1.1,5.8,4.3,6.6,5.2
				c15.4-3.9,28.3,0.6,21.6,23c-9.4,36.5-42,60.6-42,60.6C593.4,302.8,634.8,254.2,622.9,223.2z"/>
		</g>
	</g>
	<g id="面部_6_">
		<path id="面部_7_" fill="#FFB683" stroke="#000000" stroke-width="1.4173" stroke-miterlimit="10" d="M214.3,278.3
			c11.2-30.5,46.9-77.2,129.7-100c36.3-10,61.8-8.8,96.6,0.5c41.8,11.2,105.2,42.4,128.8,98.9c11.7,28,11.7,87.7,11.7,87.7
			s23.3,12,23.3,49.3c0,32.5-52.7,87.4-157.3,100.9c-15.4,2-29.3,11.1-53.3,11.1s-38-9.3-54.8-11.6C236.1,501,179,448.5,179,414.7
			c0-34.2,25.5-48.8,25.5-48.8S201,314.7,214.3,278.3z"/>
		<path fill="#BF8962" d="M532.7,227.5c34.8,34.5,46.6,60.2,47.7,138.2c0,0-7.3,1.1-13.4,5.4C573.9,347.5,572.5,271,532.7,227.5z"/>
		<path fill="#BF8962" d="M267,496.2c18.9,9.2,64.8,17.7,77.4,19.2c6.4,1.4,29.4,10.5,47,10.5s30.2-3.9,46.7-9.6
			c29.3-2.6,80.2-15.3,104.8-31c-30.3,13.1-68.9,21.4-97.6,25.7c3.7-3.3,8.2-5.9,11.8-11.9c-15.7,13.9-34.1,19.9-61.5,20.6
			C384.7,519.9,312,509.5,267,496.2z"/>
	</g>
	<g id="鼻子_6_">
		<ellipse fill="#FFD2BE" stroke="#000000" stroke-width="1.4173" stroke-miterlimit="10" cx="391.3" cy="421.3" rx="90" ry="59"/>
		<path fill="#E6A082" d="M392,467.5c-28.1,1.3-47.3-1.5-68.3-8.4c6.1,6,32.9,20.6,67.2,20.6c48.4,0,89.7-24.6,89.7-58.4
			C475.8,438.2,445.9,465,392,467.5z"/>
		<g id="鼻子_7_">
			<path fill="#69301B" stroke="#000000" stroke-miterlimit="10" d="M404.4,385.7c-5.2,0-8,2.3-13.5,2.4c-5.5-0.1-8.3-2.4-13.5-2.4
				c-10,0-18.5,8.3-18.5,15.5c0,7.3,6.2,16.9,19.6,18.3c3.1,0.3,22,0.4,24.7,0c13.3-2,19.6-11,19.6-18.3
				C422.9,394,414.4,385.7,404.4,385.7z"/>
			<path fill="#3F1000" d="M420.8,406c0,4.5-6.4,10.1-14,12.3c-4.9,1.4-10,1-16.5,1c-5.7,0-10.3,0.4-14.8-0.7
				c-8.7-2.1-14.9-8.3-14.9-12.6c0-6.6,13.4-9,30-9S420.8,399.3,420.8,406z"/>
		</g>
	</g>
	<g id="眼睛_31_">
		<linearGradient id="SVGID_2_" gradientUnits="userSpaceOnUse" x1="443.1915" y1="327.1581" x2="530.4346" y2="368.58">
			<stop  offset="0" style="stop-color:#AA5834;stop-opacity:0.6"/>
			<stop  offset="1" style="stop-color:#C87A4A;stop-opacity:0"/>
		</linearGradient>
		<path fill="url(#SVGID_2_)" d="M524.7,326.7c17.5,42.8,2.8,76.1-24.6,76.1s-47.7-28.8-50.6-44.6c-4-20.6,4.9-42.7,20.5-51.1
			C489.5,296.5,512.7,297.3,524.7,326.7z"/>
		<linearGradient id="SVGID_3_" gradientUnits="userSpaceOnUse" x1="237.0114" y1="334.1588" x2="297.4662" y2="365.2986">
			<stop  offset="0" style="stop-color:#AA5834"/>
			<stop  offset="1" style="stop-color:#C87A4A;stop-opacity:0"/>
		</linearGradient>
		<path fill="url(#SVGID_3_)" d="M304.6,326.7c20.7,41.4-1.1,75.1-24.6,76.1c-18.5,0.8-31.7-19.4-34.5-35.2
			c-4-20.6,0.4-34.5,11-48.8C264.4,308,291.7,300.7,304.6,326.7z"/>
		<g id="眼睛_33_">
			<radialGradient id="SVGID_4_" cx="281.6733" cy="358.1066" r="37.8513" gradientUnits="userSpaceOnUse">
				<stop  offset="0" style="stop-color:#4D4D4D"/>
				<stop  offset="1" style="stop-color:#1A1A1A"/>
			</radialGradient>
			<ellipse fill="url(#SVGID_4_)" stroke="#000000" stroke-miterlimit="10" cx="281.7" cy="358.1" rx="30" ry="44.3"/>
			
				<radialGradient id="SVGID_5_" cx="298.3482" cy="358.1066" r="28.178" gradientTransform="matrix(0.9851 0 0 1 -12.2238 0)" gradientUnits="userSpaceOnUse">
				<stop  offset="0" style="stop-color:#333333"/>
				<stop  offset="1" style="stop-color:#000000"/>
			</radialGradient>
			<ellipse fill="url(#SVGID_5_)" cx="281.7" cy="358.1" rx="22" ry="33"/>
			
				<ellipse transform="matrix(0.3609 -0.9326 0.9326 0.3609 -147.2983 475.2638)" fill="#F2F2F2" cx="273.1" cy="345.1" rx="7" ry="5.7"/>
			<ellipse cx="281.7" cy="358.1" rx="8" ry="13"/>
			<path fill="#FFFFFF" d="M298.1,378.9c-1.4,2.5-3.6,4.4-4.3,3.6c-0.8-0.8,0.9-0.9,2.7-4.4c1.9-3.5,1.5-4.6,2.6-4.5
				C300.1,373.7,299.5,376.4,298.1,378.9z"/>
			<ellipse fill="#FFFFFF" cx="264.4" cy="359.7" rx="2.8" ry="4.1"/>
		</g>
		<g id="眼睛_32_">
			<radialGradient id="SVGID_6_" cx="502.6734" cy="358.1066" r="37.8513" gradientUnits="userSpaceOnUse">
				<stop  offset="0" style="stop-color:#4D4D4D"/>
				<stop  offset="1" style="stop-color:#1A1A1A"/>
			</radialGradient>
			<ellipse fill="url(#SVGID_6_)" stroke="#000000" stroke-miterlimit="10" cx="502.7" cy="358.1" rx="30" ry="44.3"/>
			
				<radialGradient id="SVGID_7_" cx="522.6954" cy="358.1066" r="28.178" gradientTransform="matrix(0.9851 0 0 1 -12.2238 0)" gradientUnits="userSpaceOnUse">
				<stop  offset="0" style="stop-color:#333333"/>
				<stop  offset="1" style="stop-color:#000000"/>
			</radialGradient>
			<ellipse fill="url(#SVGID_7_)" cx="502.7" cy="358.1" rx="22" ry="33"/>
			
				<ellipse transform="matrix(0.3609 -0.9326 0.9326 0.3609 -6.0616 681.3678)" fill="#F2F2F2" cx="494.1" cy="345.1" rx="7" ry="5.7"/>
			<ellipse cx="502.7" cy="358.1" rx="8" ry="13"/>
			<path fill="#FFFFFF" d="M519.1,378.9c-1.4,2.5-3.6,4.4-4.3,3.6c-0.8-0.8,0.9-0.9,2.7-4.4c1.9-3.5,1.5-4.6,2.6-4.5
				C521.1,373.7,520.5,376.4,519.1,378.9z"/>
			<ellipse fill="#FFFFFF" cx="485.4" cy="359.7" rx="2.8" ry="4.1"/>
		</g>
	</g>
	<g id="眉毛_6_">
		<path fill="#FFFFFF" stroke="#000000" stroke-miterlimit="10" d="M561.6,302.9c-8.5,4.1-15.8,5.4-27.2,3.6
			c-11.8-1.9-17.3,3.4-39.4,4.3c-15.2,0.6-31.1,8.7-36.5,6.3c-0.1,0-7.5-3.9-1.1-14.8c7.8-12.7,52.4-19.3,75.3-7.8
			C541.7,299.1,550.9,301.7,561.6,302.9z"/>
		<path fill="#E0DFD9" d="M547.9,300.9c-5.9,1.8-10,1.5-18.1,0.2c-11.8-1.9-17.3,3.4-39.4,4.3c-14.4,0.6-29,7.4-35.1,6.2
			c0.9,3.2,3,4.9,3.1,4.9c5.4,2.5,21.3-5.7,36.5-6.3c22.1-0.9,27.6-6.2,39.4-4.3c11.4,1.8,16.9,1.4,25.5-2.7
			C555.7,302.9,551.6,301.8,547.9,300.9z"/>
		<path fill="#FFFFFF" stroke="#000000" stroke-miterlimit="10" d="M224.8,302.9c8.5,4.1,15.8,5.4,27.2,3.6
			c11.8-1.9,17.3,3.4,39.4,4.3c15.2,0.6,31.1,8.7,36.5,6.3c0.1,0,7.5-3.9,1.1-14.8c-7.8-12.7-52.4-19.3-75.3-7.8
			C244.7,299.1,235.5,301.7,224.8,302.9z"/>
		<path fill="#E0DFD9" d="M238.5,300.9c5.9,1.8,10,1.5,18.1,0.2c11.8-1.9,17.3,3.4,39.4,4.3c14.4,0.6,29,7.4,35.1,6.2
			c-0.9,3.2-3,4.9-3.1,4.9c-5.4,2.5-21.3-5.7-36.5-6.3c-22.1-0.9-27.6-6.2-39.4-4.3c-11.4,1.8-16.9,1.4-25.5-2.7
			C230.8,302.9,234.8,301.8,238.5,300.9z"/>
	</g>
	<g id="眼镜_3_">
		<radialGradient id="SVGID_8_" cx="392.6236" cy="364.5487" r="134.6279" gradientUnits="userSpaceOnUse">
			<stop  offset="0" style="stop-color:#4D4D4D"/>
			<stop  offset="1" style="stop-color:#1A1A1A"/>
		</radialGradient>
		<path fill="url(#SVGID_8_)" stroke="#000000" stroke-miterlimit="10" d="M580.7,338l-16.6,14.3v-5.1c0-3.3-2.7-6-6-6H456.1
			c-3.3,0-6,2.7-6,6l0.1,9.6l-0.1-0.1c-2.1-4-26.3-13.4-58.8-13.4s-49.8,7.6-56.2,12.6l0.1-8.7c0-3.3-2.7-6-6-6H227.2
			c-3.3,0-6,2.7-6,6v5.1L204.5,338l-0.4,13l9.8,11.2l7.2,6v16.9c0,3.3,2.7,6,6,6h101.9c3.3,0,6-2.7,6-6v-10.4
			c0-6.8,21.6-19.4,56.2-19.4s58.8,12.5,58.8,19.3v10.5c0,3.3,2.7,6,6,6h101.9c3.3,0,6-2.7,6-6v-16.9l7.2-6l9.8-11.2L580.7,338z
			 M324.2,379.5c0,1.8-1.4,3.2-3.2,3.2h-85.6c-1.8,0-3.2-1.4-3.2-3.2v-27.6c0-1.8,1.4-3.2,3.2-3.2H321c1.8,0,3.2,1.4,3.2,3.2V379.5z
			 M553.1,379.5c0,1.8-1.4,3.2-3.2,3.2h-85.6c-1.8,0-3.2-1.4-3.2-3.2v-27.6c0-1.8,1.4-3.2,3.2-3.2h85.6c1.8,0,3.2,1.4,3.2,3.2V379.5
			z"/>
		<path fill="#FFFFFF" d="M550.4,385.7c4.1,0,7.2,0.3,7-8.9c0,0,0.9-23.3-1.8-24.2v27.2c0,2-1.6,3.6-3.6,3.6h-83.6
			C468,383.4,550.4,385.7,550.4,385.7z"/>
		<path fill="#FFFFFF" d="M457,348.1c0-2,1.7-3.7,3.7-3.7c0,0,84.8,0.9,101,0.7c-16.7,0-31.2-1.4-41.1-2.3h-62.5
			c-2,0-3.7,1.7-3.7,3.7v23.3c0,0.7,1.6,8.5,2.1,4.7C457.2,368,457,348.1,457,348.1z"/>
		<path d="M553.7,351.6c0-2-1.9-3.5-3.9-3.5l-59.2-0.3l62.5-1.7c2,0,3.7,1.7,3.7,3.7c0,0-1,32.8-1.7,33.2c-0.1-2.9-1.3-3.8-1.3-3.8
			L553.7,351.6z"/>
		<path fill="#FFFFFF" d="M579.9,341.2c-0.5,0.3-15,12.8-15,12.8l6.3-3.8L579.9,341.2z"/>
		<path fill="#FFFFFF" d="M319.6,385.7c4.1,0,7.2,0.3,7-8.9c0,0,0.9-23.3-1.8-24.2v27.2c0,2-1.6,3.6-3.6,3.6h-83.6
			C237.2,383.4,319.6,385.7,319.6,385.7z"/>
		<path fill="#FFFFFF" d="M226.2,348.1c0-2,1.7-3.7,3.7-3.7c0,0,84.8,0.9,101,0.7c-16.7,0-31.2-1.4-41.1-2.3h-62.5
			c-2,0-3.7,1.7-3.7,3.7v23.3c0,0.7,1.6,8.5,2.1,4.7C226.4,368,226.2,348.1,226.2,348.1z"/>
		<path d="M231.6,351.6c0-2,1.9-3.5,3.9-3.5l59.2-0.3l-62.5-1.7c-2,0-3.7,1.7-3.7,3.7c0,0,1,32.8,1.7,33.2c0.1-2.9,1.3-3.8,1.3-3.8
			L231.6,351.6z"/>
		<path fill="#FFFFFF" d="M205.3,341.2c0.5,0.3,15,12.8,15,12.8l-6.3-3.8L205.3,341.2z"/>
		<path d="M455.7,387.9c-2,0-3.6-1.6-3.6-3.6l-0.8-16.1c0,0-12.5-16.7-58.6-17.3s-59.3,19.3-59.3,19.3l-0.2,14.1
			c0,2-1.6,3.6-3.6,3.6l-92.8,1.4l9.3,1.2c-0.3,0,82-0.3,82-0.3c4.1,0,7.2,0.3,7-8.9c0,0,0-3.8,0.3-7.5
			c4.9-11.9,25.3-16.5,57.3-17.1c37.5-0.7,52.6,10.9,57,15.6c0.9,3.6,0.6,9,0.6,9c-0.2,9.2,2.9,8.9,7,8.9c0,0,82.3,0.3,82,0.3
			l9.3-1.2L455.7,387.9z"/>
		<path fill="#FFFFFF" d="M334.3,359.5c0,0,16.7-15.2,58.5-15.2c35.2,0,57.4,13.5,57.4,13.5s-18.5-11.6-57.4-10.6
			c-28.2,0.7-51.9,8.4-58.5,15.5V359.5z"/>
	</g>
	<g id="嘴巴_4_">
		<path id="嘴巴_5_" fill="#FFFFFF" stroke="#000000" stroke-width="1.5999" stroke-miterlimit="10" d="M459.2,486
			c6.3,14.3-22.2,22.6-52.4,23.5c-30.3,0.9-55-0.9-56.1-9.5c-1.1-8.6,19.4-5.1,49.4-9C430,487.1,454.3,474.7,459.2,486z"/>
		<g>
			<path fill="#FFFFFF" stroke="#000000" stroke-width="1.5999" stroke-miterlimit="10" d="M400,501.3c0,0,32.1,0,55.4-14"/>
			
				<line fill="#FFFFFF" stroke="#000000" stroke-width="1.5999" stroke-miterlimit="10" x1="442.4" y1="487.3" x2="445.9" y2="497.1"/>
			
				<line fill="#FFFFFF" stroke="#000000" stroke-width="1.5999" stroke-miterlimit="10" x1="431.9" y1="491.9" x2="435.3" y2="501.6"/>
			
				<line fill="#FFFFFF" stroke="#000000" stroke-width="1.5999" stroke-miterlimit="10" x1="421.2" y1="494.9" x2="424.6" y2="504.6"/>
		</g>
	</g>
	<g id="头发_2_">
		<path fill="#FFB683" stroke="#000000" stroke-width="1.4173" stroke-miterlimit="10" d="M374.8,196.7
			c-26.6-6.4-37.6-38.8-23.1-58.7c-3.2,16.8,9.8,36.2,37.8,33.6"/>
		<path fill="#BF8962" d="M350.5,141.2c0,0-1.2,8.3,0.4,14.6c2.3,8.7,10.2,15.5,10.2,15.5s-6.1,0.6-8.9-2.4c0.3,0.6,4.9,4.7,5.9,5.3
			c12.1,7.9,23.3,8.5,23.3,8.5s-8.9,1.1-14.9-0.6c6.7,4.3,21.7,4.9,21.7,4.9s-4.8,2.7-9.9,1.4c6.3,2.5,15.9,3.4,22.8,1.7l-14.4-17.4
			C381.2,173.3,350.9,171.3,350.5,141.2z"/>
		<path fill="#FFB683" stroke="#000000" stroke-width="1.4173" stroke-miterlimit="10" d="M455.2,180.1c-16.5-4.2-20.3-24.4-6-27.6
			c-14.9-3.3-21.7,16.3-17.7,21.8c-13.6-1-48-22.5-40.8-55.3c-13,15.5-24.8,68.8,30.3,77.7"/>
		<path fill="#BF8962" d="M410.3,184.9c-23.7-12-27.2-38.2-20.8-62.1c-4.5,32.1,32,54.1,47.5,53.1c-4-5.5-4.3-18,8.8-23
			c-10.9,5.4-7.1,23.8,9.3,28c0,0-7.1,0.9-18.1-5c0,1.1,15.7,9,15.7,9l-21.8-8.9l20.7,13.1l-15-3l6.8,5l-17.1-6.9l22.3,14.4
			L410.3,184.9z"/>
	</g>
	<g id="帽子">
		<path fill="#FFFFFF" stroke="#000000" stroke-width="0.7381" stroke-miterlimit="10" d="M543.8,230.2c-2.3,6.4-5.5-2-11.1,2
			C436.1,301.8,320,311.4,256.5,309c-49.6-1.9-90.4-33.8-68-73c12.9-22.5,80.7-45.5,92-50.5c0-4.7,9.7-118.5,124.4-118.5
			c-3.4-2-13.8-15.7,18-14s20.3,15.4,14.9,16.7C542.2,87.8,547.8,199.1,543.8,230.2z"/>
		<path fill="#FFE26C" stroke="#000000" stroke-width="0.7381" stroke-miterlimit="10" d="M282.9,189.5c0,0-79,26.3-91.3,53.5
			c-12.3,27.3,18.1,48,36.7,51.5c90,16.7,213.2-11,304.3-71.5c-49.8,12.1-131.3,15.5-179.7,2.5C317.5,216,293.1,202.5,282.9,189.5z"
			/>
		<path opacity="0.4" d="M396.1,288.2c-94.4,23.9-160.1,21.5-190.4,6.2c12.6,8.1,52.6,31.6,201.2-3c15.5-3.6,83-24.9,125.7-59.2
			l11.4-4.7l0.2-3.8l-15.3,5.1C474,263.8,452.1,274.1,396.1,288.2z"/>
		<path fill="#FFE26C" stroke="#000000" stroke-width="0.7381" stroke-miterlimit="10" d="M435.7,69.5c0,0,2.3,0.1,6.2,1
			c0.6,0.1,4.3,0.9,4.3,0.9s-2.8,0.3-3.9,0.9c18,6.5,59.6,24.3,76,59.7c15.8,34.3,14.5,83,14.5,83l-5.9,2c0,0,4.5-65.5-20.9-97.3
			c-25.4-31.8-70-46.3-70-46.3s24.8,26.2,41,67.4c12.2,31.1,7.7,83.6,7.7,83.6h-5.3c0,0,1.5-43.7-7.9-79.1
			c-9.3-35.3-45.8-71.9-45.8-71.9s-18.7,17.2-36.3,65.5c-4.5,12.3-13.3,84.3-13.3,84.3l-6.8-1c0,0,8.7-71,13-83.3
			c14.5-41.2,30.8-58.2,34.4-65c-7.6,2.7-33.7,11.6-66.6,44.6c-17.3,17.3-32.5,85.9-32.5,85.9l-5.2-2.9c0,0,20.7-72,32.6-85.4
			c21.3-24,55.5-41,63.1-43.6c-19.8,1.5-69.5,17.5-82.7,40.9s-37.2,72.3-37.2,72.3l-3.9-4.4c0,0,28.3-65.4,41-78.8
			c22.1-23.2,58.6-30.9,76.3-32.8c-2.6-1.2-25.5,0.7-29.1,1c0.6,0,26.5-3.4,26.5-3.4c1.2-0.1,6,0.9,7.9,1.2c0.3,0-1.8-1.3-1.8-1.3
			s-7.2-8.2,0.2-11.8c-4.9,4.4,2.7,13.3,5.8,12.2c0.1-0.3-6.6-9.3,3.1-14.1c-5.6,8.8,3.9,15.4,4.6,15.4c-1.2-0.7-8-10.7,3.3-15.4
			c-3.3,8.8,0.7,14.5,1.7,15.5c2.6-2.3,4.6-9.1,3.5-15c7.4,4.8,4.9,12.6,1.7,15c7.2-1.8,10.5-6.2,6.9-12.9
			C445.4,64.8,435.7,69.5,435.7,69.5z"/>
		<path opacity="0.5" fill="#C8C8C8" d="M470.8,81.5c0,0,67.6,56,35,61.5c-61.7,10.5-43.3,54.3-71.3,57.7
			c-64,11.7-125.5-3.5-135-5.9C332.8,227,427,242,534.3,219.4c4.1,0-2.9,7.4,0.7,9.3c0.7,0.4,6.5,4.9,7.9,3.1
			c1.4-1.8,7.9-42.3-14.2-93C521.5,122.3,500.5,90.7,470.8,81.5z"/>
		<path fill="#FFAE74" d="M431.6,62.4c0,0-2.7,3-5.5,3.2c-0.2,1-1.9,3.3-2.5,3.8c-0.9-0.6-2.1-2.7-2.6-4.6c-1.6,0.9-3.8,0.1-4.6-0.5
			c0.4,0.9,1.7,3.8,3.1,4.7c-2.1,0.1-5.3-3.4-6-5c-2,0.5-3.7-1.1-4.2-1.8c0.2,1.1,1.4,4.1,1.8,5.4c-1.7,0.3-3.8-1.3-4.8-2.1
			c0,0-1.9-0.5-2.7-0.8c1.5,2.4,4.1,3.7,4.4,4c0.3,0.3,4.6,2.3,9.3,2.8c4.8,0.5,15.2,1,18.3,0.9c2.8-0.2,4.5-1,6.3-1.4
			c-2.8-1-6.9-1.1-8-1.1c1.8-0.3,5.1-2.5,5.6-5.2c-4.2,4-9.9,4.4-11.9,4.7C428.2,68.5,431.2,68,431.6,62.4z"/>
		<path opacity="0.2" d="M443.5,60.8c0,0-7.8,5.6-18.8,5.2c-15.7-0.5-18.9-2.1-24.1-4.7c1.6,5.5,15.4,13.6,37.1,7.8
			C440.8,68.1,444.9,64.3,443.5,60.8z"/>
		<path fill="#FFE26C" stroke="#000000" stroke-width="0.7381" stroke-miterlimit="10" d="M281.8,174.8c0,0,13.8,33.3,87.8,44
			c74,10.6,153.3,2.7,173.6-10.4c0,8.6,0,7.3,0,7.3s-81.2,24.9-175.3,8.7c-67.9-11.7-87.3-41-87.3-41L281.8,174.8z"/>
		<path fill="#FFAE74" d="M463.3,112.2c0,0,10.6,27.3,12.3,36.5s3.6,75.6,3.6,75.6h5.3c0,0,2.2-54.6-5.4-76.9
			C471.6,125.2,463.3,112.2,463.3,112.2z"/>
		<path fill="#FFAE74" d="M387.1,142.4c0,0-4.2,18.9-5.8,28c-2.3,12.4-9,52.5-9,52.5h3.2c0,0,2.7-22.8,6.2-46.9
			C385.5,153.9,387.1,142.4,387.1,142.4z"/>
		<path fill="#FFAE74" d="M543.2,210.5c0,0-23.6,14.6-94.7,15.7c-31.4,0.5-73.4-0.7-73.4-0.7s41.7,5.3,73.4,4
			c9.6-0.4,16.7,0.8,49.7-4.5c21.5-2.8,41.5-8.6,45-9.9V210.5z"/>
		<path fill="#FFAE74" d="M332.4,150.4c-6.7,13-17.6,49.8-17.6,49.8l2.6,1.5C317.4,201.7,326.1,165.9,332.4,150.4z"/>
		<path fill="#FFAE74" d="M312,136.4c-9.6,12.4-24.9,44.6-24.9,44.6l2.2,2.3C289.3,183.3,304,151.8,312,136.4z"/>
		<path fill="#FFAE74" d="M483,93.1c0,0,26.6,21.3,34.5,44.7c15.7,46.9,9.3,79.1,9.3,79.1l5.6-1.4c0,0,0-53.9-15.1-84.5
			C505.6,107.4,483,93.1,483,93.1z"/>
	</g>
</g>
</svg>