<?xml version="1.0" encoding="utf-8"?>
<svg version="1.0" id="layer_1" xmlns="http://www.w3.org/2000/svg" xmlns:xlink="http://www.w3.org/1999/xlink" x="0px" y="0px" viewBox="0 0 800 800" enable-background="new 0 0 800 800" xml:space="preserve">
<g id="_x31__2_">
	<g id="身体_17_">
		<path opacity="0.1" fill="#FFD2BE" d="M437.7,577.5c-10.9-19-1-39.8-11.4-39.8c-10.4,0-14.2,9.4-33,9.4c-0.1,0-0.7,0-0.8,0
			c-18.8,0-22.6-9.4-33-9.4s-0.5,20.8-11.4,39.8c-22.8,39.7,5.8,74.2,42.6,74.2c0.8,0,3.7,0,4.4,0
			C431.9,651.8,460.5,617.2,437.7,577.5z"/>
		<path fill="#269E96" d="M493.4,634l-13.7,59.8l-5.5-1c1.4-4.1,8.4-36.4,12.4-61.3c2.6-37.6-1.1-65.5-1.1-65.5
			C493.8,593.7,494.5,623.4,493.4,634z"/>
		<path fill="#269E96" d="M542.8,610.5c0,10.4-6.2,31.3-16,29.3c4.2-12,3.7-32.8,3.7-32.8c1.9-45.3-26.9-73.4-26.9-73.4
			C534.1,557.9,542.8,592.9,542.8,610.5z"/>
		<path fill="#269E96" d="M274.7,617.1c0,5.8-1.1,21.3-7.7,26.7c11.5,0,18.5-11.9,19.9-14.8c3.3-7.1,3.3-18,3.3-18
			c-0.3-34.8,10.2-48.6,10.2-48.6C282,577.8,274.7,607.2,274.7,617.1z"/>
		<path fill="#269E96" d="M459.6,515.5c-4.6-8.2-28.1-15.9-64-17c-13.9-0.4-69.1-2.1-64.6,6.1c4.9,8.9,20.3,23,61.8,26
			C428.7,533.2,465.3,525.7,459.6,515.5z"/>
		<g id="身体_4_">
			<path fill="#32D2C8" stroke="#000000" stroke-width="1.4173" stroke-miterlimit="10" d="M291.6,601c0.9-16.5,4-26.1,6.4-31.4
				C294.1,578.4,292.4,590.1,291.6,601l-0.4,14.5c0,9.2,0.5,17.7,0.5,17.7l13.1,65.4l71.6,1.9l9.4-39.9c0,0,3.8,0.4,6.6,0.4
				c2.8,0,6.6-0.4,6.6-0.4l9.4,39.9l71.6-1.9l13.1-65.4c0,0,0.5-8.2,0.5-17.1c0,0-0.2-33.1-6.8-46.5c2.1,3.2,5.8,16.1,6.5,34.5
				l0.4,12c3.6,39.4,49.8,38.6,49.8-5c0-45.3-33.4-74.5-41.8-80c-15.2-10.7-43.5-17.3-43.5-17.3h-65.7h-0.1h-65.7
				c0,0-28.3,6.6-43.5,17.3c-8.4,5.5-41.8,34.7-41.8,80c0,43.8,46.6,44.3,49.8,4.4L291.6,601z"/>
			<path opacity="0.1" fill="#FFD2BE" d="M438,577.7c-10.9-19-1-39.8-11.4-39.8c-10.4,0-14.2,9.4-33,9.4c-0.1,0-0.7,0-0.8,0
				c-18.8,0-22.6-9.4-33-9.4s-0.5,20.8-11.4,39.8c-22.8,39.7,5.8,74.2,42.6,74.2c0.8,0,3.7,0,4.4,0
				C432.2,651.9,460.9,617.3,438,577.7z"/>
			<path fill="#269E96" d="M543.1,610.6c0,10.4-6.2,31.3-16,29.3c4.2-12,3.7-32.8,3.7-32.8c1.9-45.3-26.9-73.4-26.9-73.4
				C534.5,558,543.1,593.1,543.1,610.6z"/>
			<path fill="#269E96" d="M275,617.3c0,5.8-1.1,21.3-7.7,26.7c11.5,0,18.5-11.9,19.9-14.8c3.3-7.1,3.3-18,3.3-18
				c-0.3-34.8,10.2-48.6,10.2-48.6C282.3,578,275,607.4,275,617.3z"/>
			<path fill="#269E96" d="M460,515.6c-4.6-8.2-28.1-15.9-64-17c-13.9-0.4-69.1-2.1-64.6,6.1c4.9,8.9,20.3,23,61.8,26
				C429,533.4,465.7,525.8,460,515.6z"/>
			<path fill="#269E96" d="M335.3,648.4c0,0,21.3,7.5,57,7.5s56.3-7.5,56.3-7.5s-22.2,12.3-55.9,12.3c-2.9,0-4.9-0.1-7.6-0.3
				l-9.2,39.1l-3.2-4c2.3-7.2,1.4-30.3-0.1-36.2C352.8,656.3,340.5,651.5,335.3,648.4z"/>
			<path fill="#269E96" d="M493.1,631.8l-13,55.1l-5.5,6c1.4-4.1,8.4-36.4,12.4-61.3c2.6-37.6-1.1-65.5-1.1-65.5
				C494.5,591,493.6,627.9,493.1,631.8z"/>
		</g>
	</g>
	<g id="衣服_11_">
		<path d="M482.9,559.3c10.9,31.6,4.9,67.2,4.9,67.2l5.2-2.8C493,623.7,496.9,583.2,482.9,559.3z"/>
		<path fill="#007CD0" stroke="#000000" stroke-width="1.4173" stroke-miterlimit="10" d="M291.4,639.1l13.1,58.4l71.6,1.9l9.4-39.9
			c0,0,3.8,0.4,6.6,0.4c2.8,0,6.6-0.4,6.6-0.4l9.4,39.9l71.6-1.9l13.1-58.4H291.4z"/>
		<path fill="#3C5EA4" d="M335,647.2c0,0,21.3,7.5,57,7.5s56.3-7.5,56.3-7.5s-22.2,12.3-55.9,12.3c-2.9,0-4.9-0.1-7.6-0.3l-9.2,39.1
			l-3.2-4c2.3-7.2,1.4-30.3-0.1-36.2C352.5,655.2,340.1,650.3,335,647.2z"/>
		<path fill="#3C5EA4" d="M492.7,639.1l-13.1,58.4l-5.4-5.8c1.4-4.1,11.9-52.7,11.9-52.7H492.7z"/>
		<path fill="#FFFFFF" stroke="#000000" stroke-miterlimit="10" d="M496.9,592.9l-14-81.8c0,0-70.9,35-89.7,35c-0.1,0-0.7,0-0.8,0
			c-18.8,0-89.6-33.6-89.6-33.6l-11.3,84l1.3,49l198.5-0.3L496.9,592.9z"/>
		<polygon fill="#E0DFD9" points="370.5,543.4 375,598.1 371.8,645.6 292.8,645.7 312.9,558.6 330.8,529.3 		"/>
		<g>
			<path fill="#8FDAFF" stroke="#000000" stroke-miterlimit="10" d="M331,503.6c0,0-63.3,17.7-63.8,23c-2.3,0-18.5,22.8-19.5,28.8
				c-3.7,3.8-8.8,20.7-6.7,28c2,7.3,3.1,3,3.1,3s-2.2,10.8-2.4,12.7c5.9-2.6,35.4-7.2,49.6,4.3c-0.1,2.3,0.1,35.6,0.1,35.6
				l69.4,11.7c0,0,8.6-44.3,8.8-51.5s-5.8-57.9-5.8-57.9l-6.4-2.3v-8.8L331,503.6z"/>
			<path fill="#6BA3BF" d="M343.8,555.4l11.7,0.7c0,0,5.3,1,6.1-4.5c0.8-5.5-4.1-11.9-4.1-11.9v-8.4l-7.1-4.6L343.8,555.4z"/>
			<path fill="#A5E1FF" stroke="#000000" stroke-miterlimit="10" d="M357.4,530.2l-3.3,0.7L343.9,555c0,0-26.8-30.9-34-45.2
				c3.4-2,21.2-6.2,21.2-6.2L357.4,530.2z"/>
			<path fill="#7CA9BF" stroke="#000000" stroke-width="0.25" stroke-miterlimit="10" d="M361.8,556.7c0,0-2.3-2.5-3,0
				s0,4.8,1.5,4.8S364.8,560.2,361.8,556.7z"/>
			<path fill="#7CA9BF" stroke="#000000" stroke-width="0.25" stroke-miterlimit="10" d="M364.9,591.9c0,0-2.3-2.5-3,0
				s0,4.8,1.5,4.8S367.9,595.4,364.9,591.9z"/>
			<path fill="#7CA9BF" stroke="#000000" stroke-width="0.25" stroke-miterlimit="10" d="M360.7,624.5c0,0-2.3-2.5-3,0
				s0,4.8,1.5,4.8C360.7,629.3,363.7,628,360.7,624.5z"/>
			<path fill="#7ACCE8" d="M246.3,585.9c0,0-2.5-1.6-2.6-3.9c2.6,2.8,3.9,2.6,3.9,2.6s3.3-0.9,3.6-0.7s5.4,0,5.4,0s-1.6-3.3-1.4-5.1
				c1.4,2,1.4,4.4,3,5.1s5.6,1.4,6.8,0.4s2.8-3.1,3.2-5.5c1,2.9-0.4,4.1,0.8,5.4s4.4,1.8,5.5,1.6s4.1-2.8,4.7-2.1
				c0.6,0.6,0.1,2,0.9,2.9s2.5,1.3,3.8,1.6c1.3,0.4,5.2,1.9,5.2,1.9s2.5,2.1,2.6,2.6c0.1,0.5,0,2.9,0,2.9l-0.8-1.2l-1.3,3.7
				l-0.3-4.2l-3.3,0.2l-1.9,1.8l-0.8-4.3l-3.7-0.9l-2.5,1.2l-1.6-2.8l-0.8,4.8l-1.8-4.7l-2.4,0.8l-4.7-0.7l-3.4-1.6l-3.6,5.2
				l1.1-5.8l-4.8-0.3l0.7,5.8l-2.9-6.7l-3.7,0.3l-1.8,2.1L246.3,585.9z"/>
			<path opacity="0.8" fill="#6BA3BF" d="M291.1,602.9c0,0-2.7-4.4-12.8-6.3c1.5-2.8,8-28.3,19.5-43
				C293.8,570.8,291.6,591.6,291.1,602.9z"/>
		</g>
		<g>
			<path fill="#8FDAFF" stroke="#000000" stroke-miterlimit="10" d="M454.1,503.6c0,0,63.3,17.7,63.8,23c2.3,0,18.5,22.8,19.5,28.8
				c3.7,3.8,8.8,20.7,6.7,28c-2,7.3-3.1,3-3.1,3s2.2,10.8,2.4,12.7c-5.9-2.6-35.4-7.2-49.6,4.3c0.1,2.3-0.1,35.6-0.1,35.6
				l-69.4,11.7c0,0-8.6-44.3-8.8-51.5s5.8-57.9,5.8-57.9l6.4-2.3v-8.8L454.1,503.6z"/>
			<path fill="#6BA3BF" d="M441.2,555c0,0,37.9-6,41.7-12.5c3.8-6.5,3.7-17.8,14-20.8s6.7-2.5,6.7-2.5l-29.4-9.9L427.7,531
				l-0.9,17.5L441.2,555z"/>
			<path fill="#A5E1FF" stroke="#000000" stroke-miterlimit="10" d="M427.7,530.2l3.3,0.7l10.3,24.1c0,0,26.8-30.9,34-45.2
				c-3.4-2-21.2-6.2-21.2-6.2L427.7,530.2z"/>
			<path fill="#7CA9BF" stroke="#000000" stroke-width="0.2396" stroke-miterlimit="10" d="M424.7,557.7c0,0,4.6-1.1,6.1,0
				c1.5,1.1,0,2.1-3.1,2.1S418.5,559.3,424.7,557.7z"/>
			<path fill="#7CA9BF" stroke="#000000" stroke-width="0.2034" stroke-miterlimit="10" d="M421.7,593.2c0,0,4.9-0.8,6.5,0
				c1.6,0.8,0,1.4-3.3,1.4C421.7,594.7,415.2,594.3,421.7,593.2z"/>
			<path fill="#7CA9BF" stroke="#000000" stroke-width="0.1927" stroke-miterlimit="10" d="M425.4,625.7c0,0,4.1-0.8,5.4,0
				c1.4,0.8,0,1.6-2.7,1.6S420,626.9,425.4,625.7z"/>
			<path fill="#7ACCE8" d="M538.8,585.9c0,0,2.5-1.6,2.6-3.9c-2.6,2.8-3.9,2.6-3.9,2.6s-3.3-0.9-3.6-0.7s-5.4,0-5.4,0
				s1.6-3.3,1.4-5.1c-1.4,2-1.4,4.4-3,5.1s-5.6,1.4-6.8,0.4c-1.3-1-2.8-3.1-3.2-5.5c-1,2.9,0.4,4.1-0.8,5.4s-4.4,1.8-5.5,1.6
				s-4.1-2.8-4.7-2.1c-0.6,0.6-0.1,2-0.9,2.9s-2.5,1.3-3.8,1.6c-1.3,0.4-5.2,1.9-5.2,1.9s-2.5,2.1-2.6,2.6c-0.1,0.5,0,2.9,0,2.9
				l0.8-1.2l1.3,3.7l0.3-4.2l3.3,0.2l1.9,1.8l0.8-4.3l3.7-0.9l2.5,1.2l1.6-2.8l0.8,4.8l1.8-4.7l2.4,0.8l4.7-0.7l3.4-1.6l3.6,5.2
				l-1.1-5.8l4.8-0.3l-0.7,5.8l2.9-6.7l3.7,0.3l1.8,2.1L538.8,585.9z"/>
			<path opacity="0.8" fill="#6BA3BF" d="M494,602.9c0,0,2.7-4.4,12.8-6.3c-1.5-2.8-8-28.3-19.5-43
				C491.3,570.8,493.5,591.6,494,602.9z"/>
		</g>
	</g>
	<g id="脚_33_">
		<g id="脚_35_">
			<path fill="#128AB2" stroke="#000000" stroke-width="1.4173" stroke-miterlimit="10" d="M401.2,709.1c0,9.4,20.1,8.3,45,8.3
				s45,0.4,45-14.6c0-7.4-15.6-18.6-41.2-17.9s-36.2,6.9-41.1,14.5C402.7,700.1,401.2,702.7,401.2,709.1z"/>
			<path fill="#0D6886" d="M486.4,696c0,0,2.5,10.7-7.5,14s-76.4,6.8-77-2.8c-0.7,6.2,4,9.3,21.6,9.5c6.2,0,37.1,0,37.1,0
				s24.1,0.4,28.3-8C492.3,701.7,489.3,698.7,486.4,696z"/>
		</g>
		<g id="脚_34_">
			<path fill="#128AB2" stroke="#000000" stroke-width="1.4173" stroke-miterlimit="10" d="M383.2,709.1c0,9.4-20.1,8.3-45,8.3
				s-45,0.4-45-14.6c0-7.4,15.6-18.6,41.2-17.9s36.2,6.9,41.1,14.5C381.6,700.1,383.2,702.7,383.2,709.1z"/>
			<path fill="#0D6886" d="M379,701c0,0,5.3,6.6-4.8,9.9s-73.1,5.8-79.4-3.4c1.8,5.8,12.4,8.9,22.7,9.2c6.2,0.2,37.1,0,37.1,0
				s21.9,0.9,26.5-4.4C383.6,710.2,382.8,702.1,379,701z"/>
		</g>
	</g>
	<g id="手_41_">
		<g id="手_43_">
			<g id="左手_30_">
				<path fill="#FFD6DA" stroke="#000000" stroke-width="1.4173" stroke-miterlimit="10" d="M497.2,632.8
					c-3.6,16.8,3.9,27.2,20.5,27.2c16.6,0,29-17.2,29-32.7c0-15.5-10.2-28.6-26.8-28.6c-12.7,0-19.4,3.8-25.4,14.1
					C490.7,619.7,498,629.3,497.2,632.8z"/>
				<path fill="#FFD6DA" stroke="#000000" stroke-width="1.4173" stroke-miterlimit="10" d="M513.9,627.5
					c-1.5,13-12.7,16.2-19.6,11.8c-6.1-3.8-9.1-14.5,0-25.9"/>
			</g>
			<path fill="#E6B4AA" d="M513.9,618.2c0,0,0,22.3-21,19C501.5,645.9,518.7,636.7,513.9,618.2z"/>
			<path fill="#E6B4AA" d="M509.8,638.2c0,0-3.7,4.8-12.5,3.3C496.4,651.7,509.4,643.2,509.8,638.2z"/>
			<path fill="#E6B4AA" d="M537.9,606.6c2.8,5.9,5.8,23.3-2.8,37c-6,9.5-11.9,15.1-21.2,15.5c16.1,2.1,24.9-10.8,27.2-14.6
				C546.7,635.9,549.6,618.5,537.9,606.6z"/>
		</g>
		<g id="手_42_">
			<g id="左手_29_">
				<path fill="#FFD6DA" stroke="#000000" stroke-width="1.4173" stroke-miterlimit="10" d="M287.2,632.8
					c3.6,16.8-3.9,27.2-20.5,27.2s-29-17.2-29-32.7c0-15.5,10.2-28.6,26.8-28.6c12.7,0,19.4,3.8,25.4,14.1
					C293.8,619.7,286.4,629.3,287.2,632.8z"/>
				<path fill="#FFD6DA" stroke="#000000" stroke-width="1.4173" stroke-miterlimit="10" d="M270.5,627.5
					c1.5,13,12.8,16.2,19.6,11.8c6.1-3.8,9.1-14.5,0-25.9"/>
			</g>
			<path fill="#E6B4AA" d="M291.4,616.4c1.5,2.4,2.9,11.3-0.7,17.3c-1.8,3-7.3,6.4-12.2,5.5c6.1,3.2,12.8,0.3,15.3-5.2
				C297.3,626.6,292.9,618.2,291.4,616.4z"/>
			<path fill="#E6B4AA" d="M272.3,621.6c-8,10.9,4.5,21.2,2.9,28.4c-0.8,3.5-5.9,10.4-15,8.3c7.4,2.5,19.4,0.3,23.5-5.7
				c1.1-1.6,3.4-4.2,3.7-11.2C276.6,644.1,266.1,632.9,272.3,621.6z"/>
		</g>
	</g>
	<g id="耳朵_9_">
		<g id="耳朵_11_">
			<path fill="#FFB683" stroke="#000000" stroke-width="1.4173" stroke-miterlimit="10" d="M341.7,208.4
				c-4.2-24.9-60.1-92.9-138.2-48.3C149,192,149.8,274,208.3,326.7L341.7,208.4z"/>
			<path fill="#BF8962" d="M254.9,145.3c43,6.6,70.9,44.8,73.8,62.1l13,1C338.5,189.4,305.2,145.3,254.9,145.3z"/>
			<path fill="#FFBEBA" stroke="#000000" stroke-width="0.7087" stroke-miterlimit="10" d="M229.5,277.8c-5-0.4-41.5-52.2-2-77.4
				c38.8-24.8,76.6,15.4,76,22.4L229.5,277.8z"/>
		</g>
		<g id="耳朵_10_">
			<path fill="#FFB683" stroke="#000000" stroke-width="1.4173" stroke-miterlimit="10" d="M441.5,208.4
				c4.2-24.9,60.1-92.9,138.2-48.3c54.6,31.9,53.8,113.9-4.8,166.6L441.5,208.4z"/>
			<path fill="#BF8962" d="M579.7,160.1c-1.1-0.6-2.2-1.2-3.3-1.8C622.1,193,619,268,565,317.9l9.9,8.7
				C633.5,274,634.2,192,579.7,160.1z"/>
			<path fill="#FFBEBA" stroke="#000000" stroke-width="0.7087" stroke-miterlimit="10" d="M553.7,277.8c5-0.4,41.5-52.2,2-77.4
				c-38.8-24.8-76.6,15.4-76,22.4L553.7,277.8z"/>
		</g>
	</g>
	<g id="面部_19_">
		<path id="面部_20_" fill="#FFDCD0" stroke="#000000" stroke-width="1.4173" stroke-miterlimit="10" d="M214.3,278.3
			c11.2-30.5,46.9-77.2,129.7-100c36.3-10,61.8-8.8,96.6,0.5c41.8,11.2,105.2,42.4,128.8,98.9c11.7,28,11.7,87.7,11.7,87.7
			s23.3,12,23.3,49.3c0,32.5-52.7,87.4-157.3,100.9c-15.4,2-29.3,11.1-53.3,11.1s-38-9.3-54.8-11.6C236.1,501,179,448.5,179,414.7
			c0-34.2,25.5-48.8,25.5-48.8S201,314.7,214.3,278.3z"/>
		<path fill="#EEB6A0" d="M532.7,227.5c34.8,34.5,46.6,60.2,47.7,138.2c0,0-7.3,1.1-13.4,5.4C573.9,347.5,572.5,271,532.7,227.5z"/>
		<path fill="#EEB6A0" d="M267,496.2c18.9,9.2,64.8,17.7,77.4,19.2c6.4,1.4,29.4,10.5,47,10.5s30.2-3.9,46.7-9.6
			c29.3-2.6,80.2-15.3,104.8-31c-30.3,13.1-68.9,21.4-97.6,25.7c3.7-3.3,8.2-5.9,11.8-11.9c-15.7,13.9-34.1,19.9-61.5,20.6
			C384.7,519.9,312,509.5,267,496.2z"/>
	</g>
	<g id="鼻子_23_">
		<ellipse fill="#FFD2BE" stroke="#000000" stroke-width="1.4173" stroke-miterlimit="10" cx="391.3" cy="421.3" rx="90" ry="59"/>
		<path fill="#E6A082" d="M392,467.5c-28.1,1.3-47.3-1.5-68.3-8.4c6.1,6,32.9,20.6,67.2,20.6c48.4,0,89.7-24.6,89.7-58.4
			C475.8,438.2,445.9,465,392,467.5z"/>
		<g id="鼻子_24_">
			<path fill="#69301B" stroke="#000000" stroke-miterlimit="10" d="M404.4,385.7c-5.2,0-8,2.3-13.5,2.4c-5.5-0.1-8.3-2.4-13.5-2.4
				c-10,0-18.5,8.3-18.5,15.5c0,7.3,6.2,16.9,19.6,18.3c3.1,0.3,22,0.4,24.7,0c13.3-2,19.6-11,19.6-18.3
				C422.9,394,414.4,385.7,404.4,385.7z"/>
			<path fill="#3F1000" d="M420.8,406c0,4.5-6.4,10.1-14,12.3c-4.9,1.4-10,1-16.5,1c-5.7,0-10.3,0.4-14.8-0.7
				c-8.7-2.1-14.9-8.3-14.9-12.6c0-6.6,13.4-9,30-9S420.8,399.3,420.8,406z"/>
		</g>
	</g>
	<g id="眼睛_4_">
		<linearGradient id="SVGID_3_" gradientUnits="userSpaceOnUse" x1="448.5415" y1="351.7919" x2="532.2632" y2="351.7919">
			<stop  offset="0" style="stop-color:#6EA0DC"/>
			<stop  offset="1" style="stop-color:#8BBBFF;stop-opacity:0"/>
		</linearGradient>
		<path fill="url(#SVGID_3_)" d="M524.7,326.7c17.5,42.8,2.8,76.1-24.6,76.1s-47.7-28.8-50.6-44.6c-4-20.6,4.9-42.7,20.5-51.1
			C489.5,296.5,512.7,297.3,524.7,326.7z"/>
		<linearGradient id="SVGID_4_" gradientUnits="userSpaceOnUse" x1="237.0114" y1="334.1588" x2="297.4662" y2="365.2986">
			<stop  offset="0" style="stop-color:#6EA0DC"/>
			<stop  offset="1" style="stop-color:#8BBBFF;stop-opacity:0"/>
		</linearGradient>
		<path fill="url(#SVGID_4_)" d="M304.6,326.7c20.7,41.4-1.1,75.1-24.6,76.1c-18.5,0.8-31.7-19.4-34.5-35.2
			c-4-20.6,0.4-34.5,11-48.8C264.4,308,291.7,300.7,304.6,326.7z"/>
		<g id="眼睛_6_">
			<radialGradient id="SVGID_5_" cx="281.6733" cy="358.1066" r="37.8513" gradientUnits="userSpaceOnUse">
				<stop  offset="0" style="stop-color:#4D4D4D"/>
				<stop  offset="1" style="stop-color:#1A1A1A"/>
			</radialGradient>
			<ellipse fill="url(#SVGID_5_)" stroke="#000000" stroke-miterlimit="10" cx="281.7" cy="358.1" rx="30" ry="44.3"/>
			
				<radialGradient id="SVGID_6_" cx="311.0702" cy="358.1066" r="28.178" gradientTransform="matrix(0.9851 0 0 1 -24.756 0)" gradientUnits="userSpaceOnUse">
				<stop  offset="0" style="stop-color:#333333"/>
				<stop  offset="1" style="stop-color:#000000"/>
			</radialGradient>
			<ellipse fill="url(#SVGID_6_)" cx="281.7" cy="358.1" rx="22" ry="33"/>
			
				<ellipse transform="matrix(0.3609 -0.9326 0.9326 0.3609 -147.2983 475.2638)" fill="#F2F2F2" cx="273.1" cy="345.1" rx="7" ry="5.7"/>
			<ellipse cx="281.7" cy="358.1" rx="8" ry="13"/>
			<path fill="#FFFFFF" d="M298.1,378.9c-1.4,2.5-3.6,4.4-4.3,3.6c-0.8-0.8,0.9-0.9,2.7-4.4c1.9-3.5,1.5-4.6,2.6-4.5
				C300.1,373.7,299.5,376.4,298.1,378.9z"/>
			<ellipse fill="#FFFFFF" cx="264.4" cy="359.7" rx="2.8" ry="4.1"/>
		</g>
		<g id="眼睛_5_">
			<radialGradient id="SVGID_7_" cx="502.6734" cy="358.1066" r="37.8513" gradientUnits="userSpaceOnUse">
				<stop  offset="0" style="stop-color:#4D4D4D"/>
				<stop  offset="1" style="stop-color:#1A1A1A"/>
			</radialGradient>
			<ellipse fill="url(#SVGID_7_)" stroke="#000000" stroke-miterlimit="10" cx="502.7" cy="358.1" rx="30" ry="44.3"/>
			
				<radialGradient id="SVGID_8_" cx="535.4174" cy="358.1066" r="28.178" gradientTransform="matrix(0.9851 0 0 1 -24.756 0)" gradientUnits="userSpaceOnUse">
				<stop  offset="0" style="stop-color:#333333"/>
				<stop  offset="1" style="stop-color:#000000"/>
			</radialGradient>
			<ellipse fill="url(#SVGID_8_)" cx="502.7" cy="358.1" rx="22" ry="33"/>
			
				<ellipse transform="matrix(0.3609 -0.9326 0.9326 0.3609 -6.0616 681.3678)" fill="#F2F2F2" cx="494.1" cy="345.1" rx="7" ry="5.7"/>
			<ellipse cx="502.7" cy="358.1" rx="8" ry="13"/>
			<path fill="#FFFFFF" d="M519.1,378.9c-1.4,2.5-3.6,4.4-4.3,3.6c-0.8-0.8,0.9-0.9,2.7-4.4c1.9-3.5,1.5-4.6,2.6-4.5
				C521.1,373.7,520.5,376.4,519.1,378.9z"/>
			<ellipse fill="#FFFFFF" cx="485.4" cy="359.7" rx="2.8" ry="4.1"/>
		</g>
	</g>
	<g id="眉毛_1_">
		<linearGradient id="SVGID_10_" gradientUnits="userSpaceOnUse" x1="455.7762" y1="303.4955" x2="552.3399" y2="303.4955">
			<stop  offset="5.128205e-03" style="stop-color:#333333"/>
			<stop  offset="1" style="stop-color:#601D00"/>
		</linearGradient>
		<polygon fill="url(#SVGID_10_)" points="458.5,313.7 519,285.5 552.3,305.5 514.6,303.8 455.8,321.5 		"/>
		<path fill="#320014" d="M460,313.8c0,0,21.2-12.7,37.1-13.9c20.5-0.6,25.4,4.3,25.4,4.3l-7.9-0.3l-58.8,17.7L460,313.8z"/>
		
			<linearGradient id="SVGID_11_" gradientUnits="userSpaceOnUse" x1="-3645.2368" y1="303.4955" x2="-3548.6731" y2="303.4955" gradientTransform="matrix(-1 0 0 1 -3321.897 0)">
			<stop  offset="5.128205e-03" style="stop-color:#333333"/>
			<stop  offset="1" style="stop-color:#601D00"/>
		</linearGradient>
		<polygon fill="url(#SVGID_11_)" points="320.6,313.7 260.1,285.5 226.8,305.5 264.5,303.8 323.3,321.5 		"/>
		<path fill="#320014" d="M319.1,313.8c0,0-21.2-12.7-37.1-13.9c-20.5-0.6-25.4,4.3-25.4,4.3l7.9-0.3l58.8,17.7L319.1,313.8z"/>
	</g>
	<g id="嘴巴_1_">
		<path fill="#FFAEC0" stroke="#000000" stroke-width="1.4173" stroke-miterlimit="10" d="M440.2,490.9c-27.5,11.5-40.4,3-47.7-6
			c-8.9,9.7-25.7,15.8-47.3,6C379,509.7,405.6,507.8,440.2,490.9z"/>
		<path fill="#FFFFFF" stroke="#000000" stroke-miterlimit="10" d="M377.3,494.3c0,0,9.3,1.6,14.4,1.6c5.2,0,13.2-1.6,13.2-1.6
			s-9.4-4.6-12.4-9C390.6,488.5,379.8,494.3,377.3,494.3z"/>
	</g>
	<g id="头发_16_">
		<path fill="#C87A4A" stroke="#000000" stroke-width="1.4173" stroke-miterlimit="10" d="M364.8,196.7
			c-26.6-6.4-37.6-38.8-23.1-58.7c-3.2,16.8,9.8,36.2,37.8,33.6"/>
		<path fill="#AA5834" d="M340.5,141.2c0,0-1.2,8.3,0.4,14.6c2.3,8.7,10.2,15.5,10.2,15.5s-6.1,0.6-8.9-2.4c0.3,0.6,4.9,4.7,5.9,5.3
			c12.1,7.9,23.3,8.5,23.3,8.5s-8.9,1.1-14.9-0.6c6.7,4.3,21.7,4.9,21.7,4.9s-4.8,2.7-9.9,1.4c6.3,2.5,15.9,3.4,22.8,1.7l-14.4-17.4
			C371.2,173.3,340.9,171.3,340.5,141.2z"/>
		<path fill="#C87A4A" stroke="#000000" stroke-width="1.4173" stroke-miterlimit="10" d="M445.2,180.1c-16.5-4.2-20.3-24.4-6-27.6
			c-14.9-3.3-21.7,16.3-17.7,21.8c-13.6-1-48-22.5-40.8-55.3c-13,15.5-24.8,68.8,30.3,77.7"/>
		<path fill="#AA5834" d="M400.3,184.9c-23.7-12-27.2-38.2-20.8-62.1c-4.5,32.1,32,54.1,47.5,53.1c-4-5.5-4.3-18,8.8-23
			c-10.9,5.4-7.1,23.8,9.3,28c0,0-7.1,0.9-18.1-5c0,1.1,15.7,9,15.7,9l-21.8-8.9l20.7,13.1l-15-3l6.8,5l-17.1-6.9l22.3,14.4
			L400.3,184.9z"/>
	</g>
</g>
</svg>