<?xml version="1.0" encoding="utf-8"?>
<svg version="1.0" id="layer_1" xmlns="http://www.w3.org/2000/svg" xmlns:xlink="http://www.w3.org/1999/xlink" x="0px" y="0px" viewBox="0 0 800 800" enable-background="new 0 0 800 800" xml:space="preserve">
<g id="_x31__2_">
	<g id="身体_7_">
		<path fill="#FFF6E1" stroke="#000000" stroke-width="1.4173" stroke-miterlimit="10" d="M291.3,599.9c0.9-16.5,4-26.1,6.4-31.4
			C293.8,577.2,292.1,589,291.3,599.9l-0.4,14.5c0,9.2,0.5,17.7,0.5,17.7l13.1,65.4l71.6,1.9l9.4-39.9c0,0,3.8,0.4,6.6,0.4
			c2.8,0,6.6-0.4,6.6-0.4l9.4,39.9l71.6-1.9l13.1-65.4c0,0,0.5-8.2,0.5-17.1c0,0-0.2-33.1-6.8-46.5c2.1,3.2,5.8,16.1,6.5,34.5
			l0.4,12c3.6,39.4,49.8,38.6,49.8-5c0-45.3-33.4-74.5-41.8-80c-15.2-10.7-43.5-17.3-43.5-17.3h-65.7H392h-65.7
			c0,0-28.3,6.6-43.5,17.3c-8.4,5.5-41.8,34.7-41.8,80c0,43.8,46.6,44.3,49.8,4.4L291.3,599.9z"/>
		<path opacity="0.1" fill="#FFD2BE" d="M437.7,576.5c-10.9-19-1-39.8-11.4-39.8c-10.4,0-14.2,9.4-33,9.4c-0.1,0-0.7,0-0.8,0
			c-18.8,0-22.6-9.4-33-9.4s-0.5,20.8-11.4,39.8c-22.8,39.7,5.8,74.2,42.6,74.2c0.8,0,3.7,0,4.4,0
			C431.9,650.8,460.5,616.2,437.7,576.5z"/>
		<path fill="#EED4BE" d="M542.8,609.5c0,10.4-6.2,31.3-16,29.3c4.2-12,3.7-32.8,3.7-32.8c1.9-45.3-26.9-73.4-26.9-73.4
			C534.1,556.9,542.8,591.9,542.8,609.5z"/>
		<path fill="#EED4BE" d="M274.7,616.1c0,5.8-1.1,21.3-7.7,26.7c11.5,0,18.5-11.9,19.9-14.8c3.3-7.1,3.3-18,3.3-18
			c-0.3-34.8,10.2-48.6,10.2-48.6C282,576.8,274.7,606.2,274.7,616.1z"/>
		<path fill="#EED4BE" d="M459.6,514.5c-4.6-8.2-28.1-15.9-64-17c-13.9-0.4-69.1-2.1-64.6,6.1c4.9,8.9,20.3,23,61.8,26
			C428.7,532.2,465.3,524.7,459.6,514.5z"/>
		<path fill="#F2B484" d="M335,647.2c0,0,21.3,7.5,57,7.5s56.3-7.5,56.3-7.5s-22.2,12.3-55.9,12.3c-2.9,0-4.9-0.1-7.6-0.3l-9.2,39.1
			l-3.2-4c2.3-7.2,1.4-30.3-0.1-36.2C352.5,655.2,340.1,650.3,335,647.2z"/>
		<path fill="#F2B484" d="M492.7,630.7l-13,55.1l-5.5,6c1.4-4.1,8.4-36.4,12.4-61.3c2.6-37.6-1.1-65.5-1.1-65.5
			C494.2,589.8,493.2,626.7,492.7,630.7z"/>
	</g>
	<g id="衣服_19_">
		<path fill="#7C22B4" stroke="#000000" stroke-width="0.7087" stroke-miterlimit="10" d="M316.9,511.2
			c-24.6,2.3-54.5,27.6-50.9,34.8c4.5-3.4,31.2,0.6,36,13c-10.5,18-12.4,49-11.7,64.3c3,3.7,31.4,24.7,101.4,24.7
			s101.9-24.7,101.9-24.7s3.5-41.7-10.3-64.3c1.5-6.7,26.2-16.5,34.2-13c5.4-6.4-22.2-30.1-46.1-34.8c-11.1-1.5-33.9,4.1-33.9,4.1
			c-6.1,9.8-27.6,19.5-45.4,19.5s-37.5-6.1-44.6-19.5L316.9,511.2z"/>
		<polygon fill="#FFB464" points="391.3,569.5 403.7,584.6 431.3,587 411.3,598.8 416.1,615.5 391.3,607.6 366.6,615.5 371.3,598.8 
			351.3,587 379,584.6 		"/>
		<path fill="#682873" d="M482.9,559.3c10.9,31.6,4.9,67.2,4.9,67.2l5.2-2.8C493,623.7,496.9,583.2,482.9,559.3z"/>
	</g>
	<g id="脚_36_">
		<g id="脚_38_">
			<path fill="#471E0F" stroke="#000000" stroke-width="1.4173" stroke-miterlimit="10" d="M401.2,709.1c0,9.4,20.1,8.3,45,8.3
				s45,0.4,45-14.6c0-7.4-15.6-18.6-41.2-17.9s-36.2,6.9-41.1,14.5C402.7,700.1,401.2,702.7,401.2,709.1z"/>
			<path fill="#180A05" d="M486.4,696c0,0,2.5,10.7-7.5,14s-76.4,6.8-77-2.8c-0.7,6.2,4,9.3,21.6,9.5c6.2,0,37.1,0,37.1,0
				s24.1,0.4,28.3-8C492.3,701.7,489.3,698.7,486.4,696z"/>
		</g>
		<g id="脚_37_">
			<path fill="#471E0F" stroke="#000000" stroke-width="1.4173" stroke-miterlimit="10" d="M383.2,709.1c0,9.4-20.1,8.3-45,8.3
				s-45,0.4-45-14.6c0-7.4,15.6-18.6,41.2-17.9s36.2,6.9,41.1,14.5C381.6,700.1,383.2,702.7,383.2,709.1z"/>
			<path fill="#180A05" d="M379,701c0,0,5.3,6.6-4.8,9.9s-73.1,5.8-79.4-3.4c1.8,5.8,12.4,8.9,22.7,9.2c6.2,0.2,37.1,0,37.1,0
				s21.9,0.9,26.5-4.4C383.6,710.2,382.8,702.1,379,701z"/>
		</g>
		<path fill="#7E5343" d="M430.3,692.9c0,0-9.7,3.9-11.2,10.9l4.4,0.5C423.6,704.3,426,695,430.3,692.9z"/>
		<path fill="#E0AD9A" d="M429.8,693.2c0,0-4.7,4.1-6.2,11.1l4.3,0.6C427.9,705,426.7,695.3,429.8,693.2z"/>
		<path fill="#7E5343" d="M312.7,688.9c0,0-9.7,3.9-11.2,10.9l4.4,0.5C306,700.4,308.4,691,312.7,688.9z"/>
		<path fill="#E0AD9A" d="M312.2,689.2c0,0-4.7,4.1-6.2,11.1l4.3,0.6C310.3,701,309.1,691.3,312.2,689.2z"/>
	</g>
	<g id="手_5_">
		<g id="左手_16_">
			<path fill="#C2FF3E" stroke="#000000" stroke-width="1.4173" stroke-miterlimit="10" d="M287.2,632.8
				c3.6,16.8-3.9,27.2-20.5,27.2s-29-17.2-29-32.7c0-15.5,10.2-28.6,26.8-28.6c12.7,0,19.4,3.8,25.4,14.1
				C293.8,619.7,286.4,629.3,287.2,632.8z"/>
			<path fill="#C2FF3E" stroke="#000000" stroke-width="1.4173" stroke-miterlimit="10" d="M270.5,627.5c1.5,13,12.8,16.2,19.6,11.8
				c6.1-3.8,9.1-14.5,0-25.9"/>
			<path fill="#92BF2F" d="M291.4,616.4c1.5,2.4,2.9,11.3-0.7,17.3c-1.8,3-7.3,6.4-12.2,5.5c6.1,3.2,12.8,0.3,15.3-5.2
				C297.3,626.6,292.9,618.2,291.4,616.4z"/>
			<path fill="#92BF2F" d="M272.3,621.6c-8,10.9,4.5,21.2,2.9,28.4c-0.8,3.5-5.9,10.4-15,8.3c7.4,2.5,19.4,0.3,23.5-5.7
				c1.1-1.6,3.4-4.2,3.7-11.2C276.6,644.1,266.1,632.9,272.3,621.6z"/>
		</g>
		<g id="左手_15_">
			<path fill="#C2FF3E" stroke="#000000" stroke-width="1.4173" stroke-miterlimit="10" d="M496.3,632.8
				c-3.6,16.8,3.9,27.2,20.5,27.2s29-17.2,29-32.7c0-15.5-10.2-28.6-26.8-28.6c-12.7,0-19.4,3.8-25.4,14.1
				C489.7,619.7,497.1,629.3,496.3,632.8z"/>
			<path fill="#C2FF3E" stroke="#000000" stroke-width="1.4173" stroke-miterlimit="10" d="M513,627.5c-1.5,13-12.8,16.2-19.6,11.8
				c-6.1-3.8-9.1-14.5,0-25.9"/>
			<path fill="#92BF2F" d="M492.2,616.4c-1.5,2.4-2.9,11.3,0.7,17.3c1.8,3,7.3,6.4,12.2,5.5c-6.1,3.2-12.8,0.3-15.3-5.2
				C486.3,626.6,490.7,618.2,492.2,616.4z"/>
			<path fill="#92BF2F" d="M511.2,621.6c8,10.9-4.5,21.2-2.9,28.4c0.8,3.5,5.9,10.4,15,8.3c-7.4,2.5-19.4,0.3-23.5-5.7
				c-1.1-1.6-3.4-4.2-3.7-11.2C506.9,644.1,517.4,632.9,511.2,621.6z"/>
		</g>
	</g>
	<g id="耳朵_49_">
		<g id="耳朵_50_">
			<path fill="#32D2C8" stroke="#000000" stroke-width="0.9989" stroke-miterlimit="10" d="M499.6,230.5
				c6.6-16.5,55.2-55.1,102.4-12.8c32.9,30.1,20.2,86.5-28,114.1L499.6,230.5z"/>
			<path fill="#269E96" d="M602,217.7c-0.7-0.6-1.3-1.2-2-1.7c26.3,30.7,13.1,81.9-31.5,108.3l5.5,7.5
				C622.2,304.2,634.8,247.8,602,217.7z"/>
			<path fill="#FFBEBA" stroke="#000000" stroke-width="0.4994" stroke-miterlimit="10" d="M566.6,295c3.5,0.4,36.3-29.8,12.8-53.1
				c-23.1-22.9-55.1-0.8-55.7,4.1L566.6,295z"/>
		</g>
		<g id="耳朵_43_">
			<path fill="#32D2C8" stroke="#000000" stroke-width="0.9989" stroke-miterlimit="10" d="M290.3,230.5
				c-6.6-16.5-55.2-55.1-102.4-12.8c-32.9,30.1-20.2,86.5,28,114.1L290.3,230.5z"/>
			<path fill="#269E96" d="M187.9,217.7c0.7-0.6,1.3-1.2,2-1.7c-26.3,30.7-13.1,81.9,31.5,108.3l-5.5,7.5
				C167.7,304.2,155.1,247.8,187.9,217.7z"/>
			<path fill="#FFBEBA" stroke="#000000" stroke-width="0.4994" stroke-miterlimit="10" d="M223.3,295c-3.5,0.4-36.3-29.8-12.8-53.1
				c23.1-22.9,55.1-0.8,55.7,4.1L223.3,295z"/>
		</g>
	</g>
	<g id="面部_21_">
		<path id="面部_22_" fill="#FFCDAD" stroke="#000000" stroke-width="1.4173" stroke-miterlimit="10" d="M214.3,278.3
			c11.2-30.5,46.9-77.2,129.7-100c36.3-10,61.8-8.8,96.6,0.5c41.8,11.2,105.2,42.4,128.8,98.9c11.7,28,11.7,87.7,11.7,87.7
			s23.3,12,23.3,49.3c0,32.5-52.7,87.4-157.3,100.9c-15.4,2-29.3,11.1-53.3,11.1s-38-9.3-54.8-11.6C236.1,501,179,448.5,179,414.7
			c0-34.2,25.5-48.8,25.5-48.8S201,314.7,214.3,278.3z"/>
		<path fill="#E4B27A" d="M532.7,227.5c34.8,34.5,46.6,60.2,47.7,138.2c0,0-7.3,1.1-13.4,5.4C573.9,347.5,572.5,271,532.7,227.5z"/>
		<path fill="#E4B27A" d="M267,496.2c18.9,9.2,64.8,17.7,77.4,19.2c6.4,1.4,29.4,10.5,47,10.5s30.2-3.9,46.7-9.6
			c29.3-2.6,80.2-15.3,104.8-31c-30.3,13.1-68.9,21.4-97.6,25.7c3.7-3.3,8.2-5.9,11.8-11.9c-15.7,13.9-34.1,19.9-61.5,20.6
			C384.7,519.9,312,509.5,267,496.2z"/>
	</g>
	<g id="鼻子_15_">
		<ellipse fill="#FFDCA0" stroke="#000000" stroke-width="1.4173" stroke-miterlimit="10" cx="391.3" cy="421.3" rx="90" ry="59"/>
		<path fill="#E6A082" d="M392,467.5c-28.1,1.3-47.3-1.5-68.3-8.4c6.1,6,32.9,20.6,67.2,20.6c48.4,0,89.7-24.6,89.7-58.4
			C475.8,438.2,445.9,465,392,467.5z"/>
		<g id="鼻子_16_">
			<path fill="#69301B" stroke="#000000" stroke-miterlimit="10" d="M404.4,385.7c-5.2,0-8,2.3-13.5,2.4c-5.5-0.1-8.3-2.4-13.5-2.4
				c-10,0-18.5,8.3-18.5,15.5c0,7.3,6.2,16.9,19.6,18.3c3.1,0.3,22,0.4,24.7,0c13.3-2,19.6-11,19.6-18.3
				C422.9,394,414.4,385.7,404.4,385.7z"/>
			<path fill="#3F1000" d="M420.8,406c0,4.5-6.4,10.1-14,12.3c-4.9,1.4-10,1-16.5,1c-5.7,0-10.3,0.4-14.8-0.7
				c-8.7-2.1-14.9-8.3-14.9-12.6c0-6.6,13.4-9,30-9S420.8,399.3,420.8,406z"/>
		</g>
	</g>
	<g id="眼睛_8_">
		<g id="眼睛_9_">
			<linearGradient id="SVGID_3_" gradientUnits="userSpaceOnUse" x1="441.1923" y1="327.1581" x2="528.4354" y2="368.58">
				<stop  offset="0" style="stop-color:#AA5834;stop-opacity:0.6"/>
				<stop  offset="1" style="stop-color:#C87A4A;stop-opacity:0"/>
			</linearGradient>
			<path fill="url(#SVGID_3_)" d="M522.7,326.7c17.5,42.8,2.8,76.1-24.6,76.1s-47.7-28.8-50.6-44.6c-4-20.6,4.9-42.7,20.5-51.1
				C487.5,296.5,510.7,297.3,522.7,326.7z"/>
			<linearGradient id="SVGID_4_" gradientUnits="userSpaceOnUse" x1="235.0123" y1="334.1588" x2="295.4671" y2="365.2986">
				<stop  offset="0" style="stop-color:#AA5834"/>
				<stop  offset="1" style="stop-color:#C87A4A;stop-opacity:0"/>
			</linearGradient>
			<path fill="url(#SVGID_4_)" d="M302.6,326.7c20.7,41.4-1.1,75.1-24.6,76.1c-18.5,0.8-31.7-19.4-34.5-35.2
				c-4-20.6,0.4-34.5,11-48.8C262.4,308,289.7,300.7,302.6,326.7z"/>
			<g id="眼睛_50_">
				<radialGradient id="SVGID_5_" cx="279.6741" cy="358.1066" r="37.8513" gradientUnits="userSpaceOnUse">
					<stop  offset="0" style="stop-color:#4D4D4D"/>
					<stop  offset="1" style="stop-color:#1A1A1A"/>
				</radialGradient>
				<ellipse fill="url(#SVGID_5_)" stroke="#000000" stroke-miterlimit="10" cx="279.7" cy="358.1" rx="30" ry="44.3"/>
				
					<radialGradient id="SVGID_6_" cx="270.8748" cy="358.1066" r="28.178" gradientTransform="matrix(0.9851 0 0 1 12.8405 0)" gradientUnits="userSpaceOnUse">
					<stop  offset="0" style="stop-color:#333333"/>
					<stop  offset="1" style="stop-color:#000000"/>
				</radialGradient>
				<ellipse fill="url(#SVGID_6_)" cx="279.7" cy="358.1" rx="22" ry="33"/>
				
					<ellipse transform="matrix(0.3609 -0.9326 0.9326 0.3609 -148.5759 473.3994)" fill="#F2F2F2" cx="271.1" cy="345.1" rx="7" ry="5.7"/>
				<ellipse cx="279.7" cy="358.1" rx="8" ry="13"/>
				<path fill="#FFFFFF" d="M296.1,378.9c-1.4,2.5-3.6,4.4-4.3,3.6c-0.8-0.8,0.9-0.9,2.7-4.4c1.9-3.5,1.5-4.6,2.6-4.5
					C298.1,373.7,297.5,376.4,296.1,378.9z"/>
				<ellipse fill="#FFFFFF" cx="262.4" cy="359.7" rx="2.8" ry="4.1"/>
			</g>
			<g id="眼睛_49_">
				<radialGradient id="SVGID_7_" cx="500.6743" cy="358.1066" r="37.8513" gradientUnits="userSpaceOnUse">
					<stop  offset="0" style="stop-color:#4D4D4D"/>
					<stop  offset="1" style="stop-color:#1A1A1A"/>
				</radialGradient>
				<ellipse fill="url(#SVGID_7_)" stroke="#000000" stroke-miterlimit="10" cx="500.7" cy="358.1" rx="30" ry="44.3"/>
				
					<radialGradient id="SVGID_8_" cx="495.2221" cy="358.1066" r="28.178" gradientTransform="matrix(0.9851 0 0 1 12.8405 0)" gradientUnits="userSpaceOnUse">
					<stop  offset="0" style="stop-color:#333333"/>
					<stop  offset="1" style="stop-color:#000000"/>
				</radialGradient>
				<ellipse fill="url(#SVGID_8_)" cx="500.7" cy="358.1" rx="22" ry="33"/>
				
					<ellipse transform="matrix(0.3609 -0.9326 0.9326 0.3609 -7.3392 679.5034)" fill="#F2F2F2" cx="492.1" cy="345.1" rx="7" ry="5.7"/>
				<ellipse cx="500.7" cy="358.1" rx="8" ry="13"/>
				<path fill="#FFFFFF" d="M517.1,378.9c-1.4,2.5-3.6,4.4-4.3,3.6c-0.8-0.8,0.9-0.9,2.7-4.4c1.9-3.5,1.5-4.6,2.6-4.5
					C519.1,373.7,518.5,376.4,517.1,378.9z"/>
				<ellipse fill="#FFFFFF" cx="483.4" cy="359.7" rx="2.8" ry="4.1"/>
			</g>
		</g>
	</g>
	<g id="眼镜_5_">
		<g>
			<path fill="#143240" stroke="#000000" stroke-width="1.2241" stroke-miterlimit="10" d="M312.5,388.5h-65.3
				c-23.9,0-43.3-22.4-43.3-46.3v-43.4c0-4,3.2-7.2,7.2-7.2h137.5c4,0,7.2,3.2,7.2,7.2v43.4C355.8,366.1,336.4,388.5,312.5,388.5z"
				/>
			<path fill="#50C8FF" stroke="#000000" stroke-width="0.5" stroke-miterlimit="10" d="M306.8,380.8h-53.8
				c-22.7,0-41.1-18.4-41.1-41.1v-35.7c0-4,3.2-7.2,7.2-7.2h121.5c4,0,7.2,3.2,7.2,7.2v35.7C347.8,362.4,329.4,380.8,306.8,380.8z"
				/>
			<polygon fill="#FFFFFF" points="259.5,365.8 253.5,365.8 293.5,299.8 299.5,299.8 			"/>
			<polygon fill="#FFFFFF" points="236.5,365.2 230.5,365.2 270.5,299.2 276.5,299.2 			"/>
		</g>
		<g>
			<path fill="#143240" stroke="#000000" stroke-width="1.2241" stroke-miterlimit="10" d="M476.2,388.5h62.3
				c23.9,0,43.3-19.4,43.3-43.3v-46.4c0-4-3.2-7.2-7.2-7.2H437.1c-4,0-7.2,3.2-7.2,7.2v43.4C429.8,367.6,450.7,388.5,476.2,388.5z"
				/>
			<path fill="#50C8FF" stroke="#000000" stroke-width="0.5" stroke-miterlimit="10" d="M478.9,380.8h53.8
				c22.7,0,41.1-18.4,41.1-41.1v-35.7c0-4-3.2-7.2-7.2-7.2H445.1c-4,0-7.2,3.2-7.2,7.2v35.7C437.8,362.4,456.2,380.8,478.9,380.8z"
				/>
			<polygon fill="#FFFFFF" points="485.2,365.8 479.2,365.8 519.2,299.8 525.2,299.8 			"/>
			<polygon fill="#FFFFFF" points="462.2,365.2 456.2,365.2 496.2,299.2 502.2,299.2 			"/>
		</g>
		
			<rect x="355.7" y="315.2" fill="#143240" stroke="#000000" stroke-width="1.4235" stroke-miterlimit="10" width="74.2" height="18"/>
	</g>
	<g id="胡子_1_">
		<path fill="#FFFFFF" stroke="#000000" stroke-miterlimit="10" d="M479.6,501.2c-11.9,3.5-71.3,4.1-87,4.1c-15.7,0-75.1-1.6-87-5
			c-38.8-11.3-98.4-37-105.1-44.7c3.7,20.3,14.1,37,27.1,52.4c18.1,21.3,47.8,8.7,59.3,22c-2.2,30.2,32.2,25.1,60.9,31.5
			c29.5,6.2,34.5,13.8,44.8,29.3c10.3-15.4,15.3-23.1,44.8-29.3c28.7-6.5,63.1-1.4,60.9-31.5c11.4-13.3,41.2-0.6,59.3-22
			c13-15.3,23.9-33.6,27.6-53.9C578.5,461.7,518.4,489.9,479.6,501.2z"/>
		<g>
			<path fill="#E0DFD9" d="M281.7,520.4c-11.4-13.3-41.2-0.6-59.2-22c-4.3-5.1-8.3-10.3-11.8-15.7c4.7,8.7,10.6,16.9,17.2,24.6
				c15.7,18.6,40.3,11.4,53.9,18C281.5,523.8,281.5,522.1,281.7,520.4z"/>
			<path fill="#E0DFD9" d="M574.5,461.9c-5.3,14.1-13.2,25.7-22.8,37c-18.1,21.3-47.8,8.7-59.3,22c2.2,30.2-32.2,25.1-60.9,31.5
				c-29.5,6.2-31.6,13.4-41.9,28.8c-10.3-15.4-18.3-22.6-47.8-28.8c-20.5-4.6-43.2-3.7-54.1-13.6c5.2,19.8,34.3,16.4,59.6,22.1
				c29.5,6.2,34.9,13.5,45.2,29c10.3-15.4,14.8-22.3,44.3-28.5c28.7-6.5,63.1-1.4,60.9-31.5c11.4-13.3,41.2-0.6,59.3-22
				c13-15.3,23.6-31.7,27.2-52C583,457.3,579.4,459.1,574.5,461.9z"/>
		</g>
		<path fill="#FFFFFF" stroke="#000000" stroke-miterlimit="10" d="M487.2,459c14.4,4.7,12.9,22.4,1.5,24.3
			c-11.8,1.9-31.4-24.6-53.5-23.8c-15.2,0.6-35.7,9.4-41.1,11.9c-5.4-2.5-25.9-11.3-41.1-11.9c-22.1-0.9-41.8,25.6-53.5,23.8
			c-11.4-1.8-12.9-19.6,1.5-24.3c-19.7-4-27.1,25.8-3.2,38c22.8,11.7,70.6,12.7,96.4-2.2c25.8,14.9,73.5,13.9,96.4,2.2
			C514.3,484.8,507,455,487.2,459z"/>
		<path fill="#E0DFD9" d="M322.7,504.9c1.3,4.1,10.7,15.8,42.9,16.7c11.9,0.3,29.9-6.6,39.3-9c67.8,16.9,86.5-4.4,95.5-8.6
			c8.9-4.2,6.4-11.3,6.4-11.3s-16.6,8.5-42.6,11.8c-17.5,2.2-82.7,4.2-99.8,0.5C344.6,507.3,332.9,506.7,322.7,504.9z"/>
		<path fill="#E0DFD9" d="M379.5,466.1c8.6,8.4,3.4,36.5-42.9,39.1c17.7,0.3,38.6-0.4,57.4-11c12.7,8.4,42,13.3,65.1,10.2
			c22.2-1.8,37-8.5,42.2-17.7c5.8-7.5,6.4-27.5-12-27.5c14.2,2.6,16.1,15.5,11.1,25.2c-3.3,6.5-12.6,11-18.6,12.6
			c-15,3.9-37.4,4.9-45.8,3.8c-17.7-2.3-27.4-5.4-33.9-10.8c-9.3-7.7-8.1-17.9-8.1-17.9S381.9,466.4,379.5,466.1z"/>
	</g>
	<g id="头巾_1_">
		<path fill="#FF0000" stroke="#000000" stroke-miterlimit="10" d="M237.7,235.1c0,0,16.2,3,81.7,7.4c4.6,0.3,19.7-0.3,24.7,0
			c9.2,0.5,21.8-2.7,35.5-2.8c17.5-0.2,39.1,2.9,53.2,2.8c10.4,0,19.9,4.1,30.7,4.3c29.1,0.7,59.9,1.5,93.1-2.4
			c8.5,7.6,18.5,28.2,17.3,33.4c-1.1,5.2-53.7,6.8-72.4,8.1c-10.6,0.8-26.1,5.1-52.9,6.7c-26.2,1.6-59.1,1.9-74.1,1.9
			c-6.5,0-31.5-5.7-39.1-6.6c-30-3.2-54.3-6.4-61.6-7.1c-9.3-0.9-54.9-11.4-54.7-16.1C219.3,258.6,231.8,235.1,237.7,235.1z"/>
		<g>
			<path fill="#621700" d="M409.3,244.5l2.1,1.5c1.4,0.8,2.5,1.7,3.5,2.7c1.2,0.7,1.9,1.4,2.1,2.2c0.5,0.5,0.7,0.9,0.7,1.2l-0.7,1.2
				c-0.5,0.5-0.9,1.3-1.4,2.5c-0.2,0.5-0.6,1.2-1,2.2c-0.2,0.5-0.5,0.8-0.7,1c-0.7,1-1.3,2-1.7,3c0,0.2-0.2,0.6-0.7,1.2
				c-0.5,0.7-0.9,1.3-1.4,2l0.7,1c0.5,0.5,1.2,1.2,2.1,2c1.2,0.5,1.9,1.2,2.1,2c0.5,0.5,0.8,1.2,1,2c0.2,0.2,0.5,0.5,0.7,1
				c0.5,0.7,0.8,1.3,1,2l-0.3,0.5c-0.2,0.2-0.3,0.3-0.3,0.5c-0.2,0.3-0.3,0.6-0.3,0.7c0,0.2-0.1,0.3-0.3,0.5
				c-0.2,0.5-0.5,0.9-0.7,1.2h7l-0.7-3l0.3,0.2c0.5,0,0.8,0.5,1,1.5c0.2,0.3,0.7,0.8,1.4,1.5c0.2,0.3,0.5,0.6,0.7,0.7l0.3-1
				c0.5-0.8,0.8-2,1-3.5c0-0.2,0-0.4,0-0.7c0.5-1.3,0.6-2.2,0.3-2.7c0-0.2-0.1-0.4-0.3-0.7c0-0.5-0.1-0.8-0.3-1v-0.2
				c-0.5-0.8-1.3-1.6-2.4-2.5l-2.8-0.5v-0.5l2.1-0.2c1.4-0.2,2.5-0.2,3.5-0.2l1,0.5c0.7,0.2,1.5,0.5,2.4,1c1.2,0.2,1.9,0.5,2.1,1
				c0.5,0.3,0.9,0.7,1.4,1.2c0.5,0.3,0.8,1,1,2c0.2,0.7,0.3,1.2,0.3,1.5l-0.3,0.7c-0.2,0.2-0.3,0.9-0.3,2.2c0,1-0.2,2.1-0.7,3.5
				c-0.2,1-0.6,1.7-1,2.2c-0.2,0.2-0.3,0.5-0.3,1c-0.2,0.3-0.3,0.6-0.3,0.7c-0.2,0.7-0.7,1.5-1.4,2.5c-0.7,0.7-1,1.2-1,1.5l-0.3,0.7
				c-0.2,0.3-0.6,0.7-1,1.2c0,0.2-0.1,0.3-0.3,0.5c-0.5,0.5-0.8,0.9-1,1.2l-0.7,0.2h-0.3c-0.5,0.2-0.8,0.2-1,0.2l-0.7-0.7
				c-0.2-0.5-0.6-1-1-1.5c-0.2-0.5-0.2-1.2,0-2.2c0.5-1,0.3-2.3-0.3-3.9h-2.1c-0.5,0-1.2,0-2.1,0c-0.9-0.2-1.7-0.2-2.4-0.2
				c-1.6-0.3-2.9-0.3-3.8,0c-0.5,0-1.5,0.1-3.1,0.2c1.2-0.2,0.8-0.1-1,0.2c-1.9,0-3.4,0.2-4.5,0.5c-0.5,0-1.5,0.1-3.1,0.2
				c1.2-0.2,0.8-0.1-1,0.2c-1.6,0-2.9,0.2-3.8,0.7c-0.5,0.2-0.9,0.2-1.4,0.2c-0.5,0.2-0.9,0.3-1.4,0.5c-0.5,0-1.2,0.2-2.1,0.7
				c-0.2,0.2-0.5,0.2-0.7,0.2c-0.5,0.2-0.9,0.3-1.4,0.5c-0.7,0.3-1.3,0.6-1.7,0.7c-0.9,0.3-2,0.7-3.1,1.2c-0.7,0.3-1.9,0.7-3.5,1.2
				l-1.4-1l-0.7,1l-1.4-0.5c-0.2-0.2-0.6-0.3-1-0.5c-0.2-0.2-0.6-0.3-1-0.5c-0.2-0.2-0.8-0.5-1.7-1c-0.9-0.3-1.7-0.7-2.4-1l-0.3-1
				c-0.2-0.3-0.3-0.8-0.3-1.5c-0.2-0.7-0.3-1.1-0.3-1.5c0-0.3-0.1-0.8-0.3-1.5c0-0.5-0.1-1-0.3-1.5l-0.3-1.2c0-0.3,0.1-0.6,0.3-0.7
				c0.2-0.2,0.3-0.6,0.3-1.2c0.2-0.3,0.3-0.7,0.3-1c0-0.3,0.1-0.8,0.3-1.5c0-0.3,0.1-0.7,0.3-1.2c0-0.2,0.1-0.4,0.3-0.7
				c0-0.5,0.1-0.8,0.3-1c0-0.2,0.1-0.4,0.3-0.7c0-0.2,0.1-0.3,0.3-0.5c0.2-0.2,0.5-0.4,0.7-0.7c0-0.2,0.1-0.3,0.3-0.5
				c0.5-0.5,1-1.1,1.7-2c0.5-1,1.7-1.7,3.8-2.2l1.4,0.5c0.9,0.2,1.9,0.5,2.8,1v0.5l-1.4,0.5l1,0.5c0.7,0.2,1.5,0.4,2.4,0.7
				c0.9,0,1.9,0.2,2.8,0.7v1l-1.7-0.5c-0.7-0.5-2.9-0.8-6.6-1l-0.3,1c-0.2,0.5-0.2,1.4,0,2.7c0.2,1,0.3,1.6,0.3,2l-0.3,0.7
				c-0.2,0.3-0.6,0.7-1,1.2c0,0.2-0.1,0.3-0.3,0.5c-0.2,0-0.6,0.5-1,1.5c-0.2,0.7-0.6,1.5-1,2.5c-0.2,0.7-0.3,1.6-0.3,2.7l1,0.2
				c0.7,0,1.9-0.1,3.5-0.2c1.6-0.5,3.1-0.7,4.5-0.7c1.4-0.3,2.7-0.6,3.8-0.7c1.2-0.5,2.4-0.8,3.8-1c1.4-0.5,2.8-0.8,4.2-1
				c1.4-0.5,2.7-0.7,3.8-0.7c1.2-0.3,2.4-0.5,3.8-0.5c0.7-0.2,1.5-0.2,2.4-0.2c0.5,0,2.1,0,4.9,0l-1.4-1c-0.7-0.8-1.4-1.6-2.1-2.2
				c-0.7-1-1.2-1.6-1.4-1.7c-0.2-0.3-0.8-0.8-1.7-1.5l-0.7,0.2c-0.5,0-1,0.3-1.7,1c-0.7,0.5-1.3,1.1-1.7,1.7c-0.5,0.5-1,1-1.7,1.5
				c-0.7,0.3-1.3,0.7-1.7,1.2c-0.2,0.3-0.7,0.7-1.4,1c0.7-0.3,0.5-0.2-0.7,0.2c-0.2,0-0.6,0.1-1,0.2c-0.5,0.2-0.8,0.2-1,0.2l-2.1-1
				h-1.7c-0.9,0-2-0.2-3.1-0.5l-0.3-0.7c-0.2-0.5-0.6-0.9-1-1.2c-0.2-0.5-0.6-0.8-1-1c-0.2-0.3-0.3-0.8-0.3-1.5l1.7,0.5
				c0.2,0,0.6,0.1,1,0.2c0.5,0.2,0.8,0.2,1,0.2h0.7c0.5-0.2,0.9-0.2,1.4-0.2c1.2-0.3,2.1-0.6,2.8-0.7c0.7-0.5,1.4-1,2.1-1.5
				c0.2-0.2,0.6-0.4,1-0.7c0.2-0.5,0.5-0.8,0.7-1c0-0.2,0.2-0.5,0.7-1c0.5-0.3,0.7-0.6,0.7-0.7c0.2-0.7,1.2-1.6,2.8-3l-0.7-0.7
				c-0.2-0.5-0.9-0.9-2.1-1.2c-0.9-0.5-2.1-0.8-3.5-1v-1l-1.4-0.7c-0.5-0.2-0.9-0.5-1.4-1c-0.7-0.3-1.3-0.6-1.7-0.7
				c-0.7-0.5-1.9-1.1-3.5-2c0.2,0.2-0.1,0-1-0.5l-3.5,2.5l0.7-2l-2.1,1.5l0.7-1.5l-0.7-1l1.4-0.5c0.9-0.5,1.7-0.8,2.4-1
				c0.7-0.5,1.6-0.7,2.8-0.7c1.2-0.2,2.1-0.2,2.8-0.2c0.7,0,1.7,0.1,3.1,0.2c1.4,0,2.4,0.2,3.1,0.7c0.7,0.3,1.6,0.7,2.8,1.2
				c0.2,0.2,0.6,0.3,1,0.5c0.9,0.3,1.5,0.6,1.7,0.7c0.5,0,1.5,0.7,3.1,2l1.4-1.5v-1l1.4-0.5l-0.7-1l0.3-0.2c0.5-0.3,0.8-0.8,1-1.5
				c0-0.3,0.1-0.7,0.3-1.2c0.5-0.8,0.8-1.6,1-2.5l-0.7-0.5c0-0.2-0.2-0.4-0.7-0.7c-0.5-0.3-0.7-0.6-0.7-0.7
				c-0.2-0.3-0.5-0.7-0.7-1.2c-0.2-0.5-0.5-0.9-0.7-1.2l0.7-1H409.3z"/>
		</g>
	</g>
	<g id="头发_3_">
		<path fill="#FF96BE" stroke="#000000" stroke-width="1.4173" stroke-miterlimit="10" d="M364.8,196.7
			c-26.6-6.4-37.6-38.8-23.1-58.7c-3.2,16.8,9.8,36.2,37.8,33.6"/>
		<path fill="#D264D2" d="M340.5,141.2c0,0-1.2,8.3,0.4,14.6c2.3,8.7,10.2,15.5,10.2,15.5s-6.1,0.6-8.9-2.4c0.3,0.6,4.9,4.7,5.9,5.3
			c12.1,7.9,23.3,8.5,23.3,8.5s-8.9,1.1-14.9-0.6c6.7,4.3,21.7,4.9,21.7,4.9s-4.8,2.7-9.9,1.4c6.3,2.5,15.9,3.4,22.8,1.7l-14.4-17.4
			C371.2,173.3,340.9,171.3,340.5,141.2z"/>
		<path fill="#FF96BE" stroke="#000000" stroke-width="1.4173" stroke-miterlimit="10" d="M445.2,180.1c-16.5-4.2-20.3-24.4-6-27.6
			c-14.9-3.3-21.7,16.3-17.7,21.8c-13.6-1-48-22.5-40.8-55.3c-13,15.5-24.8,68.8,30.3,77.7"/>
		<path fill="#D264D2" d="M400.3,184.9c-23.7-12-27.2-38.2-20.8-62.1c-4.5,32.1,32,54.1,47.5,53.1c-4-5.5-4.3-18,8.8-23
			c-10.9,5.4-7.1,23.8,9.3,28c0,0-7.1,0.9-18.1-5c0,1.1,15.7,9,15.7,9l-21.8-8.9l20.7,13.1l-15-3l6.8,5l-17.1-6.9l22.3,14.4
			L400.3,184.9z"/>
	</g>
</g>
</svg>