<?xml version="1.0" standalone="no"?><!DOCTYPE svg PUBLIC "-//W3C//DTD SVG 1.1//EN" "http://www.w3.org/Graphics/SVG/1.1/DTD/svg11.dtd"><svg t="1514013437709" class="icon" style="" viewBox="0 0 1024 1024" version="1.1" xmlns="http://www.w3.org/2000/svg" p-id="5618" xmlns:xlink="http://www.w3.org/1999/xlink" width="32" height="32"><defs><style type="text/css"></style></defs><path d="M960 381.952s0-0.512 0 0c0-15.872-2.048-30.208-6.656-44.032l-40.448-272.896H111.104l-38.912 268.8c-5.12 14.848-7.68 31.232-7.68 47.616v5.632l-1.024 7.168h1.536c6.144 75.776 70.656 137.216 148.992 137.216s142.336-61.44 148.48-137.216h1.024c6.144 75.776 70.656 137.216 148.992 137.216S655.36 470.528 661.504 394.24h1.024c6.144 75.776 70.656 137.216 148.992 137.216s142.848-60.928 148.992-137.216h2.048l-2.56-12.288zM811.008 732.16H212.992v-143.36H143.872v280.576c0 22.016 8.704 42.496 24.576 58.368 15.872 15.36 36.352 24.064 57.856 24.064h573.952c22.016 0 43.008-8.704 57.856-25.088 14.336-15.36 22.528-35.84 22.528-57.344V588.8h-70.144l0.512 143.36z" fill="#799AC9" p-id="5619"></path></svg>