<?xml version="1.0" standalone="no"?><!DOCTYPE svg PUBLIC "-//W3C//DTD SVG 1.1//EN" "http://www.w3.org/Graphics/SVG/1.1/DTD/svg11.dtd"><svg t="1514013425492" class="icon" style="" viewBox="0 0 1024 1024" version="1.1" xmlns="http://www.w3.org/2000/svg" p-id="5365" xmlns:xlink="http://www.w3.org/1999/xlink" width="32" height="32"><defs><style type="text/css"></style></defs><path fill="#799AC9" d="M1024,301.9c0,77.2-58.5,140.5-133,147c19.6,69.1,11.3,147.8,11.3,147.8s48.6,42.2,48.6,120.9
	c0,68.6-87.4,240.4-438.8,240.4S65.6,788.9,65.6,717.6c0-72,53.1-120.9,53.1-120.9s-4.8-77.4,8.1-147.8C55.2,439.5,0,376.9,0,301.9
	c0-81.5,65.2-147.6,145.7-147.6c60.2,0,111.9,37,134.1,89.8c33.8-20.3,61.7-34.5,110.5-48.6c-25.3-21.4-16.7-78,33.3-103.3
	c-22.9,25.3,10.4,84.3,47.2,84c-18-25-24.3-138.8,108.9-109.3c-66.6,0-72.8,99.1-18.7,111.7c-22.9-46.4,39.5-73.8,58.3-25.3
	c-35.4-33.7-43.7,25.3,0.3,40.3c29.5,10.7,81,29.2,122.8,55.3c21-55.3,74-94.6,136-94.6C958.8,154.3,1024,220.4,1024,301.9z
	 M512,932c160.9,0,286.9-85,286.9-189.8c0-56.3-37.6-106.8-97.4-141.6c29.7-9.2,57.5-37.2,71.4-75.9c20.6-57.3,2.9-116.4-39.5-132
	c-42.4-15.6-93.4,18.1-114,75.4c-13.1,36.5-10.7,70.3,3.7,96.5c-35.5-10-70.1-12.2-111.2-12.2c-36.2,0-75.4,4.3-107.4,12.2
	c12.8-26,14.5-61.6,2-96.5c-20.6-57.3-71.6-91-114-75.4c-42.4,15.6-60.1,74.7-39.5,132c12.8,35.8,37.6,64.8,64.6,75.9
	c-62.2,34.8-101.6,84-101.6,141.6C216.1,847,351.1,932,512,932z M387.1,669.9c0,34.9,88.5,80.1,124.9,80.1s124.9-45.2,124.9-80.1
	S581,606.6,512,606.6S387.1,634.9,387.1,669.9z M724.3,422.8c-20.4-7.6-43.4,0.1-61.5,17.9c5.4-2.7,9.8-3.9,14.6-0.7
	c6.2,4.2,7.1,15.2,0,29.5c-6.2,12.7-16.8,17.5-25,14.8c-6.2-2.1-10.4-8.4-9.6-15.2c-1.8,3.6-3.3,7.4-4.7,11.4
	c-15.6,43.8-2.2,89,29.9,101c32.1,12,70.6-13.9,86.2-57.7C769.8,480,756.4,434.8,724.3,422.8z M311.6,421.4
	c-21.5,5.6-36.3,25.1-41.1,50c3-5.3,6-8.8,11.8-9c7.7-0.2,14.7,8.2,17.1,24c2.1,13.9-4,23.9-12.4,26.4c-6.5,1.9-13.6-0.9-16.9-6.8
	c0.6,4,1.5,8,2.6,12c12.4,44.6,49.8,73.6,83.6,64.8s51.2-52,38.9-96.5C382.9,441.7,345.5,412.7,311.6,421.4z"/></svg>