<?xml version="1.0" standalone="no"?><!DOCTYPE svg PUBLIC "-//W3C//DTD SVG 1.1//EN" "http://www.w3.org/Graphics/SVG/1.1/DTD/svg11.dtd"><svg t="1511270354477" class="icon" style="" viewBox="0 0 1024 1024" version="1.1" xmlns="http://www.w3.org/2000/svg" p-id="2074" xmlns:xlink="http://www.w3.org/1999/xlink" width="128" height="128"><defs><style type="text/css"></style></defs><path d="M356.438 884.356h7.2l1.98-6.21 5.76 1.8-1.44 4.41h26.639v6.12h-28.529l-2.43 7.919h10.259v-6.839h6.12v6.839h14.489v6.12h-14.489v6.029h14.579v6.12h-14.579v6.66h-6.12v-6.66h-19.439v-6.12h19.439v-6.029h-18.539l4.41-14.039h-5.31v-6.12z m14.759 76.137c-5.31 0-9.629-4.409-9.629-9.63v-14.579c0-5.31 4.32-9.72 9.629-9.72h52.918c5.31 0 9.72 4.41 9.72 9.72v14.579c0 5.221-4.41 9.63-9.72 9.63h-52.918z m-3.509-20.069h60.027v-4.14c0-1.979-1.62-3.6-3.6-3.6h-52.918c-1.98 0-3.51 1.62-3.51 3.6v4.14z m56.427 13.95c1.98 0 3.6-1.53 3.6-3.511v-4.319h-60.027v4.319c0 1.98 1.53 3.511 3.51 3.511h52.917z m13.77-68.937h-25.019c-2.88 0-5.13 2.34-5.22 5.22l-0.18 4.77h30.958v6.12h-6.12v23.219h-6.12v-23.219h-18.899l-0.72 22.409-6.12-0.09 1.08-33.389c0.09-6.21 5.04-11.16 11.34-11.16h25.019v6.12zM453.098 881.026h69.387v6.12h-32.218c-0.54 8.01-1.53 15.119-3.06 21.509h38.698v6.12h-27.179v34.469c0 2.88 2.34 5.22 5.22 5.22h24.299v6.119h-24.299c-6.209 0-11.339-5.13-11.339-11.339v-34.469h-7.02c-6.3 21.329-18.179 34.648-35.549 46.168l-3.33-5.13c15.569-10.35 26.369-22.229 32.398-41.038h-29.429v-6.12h31.139c1.62-6.39 2.7-13.499 3.33-21.509h-31.049v-6.12zM554.887 922.604l-1.62 4.5h25.92v6.12h-4.86c-1.439 6.84-4.949 12.239-10.08 16.469l12.78 5.311-2.25 5.579-16.649-6.93c-5.67 3.15-12.689 5.311-20.52 6.75l-1.08-5.939c5.13-0.99 9.81-2.16 13.95-3.87l-1.351-0.63c-4.409-1.8-6.39-5.13-6.39-9.359 0-1.8 0.36-3.42 0.99-5.22l0.72-2.16h-7.83v-6.12h10.08l2.34-6.479 5.85 1.978z m5.58-44.187v17.279h17.819v6.119h-17.819v19.35h-6.12v-19.35h-17.729v-6.119h17.729v-17.279h6.12z m-22.86 39.958l5.4-16.02 5.85 1.98-5.4 16.02-5.85-1.98z m5.76-38.969l5.4 12.78-5.67 2.34-5.4-12.78 5.67-2.34z m8.1 64.888l6.03 2.61c5.13-3.42 8.819-7.92 10.439-13.68h-16.92l-1.529 4.14c-0.45 1.17-0.63 2.34-0.63 3.24 0 1.621 0.81 2.97 2.61 3.69z m19.979-23.939l-5.399-16.02 5.76-1.98 5.399 16.02-5.76 1.98z m5.67-38.609l-5.31 12.78-5.67-2.34 5.399-12.78 5.581 2.34z m11.07 20.699l11.7 21.239c3.149-8.369 5.939-18.269 8.189-30.148h-25.649l2.34-15.029 6.12 0.99-1.17 7.919h27.809v6.12h-3.33c-2.789 14.939-6.39 26.999-10.619 36.988l14.85 26.819-5.22 3.06-12.78-23.039c-4.77 9.54-10.169 16.829-15.929 23.129l-4.41-4.14c6.12-6.569 11.88-14.669 16.739-25.469l-13.949-25.379 5.309-3.06zM629.138 954.554h4.68c2.79 0 4.949-2.25 4.949-5.22v-17.279l-9.539 5.399-2.97-5.31 12.509-7.109v-28.35h-11.159v-6.119h11.159v-11.88h6.12v11.88h6.93v6.119h-6.93v24.84l7.29-4.141 2.97 5.311-10.26 5.85v20.789c0 6.21-4.95 11.34-11.069 11.34h-4.68v-6.12z m25.108 6.12l2.34-71.548c0.271-5.22 4.5-9.629 9.72-9.629h32.669c5.22 0 9.63 4.229 9.63 9.719v6.03c0 5.31-4.41 9.63-9.63 9.63h-36.719l-1.89 55.978-6.12-0.18z m8.19-61.918h36.539c1.979 0 3.51-1.53 3.51-3.51v-6.03c0-2.069-1.53-3.6-3.51-3.6h-32.669c-1.979 0-3.51 1.62-3.51 3.6l-0.36 9.54z m28.168 8.01v9.539h18v6.12h-18v9.27h8.37c4.409 0 8.1 3.69 8.1 8.1v12.96c0 4.409-3.69 8.01-8.1 8.01h-22.949c-4.41 0-8.1-3.601-8.1-8.01v-12.96c0-4.409 3.689-8.1 8.1-8.1h8.46v-9.27h-18.09v-6.12h18.09v-9.539h6.119z m10.35 33.028c0-1.08-0.899-1.89-1.979-1.89h-22.949c-1.08 0-1.89 0.81-1.89 1.89v12.96c0 1.08 0.81 1.89 1.89 1.89h22.949c1.08 0 1.979-0.81 1.979-1.89v-12.96z" fill="#A0A0A0" p-id="2075"></path><path d="M371.355 677.232c-10.326 0-18.877-8.092-18.877-18.213V224.217c0-10.117 8.556-18.213 18.877-18.213h337.152c10.321 0 18.876 8.093 18.876 18.213v346.918c0 1.734 0 1.734-17.404 19.08l-89.082 87.018H371.355v-0.001z" fill="#F7F8F9" p-id="2076"></path><path d="M698.3 189.807c8.148 0 14.787 6.509 14.787 14.198V558.93L606.861 663.041H353.365c-8.149 0-14.789-6.508-14.789-14.195V204.299c0-7.984 6.64-14.195 14.789-14.195H698.3v-0.297m0-8.872H353.365c-12.977 0-23.843 10.352-23.843 23.07v444.544c0 12.719 10.561 23.07 23.843 23.07H610.18l2.717-2.66 53.113-52.055 36.517-35.789 12.07-11.834c6.64-6.504 7.244-7.098 7.244-10.646V203.708c0.297-12.127-10.567-22.773-23.541-22.773z" fill="#B4B3B3" p-id="2077"></path><path d="M649.783 261.17H431.964c-3.112 0-5.658 2.494-5.658 5.547v2.773c0 3.05 2.546 5.543 5.658 5.543h217.819c3.112 0 5.657-2.494 5.657-5.543v-2.773c0-3.05-2.544-5.547-5.657-5.547z m0 94.267H431.964c-3.112 0-5.658 2.494-5.658 5.543v2.773c0 3.049 2.546 5.542 5.658 5.542h217.819c3.112 0 5.657-2.493 5.657-5.542v-2.773c0-3.049-2.544-5.543-5.657-5.543z" fill="#B4B3B3" p-id="2078"></path><path d="M610.485 669.857V561.533h110.841L610.485 669.857z" fill="#F7F8F9" p-id="2079"></path><path d="M610.481 674.08a4.285 4.285 0 0 1-1.651-0.326 4.22 4.22 0 0 1-2.658-3.896V561.529c0-2.334 1.928-4.223 4.31-4.223h110.845c1.744 0 3.317 1.027 3.98 2.607a4.17 4.17 0 0 1-0.939 4.605L613.522 672.846a4.33 4.33 0 0 1-3.041 1.234z m4.314-108.324v93.924l96.107-93.924h-96.107zM462.423 461.878c0 7.78 4.234 14.971 11.109 18.857a22.582 22.582 0 0 0 22.217 0c6.875-3.89 11.109-11.077 11.109-18.857 0-7.779-4.234-14.97-11.109-18.858a22.592 22.592 0 0 0-22.217 0c-6.875 3.892-11.109 11.079-11.109 18.858z m111.154 0c0 7.78 4.234 14.971 11.108 18.857a22.582 22.582 0 0 0 22.217 0c6.874-3.89 11.109-11.077 11.109-18.857 0-7.779-4.235-14.97-11.109-18.858a22.592 22.592 0 0 0-22.217 0c-6.873 3.892-11.108 11.079-11.108 18.858z m-33.159 57.72h-0.216c-11.295 0.061-22.694 4.947-34.843 14.943a5.021 5.021 0 0 0-0.641 7.168 5.262 5.262 0 0 0 7.313 0.625c20.268-16.668 36.617-16.67 56.434-0.01a5.261 5.261 0 0 0 7.317-0.549 5.017 5.017 0 0 0-0.559-7.174c-12.002-10.091-23.39-15.003-34.805-15.003M823.044 726.861H245.592c-2.378 0-4.31-1.891-4.31-4.225s1.931-4.223 4.31-4.223h577.452c2.382 0 4.31 1.889 4.31 4.223s-1.928 4.225-4.31 4.225z m136.01 0H844.128c-2.382 0-4.309-1.891-4.309-4.225s1.927-4.223 4.309-4.223h114.926c2.381 0 4.304 1.889 4.304 4.223s-1.923 4.225-4.304 4.225z m-733.349 0h-86.192c-2.378 0-4.31-1.891-4.31-4.225s1.931-4.223 4.31-4.223h86.192c2.378 0 4.309 1.889 4.309 4.223s-1.931 4.225-4.309 4.225z m549.463 38.953H344.213c-2.381 0-4.31-1.889-4.31-4.223 0-2.332 1.928-4.223 4.31-4.223h430.955c2.382 0 4.311 1.891 4.311 4.223 0 2.335-1.929 4.223-4.311 4.223z m-451.293 0h-57.459c-2.378 0-4.31-1.889-4.31-4.223 0-2.332 1.932-4.223 4.31-4.223h57.459c2.382 0 4.31 1.891 4.31 4.223 0 2.335-1.928 4.223-4.31 4.223z m-204.47-38.953H76.309c-2.378 0-4.31-1.891-4.31-4.225s1.931-4.223 4.31-4.223h43.096c2.378 0 4.309 1.889 4.309 4.223s-1.931 4.225-4.309 4.225z" fill="#B4B3B3" p-id="2080"></path><path d="M159.139 611.414c0 8.551 4.654 16.453 12.21 20.727a24.842 24.842 0 0 0 24.42 0c7.556-4.273 12.21-12.176 12.21-20.727 0-8.553-4.654-16.453-12.21-20.73a24.852 24.852 0 0 0-24.42 0c-7.556 4.277-12.21 12.177-12.21 20.73z" fill="#FFFFFF" p-id="2081"></path><path d="M183.559 639.572c-15.843 0-28.729-12.633-28.729-28.158 0-15.527 12.89-28.16 28.729-28.16 15.84 0 28.73 12.633 28.73 28.16 0 15.525-12.887 28.158-28.73 28.158z m0-47.871c-11.089 0-20.111 8.84-20.111 19.713 0 10.869 9.021 19.711 20.111 19.711s20.112-8.842 20.112-19.711c-0.001-10.873-9.022-19.713-20.112-19.713z" fill="#B4B3B3" p-id="2082"></path><path d="M159.139 194.668c0 10.886 9.004 19.712 20.111 19.712 11.107 0 20.111-8.826 20.111-19.712 0-7.043-3.833-13.551-10.056-17.072a20.463 20.463 0 0 0-20.11 0c-6.223 3.521-10.056 10.029-10.056 17.072z" fill="#FFFFFF" p-id="2083"></path><path d="M179.25 218.603c-13.465 0-24.42-10.735-24.42-23.935 0-13.196 10.956-23.937 24.42-23.937 13.464 0 24.42 10.736 24.42 23.937 0 13.2-10.956 23.935-24.42 23.935z m0-39.425c-8.712 0-15.802 6.949-15.802 15.49 0 8.54 7.09 15.488 15.802 15.488 8.711 0 15.801-6.948 15.801-15.488 0-8.541-7.09-15.49-15.801-15.49z" fill="#B4B3B3" p-id="2084"></path><path d="M621.699 71.708c0 10.886 9.003 19.712 20.11 19.712 11.106 0 20.11-8.826 20.11-19.712 0-10.887-9.004-19.712-20.11-19.712-11.107 0-20.11 8.825-20.11 19.712z" fill="#FFFFFF" p-id="2085"></path><path d="M641.81 95.644c-13.465 0-24.42-10.736-24.42-23.936s10.955-23.937 24.42-23.937c13.464 0 24.42 10.736 24.42 23.937-0.001 13.2-10.953 23.936-24.42 23.936z m0-39.421c-8.712 0-15.803 6.949-15.803 15.489 0 8.54 7.091 15.488 15.803 15.488s15.802-6.949 15.802-15.488c-0.001-8.54-7.088-15.489-15.802-15.489z" fill="#B4B3B3" p-id="2086"></path><path d="M244.127 231.274c-0.001 4.444 2.417 8.552 6.345 10.775a12.917 12.917 0 0 0 12.695 0c3.927-2.223 6.347-6.331 6.345-10.775 0.002-4.445-2.418-8.553-6.345-10.775a12.917 12.917 0 0 0-12.695 0c-3.927 2.222-6.346 6.33-6.345 10.775z" fill="#FFFFFF" p-id="2087"></path><path d="M256.82 245.827c-8.186 0-14.847-6.527-14.847-14.553s6.661-14.554 14.847-14.554 14.848 6.528 14.848 14.554-6.658 14.553-14.848 14.553z m0-24.883c-5.812 0-10.539 4.634-10.539 10.33s4.727 10.33 10.539 10.33c5.812 0 10.538-4.634 10.538-10.33s-4.726-10.33-10.538-10.33zM730.63 620.676c-0.001 4.445 2.417 8.553 6.347 10.775 3.927 2.223 8.766 2.223 12.693 0s6.347-6.33 6.347-10.775c0-4.443-2.419-8.553-6.347-10.775s-8.767-2.223-12.693 0c-3.93 2.222-6.348 6.331-6.347 10.775z" fill="#B4B3B3" p-id="2088"></path><path d="M419.387 60.917c-0.001 4.445 2.418 8.552 6.345 10.775a12.917 12.917 0 0 0 12.695 0c3.928-2.223 6.347-6.331 6.345-10.775 0.002-4.445-2.417-8.553-6.345-10.775a12.917 12.917 0 0 0-12.695 0c-3.927 2.221-6.346 6.33-6.345 10.775z" fill="#FFFFFF" p-id="2089"></path><path d="M432.075 75.465c-8.186 0-14.847-6.527-14.847-14.552 0-8.026 6.662-14.55 14.847-14.55 8.187 0 14.848 6.527 14.848 14.553s-6.657 14.549-14.848 14.549z m0-24.879c-5.811 0-10.538 4.634-10.538 10.33s4.727 10.329 10.538 10.329c5.813 0 10.539-4.634 10.539-10.329 0-5.696-4.726-10.33-10.539-10.33z" fill="#B4B3B3" p-id="2090"></path><path d="M798.628 348.131c-0.002 4.444 2.417 8.552 6.346 10.774a12.915 12.915 0 0 0 12.694 0c3.927-2.223 6.347-6.33 6.346-10.774 0.001-4.446-2.419-8.554-6.346-10.776a12.915 12.915 0 0 0-12.694 0c-3.929 2.223-6.348 6.33-6.346 10.776z" fill="#FFFFFF" p-id="2091"></path><path d="M811.32 362.684c-8.186 0-14.847-6.527-14.847-14.552 0-8.026 6.661-14.554 14.847-14.554 8.187 0 14.848 6.527 14.848 14.554 0 8.024-6.661 14.552-14.848 14.552z m0-24.879c-5.811 0-10.538 4.633-10.538 10.33 0 5.696 4.728 10.33 10.538 10.33 5.812 0 10.538-4.634 10.538-10.33 0-5.697-4.726-10.33-10.538-10.33zM881.938 599.559c0 3.521 1.918 6.775 5.029 8.535s6.944 1.76 10.057 0 5.029-5.014 5.029-8.535-1.917-6.775-5.029-8.535a10.228 10.228 0 0 0-10.057 0c-3.111 1.759-5.029 5.013-5.029 8.535z" fill="#B4B3B3" p-id="2092"></path><path d="M494.373 102.313c0 3.774 2.055 7.261 5.389 9.148a10.96 10.96 0 0 0 10.777 0c3.335-1.887 5.389-5.375 5.389-9.148 0-3.774-2.054-7.262-5.389-9.149a10.966 10.966 0 0 0-10.777 0c-3.334 1.887-5.389 5.375-5.389 9.149z" fill="#FFFFFF" p-id="2093"></path><path d="M505.15 114.987c-7.13 0-12.932-5.685-12.932-12.674 0-6.99 5.805-12.674 12.932-12.674s12.932 5.685 12.932 12.674-5.801 12.674-12.932 12.674z m0-21.125c-4.753 0-8.622 3.792-8.622 8.451 0 4.659 3.869 8.451 8.622 8.451s8.622-3.792 8.622-8.451c0-4.66-3.869-8.451-8.622-8.451z" fill="#B4B3B3" p-id="2094"></path><path d="M912.822 472.149c0 2.514 1.369 4.838 3.593 6.095a7.31 7.31 0 0 0 7.184 0c2.222-1.257 3.592-3.581 3.592-6.095 0-2.515-1.37-4.839-3.592-6.096a7.31 7.31 0 0 0-7.184 0c-2.224 1.257-3.593 3.581-3.593 6.096z" fill="#FFFFFF" p-id="2095"></path><path d="M920.006 480.595c-4.753 0-8.618-3.791-8.618-8.446 0-4.656 3.865-8.447 8.618-8.447s8.619 3.791 8.619 8.447c0 4.655-3.866 8.446-8.619 8.446z m0-14.079c-3.169 0-5.744 2.526-5.744 5.633 0 3.105 2.575 5.632 5.744 5.632s5.744-2.526 5.744-5.632c0-3.107-2.575-5.633-5.744-5.633z" fill="#B4B3B3" p-id="2096"></path><path d="M55.228 539.609c0 3.887 3.216 7.037 7.184 7.037 3.967 0 7.183-3.15 7.183-7.037s-3.216-7.039-7.183-7.039c-3.968 0-7.184 3.153-7.184 7.039z" fill="#FFFFFF" p-id="2097"></path><path d="M62.412 548.057c-4.753 0-8.619-3.791-8.619-8.447s3.865-8.449 8.619-8.449c4.752 0 8.619 3.793 8.619 8.449s-3.867 8.447-8.619 8.447z m0-14.08c-3.168 0-5.745 2.527-5.745 5.633 0 3.104 2.58 5.633 5.745 5.633s5.745-2.529 5.745-5.633c0.003-3.106-2.577-5.633-5.745-5.633z" fill="#B4B3B3" p-id="2098"></path><path d="M110.294 317.158c0 3.886 3.216 7.037 7.183 7.037 3.967 0 7.184-3.151 7.184-7.037 0-3.888-3.216-7.039-7.184-7.039-3.966 0-7.183 3.151-7.183 7.039z" fill="#FFFFFF" p-id="2099"></path><path d="M117.478 325.604c-4.753 0-8.619-3.791-8.619-8.446 0-4.657 3.866-8.448 8.619-8.448s8.619 3.792 8.619 8.448c-0.001 4.655-3.867 8.446-8.619 8.446z m0-14.08c-3.168 0-5.745 2.527-5.745 5.633 0 3.104 2.58 5.632 5.745 5.632 3.169 0 5.744-2.528 5.744-5.632 0-3.105-2.576-5.633-5.744-5.633zM330.983 118.417h-28.73c-1.588 0-2.874-1.26-2.874-2.814 0-1.555 1.286-2.814 2.874-2.814h28.73c1.588 0 2.875 1.259 2.875 2.814 0 1.553-1.291 2.814-2.875 2.814z" fill="#B4B3B3" p-id="2100"></path><path d="M316.39 134.576a2.842 2.842 0 0 1-2.874-2.814V99.894c0-1.555 1.287-2.815 2.875-2.815s2.874 1.26 2.874 2.815v31.869a2.853 2.853 0 0 1-2.875 2.813zM810.102 231.274h-33.117a2.852 2.852 0 0 1-2.021-0.812 2.849 2.849 0 0 1-0.854-2.002c0-1.556 1.286-2.815 2.874-2.815h33.117c1.588 0 2.875 1.259 2.875 2.815a2.846 2.846 0 0 1-2.874 2.814z" fill="#B4B3B3" p-id="2101"></path><path d="M793.277 247.43a2.847 2.847 0 0 1-2.874-2.815v-31.868c0-1.554 1.286-2.815 2.873-2.815 1.589 0 2.875 1.261 2.875 2.815v31.868a2.845 2.845 0 0 1-2.874 2.815zM268.533 507.227h-33.121a2.837 2.837 0 0 1-2.02-0.813 2.836 2.836 0 0 1-0.854-2.004c0-1.551 1.286-2.812 2.874-2.812h33.121c1.587 0 2.875 1.261 2.875 2.812a2.849 2.849 0 0 1-2.875 2.817z" fill="#B4B3B3" p-id="2102"></path><path d="M251.709 523.383a2.844 2.844 0 0 1-2.874-2.817V488.7c0-1.555 1.286-2.815 2.874-2.815 1.589 0 2.875 1.261 2.875 2.815v31.866a2.844 2.844 0 0 1-2.875 2.817z" fill="#B4B3B3" p-id="2103"></path></svg>