<?xml version="1.0" encoding="utf-8"?>
<svg version="1.0" id="layer_1" xmlns="http://www.w3.org/2000/svg" xmlns:xlink="http://www.w3.org/1999/xlink" x="0px" y="0px" viewBox="0 0 800 800" enable-background="new 0 0 800 800" xml:space="preserve">
<g id="_x31__2_">
	<g id="身体_18_">
		<path fill="#C87A4A" stroke="#000000" stroke-width="1.4173" stroke-miterlimit="10" d="M291.3,599.9c0.9-16.5,4-26.1,6.4-31.4
			C293.8,577.2,292.1,589,291.3,599.9l-0.4,14.5c0,9.2,0.5,24.7,0.5,24.7l13.1,58.4l71.6,1.9l9.4-39.9c0,0,3.8,0.4,6.6,0.4
			c2.8,0,6.6-0.4,6.6-0.4l9.4,39.9l71.6-1.9l13.1-58.4c0,0,0.5-15.2,0.5-24.1c0,0-0.2-33.1-6.8-46.5c2.1,3.2,5.8,16.1,6.5,34.5
			l0.4,12c3.6,39.4,49.8,38.6,49.8-5c0-45.3-33.4-74.5-41.8-80c-15.2-10.7-43.5-17.3-43.5-17.3h-65.7H392h-65.7
			c0,0-28.3,6.6-43.5,17.3c-8.4,5.5-41.8,34.7-41.8,80c0,43.8,46.6,44.3,49.8,4.4L291.3,599.9z"/>
		<path opacity="0.1" fill="#FFD2BE" d="M437.7,576.5c-10.9-19-1-39.8-11.4-39.8c-10.4,0-14.2,9.4-33,9.4c-0.1,0-0.7,0-0.8,0
			c-18.8,0-22.6-9.4-33-9.4s-0.5,20.8-11.4,39.8c-22.8,39.7,5.8,74.2,42.6,74.2c0.8,0,3.7,0,4.4,0
			C431.9,650.8,460.5,616.2,437.7,576.5z"/>
		<path fill="#AA5834" d="M335,647.2c0,0,21.3,7.5,57,7.5s56.3-7.5,56.3-7.5s-22.2,12.3-55.9,12.3c-2.9,0-4.9-0.1-7.6-0.3l-9.2,39.1
			l-3.2-4c2.3-7.2,1.4-30.3-0.1-36.2C352.5,655.2,340.1,650.3,335,647.2z"/>
		<path fill="#AA5834" d="M493.4,633l-13.7,59.8l-5.5-1c1.4-4.1,8.4-36.4,12.4-61.3c2.6-37.6-1.1-65.5-1.1-65.5
			C493.8,592.7,494.5,622.4,493.4,633z"/>
		<path fill="#AA5834" d="M542.8,609.5c0,10.4-6.2,31.3-16,29.3c4.2-12,3.7-32.8,3.7-32.8c1.9-45.3-26.9-73.4-26.9-73.4
			C534.1,556.9,542.8,591.9,542.8,609.5z"/>
		<path fill="#AA5834" d="M274.7,616.1c0,5.8-1.1,21.3-7.7,26.7c11.5,0,18.5-11.9,19.9-14.8c3.3-7.1,3.3-18,3.3-18
			c-0.3-34.8,10.2-48.6,10.2-48.6C282,576.8,274.7,606.2,274.7,616.1z"/>
		<path fill="#AA5834" d="M459.6,514.5c-4.6-8.2-28.1-15.9-64-17c-13.9-0.4-69.1-2.1-64.6,6.1c4.9,8.9,20.3,23,61.8,26
			C428.7,532.2,465.3,524.7,459.6,514.5z"/>
	</g>
	<g id="衣服_6_">
		<path fill="#7C22B4" stroke="#000000" stroke-width="0.7087" stroke-miterlimit="10" d="M316.9,511.2
			c-24.6,2.3-54.5,27.6-50.9,34.8c4.5-3.4,31.2,0.6,36,13c-10.5,18-14.5,50-13.9,65.4c1,1.2,8.8,39.5,8.8,39.5
			c11.6,5.9,52.1,10.5,84.4,13.1c0,0,1.6-17,10.7-17c5.6,0,10.7,17,10.7,17c38.7-2.2,64-5.6,84.9-11.2l8.1-41
			c0,0,1.3-43.1-12.5-65.8c1.5-6.7,26.2-16.5,34.2-13c5.4-6.4-22.2-30.1-46.1-34.8c-11.1-1.5-33.9,4.1-33.9,4.1
			c4.9,16.3-4.3,40.5-46.7,40.5s-47.2-25.6-43.3-40.5L316.9,511.2z"/>
		<g>
			<defs>
				<path id="SVGID_126_" d="M316.9,511.2c-24.6,2.3-54.5,27.6-50.9,34.8c4.5-3.4,31.2,0.6,36,13c-10.5,18-14.5,50-13.9,65.4
					c1,1.2,8.8,39.5,8.8,39.5c11.6,5.9,52.1,10.5,84.4,13.1c0,0,1.6-17,10.7-17c5.6,0,10.7,17,10.7,17c38.7-2.2,64-5.6,84.9-11.2
					l8.1-41c0,0,1.3-43.1-12.5-65.8c1.5-6.7,26.2-16.5,34.2-13c5.4-6.4-22.2-30.1-46.1-34.8c-11.1-1.5-33.9,4.1-33.9,4.1
					c4.9,16.3-4.3,40.5-46.7,40.5s-47.2-25.6-43.3-40.5L316.9,511.2z"/>
			</defs>
			<clipPath id="SVGID_2_">
				<use xlink:href="#SVGID_126_"  overflow="visible"/>
			</clipPath>
			<g clip-path="url(#SVGID_2_)">
				
					<rect x="269.5" y="496.5" fill="#502CB4" stroke="#000000" stroke-width="0.2353" stroke-miterlimit="10" width="2" height="186"/>
				
					<rect x="277.5" y="496.5" fill="#502CB4" stroke="#000000" stroke-width="0.2353" stroke-miterlimit="10" width="2" height="186"/>
				
					<rect x="285.5" y="496.5" fill="#502CB4" stroke="#000000" stroke-width="0.2353" stroke-miterlimit="10" width="2" height="186"/>
				
					<rect x="293.5" y="496.5" fill="#502CB4" stroke="#000000" stroke-width="0.2353" stroke-miterlimit="10" width="2" height="186"/>
				
					<rect x="301.5" y="496.5" fill="#502CB4" stroke="#000000" stroke-width="0.2353" stroke-miterlimit="10" width="2" height="186"/>
				
					<rect x="309.5" y="496.5" fill="#502CB4" stroke="#000000" stroke-width="0.2353" stroke-miterlimit="10" width="2" height="186"/>
				
					<rect x="317.5" y="496.5" fill="#502CB4" stroke="#000000" stroke-width="0.2353" stroke-miterlimit="10" width="2" height="186"/>
				
					<rect x="325.5" y="496.5" fill="#502CB4" stroke="#000000" stroke-width="0.2353" stroke-miterlimit="10" width="2" height="186"/>
				
					<rect x="333.5" y="496.5" fill="#502CB4" stroke="#000000" stroke-width="0.2353" stroke-miterlimit="10" width="2" height="186"/>
				
					<rect x="341.5" y="496.5" fill="#502CB4" stroke="#000000" stroke-width="0.2353" stroke-miterlimit="10" width="2" height="186"/>
				
					<rect x="349.5" y="496.5" fill="#502CB4" stroke="#000000" stroke-width="0.2353" stroke-miterlimit="10" width="2" height="186"/>
				
					<rect x="357.5" y="496.5" fill="#502CB4" stroke="#000000" stroke-width="0.2353" stroke-miterlimit="10" width="2" height="186"/>
				
					<rect x="365.5" y="496.5" fill="#502CB4" stroke="#000000" stroke-width="0.2353" stroke-miterlimit="10" width="2" height="186"/>
				
					<rect x="373.5" y="496.5" fill="#502CB4" stroke="#000000" stroke-width="0.2353" stroke-miterlimit="10" width="2" height="186"/>
				
					<rect x="381.5" y="496.5" fill="#502CB4" stroke="#000000" stroke-width="0.2353" stroke-miterlimit="10" width="2" height="186"/>
				
					<rect x="389.5" y="496.5" fill="#502CB4" stroke="#000000" stroke-width="0.2353" stroke-miterlimit="10" width="2" height="186"/>
				
					<rect x="397.5" y="496.5" fill="#502CB4" stroke="#000000" stroke-width="0.2353" stroke-miterlimit="10" width="2" height="186"/>
				
					<rect x="405.5" y="496.5" fill="#502CB4" stroke="#000000" stroke-width="0.2353" stroke-miterlimit="10" width="2" height="186"/>
				
					<rect x="413.5" y="496.5" fill="#502CB4" stroke="#000000" stroke-width="0.2353" stroke-miterlimit="10" width="2" height="186"/>
				
					<rect x="421.5" y="496.5" fill="#502CB4" stroke="#000000" stroke-width="0.2353" stroke-miterlimit="10" width="2" height="186"/>
				
					<rect x="429.5" y="496.5" fill="#502CB4" stroke="#000000" stroke-width="0.2353" stroke-miterlimit="10" width="2" height="186"/>
				
					<rect x="437.5" y="496.5" fill="#502CB4" stroke="#000000" stroke-width="0.2353" stroke-miterlimit="10" width="2" height="186"/>
				
					<rect x="445.5" y="496.5" fill="#502CB4" stroke="#000000" stroke-width="0.2353" stroke-miterlimit="10" width="2" height="186"/>
				
					<rect x="453.5" y="496.5" fill="#502CB4" stroke="#000000" stroke-width="0.2353" stroke-miterlimit="10" width="2" height="186"/>
				
					<rect x="461.5" y="496.5" fill="#502CB4" stroke="#000000" stroke-width="0.2353" stroke-miterlimit="10" width="2" height="186"/>
				
					<rect x="469.5" y="496.5" fill="#502CB4" stroke="#000000" stroke-width="0.2353" stroke-miterlimit="10" width="2" height="186"/>
				
					<rect x="477.5" y="496.5" fill="#502CB4" stroke="#000000" stroke-width="0.2353" stroke-miterlimit="10" width="2" height="186"/>
				
					<rect x="485.5" y="496.5" fill="#502CB4" stroke="#000000" stroke-width="0.2353" stroke-miterlimit="10" width="2" height="186"/>
				
					<rect x="493.5" y="496.5" fill="#502CB4" stroke="#000000" stroke-width="0.2353" stroke-miterlimit="10" width="2" height="186"/>
				
					<rect x="501.5" y="496.5" fill="#502CB4" stroke="#000000" stroke-width="0.2353" stroke-miterlimit="10" width="2" height="186"/>
				
					<rect x="509.5" y="496.5" fill="#502CB4" stroke="#000000" stroke-width="0.2353" stroke-miterlimit="10" width="2" height="186"/>
			</g>
		</g>
		<path fill="#682873" d="M482.9,559.3c10.9,31.6,4.9,67.2,4.9,67.2l5.2-2.8C493,623.7,496.9,583.2,482.9,559.3z"/>
		<path opacity="0.8" fill="#580080" d="M335,647.2c0,0,21.3,7.5,57,7.5s56.3-7.5,56.3-7.5s-22.2,12.3-55.9,12.3
			c-2.9,0-4.6,1.2-6.2,2.8c-3.8,3.9-5.5,14.2-5.5,14.2l-7-0.6c0.4-3.6,0.1-11.8-1.5-17.7C352.5,655.2,340.1,650.3,335,647.2z"/>
		<path opacity="0.8" fill="#580080" d="M493.4,633l-6.4,33l-6.8,1.8c1.4-4.1,2.4-12.3,6.5-37.2c2.6-37.6-1.1-65.5-1.1-65.5
			C493.8,592.7,494.5,622.4,493.4,633z"/>
		<path fill="#7C4AB4" stroke="#000000" stroke-width="0.7087" stroke-miterlimit="10" d="M341.9,516.5c0,0-12.4,45,50.1,45
			s52.1-44.3,52.1-44.3l-5.7,0.8c0,0,6.9,37.7-46.5,37.7s-45.5-38.4-45.5-38.4L341.9,516.5z"/>
		<path fill="#7C4AB4" stroke="#000000" stroke-width="0.7087" stroke-miterlimit="10" d="M296.9,663.8c0,0,26,7.2,45.1,8.9
			c30.7,2.8,38.8,3.7,38.8,3.7l0.7-4.5c0,0-11.8-1.9-39.5-6.1c-30.1-4.6-46.2-8.4-46.2-8.4L296.9,663.8z"/>
		<path fill="#7C4AB4" stroke="#000000" stroke-width="0.7087" stroke-miterlimit="10" d="M486.9,665.8c0,0-26,7.2-45.1,8.9
			c-30.7,2.8-38.8,3.7-38.8,3.7l-0.7-4.5c0,0,11.8-1.9,39.5-6.1c30.1-4.6,46.2-8.4,46.2-8.4L486.9,665.8z"/>
		<path fill="#7C4AB4" stroke="#000000" stroke-width="0.498" stroke-miterlimit="10" d="M518.2,545.9c-4.8-1.6-10.8-0.8-19,2.1
			c-14.6,5-15.9,11-15.9,11l-3.4-5.8c0,0,0.4-5.1,16.9-10.9c8.8-3.1,14.9-3.3,19.5-3.7C519.2,542.7,518.7,545.5,518.2,545.9z"/>
		<path fill="#7C4AB4" stroke="#000000" stroke-width="0.498" stroke-miterlimit="10" d="M266.1,545.3c4.8-1.6,10.8-0.8,19,2.1
			c14.6,5,16.9,11.7,16.9,11.7l4.2-5.5c0,0-1.7-6.6-18.3-12.4c-8.8-3.1-14.7-2.6-19.3-3C265.8,542.1,265.6,544.8,266.1,545.3z"/>
		<g opacity="0.6">
			<path fill="#7A0097" d="M398.1,571.8l2.4,1.7c1.6,0.9,2.9,2,4,3.1c1.3,0.8,2.1,1.6,2.4,2.6c0.5,0.6,0.8,1,0.8,1.4l-0.8,1.4
				c-0.5,0.6-1.1,1.5-1.6,2.8c-0.3,0.6-0.7,1.4-1.2,2.6c-0.3,0.6-0.5,0.9-0.8,1.1c-0.8,1.1-1.5,2.3-2,3.4c0,0.2-0.3,0.7-0.8,1.4
				c-0.5,0.8-1.1,1.5-1.6,2.3l0.8,1.1c0.5,0.6,1.3,1.3,2.4,2.3c1.3,0.6,2.1,1.3,2.4,2.3c0.5,0.6,0.9,1.3,1.2,2.3
				c0.3,0.2,0.5,0.6,0.8,1.1c0.5,0.8,0.9,1.5,1.2,2.3l-0.4,0.6c-0.3,0.2-0.4,0.4-0.4,0.6c-0.3,0.4-0.4,0.7-0.4,0.9
				c0,0.2-0.1,0.4-0.4,0.6c-0.3,0.6-0.5,1-0.8,1.4h8l-0.8-3.4l0.4,0.3c0.5,0,0.9,0.6,1.2,1.7c0.3,0.4,0.8,0.9,1.6,1.7
				c0.3,0.4,0.5,0.7,0.8,0.9l0.4-1.1c0.5-0.9,0.9-2.3,1.2-4c0-0.2,0-0.5,0-0.9c0.5-1.5,0.7-2.6,0.4-3.1c0-0.2-0.1-0.5-0.4-0.9
				c0-0.6-0.1-0.9-0.4-1.1v-0.3c-0.5-0.9-1.5-1.9-2.8-2.8l-3.2-0.6v-0.6l2.4-0.3c1.6-0.2,2.9-0.3,4-0.3l1.2,0.6
				c0.8,0.2,1.7,0.6,2.8,1.1c1.3,0.2,2.1,0.6,2.4,1.1c0.5,0.4,1.1,0.9,1.6,1.4c0.5,0.4,0.9,1.1,1.2,2.3c0.3,0.8,0.4,1.3,0.4,1.7
				l-0.4,0.9c-0.3,0.2-0.4,1-0.4,2.6c0,1.1-0.3,2.5-0.8,4c-0.3,1.1-0.7,2-1.2,2.6c-0.3,0.2-0.4,0.6-0.4,1.1
				c-0.3,0.4-0.4,0.7-0.4,0.9c-0.3,0.8-0.8,1.7-1.6,2.8c-0.8,0.8-1.2,1.3-1.2,1.7l-0.4,0.9c-0.3,0.4-0.7,0.9-1.2,1.4
				c0,0.2-0.1,0.4-0.4,0.6c-0.5,0.6-0.9,1-1.2,1.4l-0.8,0.3h-0.4c-0.5,0.2-0.9,0.3-1.2,0.3l-0.8-0.9c-0.3-0.6-0.7-1.1-1.2-1.7
				c-0.3-0.6-0.3-1.4,0-2.6c0.5-1.1,0.4-2.6-0.4-4.5h-2.4c-0.5,0-1.3,0-2.4,0c-1.1-0.2-2-0.3-2.8-0.3c-1.9-0.4-3.3-0.4-4.4,0
				c-0.5,0-1.7,0.1-3.6,0.3c1.3-0.2,0.9-0.1-1.2,0.3c-2.1,0-3.9,0.2-5.2,0.6c-0.5,0-1.7,0.1-3.6,0.3c1.3-0.2,0.9-0.1-1.2,0.3
				c-1.9,0-3.3,0.3-4.4,0.9c-0.5,0.2-1.1,0.3-1.6,0.3c-0.5,0.2-1.1,0.4-1.6,0.6c-0.5,0-1.3,0.3-2.4,0.9c-0.3,0.2-0.5,0.3-0.8,0.3
				c-0.5,0.2-1.1,0.4-1.6,0.6c-0.8,0.4-1.5,0.7-2,0.9c-1.1,0.4-2.3,0.9-3.6,1.4c-0.8,0.4-2.1,0.9-4,1.4l-1.6-1.1l-0.8,1.1l-1.6-0.6
				c-0.3-0.2-0.7-0.4-1.2-0.6c-0.3-0.2-0.7-0.4-1.2-0.6c-0.3-0.2-0.9-0.6-2-1.1c-1.1-0.4-2-0.8-2.8-1.1l-0.4-1.1
				c-0.3-0.4-0.4-0.9-0.4-1.7c-0.3-0.8-0.4-1.3-0.4-1.7c0-0.4-0.1-0.9-0.4-1.7c0-0.6-0.1-1.1-0.4-1.7l-0.4-1.4
				c0-0.4,0.1-0.7,0.4-0.9c0.3-0.2,0.4-0.7,0.4-1.4c0.3-0.4,0.4-0.8,0.4-1.1c0-0.4,0.1-0.9,0.4-1.7c0-0.4,0.1-0.9,0.4-1.4
				c0-0.2,0.1-0.5,0.4-0.9c0-0.6,0.1-0.9,0.4-1.1c0-0.2,0.1-0.5,0.4-0.9c0-0.2,0.1-0.4,0.4-0.6c0.3-0.2,0.5-0.5,0.8-0.9
				c0-0.2,0.1-0.4,0.4-0.6c0.5-0.6,1.2-1.3,2-2.3c0.5-1.1,2-2,4.4-2.6l1.6,0.6c1.1,0.2,2.1,0.6,3.2,1.1v0.6l-1.6,0.6l1.2,0.6
				c0.8,0.2,1.7,0.5,2.8,0.9c1.1,0,2.1,0.3,3.2,0.9v1.1l-2-0.6c-0.8-0.6-3.3-0.9-7.6-1.1l-0.4,1.1c-0.3,0.6-0.3,1.6,0,3.1
				c0.3,1.1,0.4,1.9,0.4,2.3l-0.4,0.9c-0.3,0.4-0.7,0.9-1.2,1.4c0,0.2-0.1,0.4-0.4,0.6c-0.3,0-0.7,0.6-1.2,1.7
				c-0.3,0.8-0.7,1.7-1.2,2.8c-0.3,0.8-0.4,1.8-0.4,3.1l1.2,0.3c0.8,0,2.1-0.1,4-0.3c1.9-0.6,3.6-0.9,5.2-0.9
				c1.6-0.4,3.1-0.7,4.4-0.9c1.3-0.6,2.8-0.9,4.4-1.1c1.6-0.6,3.2-0.9,4.8-1.1c1.6-0.6,3.1-0.9,4.4-0.9c1.3-0.4,2.8-0.6,4.4-0.6
				c0.8-0.2,1.7-0.3,2.8-0.3c0.5,0,2.4,0,5.6,0l-1.6-1.1c-0.8-0.9-1.6-1.8-2.4-2.6c-0.8-1.1-1.3-1.8-1.6-2c-0.3-0.4-0.9-0.9-2-1.7
				l-0.8,0.3c-0.5,0-1.2,0.4-2,1.1c-0.8,0.6-1.5,1.2-2,2c-0.5,0.6-1.2,1.1-2,1.7c-0.8,0.4-1.5,0.9-2,1.4c-0.3,0.4-0.8,0.8-1.6,1.1
				c0.8-0.4,0.5-0.3-0.8,0.3c-0.3,0-0.7,0.1-1.2,0.3c-0.5,0.2-0.9,0.3-1.2,0.3l-2.4-1.1h-2c-1.1,0-2.3-0.2-3.6-0.6l-0.4-0.9
				c-0.3-0.6-0.7-1-1.2-1.4c-0.3-0.6-0.7-0.9-1.2-1.1c-0.3-0.4-0.4-0.9-0.4-1.7l2,0.6c0.3,0,0.7,0.1,1.2,0.3
				c0.5,0.2,0.9,0.3,1.2,0.3h0.8c0.5-0.2,1.1-0.3,1.6-0.3c1.3-0.4,2.4-0.7,3.2-0.9c0.8-0.6,1.6-1.1,2.4-1.7c0.3-0.2,0.7-0.5,1.2-0.9
				c0.3-0.6,0.5-0.9,0.8-1.1c0-0.2,0.3-0.6,0.8-1.1c0.5-0.4,0.8-0.7,0.8-0.9c0.3-0.8,1.3-1.9,3.2-3.4l-0.8-0.9
				c-0.3-0.6-1.1-1-2.4-1.4c-1.1-0.6-2.4-0.9-4-1.1v-1.1l-1.6-0.9c-0.5-0.2-1.1-0.6-1.6-1.1c-0.8-0.4-1.5-0.7-2-0.9
				c-0.8-0.6-2.1-1.3-4-2.3c0.3,0.2-0.1,0-1.2-0.6l-4,2.8l0.8-2.3l-2.4,1.7l0.8-1.7l-0.8-1.1l1.6-0.6c1.1-0.6,2-0.9,2.8-1.1
				c0.8-0.6,1.9-0.9,3.2-0.9c1.3-0.2,2.4-0.3,3.2-0.3c0.8,0,2,0.1,3.6,0.3c1.6,0,2.8,0.3,3.6,0.9c0.8,0.4,1.9,0.9,3.2,1.4
				c0.3,0.2,0.7,0.4,1.2,0.6c1.1,0.4,1.7,0.7,2,0.9c0.5,0,1.7,0.8,3.6,2.3l1.6-1.7V586l1.6-0.6l-0.8-1.1l0.4-0.3
				c0.5-0.4,0.9-0.9,1.2-1.7c0-0.4,0.1-0.9,0.4-1.4c0.5-0.9,0.9-1.9,1.2-2.8l-0.8-0.6c0-0.2-0.3-0.5-0.8-0.9
				c-0.5-0.4-0.8-0.7-0.8-0.9c-0.3-0.4-0.5-0.9-0.8-1.4c-0.3-0.6-0.5-1-0.8-1.4l0.8-1.1H398.1z"/>
		</g>
	</g>
	<g id="脚_33_">
		<g id="脚_35_">
			<path fill="#128AB2" stroke="#000000" stroke-width="1.4173" stroke-miterlimit="10" d="M401.2,709.1c0,9.4,20.1,8.3,45,8.3
				s45,0.4,45-14.6c0-7.4-15.6-18.6-41.2-17.9s-36.2,6.9-41.1,14.5C402.7,700.1,401.2,702.7,401.2,709.1z"/>
			<path fill="#0D6886" d="M486.4,696c0,0,2.5,10.7-7.5,14s-76.4,6.8-77-2.8c-0.7,6.2,4,9.3,21.6,9.5c6.2,0,37.1,0,37.1,0
				s24.1,0.4,28.3-8C492.3,701.7,489.3,698.7,486.4,696z"/>
		</g>
		<g id="脚_34_">
			<path fill="#128AB2" stroke="#000000" stroke-width="1.4173" stroke-miterlimit="10" d="M383.2,709.1c0,9.4-20.1,8.3-45,8.3
				s-45,0.4-45-14.6c0-7.4,15.6-18.6,41.2-17.9s36.2,6.9,41.1,14.5C381.6,700.1,383.2,702.7,383.2,709.1z"/>
			<path fill="#0D6886" d="M379,701c0,0,5.3,6.6-4.8,9.9s-73.1,5.8-79.4-3.4c1.8,5.8,12.4,8.9,22.7,9.2c6.2,0.2,37.1,0,37.1,0
				s21.9,0.9,26.5-4.4C383.6,710.2,382.8,702.1,379,701z"/>
		</g>
	</g>
	<g id="手_41_">
		<g id="手_43_">
			<g id="左手_30_">
				<path fill="#FFD6DA" stroke="#000000" stroke-width="1.4173" stroke-miterlimit="10" d="M497.2,632.8
					c-3.6,16.8,3.9,27.2,20.5,27.2c16.6,0,29-17.2,29-32.7c0-15.5-10.2-28.6-26.8-28.6c-12.7,0-19.4,3.8-25.4,14.1
					C490.7,619.7,498,629.3,497.2,632.8z"/>
				<path fill="#FFD6DA" stroke="#000000" stroke-width="1.4173" stroke-miterlimit="10" d="M513.9,627.5
					c-1.5,13-12.7,16.2-19.6,11.8c-6.1-3.8-9.1-14.5,0-25.9"/>
			</g>
			<path fill="#E6B4AA" d="M513.9,618.2c0,0,0,22.3-21,19C501.5,645.9,518.7,636.7,513.9,618.2z"/>
			<path fill="#E6B4AA" d="M509.8,638.2c0,0-3.7,4.8-12.5,3.3C496.4,651.7,509.4,643.2,509.8,638.2z"/>
			<path fill="#E6B4AA" d="M537.9,606.6c2.8,5.9,5.8,23.3-2.8,37c-6,9.5-11.9,15.1-21.2,15.5c16.1,2.1,24.9-10.8,27.2-14.6
				C546.7,635.9,549.6,618.5,537.9,606.6z"/>
		</g>
		<g id="手_42_">
			<g id="左手_29_">
				<path fill="#FFD6DA" stroke="#000000" stroke-width="1.4173" stroke-miterlimit="10" d="M287.2,632.8
					c3.6,16.8-3.9,27.2-20.5,27.2s-29-17.2-29-32.7c0-15.5,10.2-28.6,26.8-28.6c12.7,0,19.4,3.8,25.4,14.1
					C293.8,619.7,286.4,629.3,287.2,632.8z"/>
				<path fill="#FFD6DA" stroke="#000000" stroke-width="1.4173" stroke-miterlimit="10" d="M270.5,627.5
					c1.5,13,12.8,16.2,19.6,11.8c6.1-3.8,9.1-14.5,0-25.9"/>
			</g>
			<path fill="#E6B4AA" d="M291.4,616.4c1.5,2.4,2.9,11.3-0.7,17.3c-1.8,3-7.3,6.4-12.2,5.5c6.1,3.2,12.8,0.3,15.3-5.2
				C297.3,626.6,292.9,618.2,291.4,616.4z"/>
			<path fill="#E6B4AA" d="M272.3,621.6c-8,10.9,4.5,21.2,2.9,28.4c-0.8,3.5-5.9,10.4-15,8.3c7.4,2.5,19.4,0.3,23.5-5.7
				c1.1-1.6,3.4-4.2,3.7-11.2C276.6,644.1,266.1,632.9,272.3,621.6z"/>
		</g>
	</g>
	<g id="耳朵_44_">
		<g id="耳朵_51_">
			<path fill="#C87A4A" stroke="#000000" stroke-width="1.4173" stroke-miterlimit="10" d="M341.7,208.4
				c-4.2-24.9-60.1-92.9-138.2-48.3C149,192,149.8,274,208.3,326.7L341.7,208.4z"/>
			<path fill="#AA5834" d="M254.9,145.3c43,6.6,70.9,44.8,73.8,62.1l13,1C338.5,189.4,305.2,145.3,254.9,145.3z"/>
			<path fill="#FFBEBA" stroke="#000000" stroke-width="0.7087" stroke-miterlimit="10" d="M229.5,277.8c-5-0.4-41.5-52.2-2-77.4
				c38.8-24.8,76.6,15.4,76,22.4L229.5,277.8z"/>
		</g>
		<g id="耳朵_45_">
			<path fill="#C87A4A" stroke="#000000" stroke-width="1.4173" stroke-miterlimit="10" d="M441.5,208.4
				c4.2-24.9,60.1-92.9,138.2-48.3c54.6,31.9,53.8,113.9-4.8,166.6L441.5,208.4z"/>
			<path fill="#AA5834" d="M579.7,160.1c-1.1-0.6-2.2-1.2-3.3-1.8C622.1,193,619,268,565,317.9l9.9,8.7
				C633.5,274,634.2,192,579.7,160.1z"/>
			<path fill="#FFBEBA" stroke="#000000" stroke-width="0.7087" stroke-miterlimit="10" d="M553.7,277.8c5-0.4,41.5-52.2,2-77.4
				c-38.8-24.8-76.6,15.4-76,22.4L553.7,277.8z"/>
		</g>
	</g>
	<g id="面部_13_">
		<path id="面部_14_" fill="#FFF6E1" stroke="#000000" stroke-width="1.4173" stroke-miterlimit="10" d="M214.3,278.3
			c11.2-30.5,46.9-77.2,129.7-100c36.3-10,61.8-8.8,96.6,0.5c41.8,11.2,105.2,42.4,128.8,98.9c11.7,28,11.7,87.7,11.7,87.7
			s23.3,12,23.3,49.3c0,32.5-52.7,87.4-157.3,100.9c-15.4,2-29.3,11.1-53.3,11.1s-38-9.3-54.8-11.6C236.1,501,179,448.5,179,414.7
			c0-34.2,25.5-48.8,25.5-48.8S201,314.7,214.3,278.3z"/>
		<path fill="#EED4BE" d="M532.7,227.5c34.8,34.5,46.6,60.2,47.7,138.2c0,0-7.3,1.1-13.4,5.4C573.9,347.5,572.5,271,532.7,227.5z"/>
		<path fill="#EED4BE" d="M267,496.2c18.9,9.2,64.8,17.7,77.4,19.2c6.4,1.4,29.4,10.5,47,10.5s30.2-3.9,46.7-9.6
			c29.3-2.6,80.2-15.3,104.8-31c-30.3,13.1-68.9,21.4-97.6,25.7c3.7-3.3,8.2-5.9,11.8-11.9c-15.7,13.9-34.1,19.9-61.5,20.6
			C384.7,519.9,312,509.5,267,496.2z"/>
	</g>
	<g id="鼻子_6_">
		<ellipse fill="#FFD2BE" stroke="#000000" stroke-width="1.4173" stroke-miterlimit="10" cx="391.3" cy="421.3" rx="90" ry="59"/>
		<path fill="#E6A082" d="M392,467.5c-28.1,1.3-47.3-1.5-68.3-8.4c6.1,6,32.9,20.6,67.2,20.6c48.4,0,89.7-24.6,89.7-58.4
			C475.8,438.2,445.9,465,392,467.5z"/>
		<g id="鼻子_7_">
			<path fill="#69301B" stroke="#000000" stroke-miterlimit="10" d="M404.4,385.7c-5.2,0-8,2.3-13.5,2.4c-5.5-0.1-8.3-2.4-13.5-2.4
				c-10,0-18.5,8.3-18.5,15.5c0,7.3,6.2,16.9,19.6,18.3c3.1,0.3,22,0.4,24.7,0c13.3-2,19.6-11,19.6-18.3
				C422.9,394,414.4,385.7,404.4,385.7z"/>
			<path fill="#3F1000" d="M420.8,406c0,4.5-6.4,10.1-14,12.3c-4.9,1.4-10,1-16.5,1c-5.7,0-10.3,0.4-14.8-0.7
				c-8.7-2.1-14.9-8.3-14.9-12.6c0-6.6,13.4-9,30-9S420.8,399.3,420.8,406z"/>
		</g>
	</g>
	<g id="眼睛_1_">
		<linearGradient id="SVGID_2_" gradientUnits="userSpaceOnUse" x1="443.1915" y1="327.1581" x2="530.4346" y2="368.58">
			<stop  offset="0" style="stop-color:#AA5834;stop-opacity:0.6"/>
			<stop  offset="1" style="stop-color:#C87A4A;stop-opacity:0"/>
		</linearGradient>
		<path fill="url(#SVGID_2_)" d="M524.7,326.7c17.5,42.8,2.8,76.1-24.6,76.1s-47.7-28.8-50.6-44.6c-4-20.6,4.9-42.7,20.5-51.1
			C489.5,296.5,512.7,297.3,524.7,326.7z"/>
		<linearGradient id="SVGID_3_" gradientUnits="userSpaceOnUse" x1="237.0114" y1="334.1588" x2="297.4662" y2="365.2986">
			<stop  offset="0" style="stop-color:#AA5834"/>
			<stop  offset="1" style="stop-color:#C87A4A;stop-opacity:0"/>
		</linearGradient>
		<path fill="url(#SVGID_3_)" d="M304.6,326.7c20.7,41.4-1.1,75.1-24.6,76.1c-18.5,0.8-31.7-19.4-34.5-35.2
			c-4-20.6,0.4-34.5,11-48.8C264.4,308,291.7,300.7,304.6,326.7z"/>
		<g id="眼睛_3_">
			<radialGradient id="SVGID_4_" cx="281.6733" cy="358.1066" r="37.8513" gradientUnits="userSpaceOnUse">
				<stop  offset="0" style="stop-color:#4D4D4D"/>
				<stop  offset="1" style="stop-color:#1A1A1A"/>
			</radialGradient>
			<ellipse fill="url(#SVGID_4_)" stroke="#000000" stroke-miterlimit="10" cx="281.7" cy="358.1" rx="30" ry="44.3"/>
			
				<radialGradient id="SVGID_5_" cx="260.1823" cy="358.1066" r="28.178" gradientTransform="matrix(0.9851 0 0 1 25.3726 0)" gradientUnits="userSpaceOnUse">
				<stop  offset="0" style="stop-color:#333333"/>
				<stop  offset="1" style="stop-color:#000000"/>
			</radialGradient>
			<ellipse fill="url(#SVGID_5_)" cx="281.7" cy="358.1" rx="22" ry="33"/>
			
				<ellipse transform="matrix(0.3609 -0.9326 0.9326 0.3609 -147.2983 475.2638)" fill="#F2F2F2" cx="273.1" cy="345.1" rx="7" ry="5.7"/>
			<ellipse cx="281.7" cy="358.1" rx="8" ry="13"/>
			<path fill="#FFFFFF" d="M298.1,378.9c-1.4,2.5-3.6,4.4-4.3,3.6c-0.8-0.8,0.9-0.9,2.7-4.4c1.9-3.5,1.5-4.6,2.6-4.5
				C300.1,373.7,299.5,376.4,298.1,378.9z"/>
			<ellipse fill="#FFFFFF" cx="264.4" cy="359.7" rx="2.8" ry="4.1"/>
		</g>
		<g id="眼睛_2_">
			<radialGradient id="SVGID_6_" cx="502.6734" cy="358.1066" r="37.8513" gradientUnits="userSpaceOnUse">
				<stop  offset="0" style="stop-color:#4D4D4D"/>
				<stop  offset="1" style="stop-color:#1A1A1A"/>
			</radialGradient>
			<ellipse fill="url(#SVGID_6_)" stroke="#000000" stroke-miterlimit="10" cx="502.7" cy="358.1" rx="30" ry="44.3"/>
			
				<radialGradient id="SVGID_7_" cx="484.5296" cy="358.1066" r="28.178" gradientTransform="matrix(0.9851 0 0 1 25.3726 0)" gradientUnits="userSpaceOnUse">
				<stop  offset="0" style="stop-color:#333333"/>
				<stop  offset="1" style="stop-color:#000000"/>
			</radialGradient>
			<ellipse fill="url(#SVGID_7_)" cx="502.7" cy="358.1" rx="22" ry="33"/>
			
				<ellipse transform="matrix(0.3609 -0.9326 0.9326 0.3609 -6.0616 681.3678)" fill="#F2F2F2" cx="494.1" cy="345.1" rx="7" ry="5.7"/>
			<ellipse cx="502.7" cy="358.1" rx="8" ry="13"/>
			<path fill="#FFFFFF" d="M519.1,378.9c-1.4,2.5-3.6,4.4-4.3,3.6c-0.8-0.8,0.9-0.9,2.7-4.4c1.9-3.5,1.5-4.6,2.6-4.5
				C521.1,373.7,520.5,376.4,519.1,378.9z"/>
			<ellipse fill="#FFFFFF" cx="485.4" cy="359.7" rx="2.8" ry="4.1"/>
		</g>
	</g>
	<g id="眉毛">
		<path d="M474.2,308.9c0,0,11.9-18.6,54-5c7.7,2.7,18.9-0.4,22.6-3c-5.7,5.9-10.3,7-12.8,7.6c4.3,1.8,16.8-0.9,20-3.6
			c-3.1,5.1-14.2,9.1-16.1,8.5c2.8,1,7.7,1.7,12.7,0c-8.8,5.9-24.5,7.5-30.5,4.9c-6-2.6-20.8-11.4-37.3,1.7
			C480.7,324.1,466.4,321.1,474.2,308.9z"/>
		<path d="M310.7,308.9c0,0-11.9-18.6-54-5c-7.7,2.7-18.9-0.4-22.6-3c5.7,5.9,10.3,7,12.8,7.6c-4.3,1.8-16.8-0.9-20-3.6
			c3.1,5.1,14.2,9.1,16.1,8.5c-2.8,1-7.7,1.7-12.7,0c8.8,5.9,24.5,7.5,30.5,4.9c6-2.6,20.8-11.4,37.3,1.7
			C304.1,324.1,318.4,321.1,310.7,308.9z"/>
	</g>
	<g id="嘴巴">
		<polygon id="嘴巴_3_" fill="#FF6D39" stroke="#000000" stroke-width="0.7087" stroke-miterlimit="10" points="419,495.5 
			358.9,496 364.4,484.4 415.3,484.4 		"/>
		<polygon id="嘴巴_12_" fill="#1F1F26" stroke="#000000" stroke-width="0.7087" stroke-miterlimit="10" points="474.2,496.8 
			418,492 358.9,492.5 316.3,497.1 364.4,480.9 421.3,480.9 		"/>
		<g>
			<polygon fill="#1F1F26" stroke="#000000" stroke-width="0.7087" stroke-miterlimit="10" points="358.1,480.4 353.9,480.4 
				301.3,497.5 307.8,496.8 			"/>
		</g>
		<g>
			<polygon fill="#1F1F26" stroke="#000000" stroke-width="0.7087" stroke-miterlimit="10" points="426.9,479.7 431.1,479.7 
				483.7,496.8 477.3,496.1 			"/>
		</g>
	</g>
	<g id="头发_7_">
		<path fill="#C87A4A" stroke="#000000" stroke-width="1.4173" stroke-miterlimit="10" d="M364.8,196.7
			c-26.6-6.4-37.6-38.8-23.1-58.7c-3.2,16.8,9.8,36.2,37.8,33.6"/>
		<path fill="#AA5834" d="M340.5,141.2c0,0-1.2,8.3,0.4,14.6c2.3,8.7,10.2,15.5,10.2,15.5s-6.1,0.6-8.9-2.4c0.3,0.6,4.9,4.7,5.9,5.3
			c12.1,7.9,23.3,8.5,23.3,8.5s-8.9,1.1-14.9-0.6c6.7,4.3,21.7,4.9,21.7,4.9s-4.8,2.7-9.9,1.4c6.3,2.5,15.9,3.4,22.8,1.7l-14.4-17.4
			C371.2,173.3,340.9,171.3,340.5,141.2z"/>
		<path fill="#C87A4A" stroke="#000000" stroke-width="1.4173" stroke-miterlimit="10" d="M445.2,180.1c-16.5-4.2-20.3-24.4-6-27.6
			c-14.9-3.3-21.7,16.3-17.7,21.8c-13.6-1-48-22.5-40.8-55.3c-13,15.5-24.8,68.8,30.3,77.7"/>
		<path fill="#AA5834" d="M400.3,184.9c-23.7-12-27.2-38.2-20.8-62.1c-4.5,32.1,32,54.1,47.5,53.1c-4-5.5-4.3-18,8.8-23
			c-10.9,5.4-7.1,23.8,9.3,28c0,0-7.1,0.9-18.1-5c0,1.1,15.7,9,15.7,9l-21.8-8.9l20.7,13.1l-15-3l6.8,5l-17.1-6.9l22.3,14.4
			L400.3,184.9z"/>
	</g>
	<g id="帽子_5_">
		<path fill="#6C6B86" d="M616.1,177.7c0,0-15-9.9-43.4-2.4c-18.7,5-34.4,14.2-46.4,10.7c-5.5-2.7-16.2-20.2-20.7-41.5
			C491,74.9,455.1,56,442.9,55.6s-18.4,8.3-35.8,6.9c-17.4-1.5-30.4-11.4-45.8-6.8c-15.4,4.6-43.7,22.8-69.1,79.9
			c-4.7,10.5-19.6,41.2-25.8,43.8c-10.4,7.6-43.2-22.6-77.9-19.4c-34.6,3.2-54.2,64.6,57.4,82.2c76.5,12.1,216.2,13.2,304.5-7.8
			C638.8,213.3,621.7,181.5,616.1,177.7z"/>
		<path fill="#484759" d="M377.1,59.1c3.9-1.1,23.3,6.9,30.4,6.9s21.3-4.2,23.3-4.8s9.2-3.7,5.3,3.4c-4.3,7.8-17.5,9.8-25.2,9.8
			c-10.2,0-23.4-1.5-29.8-6.5C377.5,65,373.2,60.2,377.1,59.1z"/>
		<path fill="#484759" d="M597.7,181.8c-11.4-8.6-27.8,3.5-34.9,6.5c-11.3,4.8-23.3,2-34.5-0.5c7.4,8.9,19.5,13.5,22,14.5
			c3.5,1.4,3.3,7-14,15c-12.3,5.7-41.1,14.6-48.1,15.3c-9.4,0.9-68.3,9.6-95.7,9.7c-31.2,0-65.1-4.9-78.2-6.8
			c-14.5-2.2-39.6-6.9-67.4-17.1c-7.2-2.7-19.8-15.3-18.9-18.2c3.2,0.1,29.8-5.2,36.9-18.2c-11.2,2.6-23.4,2.2-34.8-2.7
			c-7.1-3-30.8-17.1-42.2-8.6c-4.7,3.5-1.6,19.6,7.4,25c34.1,26.5,115.5,50,197.2,48.6c93.7-1.7,181.1-21.3,198.9-45.2
			C597.8,192.9,601.6,184.8,597.7,181.8z"/>
		<path fill="#FEB3AE" d="M278.6,162.8c0,0,72.5-8,119.2-5c46.7,3,110,2.2,114,5.4c4,3.1,13.7,21,13.5,22s-94.8,1-132.6,0.2
			c-37.5-0.8-125.7-3.6-126.1-6.1C269.3,176.9,277.1,163.9,278.6,162.8z"/>
		<path fill="#B79CC1" d="M179,162.4c-14.9,6.1-23.1,25.4-13.5,40.8c16.3,26.2,42.9,30.1,66.3,36.4c9.4,2.5,20.8,4.3,30.9,5.5
			c6.2,0.7,72.3,7.9,136.7,5.5c39.1-0.9,106.3-5.6,152.3-16.5c14.5-3.4,32.4-9.1,40.9-13.7c-6,2.2-33.1,10-46.7,13.1
			c-46.2,10.6-109.2,14-147.3,15.3c-64,2.2-130.9-5.1-135.1-6.1c-18.3-4.4-38.3-11-51.8-16.3c-19.8-7.7-36.8-21.8-40.6-34.6
			C169.1,185.3,168.7,171.3,179,162.4z"/>
		<path fill="#BD605B" d="M511.7,163.2c1.7,1.1,13.3,18.2,13.5,22c-5.9,0.8-106.4,1.3-135.5,0.1c20.1-1.3,62-2.1,73.3-7.8
			c4.7-2.4,27.8-14.6,31.8-16.2C499.4,161.5,510,162.1,511.7,163.2z"/>
		<path fill="#595050" d="M454.6,59.2c9.1,2.7,37.3,31,46.3,66.6c5.3,16,9.8,35.4,10.8,37.4c-1.6,0.4-75.5-3.7-75.5-3.7
			c11.9-1.4,45.3-0.4,47.3-1.2c-0.8-6.9-3.8-29.8-7.2-44.7c-4-17.7-15.4-34.1-22.7-41.4C456.8,70.3,457.7,68.4,454.6,59.2z"/>
		<path fill="#595050" d="M518.3,186c0,0,8.9,13.4,24.9,19.3c-31.3,17.9-111.8,31.4-132.2,27.7c21.4-3.5,64.1-23.2,68.6-29.2
			c3.1-4.2,4.3-9.6,4.9-13.5c-2.1-0.4-13.5-2.1-20.8-2.6c-7.4-0.5-84-2.7-84-2.7L518.3,186z"/>
	</g>
</g>
</svg>