<?xml version="1.0" encoding="utf-8"?>
<svg version="1.0" id="layer_1" xmlns="http://www.w3.org/2000/svg" xmlns:xlink="http://www.w3.org/1999/xlink" x="0px" y="0px" viewBox="0 0 800 800" enable-background="new 0 0 800 800" xml:space="preserve">
<g id="_x31__2_">
	<g id="身体_15_">
		<path fill="#FFC6D6" stroke="#000000" stroke-width="1.4173" stroke-miterlimit="10" d="M291.3,599.9c0.9-16.5,4-26.1,6.4-31.4
			C293.8,577.2,292.1,589,291.3,599.9l-0.4,14.5c0,9.2,0.5,24.7,0.5,24.7l13.1,58.4l71.6,1.9l9.4-39.9c0,0,3.8,0.4,6.6,0.4
			c2.8,0,6.6-0.4,6.6-0.4l9.4,39.9l71.6-1.9l13.1-58.4c0,0,0.5-15.2,0.5-24.1c0,0-0.2-33.1-6.8-46.5c2.1,3.2,5.8,16.1,6.5,34.5
			l0.4,12c3.6,39.4,49.8,38.6,49.8-5c0-45.3-33.4-74.5-41.8-80c-15.2-10.7-43.5-17.3-43.5-17.3h-65.7H392h-65.7
			c0,0-28.3,6.6-43.5,17.3c-8.4,5.5-41.8,34.7-41.8,80c0,43.8,46.6,44.3,49.8,4.4L291.3,599.9z"/>
		<path opacity="0.1" fill="#FFFFFF" d="M437.7,576.5c-10.9-19-1-39.8-11.4-39.8c-10.4,0-14.2,9.4-33,9.4c-0.1,0-0.7,0-0.8,0
			c-18.8,0-22.6-9.4-33-9.4s-0.5,20.8-11.4,39.8c-22.8,39.7,5.8,74.2,42.6,74.2c0.8,0,3.7,0,4.4,0
			C431.9,650.8,460.5,616.2,437.7,576.5z"/>
		<path fill="#CC869C" d="M335,647.2c0,0,21.3,7.5,57,7.5s56.3-7.5,56.3-7.5s-22.2,12.3-55.9,12.3c-2.9,0-4.9-0.1-7.6-0.3l-9.2,39.1
			l-3.2-4c2.3-7.2,1.4-30.3-0.1-36.2C352.5,655.2,340.1,650.3,335,647.2z"/>
		<path fill="#CC869C" d="M493.4,633l-13.7,59.8l-5.5-1c1.4-4.1,8.4-36.4,12.4-61.3c2.6-37.6-1.1-65.5-1.1-65.5
			C493.8,592.7,494.5,622.4,493.4,633z"/>
		<path fill="#CC869C" d="M542.8,609.5c0,10.4-6.2,31.3-16,29.3c4.2-12,3.7-32.8,3.7-32.8c1.9-45.3-26.9-73.4-26.9-73.4
			C534.1,556.9,542.8,591.9,542.8,609.5z"/>
		<path fill="#CC869C" d="M274.7,616.1c0,5.8-1.1,21.3-7.7,26.7c11.5,0,18.5-11.9,19.9-14.8c3.3-7.1,3.3-18,3.3-18
			c-0.3-34.8,10.2-48.6,10.2-48.6C282,576.8,274.7,606.2,274.7,616.1z"/>
		<path fill="#CC869C" d="M459.6,514.5c-4.6-8.2-28.1-15.9-64-17c-13.9-0.4-69.1-2.1-64.6,6.1c4.9,8.9,20.3,23,61.8,26
			C428.7,532.2,465.3,524.7,459.6,514.5z"/>
	</g>
	<g id="衣服_8_">
		<path fill="#004E3B" stroke="#000000" stroke-width="0.7087" stroke-miterlimit="10" d="M291.4,632.1c1,1.2,13.5,67.3,13.5,67.3
			h71.2c0,0,6.9-39.5,16-39.5c5.6,0,16,39.5,16,39.5l71.6-1.9l13.1-66.1c0,0-44.9,8.9-103.1,9.4C359,641,324.7,637.9,291.4,632.1z"
			/>
		<path opacity="0.8" fill="#393434" d="M335,647.2c0,0,21.3,7.5,57,7.5s56.3-7.5,56.3-7.5s-22.2,12.3-55.9,12.3
			c-2.9,0-4.9,2.2-6,4.1c-5.9,9.9-10.4,35.8-10.4,35.8l-7.3,0.2c0.4-3.6,5.1-35.6,3.5-41.5C352.5,655.2,340.1,650.3,335,647.2z"/>
		<path opacity="0.8" fill="#393434" d="M492.3,631.4L481,692.7l-6.8,1.8c1.4-4.1,11.8-62.1,11.8-62.1L492.3,631.4z"/>
		<path fill="#8F6400" stroke="#000000" stroke-width="0.25" stroke-miterlimit="10" d="M292.8,639.6c0,0,53,8.5,93.8,8.5
			s105.2-10.3,105.2-10.3l1-6.4c0,0-64.9,9.8-106.2,9.8s-95.2-8.9-95.2-8.9L292.8,639.6z"/>
		<path fill="#006717" stroke="#000000" stroke-miterlimit="10" d="M265.5,546.2c2.9,0.5,11.6,1.4,20.7,6
			c6.3,3.2,12.2,6.9,12.8,11.9c-6.2,11.4-9.7,40.1-7.5,68.2c26.4,3.7,80.6,10,103.9,8.3s58.9-2,97.4-10c0.7-8.8,1.6-50.9-7.2-65.8
			c1.4-4.8,9.4-10.3,16.3-13.2c5.5-2.3,11.3-3.6,17.6-4.5c-5.4-7.7-19.1-20-32.9-25.3c-16.4-6.3-27.3-10.1-27.3-10.1l-67.5,30.6
			l-64.3-31.7c0,0-25.7,8.9-34.8,13.3C283.6,528.4,269,541.1,265.5,546.2z"/>
		<polygon fill="#008A57" stroke="#000000" stroke-width="0.5" stroke-miterlimit="10" points="394.1,640.7 390.1,640.9 390,543.3 
			394.1,541.4 		"/>
		<polygon fill="#008A57" stroke="#000000" stroke-width="0.2523" stroke-miterlimit="10" points="444.9,571.9 444.9,567.9 
			469.4,567.8 469.5,571.9 		"/>
		<polygon fill="#003314" stroke="#000000" stroke-width="0.1248" stroke-miterlimit="10" points="391.7,575.9 391.7,571.9 
			397.7,571.9 397.7,575.9 		"/>
		<polygon fill="#003314" stroke="#000000" stroke-width="0.1248" stroke-miterlimit="10" points="391.7,599.2 391.7,595.2 
			397.7,595.1 397.7,599.2 		"/>
		<polygon fill="#003314" stroke="#000000" stroke-width="0.1248" stroke-miterlimit="10" points="391.7,621.6 391.7,617.6 
			397.7,617.5 397.7,621.6 		"/>
		<polygon fill="#008F63" stroke="#000000" stroke-miterlimit="10" points="322.7,508.7 390.9,542.1 372.3,569.8 316.8,514.5 
			320.1,508.7 		"/>
		<polygon fill="#008F63" stroke="#000000" stroke-miterlimit="10" points="461.1,508.7 392.8,542.1 415.4,569.8 466.9,514.5 
			463.7,508.7 		"/>
		<path fill="#008F63" stroke="#000000" stroke-width="0.5" stroke-miterlimit="10" d="M485.4,564.5c0,0,2.6-7.3,16.2-13
			c10.5-4.4,17.4-4.5,17.4-4.5l-6.7-7.7c0,0-8.4,1.4-16.3,5.6c-7.8,4.2-14.7,11.1-14.7,11.1L485.4,564.5z"/>
		<path fill="#008F63" stroke="#000000" stroke-width="0.5" stroke-miterlimit="10" d="M299.1,563.7c0,0-2.6-7.3-16.2-13
			c-10.5-4.4-17.4-4.5-17.4-4.5l6.7-7.7c0,0,8.4,1.4,16.3,5.6c7.8,4.2,14.7,11.1,14.7,11.1L299.1,563.7z"/>
		<path opacity="0.5" fill="#404040" d="M481.2,556c13.9,23.9,13.1,70.3,11.1,74l-7.9,1.4C484.4,631.4,490.4,588,481.2,556z"/>
		<path opacity="0.6" fill="#404040" d="M313.3,540.9c-5.9,5.2-13.4,15-15.5,20.1c1,2.3,1.4,4.5,1.4,4.5S306.5,549.2,313.3,540.9z"
			/>
		<polygon fill="#F93300" stroke="#000000" stroke-miterlimit="10" points="429.9,537.7 408.2,554 415.9,563.7 435,543.3 		"/>
		<polygon fill="#F93300" stroke="#000000" stroke-miterlimit="10" points="493.4,525.1 467.9,515.2 468,517.9 493.9,527.7 		"/>
		<polygon fill="#F93300" stroke="#000000" stroke-miterlimit="10" points="291.3,524.8 316.8,514.9 316.7,517.6 290.8,527.4 		"/>
		<polygon fill="#F93300" stroke="#000000" stroke-miterlimit="10" points="357.4,537.7 379,554 371.4,563.7 352.2,543.3 		"/>
	</g>
	<g id="脚_20_">
		<g id="鞋_8_">
			<path fill="#4F00DE" stroke="#000000" stroke-miterlimit="10" d="M482.8,707.7c0,0,3.2-16.7-12.5-18.4c-16.1,0-50.7,0-50.7,0
				s-14.2,1.1-14.2,19.1l38.7,1.6L482.8,707.7z"/>
			<path fill="#FFFFFF" stroke="#000000" stroke-width="0.982" stroke-miterlimit="10" d="M403,716.2c0,0,10,3.9,39.5,3.9
				c29.5,0,41.5-3.9,41.5-3.9s1.6-9.3,0-10c-1.6-0.7-15,3.9-41.5,3.9c-26.5,0-38.3-5.1-39.5-3.9C401.8,707.4,403,716.2,403,716.2z"
				/>
			<path fill="#BFBFBF" d="M484.2,708.1c0,0-15.2,6.3-39.7,4.9c0,6-28.3,5.1-28.3,5.1s39.4,4.7,67.6-2.4L484.2,708.1z"/>
			<line fill="none" stroke="#000000" stroke-width="0.982" stroke-miterlimit="10" x1="479" y1="706.8" x2="479" y2="717.3"/>
			<line fill="none" stroke="#000000" stroke-width="0.982" stroke-miterlimit="10" x1="473.5" y1="707.7" x2="473.5" y2="718.1"/>
			<line fill="none" stroke="#000000" stroke-width="0.982" stroke-miterlimit="10" x1="467.8" y1="708.4" x2="467.8" y2="718.8"/>
			<line fill="none" stroke="#000000" stroke-width="0.982" stroke-miterlimit="10" x1="461.4" y1="709.2" x2="461.4" y2="719.4"/>
			<line fill="none" stroke="#000000" stroke-width="0.982" stroke-miterlimit="10" x1="454.4" y1="709.7" x2="454.4" y2="719.8"/>
			<line fill="none" stroke="#000000" stroke-width="0.982" stroke-miterlimit="10" x1="447" y1="710" x2="447" y2="720.1"/>
			<line fill="none" stroke="#000000" stroke-width="0.982" stroke-miterlimit="10" x1="439" y1="709.8" x2="439" y2="719.8"/>
			<line fill="none" stroke="#000000" stroke-width="0.982" stroke-miterlimit="10" x1="432" y1="709.8" x2="432" y2="719.8"/>
			<line fill="none" stroke="#000000" stroke-width="0.982" stroke-miterlimit="10" x1="423.4" y1="709.2" x2="423.4" y2="719.2"/>
			<line fill="none" stroke="#000000" stroke-width="0.982" stroke-miterlimit="10" x1="415.8" y1="707.6" x2="415.8" y2="718.6"/>
			<line fill="none" stroke="#000000" stroke-width="0.982" stroke-miterlimit="10" x1="409.5" y1="706.7" x2="409.5" y2="717.7"/>
			<path fill="#A668FF" d="M448.4,691.4c0,0-19-2-29.1,1.9c-5.3,1.8-7.4,11.3-7.5,12.7c4.5,1.3,9.6,1.6,9.6,1.6s-2.3-6.6,2.1-10.1
				S438.3,690.6,448.4,691.4z"/>
		</g>
		<g id="鞋_7_">
			<path fill="#4F00DE" stroke="#000000" stroke-miterlimit="10" d="M378.8,707.7c0,0,3.2-16.7-12.5-18.4c-16.1,0-50.7,0-50.7,0
				s-14.2,1.1-14.2,19.1l38.7,1.6L378.8,707.7z"/>
			<path fill="#FFFFFF" stroke="#000000" stroke-width="0.982" stroke-miterlimit="10" d="M301,716.2c0,0,10,3.9,39.5,3.9
				c29.5,0,41.5-3.9,41.5-3.9s1.6-9.3,0-10c-1.6-0.7-15,3.9-41.5,3.9c-26.5,0-38.3-5.1-39.5-3.9C299.8,707.4,301,716.2,301,716.2z"
				/>
			<path fill="#BFBFBF" d="M382.2,708.1c0,0-15.3,6.3-39.7,4.9c0,6-28.3,5.1-28.3,5.1s39.4,4.7,67.6-2.4L382.2,708.1z"/>
			<line fill="none" stroke="#000000" stroke-width="0.982" stroke-miterlimit="10" x1="375" y1="706.8" x2="375" y2="717.3"/>
			<line fill="none" stroke="#000000" stroke-width="0.982" stroke-miterlimit="10" x1="369.5" y1="707.7" x2="369.5" y2="718.1"/>
			<line fill="none" stroke="#000000" stroke-width="0.982" stroke-miterlimit="10" x1="363.8" y1="708.4" x2="363.8" y2="718.8"/>
			<line fill="none" stroke="#000000" stroke-width="0.982" stroke-miterlimit="10" x1="357.4" y1="709.2" x2="357.4" y2="719.4"/>
			<line fill="none" stroke="#000000" stroke-width="0.982" stroke-miterlimit="10" x1="350.4" y1="709.7" x2="350.4" y2="719.8"/>
			<line fill="none" stroke="#000000" stroke-width="0.982" stroke-miterlimit="10" x1="343" y1="710" x2="343" y2="720.1"/>
			<line fill="none" stroke="#000000" stroke-width="0.982" stroke-miterlimit="10" x1="335" y1="709.8" x2="335" y2="719.8"/>
			<line fill="none" stroke="#000000" stroke-width="0.982" stroke-miterlimit="10" x1="328" y1="709.8" x2="328" y2="719.8"/>
			<line fill="none" stroke="#000000" stroke-width="0.982" stroke-miterlimit="10" x1="319.4" y1="709.2" x2="319.4" y2="719.2"/>
			<line fill="none" stroke="#000000" stroke-width="0.982" stroke-miterlimit="10" x1="311.8" y1="707.6" x2="311.8" y2="718.6"/>
			<line fill="none" stroke="#000000" stroke-width="0.982" stroke-miterlimit="10" x1="305.5" y1="706.7" x2="305.5" y2="717.7"/>
			<path fill="#A668FF" d="M344.4,691.4c0,0-19-2-29.1,1.9c-5.3,1.8-7.4,11.3-7.5,12.7c4.5,1.3,9.6,1.6,9.6,1.6s-2.3-6.6,2.1-10.1
				C323.8,694,334.3,690.6,344.4,691.4z"/>
		</g>
	</g>
	<g id="手_16_">
		<g id="手_18_">
			<g id="左手_12_">
				<path fill="#FFD2BE" stroke="#000000" stroke-width="1.4173" stroke-miterlimit="10" d="M497.2,632.8
					c-3.6,16.8,3.9,27.2,20.5,27.2c16.6,0,29-17.2,29-32.7c0-15.5-10.2-28.6-26.8-28.6c-12.7,0-19.4,3.8-25.4,14.1
					C490.7,619.7,498,629.3,497.2,632.8z"/>
				<path fill="#FFD2BE" stroke="#000000" stroke-width="1.4173" stroke-miterlimit="10" d="M513.9,627.5
					c-1.5,13-12.7,16.2-19.6,11.8c-6.1-3.8-9.1-14.5,0-25.9"/>
			</g>
			<path fill="#F2B484" d="M513.9,618.2c0,0,0,22.3-21,19C501.5,645.9,518.7,636.7,513.9,618.2z"/>
			<path fill="#F2B484" d="M509.8,638.2c0,0-3.7,4.8-12.5,3.3C496.4,651.7,509.4,643.2,509.8,638.2z"/>
			<path fill="#F2B484" d="M537.9,606.6c2.8,5.9,5.8,23.3-2.8,37c-6,9.5-11.9,15.1-21.2,15.5c16.1,2.1,24.9-10.8,27.2-14.6
				C546.7,635.9,549.6,618.5,537.9,606.6z"/>
		</g>
		<g id="手_17_">
			<g id="左手_11_">
				<path fill="#FFD2BE" stroke="#000000" stroke-width="1.4173" stroke-miterlimit="10" d="M287.2,632.8
					c3.6,16.8-3.9,27.2-20.5,27.2s-29-17.2-29-32.7c0-15.5,10.2-28.6,26.8-28.6c12.7,0,19.4,3.8,25.4,14.1
					C293.8,619.7,286.4,629.3,287.2,632.8z"/>
				<path fill="#FFD2BE" stroke="#000000" stroke-width="1.4173" stroke-miterlimit="10" d="M270.5,627.5
					c1.5,13,12.8,16.2,19.6,11.8c6.1-3.8,9.1-14.5,0-25.9"/>
			</g>
			<path fill="#F2B484" d="M291.4,616.4c1.5,2.4,2.9,11.3-0.7,17.3c-1.8,3-7.3,6.4-12.2,5.5c6.1,3.2,12.8,0.3,15.3-5.2
				C297.3,626.6,292.9,618.2,291.4,616.4z"/>
			<path fill="#F2B484" d="M272.3,621.6c-8,10.9,4.5,21.2,2.9,28.4c-0.8,3.5-5.9,10.4-15,8.3c7.4,2.5,19.4,0.3,23.5-5.7
				c1.1-1.6,3.4-4.2,3.7-11.2C276.6,644.1,266.1,632.9,272.3,621.6z"/>
		</g>
	</g>
	<g id="耳朵_44_">
		<g id="耳朵_51_">
			<path fill="#C87A4A" stroke="#000000" stroke-width="1.4173" stroke-miterlimit="10" d="M341.7,208.4
				c-4.2-24.9-60.1-92.9-138.2-48.3C149,192,149.8,274,208.3,326.7L341.7,208.4z"/>
			<path fill="#AA5834" d="M254.9,145.3c43,6.6,70.9,44.8,73.8,62.1l13,1C338.5,189.4,305.2,145.3,254.9,145.3z"/>
			<path fill="#FFBEBA" stroke="#000000" stroke-width="0.7087" stroke-miterlimit="10" d="M229.5,277.8c-5-0.4-41.5-52.2-2-77.4
				c38.8-24.8,76.6,15.4,76,22.4L229.5,277.8z"/>
		</g>
		<g id="耳朵_45_">
			<path fill="#C87A4A" stroke="#000000" stroke-width="1.4173" stroke-miterlimit="10" d="M441.5,208.4
				c4.2-24.9,60.1-92.9,138.2-48.3c54.6,31.9,53.8,113.9-4.8,166.6L441.5,208.4z"/>
			<path fill="#AA5834" d="M579.7,160.1c-1.1-0.6-2.2-1.2-3.3-1.8C622.1,193,619,268,565,317.9l9.9,8.7
				C633.5,274,634.2,192,579.7,160.1z"/>
			<path fill="#FFBEBA" stroke="#000000" stroke-width="0.7087" stroke-miterlimit="10" d="M553.7,277.8c5-0.4,41.5-52.2,2-77.4
				c-38.8-24.8-76.6,15.4-76,22.4L553.7,277.8z"/>
		</g>
	</g>
	<g id="面部_19_">
		<path id="面部_20_" fill="#FFDCD0" stroke="#000000" stroke-width="1.4173" stroke-miterlimit="10" d="M214.3,278.3
			c11.2-30.5,46.9-77.2,129.7-100c36.3-10,61.8-8.8,96.6,0.5c41.8,11.2,105.2,42.4,128.8,98.9c11.7,28,11.7,87.7,11.7,87.7
			s23.3,12,23.3,49.3c0,32.5-52.7,87.4-157.3,100.9c-15.4,2-29.3,11.1-53.3,11.1s-38-9.3-54.8-11.6C236.1,501,179,448.5,179,414.7
			c0-34.2,25.5-48.8,25.5-48.8S201,314.7,214.3,278.3z"/>
		<path fill="#EEB6A0" d="M532.7,227.5c34.8,34.5,46.6,60.2,47.7,138.2c0,0-7.3,1.1-13.4,5.4C573.9,347.5,572.5,271,532.7,227.5z"/>
		<path fill="#EEB6A0" d="M267,496.2c18.9,9.2,64.8,17.7,77.4,19.2c6.4,1.4,29.4,10.5,47,10.5s30.2-3.9,46.7-9.6
			c29.3-2.6,80.2-15.3,104.8-31c-30.3,13.1-68.9,21.4-97.6,25.7c3.7-3.3,8.2-5.9,11.8-11.9c-15.7,13.9-34.1,19.9-61.5,20.6
			C384.7,519.9,312,509.5,267,496.2z"/>
	</g>
	<g id="鼻子_1_">
		<ellipse fill="#FFC6A4" stroke="#000000" stroke-width="1.4173" stroke-miterlimit="10" cx="391.3" cy="421.3" rx="90" ry="59"/>
		<path fill="#E6A082" d="M392,467.5c-28.1,1.3-47.3-1.5-68.3-8.4c6.1,6,32.9,20.6,67.2,20.6c48.4,0,89.7-24.6,89.7-58.4
			C475.8,438.2,445.9,465,392,467.5z"/>
		<g id="鼻子_2_">
			<path fill="#69301B" stroke="#000000" stroke-miterlimit="10" d="M404.4,385.7c-5.2,0-8,2.3-13.5,2.4c-5.5-0.1-8.3-2.4-13.5-2.4
				c-10,0-18.5,8.3-18.5,15.5c0,7.3,6.2,16.9,19.6,18.3c3.1,0.3,22,0.4,24.7,0c13.3-2,19.6-11,19.6-18.3
				C422.9,394,414.4,385.7,404.4,385.7z"/>
			<path fill="#3F1000" d="M420.8,406c0,4.5-6.4,10.1-14,12.3c-4.9,1.4-10,1-16.5,1c-5.7,0-10.3,0.4-14.8-0.7
				c-8.7-2.1-14.9-8.3-14.9-12.6c0-6.6,13.4-9,30-9S420.8,399.3,420.8,406z"/>
		</g>
	</g>
	<g id="眼睛_40_">
		<linearGradient id="SVGID_4_" gradientUnits="userSpaceOnUse" x1="448.5415" y1="351.7919" x2="532.2632" y2="351.7919">
			<stop  offset="0" style="stop-color:#CC869C"/>
			<stop  offset="0.9615" style="stop-color:#FFC6D6"/>
		</linearGradient>
		<path fill="url(#SVGID_4_)" d="M524.7,326.7c17.5,42.8,2.8,76.1-24.6,76.1s-47.7-28.8-50.6-44.6c-4-20.6,4.9-42.7,20.5-51.1
			C489.5,296.5,512.7,297.3,524.7,326.7z"/>
		<linearGradient id="SVGID_5_" gradientUnits="userSpaceOnUse" x1="244.0376" y1="355.8311" x2="312.9216" y2="355.8311">
			<stop  offset="0" style="stop-color:#CC869C"/>
			<stop  offset="0.9615" style="stop-color:#FFC6D6"/>
		</linearGradient>
		<path fill="url(#SVGID_5_)" d="M304.6,326.7c20.7,41.4-1.1,75.1-24.6,76.1c-18.5,0.8-31.7-19.4-34.5-35.2
			c-4-20.6,0.4-34.5,11-48.8C264.4,308,291.7,300.7,304.6,326.7z"/>
		<g id="眼睛_42_">
			<radialGradient id="SVGID_6_" cx="281.6733" cy="358.1066" r="37.8513" gradientUnits="userSpaceOnUse">
				<stop  offset="0" style="stop-color:#4D4D4D"/>
				<stop  offset="1" style="stop-color:#1A1A1A"/>
			</radialGradient>
			<ellipse fill="url(#SVGID_6_)" stroke="#000000" stroke-miterlimit="10" cx="281.7" cy="358.1" rx="30" ry="44.3"/>
			
				<radialGradient id="SVGID_7_" cx="260.1823" cy="358.1066" r="28.178" gradientTransform="matrix(0.9851 0 0 1 25.3726 0)" gradientUnits="userSpaceOnUse">
				<stop  offset="0" style="stop-color:#333333"/>
				<stop  offset="1" style="stop-color:#000000"/>
			</radialGradient>
			<ellipse fill="url(#SVGID_7_)" cx="281.7" cy="358.1" rx="22" ry="33"/>
			
				<ellipse transform="matrix(0.3609 -0.9326 0.9326 0.3609 -147.2983 475.2638)" fill="#F2F2F2" cx="273.1" cy="345.1" rx="7" ry="5.7"/>
			<ellipse cx="281.7" cy="358.1" rx="8" ry="13"/>
			<path fill="#FFFFFF" d="M298.1,378.9c-1.4,2.5-3.6,4.4-4.3,3.6c-0.8-0.8,0.9-0.9,2.7-4.4c1.9-3.5,1.5-4.6,2.6-4.5
				C300.1,373.7,299.5,376.4,298.1,378.9z"/>
			<ellipse fill="#FFFFFF" cx="264.4" cy="359.7" rx="2.8" ry="4.1"/>
		</g>
		<g id="眼睛_41_">
			<radialGradient id="SVGID_8_" cx="502.6734" cy="358.1066" r="37.8513" gradientUnits="userSpaceOnUse">
				<stop  offset="0" style="stop-color:#4D4D4D"/>
				<stop  offset="1" style="stop-color:#1A1A1A"/>
			</radialGradient>
			<ellipse fill="url(#SVGID_8_)" stroke="#000000" stroke-miterlimit="10" cx="502.7" cy="358.1" rx="30" ry="44.3"/>
			
				<radialGradient id="SVGID_10_" cx="484.5296" cy="358.1066" r="28.178" gradientTransform="matrix(0.9851 0 0 1 25.3726 0)" gradientUnits="userSpaceOnUse">
				<stop  offset="0" style="stop-color:#333333"/>
				<stop  offset="1" style="stop-color:#000000"/>
			</radialGradient>
			<ellipse fill="url(#SVGID_10_)" cx="502.7" cy="358.1" rx="22" ry="33"/>
			
				<ellipse transform="matrix(0.3609 -0.9326 0.9326 0.3609 -6.0616 681.3678)" fill="#F2F2F2" cx="494.1" cy="345.1" rx="7" ry="5.7"/>
			<ellipse cx="502.7" cy="358.1" rx="8" ry="13"/>
			<path fill="#FFFFFF" d="M519.1,378.9c-1.4,2.5-3.6,4.4-4.3,3.6c-0.8-0.8,0.9-0.9,2.7-4.4c1.9-3.5,1.5-4.6,2.6-4.5
				C521.1,373.7,520.5,376.4,519.1,378.9z"/>
			<ellipse fill="#FFFFFF" cx="485.4" cy="359.7" rx="2.8" ry="4.1"/>
		</g>
	</g>
	<g id="眼镜_4_">
		<radialGradient id="SVGID_11_" cx="392.4166" cy="350.8107" r="145.4691" gradientUnits="userSpaceOnUse">
			<stop  offset="0" style="stop-color:#333333"/>
			<stop  offset="1" style="stop-color:#000000"/>
		</radialGradient>
		<path fill="url(#SVGID_11_)" d="M583.4,297.2H429.3c-4.2,0-7.7,3.4-7.7,7.7v14.9c0,0.1,0,0.2,0,0.3c0,1.5-1.4,2.6-2.9,2.1
			c-5.4-1.7-14.9-3.9-27.1-3.9c-11.7,0-20.4,2-25.6,3.7c-1.4,0.5-2.9-0.6-2.9-2.1v0v-14.9c0-4.2-3.4-7.7-7.7-7.7H201.4
			c-4.2,0-7.7,3.4-7.7,7.7v14.9c0,46.8,37.9,84.7,84.7,84.7h0c36.3,0,67.2-22.8,79.2-54.8c4.5-11.9,15.4-20.1,28.1-21.3
			c1.9-0.2,3.9-0.3,5.9-0.3c2.5,0,5,0.1,7.4,0.4c12.8,1.2,23.6,9.6,28.2,21.6c12.2,31.8,43,54.5,79.1,54.5h0
			c46.8,0,84.7-37.9,84.7-84.7v-14.9C591,300.6,587.6,297.2,583.4,297.2z M343.5,324.1c0,34.8-28.2,63-63,63h0
			c-35.9,0-65-29.1-65-65v0c0-4.6,3.7-8.3,8.3-8.3h111.4c4.6,0,8.3,3.7,8.3,8.3V324.1z M571.4,324.1c0,34.8-28.2,63-63,63h0
			c-35.9,0-65-29.1-65-65v0c0-4.6,3.7-8.3,8.3-8.3H563c4.6,0,8.3,3.7,8.3,8.3V324.1z"/>
		<linearGradient id="SVGID_12_" gradientUnits="userSpaceOnUse" x1="198.4996" y1="329.5721" x2="354" y2="329.5721">
			<stop  offset="0" style="stop-color:#4D4D4D"/>
			<stop  offset="1" style="stop-color:#1A1A1A"/>
		</linearGradient>
		<path fill="url(#SVGID_12_)" d="M207.9,302H354l-1.3,2.5c0,0-133.9,0-142.8,0.1c-8.9,0.1-9.2,14.3-9.2,14.3s0.5,23.1,10.2,38.2
			c-12.8-16.4-12.5-40.5-12.5-44.3C198.5,306.9,200.8,302,207.9,302z"/>
		<linearGradient id="SVGID_13_" gradientUnits="userSpaceOnUse" x1="283" y1="356.6438" x2="352.5771" y2="356.6438">
			<stop  offset="0" style="stop-color:#1A1A1A"/>
			<stop  offset="1" style="stop-color:#4D4D4D"/>
		</linearGradient>
		<path fill="url(#SVGID_13_)" d="M348.9,328.3c0,0,0.3,21.1-20.6,41.8c-17,16.9-45.3,22.1-45.3,22.1s26.7-0.3,50.7-23.3
			c24-22.9,18.3-48,18.3-48S352.1,326.1,348.9,328.3z"/>
		<path d="M356.5,340.4c0,0-3.7,17.8-24.6,38.6c-17,16.9-53.4,25.4-53.4,25.4s31,1.6,57.9-23.3c13.2-12.3,19.8-26.4,23.1-36.8
			c0.7-2.4,5.5-8.8,12.7-12.4c3.7-1.9,9.1-4,12.8-4.1c15-0.5,28.6,0.8,38.7,13c-3.4-13.3-23.7-15.6-32.1-15.6
			c-14.4,0-27.3,5.1-27.3,5.1S358.4,333.1,356.5,340.4z"/>
		<path d="M279.5,309.4c0,0-53.1,0-57.5,0s-7.7,1.6-9.5,3.4c-1.8,1.8-2.3,3.2-2.3,9.2s2.5,20.1,9.8,34s29.3,31.2,47.6,31.9
			c-9.9-2.2-18.3-7.7-18.3-7.7s-18.1-9.2-26.5-27.3c-6.8-14.7-7.7-28-7.9-30c-0.2-2,0.2-4.6,1.7-6.6c1.5-1.9,4.7-3.3,5.7-3.3
			s101.3,0.7,101.3,0.7L279.5,309.4z"/>
		<path opacity="0.6" d="M343.5,324.1c0,34.8-28.2,63-63,63h0c-35.9,0-65-29.1-65-65v0c0-4.6,3.7-8.3,8.3-8.3h111.4
			c4.6,0,8.3,3.7,8.3,8.3V324.1z"/>
		<polygon fill="#FFFFFF" points="221.8,350.3 219.9,346.2 228.8,313.2 232,313.2 		"/>
		<polygon fill="#FFFFFF" points="229.7,362.8 223.8,354 235.4,313.2 239.3,313.2 		"/>
		<linearGradient id="SVGID_14_" gradientUnits="userSpaceOnUse" x1="426.3736" y1="329.5721" x2="581.874" y2="329.5721">
			<stop  offset="0" style="stop-color:#4D4D4D"/>
			<stop  offset="1" style="stop-color:#1A1A1A"/>
		</linearGradient>
		<path fill="url(#SVGID_14_)" d="M435.8,302h146.1l-1.3,2.5c0,0-133.9,0-142.8,0.1c-8.9,0.1-9.2,14.3-9.2,14.3s0.5,23.1,10.2,38.2
			c-12.8-16.4-12.5-40.5-12.5-44.3C426.4,306.9,428.7,302,435.8,302z"/>
		<linearGradient id="SVGID_15_" gradientUnits="userSpaceOnUse" x1="510.874" y1="356.6438" x2="580.451" y2="356.6438">
			<stop  offset="0" style="stop-color:#1A1A1A"/>
			<stop  offset="1" style="stop-color:#4D4D4D"/>
		</linearGradient>
		<path fill="url(#SVGID_15_)" d="M576.7,328.3c0,0,0.3,21.1-20.6,41.8c-17,16.9-45.3,22.1-45.3,22.1s26.7-0.3,50.7-23.3
			c24-22.9,18.3-48,18.3-48S580,326.1,576.7,328.3z"/>
		<path d="M583.4,339.8c0,0-2.7,18.5-23.6,39.3c-17,16.9-53.4,25.4-53.4,25.4s31,1.6,57.9-23.3c24.3-22.5,26.2-51.6,26.2-51.6
			S586.6,337.6,583.4,339.8z"/>
		<path d="M507.4,309.4c0,0-53.1,0-57.5,0s-7.7,1.6-9.5,3.4c-1.8,1.8-2.3,3.2-2.3,9.2s2.5,20.1,9.8,34s29.3,31.2,47.6,31.9
			c-9.9-2.2-18.3-7.7-18.3-7.7s-18.1-9.2-26.5-27.3c-6.8-14.7-7.7-28-7.9-30c-0.2-2,0.2-4.6,1.7-6.6c1.5-1.9,4.7-3.3,5.7-3.3
			c1,0,101.3,0.7,101.3,0.7L507.4,309.4z"/>
		<path opacity="0.6" d="M571.4,324.1c0,34.8-28.2,63-63,63h0c-35.9,0-65-29.1-65-65v0c0-4.6,3.7-8.3,8.3-8.3H563
			c4.6,0,8.3,3.7,8.3,8.3V324.1z"/>
		<linearGradient id="SVGID_16_" gradientUnits="userSpaceOnUse" x1="368.9167" y1="322.7831" x2="461.3765" y2="322.7831">
			<stop  offset="0" style="stop-color:#4D4D4D"/>
			<stop  offset="1" style="stop-color:#1A1A1A"/>
		</linearGradient>
		<path fill="url(#SVGID_16_)" d="M368.9,321.9c0,0,20.1-5,35.4-2.1c15.3,2.8,15.5,3.5,15.5,3.5l0.7,3.4c0,0-9.8-2.4-16.5-4.1
			C389.6,319,368.9,321.9,368.9,321.9z"/>
		<polygon fill="#FFFFFF" points="449.7,350.3 447.8,346.2 456.7,313.2 459.9,313.2 		"/>
		<polygon fill="#FFFFFF" points="457.6,362.8 451.7,354 463.3,313.2 467.2,313.2 		"/>
	</g>
	<g id="胡子_1_">
		<path fill="#FFFFFF" stroke="#000000" stroke-miterlimit="10" d="M479.6,501.2c-11.9,3.5-71.3,4.1-87,4.1c-15.7,0-75.1-1.6-87-5
			c-38.8-11.3-98.4-37-105.1-44.7c3.7,20.3,14.1,37,27.1,52.4c18.1,21.3,47.8,8.7,59.3,22c-2.2,30.2,32.2,25.1,60.9,31.5
			c29.5,6.2,34.5,13.8,44.8,29.3c10.3-15.4,15.3-23.1,44.8-29.3c28.7-6.5,63.1-1.4,60.9-31.5c11.4-13.3,41.2-0.6,59.3-22
			c13-15.3,23.9-33.6,27.6-53.9C578.5,461.7,518.4,489.9,479.6,501.2z"/>
		<g>
			<path fill="#E0DFD9" d="M281.7,520.4c-11.4-13.3-41.2-0.6-59.2-22c-4.3-5.1-8.3-10.3-11.8-15.7c4.7,8.7,10.6,16.9,17.2,24.6
				c15.7,18.6,40.3,11.4,53.9,18C281.5,523.8,281.5,522.1,281.7,520.4z"/>
			<path fill="#E0DFD9" d="M574.5,461.9c-5.3,14.1-13.2,25.7-22.8,37c-18.1,21.3-47.8,8.7-59.3,22c2.2,30.2-32.2,25.1-60.9,31.5
				c-29.5,6.2-31.6,13.4-41.9,28.8c-10.3-15.4-18.3-22.6-47.8-28.8c-20.5-4.6-43.2-3.7-54.1-13.6c5.2,19.8,34.3,16.4,59.6,22.1
				c29.5,6.2,34.9,13.5,45.2,29c10.3-15.4,14.8-22.3,44.3-28.5c28.7-6.5,63.1-1.4,60.9-31.5c11.4-13.3,41.2-0.6,59.3-22
				c13-15.3,23.6-31.7,27.2-52C583,457.3,579.4,459.1,574.5,461.9z"/>
		</g>
		<path fill="#FFFFFF" stroke="#000000" stroke-miterlimit="10" d="M487.2,459c14.4,4.7,12.9,22.4,1.5,24.3
			c-11.8,1.9-31.4-24.6-53.5-23.8c-15.2,0.6-35.7,9.4-41.1,11.9c-5.4-2.5-25.9-11.3-41.1-11.9c-22.1-0.9-41.8,25.6-53.5,23.8
			c-11.4-1.8-12.9-19.6,1.5-24.3c-19.7-4-27.1,25.8-3.2,38c22.8,11.7,70.6,12.7,96.4-2.2c25.8,14.9,73.5,13.9,96.4,2.2
			C514.3,484.8,507,455,487.2,459z"/>
		<path fill="#E0DFD9" d="M322.7,504.9c1.3,4.1,10.7,15.8,42.9,16.7c11.9,0.3,29.9-6.6,39.3-9c67.8,16.9,86.5-4.4,95.5-8.6
			c8.9-4.2,6.4-11.3,6.4-11.3s-16.6,8.5-42.6,11.8c-17.5,2.2-82.7,4.2-99.8,0.5C344.6,507.3,332.9,506.7,322.7,504.9z"/>
		<path fill="#E0DFD9" d="M379.5,466.1c8.6,8.4,3.4,36.5-42.9,39.1c17.7,0.3,38.6-0.4,57.4-11c12.7,8.4,42,13.3,65.1,10.2
			c22.2-1.8,37-8.5,42.2-17.7c5.8-7.5,6.4-27.5-12-27.5c14.2,2.6,16.1,15.5,11.1,25.2c-3.3,6.5-12.6,11-18.6,12.6
			c-15,3.9-37.4,4.9-45.8,3.8c-17.7-2.3-27.4-5.4-33.9-10.8c-9.3-7.7-8.1-17.9-8.1-17.9S381.9,466.4,379.5,466.1z"/>
	</g>
	<g id="头发_10_">
		<path fill="#FFCDAD" stroke="#000000" stroke-width="1.4173" stroke-miterlimit="10" d="M364.8,196.7
			c-26.6-6.4-37.6-38.8-23.1-58.7c-3.2,16.8,9.8,36.2,37.8,33.6"/>
		<path fill="#E4B27A" d="M340.5,141.2c0,0-1.2,8.3,0.4,14.6c2.3,8.7,10.2,15.5,10.2,15.5s-6.1,0.6-8.9-2.4c0.3,0.6,4.9,4.7,5.9,5.3
			c12.1,7.9,23.3,8.5,23.3,8.5s-8.9,1.1-14.9-0.6c6.7,4.3,21.7,4.9,21.7,4.9s-4.8,2.7-9.9,1.4c6.3,2.5,15.9,3.4,22.8,1.7l-14.4-17.4
			C371.2,173.3,340.9,171.3,340.5,141.2z"/>
		<path fill="#FFCDAD" stroke="#000000" stroke-width="1.4173" stroke-miterlimit="10" d="M445.2,180.1c-16.5-4.2-20.3-24.4-6-27.6
			c-14.9-3.3-21.7,16.3-17.7,21.8c-13.6-1-48-22.5-40.8-55.3c-13,15.5-24.8,68.8,30.3,77.7"/>
		<path fill="#E4B27A" d="M400.3,184.9c-23.7-12-27.2-38.2-20.8-62.1c-4.5,32.1,32,54.1,47.5,53.1c-4-5.5-4.3-18,8.8-23
			c-10.9,5.4-7.1,23.8,9.3,28c0,0-7.1,0.9-18.1-5c0,1.1,15.7,9,15.7,9l-21.8-8.9l20.7,13.1l-15-3l6.8,5l-17.1-6.9l22.3,14.4
			L400.3,184.9z"/>
	</g>
	<g id="帽子_8_">
		<path fill="#FF0000" stroke="#000000" stroke-miterlimit="10" d="M566.9,154c-14.5-31.3-52.3-51-78.7-54.8c8.7,12,9.3,19,0,25
			c7.6,17.5,29.1,23.3,41.5,33.6c14.9,12.4,10.7,22,10.7,22L254,185c0,0,13.2-46.1,19.6-63.6c6-16.4,87-88.4,141.2-87.8
			C510.7,33.7,588.5,102.4,566.9,154z"/>
		<path fill="#7F000D" d="M488.3,99.2c0,0-97.5-16.2-62.3-32.1c5.5-2.3,6.5,10.6,19.2,16.7C463.8,92.9,488.3,99.2,488.3,99.2z"/>
		<path fill="#7F000D" d="M570.5,139.4c-2.3-11.6-9.5-17.1-15.9-22c15.7,2-7.2-29.5-10.4-34.1C558.7,98.2,570.5,116.7,570.5,139.4z"
			/>
		<path fill="#7F000D" d="M487.5,124.2c0,0,3.2-1.5,5.1-4.8c-8,2.2-53.2-1.5-70.7-6.2c-17.8-4.8-40.3-12.8-45.2-10.2
			c-13.2,7,14.4,14.8,39.7,17.4c65.8,6.8,79.1,25.5,94.8,26.2C493.3,138.1,487.5,124.2,487.5,124.2z"/>
		<path fill="#7F000D" d="M261.6,159.4L254,183l286.4-3.2c0,0,1.4-8.5-3-13.7c-4.7,7.9-21.7,12.5-34.7,11.5s-88.2-5.1-109.2,0.2
			c-12,3.1-89.3-3.2-101.2-3.2C282.1,174.7,262.9,177.6,261.6,159.4z"/>
		<path fill="#FFFFFF" stroke="#000000" stroke-miterlimit="10" d="M244,181.5c22.6-7.8,84.9-1,140.7-1s147.3-5.8,157-0.9
			c31.2,15.7,26.9,68,16,76.5c-6,4.7-133.9-7.7-171.9-7.7s-155.4,11.4-160,2.9C216.9,234.5,218.9,190.1,244,181.5z"/>
		<path fill="#E0DFD9" d="M541.5,179.6c-2.7-1.4-14.2-1.8-22.3-1.7c39.5,22.9,28.2,62.9,13.1,69.6c-9.4,4.2-31.8-0.8-59.6-3.5
			c-70.5-6.8-197.4-3.5-218.6,0.3c-21.1,3.8-30.2-8.4-33-18.8c-0.5,11.5,3.4,25.5,6,26.8c10.1,5.3,120.6-3.8,158.6-3.8
			s164.9,10.6,171.9,7.7c6.7-2.8,10.5-26,6.7-44.7C560.8,194.8,549.6,183.8,541.5,179.6z"/>
		<path fill="#FFFFFF" stroke="#000000" stroke-miterlimit="10" d="M598.7,160.6c0,3-5.1,6.5-1.3,8.7c-3.1-0.3-2,5.3-3.5,7.6
			c-2.6,4-9.8,6.1-10.1,9.7c-2.6-3.6-4.4,2.2-6.8,2.9c-2.6,0.8-6.4-4.4-8.3,1.2c-2.2-4-6.6-0.6-9.6-1.6c-5-1.7-7.9-9.9-12.8-8.5
			c2-2.9-5.1-7.2-6.4-11.6c-0.8-2.6,1.9-7.1-1.2-8.3c3.9-1.2,0.4-5.8,1.2-8.4c1.3-4.5,7.3-8.3,6.7-11.8c5,0.6,4.2-4,6.7-5.5
			c2.4-1.5,7.2-1.1,7.9-3.3c2,1.8,4.9-0.9,7.5-0.9c6.3-1.1,8.4,3.5,12.4,2.7c1.9,4.5,6.2,3.5,8.7,6.1c-0.4,4.8,5.8,7.3,7.3,11.9
			C598.1,154.2,595.8,159.4,598.7,160.6z"/>
		<path fill="#E0DFD9" d="M598.1,160.9c-2.6-1.9-0.6-6.1-1.3-9.1c-0.3-1.5-2.2-4-4-5.6c0.7,3-0.2,7.3,2.5,8.5c0,3-5.1,6.5-1.3,8.7
			c-3.1-0.3-2,5.3-3.5,7.6c-2.6,4-9.8,6.1-10.1,9.7c-2.6-3.6-4.4,2.2-6.8,2.9c-2.6,0.8-6.4-4.4-8.3,1.2c-2.2-4-6.6-0.6-9.6-1.6
			c-4.5-1.5-7.3-8.3-11.4-8.6c1.5,1.9,2.8,3.5,2.8,5.3c5,0.2,6.9,6.4,11.7,8.5c3.3,1.4,7.4-1.8,9.7,1.2c2.9-4.8,5.7,0.2,8.4-0.5
			c2.4-0.7,3.8-5.6,6.7-3.5c1.5-3.5,7.4-4.9,10-8.9c1.5-2.3,0.3-6.2,2.6-7.6C593.8,166.2,598.1,164,598.1,160.9z"/>
	</g>
</g>
</svg>