<?xml version="1.0" encoding="utf-8"?>
<svg version="1.0" id="layer_1" xmlns="http://www.w3.org/2000/svg" xmlns:xlink="http://www.w3.org/1999/xlink" x="0px" y="0px" viewBox="0 0 800 800" enable-background="new 0 0 800 800" xml:space="preserve">
<g id="_x31__2_">
	<g id="身体_2_">
		<path fill="#8BBBFF" stroke="#000000" stroke-width="1.4173" stroke-miterlimit="10" d="M291.3,599.9c0.9-16.5,4-26.1,6.4-31.4
			C293.8,577.2,292.1,589,291.3,599.9l-0.4,14.5c0,9.2,0.5,24.7,0.5,24.7l13.1,58.4l71.6,1.9l9.4-39.9c0,0,3.8,0.4,6.6,0.4
			c2.8,0,6.6-0.4,6.6-0.4l9.4,39.9l71.6-1.9l13.1-58.4c0,0,0.5-15.2,0.5-24.1c0,0-0.2-33.1-6.8-46.5c2.1,3.2,5.8,16.1,6.5,34.5
			l0.4,12c3.6,39.4,49.8,38.6,49.8-5c0-45.3-33.4-74.5-41.8-80c-15.2-10.7-43.5-17.3-43.5-17.3h-65.7H392h-65.7
			c0,0-28.3,6.6-43.5,17.3c-8.4,5.5-41.8,34.7-41.8,80c0,43.8,46.6,44.3,49.8,4.4L291.3,599.9z"/>
		<path opacity="0.1" fill="#FFD2BE" d="M437.7,576.5c-10.9-19-1-39.8-11.4-39.8c-10.4,0-14.2,9.4-33,9.4c-0.1,0-0.7,0-0.8,0
			c-18.8,0-22.6-9.4-33-9.4s-0.5,20.8-11.4,39.8c-22.8,39.7,5.8,74.2,42.6,74.2c0.8,0,3.7,0,4.4,0
			C431.9,650.8,460.5,616.2,437.7,576.5z"/>
		<path fill="#6EA0DC" d="M542.8,609.5c0,10.4-6.2,31.3-16,29.3c4.2-12,3.7-32.8,3.7-32.8c1.9-45.3-26.9-73.4-26.9-73.4
			C534.1,556.9,542.8,591.9,542.8,609.5z"/>
		<path fill="#6EA0DC" d="M274.7,616.1c0,5.8-1.1,21.3-7.7,26.7c11.5,0,18.5-11.9,19.9-14.8c3.3-7.1,3.3-18,3.3-18
			c-0.3-34.8,10.2-48.6,10.2-48.6C282,576.8,274.7,606.2,274.7,616.1z"/>
		<path fill="#6EA0DC" d="M459.6,514.5c-4.6-8.2-28.1-15.9-64-17c-13.9-0.4-69.1-2.1-64.6,6.1c4.9,8.9,20.3,23,61.8,26
			C428.7,532.2,465.3,524.7,459.6,514.5z"/>
	</g>
	<g id="衣服_15_">
		<path fill="#7C22B4" stroke="#000000" stroke-width="0.7087" stroke-miterlimit="10" d="M388.8,572.5c-7.8-13-40.8-45.8-41.3-57.3
			l-30.6-4.1c-15.5,1.5-33.4,11.8-43.2,21.5c-18.5,18.3-28.7,37-36.1,54.6c-0.6,1.5,13-1.8,52.1,15.5c-4.2,13.9-3.6,61.8-3,77.1
			c2.2,2.7,28.5,4.8,66.6,1C353.4,681,396.5,585.5,388.8,572.5z"/>
		<path fill="#682873" d="M322.9,514.7c0,0-3.9,21.4,16.8,40c20.7,18.7,66.2,42.7,66.2,42.7s-9.1-14.7-20.7-27.3
			c-11.5-12.7-34.5-39.4-34.9-48.4S327.4,506.7,322.9,514.7z"/>
		<path fill="#3458B4" stroke="#000000" stroke-width="0.7087" stroke-miterlimit="10" d="M320,508.3c0,0-3.9,21.4,16.8,40
			S403,591,403,591s-9.1-14.7-20.7-27.3c-11.5-12.7-34.5-39.4-34.9-48.4C347.1,506.2,324.6,500.3,320,508.3z"/>
		<path fill="#282E82" d="M346.6,515.7c-0.2,13.6,33.4,52.8,36.5,59c10.9,6.4,19,12.7,19,12.7s-11.6-14-23.1-26.7
			C367.6,548.1,352.2,530.4,346.6,515.7z"/>
		<path fill="#7C22B4" stroke="#000000" stroke-width="0.7087" stroke-miterlimit="10" d="M383.2,574.8
			C367,602.2,349,684.9,349,684.9c13.3,2.2,45.8,2.2,59.5,1.2c69.8-4.9,88.7-13.3,88.7-13.3s-1.2-49.8-4.3-69.8
			c22.6-10,45.1-4.2,50.1,1.3c0.8-0.9,7.6-11.3,7.5-20.9c-6.2,1.4-10.5-0.2-10.8-1.1c-8.8-20.4-19.7-43-31.6-52.1
			c-9.8-7.4-23.6-16.4-36.7-19c-11.1-1.5-33.9,4.1-33.9,4.1C424,523.8,399.3,547.3,383.2,574.8z"/>
		<path fill="#682873" d="M474.2,510.9c-66,57.1-105.6,113.5-105.6,113.5s33.1-29.8,63-60.3c20.6-21.1,38.2-44.7,48.2-50.5
			C477.1,512.5,474.2,510.9,474.2,510.9z"/>
		<path fill="#3458B4" stroke="#000000" stroke-width="0.7087" stroke-miterlimit="10" d="M474.2,512.6c0,0-27.3,33.6-48,52.3
			c-20.7,18.7-64.9,69.3-64.9,69.3s14.4-49.5,24.2-63.5c16.8-23.9,26.9-38.2,53.5-59.8C446.1,505.2,469.7,504.6,474.2,512.6z"/>
		<path fill="#282E82" d="M465.4,507.5c-0.7,13.3-23.6,35.4-38.7,49c-17.7,15.9-45.7,50.6-55.5,61.7c-2.4,7.6-9.9,15.4-9.9,15.4
			s44.2-50.7,64.9-69.3c20.7-18.7,48-52.3,48-52.3C473.4,510.5,467.2,508.4,465.4,507.5z"/>
		<path fill="#682873" d="M482.9,559.3c5.1,14.7,5.1,41.1,3.6,65.1c-0.1,1.1-91.6,4.3-120.1,8.2c-4.5,0.6-5.6,4.9-5.7,5.6
			c-0.2,1.5,125-3.5,124.9-2c-1.8,23.9-4.4,40.2-4.4,40.2l15.5-3.9C496.9,672.5,496.9,583.2,482.9,559.3z"/>
		<path fill="#682873" d="M299.8,559.6c-7.6,21.9-6.1,52.7-4.5,69.5c0.1,1,47.6,1.5,63.4,4c3.5,0.6,1,6,1,6.2
			c-1.3,0.1-6.3,27.6-7.8,27.7c-1.1,0,1.4-27.4,0.2-27.4c-19.7,0.3-51.6-1.8-56.2-4c-0.2,3.7,0.8,5.6,0.8,5.6s-7.3,19.8-9.5,18.8
			C286.4,658.7,283.2,592.2,299.8,559.6z"/>
		<polygon fill="#3458B4" stroke="#000000" stroke-width="0.7087" stroke-miterlimit="10" points="314,615.5 321,611.3 326.9,623.6 
			319.3,627.5 		"/>
		<polygon fill="#3458B4" stroke="#000000" stroke-width="0.7087" stroke-miterlimit="10" points="344.6,636.7 353.4,636.7 
			353.1,676.8 345,677.4 		"/>
		<path fill="#3458B4" stroke="#000000" stroke-width="0.7087" stroke-miterlimit="10" d="M329.5,624.7c-9,1-42.7-6.5-42.7-6.5
			l0.4,14.7l44.5,3.8c1.1,0,3.3,0,5.3-0.5c1.4-0.3,13.3-12.8,18.7-10.9C347.6,616.4,332.4,624.1,329.5,624.7z"/>
		<g>
			<path fill="#282E82" d="M335.6,634.1l-44.5-3.8l-0.3-11.6c-2.5-0.5-4.1-0.9-4.1-0.9l0.4,14.7l44.5,3.8c1.1,0,2.9,0.1,4.9-0.4
				c0.3-0.1,0.6-0.8,1.9-1.9C336.9,634.2,336.4,634.1,335.6,634.1z"/>
		</g>
		<path fill="#3458B4" stroke="#000000" stroke-width="0.7087" stroke-miterlimit="10" d="M322.9,623.4c0,0,1.7-5.8,8.4-6.4
			s11,4,11,4s-5,0.9-8.4,2.7c-3.4,1.8-1,11.3-2.3,13.3c-1.3,2-8.9,1.4-9.9-0.8C323.5,633.7,322.9,623.4,322.9,623.4z"/>
		<path fill="#282E82" d="M342.9,621.5c0,0-6,0.7-9,2.6c-2.5,1.6-1.2,10.9-1.6,12.2l2.2-0.1c1.3-2-1.7-10,1.7-11.8
			c3.4-1.8,10.1-2.8,10.1-2.8H342.9z"/>
		<path fill="#3458B4" stroke="#000000" stroke-width="0.7087" stroke-miterlimit="10" d="M496,616.4l-140.3,8.9
			c0,0-3.2-1.5-10.6,3.7c-2.9,2.3-7.5,5.9-8.2,7.3c2.6,0.7,19.6,0.7,19.6,0.7l139.1-5.8L496,616.4z"/>
		<path fill="#282E82" d="M492.2,616.6l-0.3,11.5l-139.1,5.8c0,0-7.8,0-13.6-0.2c-1.1,1-2,1.9-2.3,2.4c2.6,0.7,19.6,0.7,19.6,0.7
			l139.1-5.8l0.4-14.7L492.2,616.6z"/>
		<path fill="#282E82" d="M353.7,625.3c-1.4,0-4.6,1.4-7.5,3.3c-2.5,1.6-8.2,6-8.7,7.2l2.1,0.4c1.3-2,7.7-6.9,11.1-8.7
			c3.4-1.8,6.5-2,6.5-2S355.1,625.3,353.7,625.3z"/>
		<path fill="#282E82" d="M353,637.2c-0.8,0-7.4,0-7.9,0v2.9c0.9-0.5,7.9-0.4,7.9-0.4V637.2z"/>
		<path fill="#282E82" d="M331.6,629.9c-3.4,4.9-7.6,3.5-8.5,3.3c-0.1,1.4-0.9,3-0.9,3c2,2.4,8.5,1.8,9.2,0.6
			C331.9,635.6,331.6,629.9,331.6,629.9z"/>
		<path fill="#3458B4" stroke="#000000" stroke-width="0.7087" stroke-miterlimit="10" d="M492.9,602.9c0,0,30.2-10.4,50.1,1.3
			c3.7-6.3,10.2-21.4,8.9-25.8c-7.8,2.4-53.7,10.1-60.8,8.3C491.7,593.8,492.9,602.9,492.9,602.9z"/>
		<path fill="#3458B4" stroke="#000000" stroke-width="0.7087" stroke-miterlimit="10" d="M289.9,603.8c0,0-30.2-10.4-50.1,1.3
			c-3.7-6.3-10.2-21.4-8.9-25.8c7.8,2.4,53.7,10.1,60.8,8.3C291.1,594.6,289.9,603.8,289.9,603.8z"/>
		<path fill="#282E82" d="M287.8,588.2c-0.6,6.2-0.9,8.6-2.9,9.9c-1.1,0.7-9.1-1.1-19.6-1.1c-8.5,0-18.1,2.1-26.4,5.7
			c0.2,0.3,0.7,1.5,1,1.8c19.9-11.8,49.6-1.3,49.6-1.3s1.2-8.2,1.7-15.2C290.5,588.2,289.3,588.2,287.8,588.2z"/>
		<path fill="#282E82" d="M495.1,587.3c0.6,6.2,0.9,8.6,2.9,9.9c1.1,0.7,9.1-1.1,19.6-1.1c8.5,0,18.1,2.1,26.4,5.7
			c-0.2,0.3-0.7,1.5-1,1.8c-19.9-11.8-49.6-1.3-49.6-1.3s-1.2-8.2-1.7-15.2C492.3,587.3,493.5,587.3,495.1,587.3z"/>
	</g>
	<g id="脚_4_">
		<g id="脚_19_">
			<path fill="#39394A" stroke="#000000" stroke-width="1.4173" stroke-miterlimit="10" d="M401.2,709.1c0,9.4,20.1,8.3,45,8.3
				s45,0.4,45-14.6c0-7.4-15.6-18.6-41.2-17.9s-36.2,6.9-41.1,14.5C402.7,700.1,401.2,702.7,401.2,709.1z"/>
			<path d="M486.4,696c0,0,2.5,10.7-7.5,14s-76.4,6.8-77-2.8c-0.7,6.2,4,9.3,21.6,9.5c6.2,0,37.1,0,37.1,0s24.1,0.4,28.3-8
				C492.3,701.7,489.3,698.7,486.4,696z"/>
		</g>
		<g id="脚_16_">
			<path fill="#39394A" stroke="#000000" stroke-width="1.4173" stroke-miterlimit="10" d="M383.2,709.1c0,9.4-20.1,8.3-45,8.3
				s-45,0.4-45-14.6c0-7.4,15.6-18.6,41.2-17.9s36.2,6.9,41.1,14.5C381.6,700.1,383.2,702.7,383.2,709.1z"/>
			<path d="M379,701c0,0,5.3,6.6-4.8,9.9s-73.1,5.8-79.4-3.4c1.8,5.8,12.4,8.9,22.7,9.2c6.2,0.2,37.1,0,37.1,0s21.9,0.9,26.5-4.4
				C383.6,710.2,382.8,702.1,379,701z"/>
		</g>
	</g>
	<g id="手_23_">
		<g id="手_25_">
			<g id="左手_18_">
				<path fill="#FFD2BE" stroke="#000000" stroke-width="1.4173" stroke-miterlimit="10" d="M497.2,632.8
					c-3.6,16.8,3.9,27.2,20.5,27.2c16.6,0,29-17.2,29-32.7c0-15.5-10.2-28.6-26.8-28.6c-12.7,0-19.4,3.8-25.4,14.1
					C490.7,619.7,498,629.3,497.2,632.8z"/>
				<path fill="#FFD2BE" stroke="#000000" stroke-width="1.4173" stroke-miterlimit="10" d="M513.9,627.5
					c-1.5,13-12.7,16.2-19.6,11.8c-6.1-3.8-9.1-14.5,0-25.9"/>
			</g>
			<path fill="#E6A082" d="M513.9,618.2c0,0,0,22.3-21,19C501.5,645.9,518.7,636.7,513.9,618.2z"/>
			<path fill="#E6A082" d="M509.8,638.2c0,0-3.7,4.8-12.5,3.3C496.4,651.7,509.4,643.2,509.8,638.2z"/>
			<path fill="#E6A082" d="M537.9,606.6c2.8,5.9,5.8,23.3-2.8,37c-6,9.5-11.9,15.1-21.2,15.5c16.1,2.1,24.9-10.8,27.2-14.6
				C546.7,635.9,549.6,618.5,537.9,606.6z"/>
		</g>
		<g id="手_24_">
			<g id="左手_17_">
				<path fill="#FFD2BE" stroke="#000000" stroke-width="1.4173" stroke-miterlimit="10" d="M287.2,632.8
					c3.6,16.8-3.9,27.2-20.5,27.2s-29-17.2-29-32.7c0-15.5,10.2-28.6,26.8-28.6c12.7,0,19.4,3.8,25.4,14.1
					C293.8,619.7,286.4,629.3,287.2,632.8z"/>
				<path fill="#FFD2BE" stroke="#000000" stroke-width="1.4173" stroke-miterlimit="10" d="M270.5,627.5
					c1.5,13,12.8,16.2,19.6,11.8c6.1-3.8,9.1-14.5,0-25.9"/>
			</g>
			<path fill="#E6A082" d="M291.4,616.4c1.5,2.4,2.9,11.3-0.7,17.3c-1.8,3-7.3,6.4-12.2,5.5c6.1,3.2,12.8,0.3,15.3-5.2
				C297.3,626.6,292.9,618.2,291.4,616.4z"/>
			<path fill="#E6A082" d="M272.3,621.6c-8,10.9,4.5,21.2,2.9,28.4c-0.8,3.5-5.9,10.4-15,8.3c7.4,2.5,19.4,0.3,23.5-5.7
				c1.1-1.6,3.4-4.2,3.7-11.2C276.6,644.1,266.1,632.9,272.3,621.6z"/>
		</g>
	</g>
	<g id="耳朵_31_">
		<g id="耳朵_36_">
			<path fill="#FFCDAD" stroke="#000000" stroke-width="1.4173" stroke-miterlimit="10" d="M246,250.5
				c-4.2-24.9-33.2-65.4-72.1-49.5c-40,26.5-25.1,68.7,33.5,121.4L246,250.5z"/>
			<path fill="#E4B27A" d="M173.9,201c37.3-5.8,14.5,34.4,23.5,41.2c21.6,16.1,26.2,5.5,31.9,13.5l15.8-9.2
				C241.9,227.5,214.6,187.7,173.9,201z"/>
			<path fill="#FF9A5C" d="M210.6,292.5c-5-0.4-62.2-42.2-22.6-67.5c-4,34.9,41.4,20.5,41.4,32.2L210.6,292.5z"/>
			<path fill="#E9785C" d="M228,261.7l1.3-4.5c0-11.7-45.4,2.7-41.4-32.2C175.6,257.6,224.1,252.8,228,261.7z"/>
		</g>
		<g id="耳朵_35_">
			<path fill="#FFCDAD" stroke="#000000" stroke-width="1.4173" stroke-miterlimit="10" d="M531.5,250.5
				c4.2-24.9,33.2-65.4,72.1-49.5c40,26.5,25.1,68.7-33.5,121.4L531.5,250.5z"/>
			<path fill="#FF9A5C" d="M566.9,292.5c5-0.4,62.2-42.2,22.6-67.5c4,34.9-41.4,20.5-41.4,32.2L566.9,292.5z"/>
			<path fill="#E9785C" d="M554.4,270l-6.3-12.8c0-11.7,45.4,2.7,41.4-32.2C601.9,257.6,558.3,261,554.4,270z"/>
			<path fill="#E4B27A" d="M622.9,223.2c-2.6-5.5-9.1-13-11-14.3c-22.3-15.5-22.3,16-22.3,16c1.7,1.1,5.8,4.3,6.6,5.2
				c15.4-3.9,28.3,0.6,21.6,23c-9.4,36.5-42,60.6-42,60.6C593.4,302.8,634.8,254.2,622.9,223.2z"/>
		</g>
	</g>
	<g id="面部_31_">
		<path id="面部_32_" fill="#A66AFF" stroke="#000000" stroke-width="1.4173" stroke-miterlimit="10" d="M214.3,278.3
			c11.2-30.5,46.9-77.2,129.7-100c36.3-10,61.8-8.8,96.6,0.5c41.8,11.2,105.2,42.4,128.8,98.9c11.7,28,11.7,87.7,11.7,87.7
			s23.3,12,23.3,49.3c0,32.5-52.7,87.4-157.3,100.9c-15.4,2-29.3,11.1-53.3,11.1s-38-9.3-54.8-11.6C236.1,501,179,448.5,179,414.7
			c0-34.2,25.5-48.8,25.5-48.8S201,314.7,214.3,278.3z"/>
		<path fill="#8C54A2" d="M532.7,227.5c34.8,34.5,46.6,60.2,47.7,138.2c0,0-7.3,1.1-13.4,5.4C573.9,347.5,572.5,271,532.7,227.5z"/>
		<path fill="#8C54A2" d="M267,496.2c18.9,9.2,64.8,17.7,77.4,19.2c6.4,1.4,29.4,10.5,47,10.5s30.2-3.9,46.7-9.6
			c29.3-2.6,80.2-15.3,104.8-31c-30.3,13.1-68.9,21.4-97.6,25.7c3.7-3.3,8.2-5.9,11.8-11.9c-15.7,13.9-34.1,19.9-61.5,20.6
			C384.7,519.9,312,509.5,267,496.2z"/>
	</g>
	<g id="鼻子_19_">
		<ellipse fill="#FFD2BE" stroke="#000000" stroke-width="1.4173" stroke-miterlimit="10" cx="391.3" cy="421.3" rx="90" ry="59"/>
		<path fill="#E6A082" d="M392,467.5c-28.1,1.3-47.3-1.5-68.3-8.4c6.1,6,32.9,20.6,67.2,20.6c48.4,0,89.7-24.6,89.7-58.4
			C475.8,438.2,445.9,465,392,467.5z"/>
		<g id="鼻子_20_">
			<path fill="#69301B" stroke="#000000" stroke-miterlimit="10" d="M404.4,385.7c-5.2,0-8,2.3-13.5,2.4c-5.5-0.1-8.3-2.4-13.5-2.4
				c-10,0-18.5,8.3-18.5,15.5c0,7.3,6.2,16.9,19.6,18.3c3.1,0.3,22,0.4,24.7,0c13.3-2,19.6-11,19.6-18.3
				C422.9,394,414.4,385.7,404.4,385.7z"/>
			<path fill="#3F1000" d="M420.8,406c0,4.5-6.4,10.1-14,12.3c-4.9,1.4-10,1-16.5,1c-5.7,0-10.3,0.4-14.8-0.7
				c-8.7-2.1-14.9-8.3-14.9-12.6c0-6.6,13.4-9,30-9S420.8,399.3,420.8,406z"/>
		</g>
	</g>
	<g id="眼睛_46_">
		<linearGradient id="SVGID_3_" gradientUnits="userSpaceOnUse" x1="448.5415" y1="351.7919" x2="532.2632" y2="351.7919">
			<stop  offset="0" style="stop-color:#269E96"/>
			<stop  offset="1" style="stop-color:#32D2C8"/>
		</linearGradient>
		<path fill="url(#SVGID_3_)" d="M524.7,326.7c17.5,42.8,2.8,76.1-24.6,76.1s-47.7-28.8-50.6-44.6c-4-20.6,4.9-42.7,20.5-51.1
			C489.5,296.5,512.7,297.3,524.7,326.7z"/>
		<linearGradient id="SVGID_4_" gradientUnits="userSpaceOnUse" x1="237.0114" y1="334.1588" x2="297.4662" y2="365.2986">
			<stop  offset="0" style="stop-color:#269E96"/>
			<stop  offset="1" style="stop-color:#32D2C8"/>
		</linearGradient>
		<path fill="url(#SVGID_4_)" d="M304.6,326.7c20.7,41.4-1.1,75.1-24.6,76.1c-18.5,0.8-31.7-19.4-34.5-35.2
			c-4-20.6,0.4-34.5,11-48.8C264.4,308,291.7,300.7,304.6,326.7z"/>
		<g id="眼睛_48_">
			<radialGradient id="SVGID_5_" cx="281.6733" cy="358.1066" r="37.8513" gradientUnits="userSpaceOnUse">
				<stop  offset="0" style="stop-color:#4D4D4D"/>
				<stop  offset="1" style="stop-color:#1A1A1A"/>
			</radialGradient>
			<ellipse fill="url(#SVGID_5_)" stroke="#000000" stroke-miterlimit="10" cx="281.7" cy="358.1" rx="30" ry="44.3"/>
			
				<radialGradient id="SVGID_6_" cx="285.6263" cy="358.1066" r="28.178" gradientTransform="matrix(0.9851 0 0 1 0.3083 0)" gradientUnits="userSpaceOnUse">
				<stop  offset="0" style="stop-color:#333333"/>
				<stop  offset="1" style="stop-color:#000000"/>
			</radialGradient>
			<ellipse fill="url(#SVGID_6_)" cx="281.7" cy="358.1" rx="22" ry="33"/>
			
				<ellipse transform="matrix(0.3609 -0.9326 0.9326 0.3609 -147.2983 475.2638)" fill="#F2F2F2" cx="273.1" cy="345.1" rx="7" ry="5.7"/>
			<ellipse cx="281.7" cy="358.1" rx="8" ry="13"/>
			<path fill="#FFFFFF" d="M298.1,378.9c-1.4,2.5-3.6,4.4-4.3,3.6c-0.8-0.8,0.9-0.9,2.7-4.4c1.9-3.5,1.5-4.6,2.6-4.5
				C300.1,373.7,299.5,376.4,298.1,378.9z"/>
			<ellipse fill="#FFFFFF" cx="264.4" cy="359.7" rx="2.8" ry="4.1"/>
		</g>
		<g id="眼睛_47_">
			<radialGradient id="SVGID_7_" cx="502.6734" cy="358.1066" r="37.8513" gradientUnits="userSpaceOnUse">
				<stop  offset="0" style="stop-color:#4D4D4D"/>
				<stop  offset="1" style="stop-color:#1A1A1A"/>
			</radialGradient>
			<ellipse fill="url(#SVGID_7_)" stroke="#000000" stroke-miterlimit="10" cx="502.7" cy="358.1" rx="30" ry="44.3"/>
			
				<radialGradient id="SVGID_8_" cx="509.9735" cy="358.1066" r="28.178" gradientTransform="matrix(0.9851 0 0 1 0.3083 0)" gradientUnits="userSpaceOnUse">
				<stop  offset="0" style="stop-color:#333333"/>
				<stop  offset="1" style="stop-color:#000000"/>
			</radialGradient>
			<ellipse fill="url(#SVGID_8_)" cx="502.7" cy="358.1" rx="22" ry="33"/>
			
				<ellipse transform="matrix(0.3609 -0.9326 0.9326 0.3609 -6.0616 681.3678)" fill="#F2F2F2" cx="494.1" cy="345.1" rx="7" ry="5.7"/>
			<ellipse cx="502.7" cy="358.1" rx="8" ry="13"/>
			<path fill="#FFFFFF" d="M519.1,378.9c-1.4,2.5-3.6,4.4-4.3,3.6c-0.8-0.8,0.9-0.9,2.7-4.4c1.9-3.5,1.5-4.6,2.6-4.5
				C521.1,373.7,520.5,376.4,519.1,378.9z"/>
			<ellipse fill="#FFFFFF" cx="485.4" cy="359.7" rx="2.8" ry="4.1"/>
		</g>
		<path d="M499.6,283.5c-24.5,0-40.8,1.1-56,15.8c-11.2,10.5-28.8,19.2-49.1,19.2c-20.3,0-40.3-8-50.5-17.6
			c-15.1-13.4-34.9-17-58.2-17c-45.8,0-82.9,32.2-82.9,72c0,39.8,29.1,68,74.9,68c39.5,0,80.6-20,88.9-52.2
			c2.8-10.7,11.9-13.7,22.9-14.9c0.1,0,3.3-0.2,5,0c11.4,1,21.1,4,24,15c8.5,31.9,41.4,55.7,80.8,55.7c63.4,0,80.8-48.7,80.8-88.5
			C580.4,299.3,545.4,283.5,499.6,283.5z M285.9,402c-23.3,0-51.6-18.8-51.6-46.1c0-27.3,23.9-45.9,51.6-45.9s51.6,18.7,51.6,45.9
			C337.5,383.1,309.2,402,285.9,402z M499.6,399.9c-28.5,0-51.6-17.1-51.6-44.4c0-27.3,23.1-46.4,51.6-46.4s51.6,6.6,51.6,33.8
			C551.2,370.3,528.1,399.9,499.6,399.9z"/>
	</g>
<path id="嘴巴_2_" fill="#FFFFFF" stroke="#000000" stroke-width="0.7087" stroke-miterlimit="10" d="M448.5,482.6
		c-1.5,4.1-16.3,22.9-54,22.9s-47-16.7-47.6-20.3c4,3.2,19.5,10.2,46,10.2S443,486.6,448.5,482.6z"/>
	<g id="头发_10_">
		<path fill="#FFCDAD" stroke="#000000" stroke-width="1.4173" stroke-miterlimit="10" d="M364.8,196.7
			c-26.6-6.4-37.6-38.8-23.1-58.7c-3.2,16.8,9.8,36.2,37.8,33.6"/>
		<path fill="#E4B27A" d="M340.5,141.2c0,0-1.2,8.3,0.4,14.6c2.3,8.7,10.2,15.5,10.2,15.5s-6.1,0.6-8.9-2.4c0.3,0.6,4.9,4.7,5.9,5.3
			c12.1,7.9,23.3,8.5,23.3,8.5s-8.9,1.1-14.9-0.6c6.7,4.3,21.7,4.9,21.7,4.9s-4.8,2.7-9.9,1.4c6.3,2.5,15.9,3.4,22.8,1.7l-14.4-17.4
			C371.2,173.3,340.9,171.3,340.5,141.2z"/>
		<path fill="#FFCDAD" stroke="#000000" stroke-width="1.4173" stroke-miterlimit="10" d="M445.2,180.1c-16.5-4.2-20.3-24.4-6-27.6
			c-14.9-3.3-21.7,16.3-17.7,21.8c-13.6-1-48-22.5-40.8-55.3c-13,15.5-24.8,68.8,30.3,77.7"/>
		<path fill="#E4B27A" d="M400.3,184.9c-23.7-12-27.2-38.2-20.8-62.1c-4.5,32.1,32,54.1,47.5,53.1c-4-5.5-4.3-18,8.8-23
			c-10.9,5.4-7.1,23.8,9.3,28c0,0-7.1,0.9-18.1-5c0,1.1,15.7,9,15.7,9l-21.8-8.9l20.7,13.1l-15-3l6.8,5l-17.1-6.9l22.3,14.4
			L400.3,184.9z"/>
	</g>
	<g id="帽子_8_">
		<path fill="#FF0000" stroke="#000000" stroke-miterlimit="10" d="M566.9,154c-14.5-31.3-52.3-51-78.7-54.8c8.7,12,9.3,19,0,25
			c7.6,17.5,29.1,23.3,41.5,33.6c14.9,12.4,10.7,22,10.7,22L254,185c0,0,13.2-46.1,19.6-63.6c6-16.4,87-88.4,141.2-87.8
			C510.7,33.7,588.5,102.4,566.9,154z"/>
		<path fill="#7F000D" d="M488.3,99.2c0,0-97.5-16.2-62.3-32.1c5.5-2.3,6.5,10.6,19.2,16.7C463.8,92.9,488.3,99.2,488.3,99.2z"/>
		<path fill="#7F000D" d="M570.5,139.4c-2.3-11.6-9.5-17.1-15.9-22c15.7,2-7.2-29.5-10.4-34.1C558.7,98.2,570.5,116.7,570.5,139.4z"
			/>
		<path fill="#7F000D" d="M487.5,124.2c0,0,3.2-1.5,5.1-4.8c-8,2.2-53.2-1.5-70.7-6.2c-17.8-4.8-40.3-12.8-45.2-10.2
			c-13.2,7,14.4,14.8,39.7,17.4c65.8,6.8,79.1,25.5,94.8,26.2C493.3,138.1,487.5,124.2,487.5,124.2z"/>
		<path fill="#7F000D" d="M261.6,159.4L254,183l286.4-3.2c0,0,1.4-8.5-3-13.7c-4.7,7.9-21.7,12.5-34.7,11.5s-88.2-5.1-109.2,0.2
			c-12,3.1-89.3-3.2-101.2-3.2C282.1,174.7,262.9,177.6,261.6,159.4z"/>
		<path fill="#FFFFFF" stroke="#000000" stroke-miterlimit="10" d="M244,181.5c22.6-7.8,84.9-1,140.7-1s147.3-5.8,157-0.9
			c31.2,15.7,26.9,68,16,76.5c-6,4.7-133.9-7.7-171.9-7.7s-155.4,11.4-160,2.9C216.9,234.5,218.9,190.1,244,181.5z"/>
		<path fill="#E0DFD9" d="M541.5,179.6c-2.7-1.4-14.2-1.8-22.3-1.7c39.5,22.9,28.2,62.9,13.1,69.6c-9.4,4.2-31.8-0.8-59.6-3.5
			c-70.5-6.8-197.4-3.5-218.6,0.3c-21.1,3.8-30.2-8.4-33-18.8c-0.5,11.5,3.4,25.5,6,26.8c10.1,5.3,120.6-3.8,158.6-3.8
			s164.9,10.6,171.9,7.7c6.7-2.8,10.5-26,6.7-44.7C560.8,194.8,549.6,183.8,541.5,179.6z"/>
		<path fill="#FFFFFF" stroke="#000000" stroke-miterlimit="10" d="M598.7,160.6c0,3-5.1,6.5-1.3,8.7c-3.1-0.3-2,5.3-3.5,7.6
			c-2.6,4-9.8,6.1-10.1,9.7c-2.6-3.6-4.4,2.2-6.8,2.9c-2.6,0.8-6.4-4.4-8.3,1.2c-2.2-4-6.6-0.6-9.6-1.6c-5-1.7-7.9-9.9-12.8-8.5
			c2-2.9-5.1-7.2-6.4-11.6c-0.8-2.6,1.9-7.1-1.2-8.3c3.9-1.2,0.4-5.8,1.2-8.4c1.3-4.5,7.3-8.3,6.7-11.8c5,0.6,4.2-4,6.7-5.5
			c2.4-1.5,7.2-1.1,7.9-3.3c2,1.8,4.9-0.9,7.5-0.9c6.3-1.1,8.4,3.5,12.4,2.7c1.9,4.5,6.2,3.5,8.7,6.1c-0.4,4.8,5.8,7.3,7.3,11.9
			C598.1,154.2,595.8,159.4,598.7,160.6z"/>
		<path fill="#E0DFD9" d="M598.1,160.9c-2.6-1.9-0.6-6.1-1.3-9.1c-0.3-1.5-2.2-4-4-5.6c0.7,3-0.2,7.3,2.5,8.5c0,3-5.1,6.5-1.3,8.7
			c-3.1-0.3-2,5.3-3.5,7.6c-2.6,4-9.8,6.1-10.1,9.7c-2.6-3.6-4.4,2.2-6.8,2.9c-2.6,0.8-6.4-4.4-8.3,1.2c-2.2-4-6.6-0.6-9.6-1.6
			c-4.5-1.5-7.3-8.3-11.4-8.6c1.5,1.9,2.8,3.5,2.8,5.3c5,0.2,6.9,6.4,11.7,8.5c3.3,1.4,7.4-1.8,9.7,1.2c2.9-4.8,5.7,0.2,8.4-0.5
			c2.4-0.7,3.8-5.6,6.7-3.5c1.5-3.5,7.4-4.9,10-8.9c1.5-2.3,0.3-6.2,2.6-7.6C593.8,166.2,598.1,164,598.1,160.9z"/>
	</g>
</g>
</svg>