<?xml version="1.0" encoding="utf-8"?>
<svg version="1.0" id="layer_1" xmlns="http://www.w3.org/2000/svg" xmlns:xlink="http://www.w3.org/1999/xlink" x="0px" y="0px" viewBox="0 0 800 800" enable-background="new 0 0 800 800" xml:space="preserve">
<g id="_x31__2_">
	<g id="身体_18_">
		<path fill="#C87A4A" stroke="#000000" stroke-width="1.4173" stroke-miterlimit="10" d="M291.3,599.9c0.9-16.5,4-26.1,6.4-31.4
			C293.8,577.2,292.1,589,291.3,599.9l-0.4,14.5c0,9.2,0.5,24.7,0.5,24.7l13.1,58.4l71.6,1.9l9.4-39.9c0,0,3.8,0.4,6.6,0.4
			c2.8,0,6.6-0.4,6.6-0.4l9.4,39.9l71.6-1.9l13.1-58.4c0,0,0.5-15.2,0.5-24.1c0,0-0.2-33.1-6.8-46.5c2.1,3.2,5.8,16.1,6.5,34.5
			l0.4,12c3.6,39.4,49.8,38.6,49.8-5c0-45.3-33.4-74.5-41.8-80c-15.2-10.7-43.5-17.3-43.5-17.3h-65.7H392h-65.7
			c0,0-28.3,6.6-43.5,17.3c-8.4,5.5-41.8,34.7-41.8,80c0,43.8,46.6,44.3,49.8,4.4L291.3,599.9z"/>
		<path opacity="0.1" fill="#FFD2BE" d="M437.7,576.5c-10.9-19-1-39.8-11.4-39.8c-10.4,0-14.2,9.4-33,9.4c-0.1,0-0.7,0-0.8,0
			c-18.8,0-22.6-9.4-33-9.4s-0.5,20.8-11.4,39.8c-22.8,39.7,5.8,74.2,42.6,74.2c0.8,0,3.7,0,4.4,0
			C431.9,650.8,460.5,616.2,437.7,576.5z"/>
		<path fill="#AA5834" d="M335,647.2c0,0,21.3,7.5,57,7.5s56.3-7.5,56.3-7.5s-22.2,12.3-55.9,12.3c-2.9,0-4.9-0.1-7.6-0.3l-9.2,39.1
			l-3.2-4c2.3-7.2,1.4-30.3-0.1-36.2C352.5,655.2,340.1,650.3,335,647.2z"/>
		<path fill="#AA5834" d="M493.4,633l-13.7,59.8l-5.5-1c1.4-4.1,8.4-36.4,12.4-61.3c2.6-37.6-1.1-65.5-1.1-65.5
			C493.8,592.7,494.5,622.4,493.4,633z"/>
		<path fill="#AA5834" d="M542.8,609.5c0,10.4-6.2,31.3-16,29.3c4.2-12,3.7-32.8,3.7-32.8c1.9-45.3-26.9-73.4-26.9-73.4
			C534.1,556.9,542.8,591.9,542.8,609.5z"/>
		<path fill="#AA5834" d="M274.7,616.1c0,5.8-1.1,21.3-7.7,26.7c11.5,0,18.5-11.9,19.9-14.8c3.3-7.1,3.3-18,3.3-18
			c-0.3-34.8,10.2-48.6,10.2-48.6C282,576.8,274.7,606.2,274.7,616.1z"/>
		<path fill="#AA5834" d="M459.6,514.5c-4.6-8.2-28.1-15.9-64-17c-13.9-0.4-69.1-2.1-64.6,6.1c4.9,8.9,20.3,23,61.8,26
			C428.7,532.2,465.3,524.7,459.6,514.5z"/>
	</g>
	<g id="衣服_13_">
		<g id="裤子_2_">
			<path fill="#FF0000" stroke="#000000" stroke-miterlimit="10" d="M291.4,639.1l10.1,44.7h78.3l5.7-24.3c0,0,3.8,0.4,6.6,0.4
				c2.8,0,6.6-0.4,6.6-0.4l5.6,23.9l78.7-0.5l9.8-43.7H291.4z"/>
			<path fill="#7F000D" d="M335,647.2c0,0,21.3,7.5,57,7.5s56.3-7.5,56.3-7.5s-22.2,12.3-55.9,12.3c-2.9,0-4.9-0.1-7.6-0.3
				l-4.6,21.7l-6.4,0.7c1-6.6,0.1-17.6-1.5-23.5C352.5,655.2,340.1,650.3,335,647.2z"/>
			<path fill="#7F000D" d="M492.7,639.1l-8.4,40l-6.8-1.7c1.4-4.1,8.7-38.4,8.7-38.4H492.7z"/>
			<path fill="#FFFFFF" stroke="#000000" stroke-miterlimit="10" d="M401.4,671.4c3.5-3.1,29.4-4.6,42.1-5.3
				c7.4-0.4,32.6,0.5,42.2,4c2,1.3,0.9,15.8-2.8,17c-4.9,1.6-26.6-1-35.9-1.4c-8.5-0.4-37,2.7-42,1.2
				C400.7,685.6,399.2,673.5,401.4,671.4z"/>
			<path fill="#E0DFD9" d="M485.5,670.6c-0.3-0.1-2.1-0.8-2.8-0.9c1.3,3.4-1.2,10.1-3.3,10.7c-4.9,1.6-25.6,0.3-34.9-0.1
				c-8.5-0.4-34.9,3.6-39.9,2c-1.3-0.4-3-4.3-3.8-6c0,4.4,2.4,9.4,4.4,10c5,1.5,32.3-1.6,40.9-1.1c9.2,0.5,31.7,3,36.5,1.4
				C486.4,685.5,486.8,671.8,485.5,670.6z"/>
			<path fill="#FFFFFF" stroke="#000000" stroke-miterlimit="10" d="M382.7,671.4c-3.5-3.1-29.4-4.6-42.1-5.3
				c-7.4-0.4-32.6,0.5-42.2,4c-3.9,1.8-0.9,15.8,2.8,17c4.9,1.6,26.6-1,35.9-1.4c8.5-0.4,37,2.7,42,1.2
				C383.4,685.6,385,673.5,382.7,671.4z"/>
			<path fill="#E0DFD9" d="M382,671.5c-0.3-0.2-2.6-1-3.4-1.2c2.9,3.8,2,11.6-1.5,12.6c-5,1.5-33.4-1.6-42-1.2
				c-9.2,0.5-28.3,3-32.9,0.8c-2.4-1.2-4.6-2.8-4.7-3.1c1,4.6,2.8,7,3.9,7.3c4.9,1.6,27-1.1,36.3-1.5c8.5-0.4,36.2,2.9,41.1,1.3
				C382.4,685.3,384.7,673.3,382,671.5z"/>
		</g>
		<g>
			<path fill="#FF0000" stroke="#000000" stroke-miterlimit="10" d="M543.5,599.2c-0.2-1.9-2.4-12.7-2.4-12.7s-12.3-35.7-35.4-55
				c-22.4-18.7-51.6-27.9-51.6-27.9l-26.4,26.6c0,0-31.2,48.8-35.7,62.8c-7-14.3-36.1-47.5-36.1-47.5L331,503.6
				c0,0-29.2,9.2-51.6,27.9c-23.1,19.3-35.4,55-35.4,55s-2.2,10.8-2.4,12.7c5.9-2.6,35.4-7.2,49.6,4.3c-0.1,2.3,0.1,35.5,0.1,35.5
				l99.7,8.3l102-8.3c0,0,2.9-34.2,2.8-36.5C510.1,591,537.6,596.7,543.5,599.2z"/>
			<path fill="#7F000D" d="M495.9,602.5c0,0,1.8-3.1,10.9-5.9c-1.5-2.8-8-28.3-19.5-43C491.4,570.8,495.4,591.3,495.9,602.5z"/>
			<path fill="#FFFFFF" stroke="#000000" stroke-miterlimit="10" d="M395.5,585l-12.1,21.6c0,0-73.6-65.6-73.6-94.3
				c0-5.3,21.2-8.7,21.2-8.7L395.5,585z"/>
			<path fill="#E0DFD9" d="M337.6,545c3.5,5.2,22.5,25.9,27,30.4s17.3,17.4,25.3,11.9c-0.3,9.2-6.1,18.7-6.1,18.7
				s-31.5-30.8-36.1-35.6c-4.2-4.4-21.7-23-28.8-36c-2.4-4.3-14.2-22.8-5.1-26.5C324.8,515,335.7,542.2,337.6,545z"/>
			<path fill="#7F000D" d="M382.5,606.6l-1.7,6.8c-4.6-7.4-19.5-21.5-45.8-55.6C345.3,571.6,375.8,600.1,382.5,606.6z"/>
			<path fill="#7F000D" d="M389.9,646.3l-7.5-0.3c5.6-6.5,38.6-52.6,69-93c7.8-10.3,19.8-32.8,22.2-40.4c1.2-0.6,9.4,3.6,12.8,6.1
				c-6.9-1.3-14,0.1-18.1,8c-0.5,0.9-33.2,57.5-33.9,58.3C406.5,617.4,399.1,635.2,389.9,646.3z"/>
			<path fill="#FFFFFF" stroke="#000000" stroke-miterlimit="10" d="M360.6,644.3l21.7,1.6c0,0,93-118,93-136.1
				c-0.1-2.3-2.2-4.9-6.2-6.2c-3.5-1.2-8.5-1.5-15,0C423.3,510.9,360.6,644.3,360.6,644.3z"/>
			<path fill="#E0DFD9" d="M460.2,523.5c-3.5,5.2-11.1,23.3-15.6,27.8s-25.3,28.5-30.5,39.8c-5.3,11.2-18.3,32.8-24,36.3
				s-21,16.7-21,16.7h13.6l40.9-53c0,0,14.4-19.9,26.5-37.3c7.6-11,14.4-20.9,16-24.3c4.3-8.6,12.4-18.7,6.5-25.8
				C464.9,510.7,462.1,520.7,460.2,523.5z"/>
			<path fill="#7F000D" d="M291.1,602.9c0,0-2.7-4.4-12.8-6.3c1.5-2.8,8-28.3,19.5-43C293.8,570.8,291.6,591.6,291.1,602.9z"/>
			<path stroke="#000000" stroke-width="1.0597" stroke-miterlimit="10" d="M491.2,647.9c0,0-45.4,4.6-98.7,4.6s-99.2-4.9-99.2-4.9
				l-1.9-8.5c0,0,45.9,3.1,100.9,3.1s100.9-3.3,100.9-3.3L491.2,647.9z"/>
			<path fill="#FFD34B" stroke="#000000" stroke-miterlimit="10" d="M384.2,653.5c-0.8,0-1.4-0.6-1.4-1.4v-9.7
				c0-0.8,0.6-1.4,1.4-1.4l16.6-0.1c0.8,0,1.5,0.6,1.5,1.4l0,0h4.2v-3.7c0-0.8-0.6-1.4-1.4-1.4h-25.1c-0.8,0-1.4,0.6-1.4,1.4v17.1
				c0,0.8,0.6,1.4,1.4,1.4h25.1c0.8,0,1.4-0.6,1.4-1.4v-3.7h-4.2l0,0c0,0.8-0.6,1.4-1.4,1.4L384.2,653.5z"/>
			<path fill="#FFFFFF" stroke="#000000" stroke-miterlimit="10" d="M494.1,589.1c1.4-1.3,9.7-5.9,22.5-6.6c7.4-0.4,16.4,0.5,26,4.1
				c2,1.3,2.9,16.5,1,15.9c-5.3-1.7-13.8-4-22.9-3.7c-8.6,0.3-17.6,3-25.2,5.9C493.1,605.5,491.8,591.1,494.1,589.1z"/>
			<path fill="#E0DFD9" d="M542.4,587.1c1.6,3.3-0.6,8.7-2.7,9.6c-5.1,2.3-14.4-2-23.5-1.8c-8.6,0.3-21.5,7.8-22.6,2.9
				c-0.2,2.9,1.2,6.6,1.7,6.3c7.7-2.9,16.5-5.8,25-6c9.1-0.3,18.1,2.2,23.4,3.9C544.7,599.9,544.6,588.7,542.4,587.1z"/>
			<path fill="#FFFFFF" stroke="#000000" stroke-miterlimit="10" d="M292,589.2c-1.4-1.3-11.2-6.1-24-6.8c-7.4-0.4-16.4,0.5-26,4.1
				c-2,1.3-2.9,16.6-1,16c5.3-1.7,13.8-4,22.9-3.7c8.6,0.3,19.1,3.2,26.8,6C293,605.6,294.3,591.2,292,589.2z"/>
			<path fill="#E0DFD9" d="M265.6,595.5c-9.1-0.3-15.7,0-21.1,1.7c-1.6,0.5-3.3-1.6-3.6-5.9c-0.8,2.3-1.1,9,0,10.6
				c5.3-1.7,13.8-4.2,22.9-3.9c8.6,0.3,19.2,3.5,26.8,6.3c0.9,0.5,3.5-10.1,1.2-14.4c-0.8-1.5-3.6-2.5-5.3-3
				C288.1,596.1,274.2,595.8,265.6,595.5z"/>
		</g>
	</g>
	<g id="脚_13_">
		<g id="脚_15_">
			<path fill="#333333" stroke="#000000" stroke-width="1.4173" stroke-miterlimit="10" d="M401.2,709.1c0,9.4,20.1,8.3,45,8.3
				s45,0.4,45-14.6c0-7.4-15.6-18.6-41.2-17.9s-36.2,6.9-41.1,14.5C402.7,700.1,401.2,702.7,401.2,709.1z"/>
			<path d="M486.4,696c0,0,2.5,10.7-7.5,14s-76.4,6.8-77-2.8c-0.7,6.2,4,9.3,21.6,9.5c6.2,0,37.1,0,37.1,0s24.1,0.4,28.3-8
				C492.3,701.7,489.3,698.7,486.4,696z"/>
		</g>
		<g id="脚_14_">
			<path fill="#333333" stroke="#000000" stroke-width="1.4173" stroke-miterlimit="10" d="M383.2,709.1c0,9.4-20.1,8.3-45,8.3
				s-45,0.4-45-14.6c0-7.4,15.6-18.6,41.2-17.9s36.2,6.9,41.1,14.5C381.6,700.1,383.2,702.7,383.2,709.1z"/>
			<path d="M294.7,706.7c0,3,6.2,9.8,23.8,9.9c6.2,0,37.1,0,37.1,0s28.5,2.1,26.8-9C373,714.6,301.9,715.2,294.7,706.7z"/>
		</g>
	</g>
	<g id="手_38_">
		<g id="手_39_">
			<g id="左手_27_">
				<path fill="#FFD2BE" stroke="#000000" stroke-width="1.4173" stroke-miterlimit="10" d="M287.2,632.8
					c3.6,16.8-3.9,27.2-20.5,27.2s-29-17.2-29-32.7c0-15.5,10.2-28.6,26.8-28.6c12.7,0,19.4,3.8,25.4,14.1
					C293.8,619.7,286.4,629.3,287.2,632.8z"/>
				<path fill="#FFD2BE" stroke="#000000" stroke-width="1.4173" stroke-miterlimit="10" d="M270.5,627.5
					c1.5,13,12.8,16.2,19.6,11.8c2.2-1.4,4-3.7,5-6.7c1.7-5.1,0.8-12-5-19.3"/>
			</g>
			<path fill="#E6A082" d="M291.4,616.4c1.5,2.4,2.9,11.3-0.7,17.3c-1.8,3-7.3,6.4-12.2,5.5c6.1,3.2,12.8,0.3,15.3-5.2
				C297.3,626.6,292.9,618.2,291.4,616.4z"/>
			<path fill="#E6A082" d="M272.3,621.6c-8,10.9,4.5,21.2,2.9,28.4c-0.8,3.5-5.9,10.4-15,8.3c7.4,2.5,19.4,0.3,23.5-5.7
				c1.1-1.6,3.4-4.2,3.7-11.2C276.6,644.1,266.1,632.9,272.3,621.6z"/>
			<path fill="#608EFF" stroke="#000000" stroke-miterlimit="10" d="M269.9,626.6c3.6,16.8-20.5,28-25.7,20.6
				c-4.2-5.9-6.6-13.1-6.6-19.9c0-15.5,10.2-28.6,26.8-28.6c12.7,0,19.4,3.8,25.4,14.1C293.8,619.7,272.7,629.4,269.9,626.6z"/>
		</g>
		<g id="手_53_">
			<g id="左手_37_">
				<path fill="#FFD2BE" stroke="#000000" stroke-width="1.4173" stroke-miterlimit="10" d="M496.3,632.8
					c-3.6,16.8,3.9,27.2,20.5,27.2c16.6,0,29-17.2,29-32.7c0-15.5-10.2-28.6-26.8-28.6c-12.7,0-19.4,3.8-25.4,14.1
					C489.7,619.7,497.1,629.3,496.3,632.8z"/>
				<path fill="#FFD2BE" stroke="#000000" stroke-width="1.4173" stroke-miterlimit="10" d="M513,627.5c-1.5,13-12.8,16.2-19.6,11.8
					c-2.2-1.4-4-3.7-5-6.7c-1.7-5.1-0.8-12,5-19.3"/>
			</g>
			<path fill="#E6A082" d="M512.9,618.2c0,0,0,22.3-21,19C500.5,645.9,517.7,636.7,512.9,618.2z"/>
			<path fill="#E6A082" d="M508.8,638.2c0,0-3.7,4.8-12.5,3.3C495.4,651.7,508.4,643.2,508.8,638.2z"/>
			<path fill="#E6A082" d="M536.9,606.6c2.8,5.9,5.8,23.3-2.8,37c-6,9.5-11.9,15.1-21.2,15.5c16.1,2.1,24.9-10.8,27.2-14.6
				C545.7,635.9,548.6,618.5,536.9,606.6z"/>
			<path fill="#608EFF" stroke="#000000" stroke-miterlimit="10" d="M513.6,626.6c-3.6,16.8,20.5,28,25.7,20.6
				c4.2-5.9,6.6-13.1,6.6-19.9c0-15.5-10.2-28.6-26.8-28.6c-12.7,0-19.4,3.8-25.4,14.1C489.7,619.7,510.8,629.4,513.6,626.6z"/>
			<path fill="#282E82" d="M537.4,606.6c2.8,5.9,2.9,28-5.7,41.7c-0.1,1.6,5.8,0.9,8.1-2.9C545.5,636.8,549.1,618.5,537.4,606.6z"/>
		</g>
	</g>
	<g id="耳朵_4_">
		<g id="耳朵_19_">
			<path fill="#8BBBFF" stroke="#000000" stroke-width="1.4173" stroke-miterlimit="10" d="M341.7,208.4
				c-4.2-24.9-60.1-92.9-138.2-48.3C149,192,149.8,274,208.3,326.7L341.7,208.4z"/>
			<path fill="#6EA0DC" d="M254.9,145.3c43,6.6,70.9,44.8,73.8,62.1l13,1C338.5,189.4,305.2,145.3,254.9,145.3z"/>
			<path fill="#E68AD6" stroke="#000000" stroke-width="0.7087" stroke-miterlimit="10" d="M229.5,277.8c-5-0.4-41.5-52.2-2-77.4
				c38.8-24.8,76.6,15.4,76,22.4L229.5,277.8z"/>
		</g>
		<g id="耳朵_6_">
			<path fill="#8BBBFF" stroke="#000000" stroke-width="1.4173" stroke-miterlimit="10" d="M441.5,208.4
				c4.2-24.9,60.1-92.9,138.2-48.3c54.6,31.9,53.8,113.9-4.8,166.6L441.5,208.4z"/>
			<path fill="#6EA0DC" d="M579.7,160.1c-1.1-0.6-2.2-1.2-3.3-1.8C622.1,193,619,268,565,317.9l9.9,8.7
				C633.5,274,634.2,192,579.7,160.1z"/>
			<path fill="#E68AD6" stroke="#000000" stroke-width="0.7087" stroke-miterlimit="10" d="M553.7,277.8c5-0.4,41.5-52.2,2-77.4
				c-38.8-24.8-76.6,15.4-76,22.4L553.7,277.8z"/>
		</g>
	</g>
	<g id="面部_11_">
		<path id="面部_12_" fill="#FFCFB3" stroke="#000000" stroke-width="1.4173" stroke-miterlimit="10" d="M214.3,278.3
			c11.2-30.5,46.9-77.2,129.7-100c36.3-10,61.8-8.8,96.6,0.5c41.8,11.2,105.2,42.4,128.8,98.9c11.7,28,11.7,87.7,11.7,87.7
			s23.3,12,23.3,49.3c0,32.5-52.7,87.4-157.3,100.9c-15.4,2-29.3,11.1-53.3,11.1s-38-9.3-54.8-11.6C236.1,501,179,448.5,179,414.7
			c0-34.2,25.5-48.8,25.5-48.8S201,314.7,214.3,278.3z"/>
		<path fill="#F2B484" d="M532.7,227.5c34.8,34.5,46.6,60.2,47.7,138.2c0,0-7.3,1.1-13.4,5.4C573.9,347.5,572.5,271,532.7,227.5z"/>
		<path fill="#F2B484" d="M267,496.2c18.9,9.2,64.8,17.7,77.4,19.2c6.4,1.4,29.4,10.5,47,10.5s30.2-3.9,46.7-9.6
			c29.3-2.6,80.2-15.3,104.8-31c-30.3,13.1-68.9,21.4-97.6,25.7c3.7-3.3,8.2-5.9,11.8-11.9c-15.7,13.9-34.1,19.9-61.5,20.6
			C384.7,519.9,312,509.5,267,496.2z"/>
	</g>
	<g id="鼻子_3_">
		<ellipse fill="#C8D6FF" stroke="#000000" stroke-width="1.4173" stroke-miterlimit="10" cx="391.3" cy="421.3" rx="90" ry="59"/>
		<path fill="#8CAEE6" d="M392,467.5c-28.1,1.3-47.3-1.5-68.3-8.4c6.1,6,32.9,20.6,67.2,20.6c48.4,0,89.7-24.6,89.7-58.4
			C475.8,438.2,445.9,465,392,467.5z"/>
		<g id="鼻子_4_">
			<path fill="#69301B" stroke="#000000" stroke-miterlimit="10" d="M404.4,385.7c-5.2,0-8,2.3-13.5,2.4c-5.5-0.1-8.3-2.4-13.5-2.4
				c-10,0-18.5,8.3-18.5,15.5c0,7.3,6.2,16.9,19.6,18.3c3.1,0.3,22,0.4,24.7,0c13.3-2,19.6-11,19.6-18.3
				C422.9,394,414.4,385.7,404.4,385.7z"/>
			<path fill="#3F1000" d="M420.8,406c0,4.5-6.4,10.1-14,12.3c-4.9,1.4-10,1-16.5,1c-5.7,0-10.3,0.4-14.8-0.7
				c-8.7-2.1-14.9-8.3-14.9-12.6c0-6.6,13.4-9,30-9S420.8,399.3,420.8,406z"/>
		</g>
	</g>
	<g id="眼睛_7_">
		<linearGradient id="SVGID_2_" gradientUnits="userSpaceOnUse" x1="443.1915" y1="327.1581" x2="530.4346" y2="368.58">
			<stop  offset="0" style="stop-color:#AA5834;stop-opacity:0.6"/>
			<stop  offset="1" style="stop-color:#C87A4A;stop-opacity:0"/>
		</linearGradient>
		<path fill="url(#SVGID_2_)" d="M524.7,326.7c17.5,42.8,2.8,76.1-24.6,76.1s-47.7-28.8-50.6-44.6c-4-20.6,4.9-42.7,20.5-51.1
			C489.5,296.5,512.7,297.3,524.7,326.7z"/>
		<linearGradient id="SVGID_3_" gradientUnits="userSpaceOnUse" x1="237.0114" y1="334.1588" x2="297.4662" y2="365.2986">
			<stop  offset="0" style="stop-color:#AA5834"/>
			<stop  offset="1" style="stop-color:#C87A4A;stop-opacity:0"/>
		</linearGradient>
		<path fill="url(#SVGID_3_)" d="M304.6,326.7c20.7,41.4-1.1,75.1-24.6,76.1c-18.5,0.8-31.7-19.4-34.5-35.2
			c-4-20.6,0.4-34.5,11-48.8C264.4,308,291.7,300.7,304.6,326.7z"/>
		<g id="眼睛_52_">
			<radialGradient id="SVGID_4_" cx="281.6733" cy="358.1066" r="37.8513" gradientUnits="userSpaceOnUse">
				<stop  offset="0" style="stop-color:#4D4D4D"/>
				<stop  offset="1" style="stop-color:#1A1A1A"/>
			</radialGradient>
			<ellipse fill="url(#SVGID_4_)" stroke="#000000" stroke-miterlimit="10" cx="281.7" cy="358.1" rx="30" ry="44.3"/>
			
				<radialGradient id="SVGID_5_" cx="247.4604" cy="358.1066" r="28.178" gradientTransform="matrix(0.9851 0 0 1 37.9048 0)" gradientUnits="userSpaceOnUse">
				<stop  offset="0" style="stop-color:#333333"/>
				<stop  offset="1" style="stop-color:#000000"/>
			</radialGradient>
			<ellipse fill="url(#SVGID_5_)" cx="281.7" cy="358.1" rx="22" ry="33"/>
			
				<ellipse transform="matrix(0.3609 -0.9326 0.9326 0.3609 -147.2983 475.2638)" fill="#F2F2F2" cx="273.1" cy="345.1" rx="7" ry="5.7"/>
			<ellipse cx="281.7" cy="358.1" rx="8" ry="13"/>
			<path fill="#FFFFFF" d="M298.1,378.9c-1.4,2.5-3.6,4.4-4.3,3.6c-0.8-0.8,0.9-0.9,2.7-4.4c1.9-3.5,1.5-4.6,2.6-4.5
				C300.1,373.7,299.5,376.4,298.1,378.9z"/>
			<ellipse fill="#FFFFFF" cx="264.4" cy="359.7" rx="2.8" ry="4.1"/>
		</g>
		<g id="眼睛_51_">
			<radialGradient id="SVGID_6_" cx="502.6734" cy="358.1066" r="37.8513" gradientUnits="userSpaceOnUse">
				<stop  offset="0" style="stop-color:#4D4D4D"/>
				<stop  offset="1" style="stop-color:#1A1A1A"/>
			</radialGradient>
			<ellipse fill="url(#SVGID_6_)" stroke="#000000" stroke-miterlimit="10" cx="502.7" cy="358.1" rx="30" ry="44.3"/>
			
				<radialGradient id="SVGID_7_" cx="471.8076" cy="358.1066" r="28.178" gradientTransform="matrix(0.9851 0 0 1 37.9048 0)" gradientUnits="userSpaceOnUse">
				<stop  offset="0" style="stop-color:#333333"/>
				<stop  offset="1" style="stop-color:#000000"/>
			</radialGradient>
			<ellipse fill="url(#SVGID_7_)" cx="502.7" cy="358.1" rx="22" ry="33"/>
			
				<ellipse transform="matrix(0.3609 -0.9326 0.9326 0.3609 -6.0616 681.3678)" fill="#F2F2F2" cx="494.1" cy="345.1" rx="7" ry="5.7"/>
			<ellipse cx="502.7" cy="358.1" rx="8" ry="13"/>
			<path fill="#FFFFFF" d="M519.1,378.9c-1.4,2.5-3.6,4.4-4.3,3.6c-0.8-0.8,0.9-0.9,2.7-4.4c1.9-3.5,1.5-4.6,2.6-4.5
				C521.1,373.7,520.5,376.4,519.1,378.9z"/>
			<ellipse fill="#FFFFFF" cx="485.4" cy="359.7" rx="2.8" ry="4.1"/>
		</g>
	</g>
	<g id="嘴巴_1_">
		<path fill="#FFAEC0" stroke="#000000" stroke-width="1.4173" stroke-miterlimit="10" d="M440.2,490.9c-27.5,11.5-40.4,3-47.7-6
			c-8.9,9.7-25.7,15.8-47.3,6C379,509.7,405.6,507.8,440.2,490.9z"/>
		<path fill="#FFFFFF" stroke="#000000" stroke-miterlimit="10" d="M377.3,494.3c0,0,9.3,1.6,14.4,1.6c5.2,0,13.2-1.6,13.2-1.6
			s-9.4-4.6-12.4-9C390.6,488.5,379.8,494.3,377.3,494.3z"/>
	</g>
	<g id="头发_5_">
		<path fill="#FFF6E1" stroke="#000000" stroke-width="1.4173" stroke-miterlimit="10" d="M364.8,196.7
			c-26.6-6.4-37.6-38.8-23.1-58.7c-3.2,16.8,9.8,36.2,37.8,33.6"/>
		<path fill="#EED4BE" d="M340.5,141.2c0,0-1.2,8.3,0.4,14.6c2.3,8.7,10.2,15.5,10.2,15.5s-6.1,0.6-8.9-2.4c0.3,0.6,4.9,4.7,5.9,5.3
			c12.1,7.9,23.3,8.5,23.3,8.5s-8.9,1.1-14.9-0.6c6.7,4.3,21.7,4.9,21.7,4.9s-4.8,2.7-9.9,1.4c6.3,2.5,15.9,3.4,22.8,1.7l-14.4-17.4
			C371.2,173.3,340.9,171.3,340.5,141.2z"/>
		<path fill="#FFF6E1" stroke="#000000" stroke-width="1.4173" stroke-miterlimit="10" d="M445.2,180.1c-16.5-4.2-20.3-24.4-6-27.6
			c-14.9-3.3-21.7,16.3-17.7,21.8c-13.6-1-48-22.5-40.8-55.3c-13,15.5-24.8,68.8,30.3,77.7"/>
		<path fill="#EED4BE" d="M400.3,184.9c-23.7-12-27.2-38.2-20.8-62.1c-4.5,32.1,32,54.1,47.5,53.1c-4-5.5-4.3-18,8.8-23
			c-10.9,5.4-7.1,23.8,9.3,28c0,0-7.1,0.9-18.1-5c0,1.1,15.7,9,15.7,9l-21.8-8.9l20.7,13.1l-15-3l6.8,5l-17.1-6.9l22.3,14.4
			L400.3,184.9z"/>
	</g>
	<g id="帽子_4_">
		<path fill="#001F61" d="M505.4,189.7H276.6c0,0-15.3-6.6-23.5-19.1s-3.3-20.9-0.7-24.9c5.9-8.5,50.1-41,137.8-41
			s133.2,35.5,141.1,44.4c3.3,4.5,3.5,14.7-4.5,25.5C519,185.3,505.4,189.7,505.4,189.7z"/>
		<path fill="#00043C" d="M533,153.2c-4.1,8.4-9.9,10.9-31.9,14.3c-22,3.4-72.9-9.7-110.3-9.7s-74,7.3-110,13.5
			c-17,0.6-29-2.7-30.9-6.8c1.6,5.4,11,18.4,26.5,25.2c8.7,0.3,228.8,0,228.8,0s16.6-6.7,22.5-16.4C534,163.2,534,156.3,533,153.2z"
			/>
		<path d="M281.4,198.6c-2.5,10.9,1.3,112.3,109.2,112.3s116.7-102,112.4-112.3S439.8,188,392.9,188S283.9,187.7,281.4,198.6z"/>
		<path fill="none" stroke="#666666" stroke-width="2" stroke-miterlimit="10" d="M290.8,199.1c-0.4,9.8,7.6,100.2,100,100.2
			s102.4-90.6,102.2-100.2"/>
		<polygon opacity="0.8" fill="#FFFFFF" points="317.8,271.2 314.8,267.7 309.5,190.4 312,190.2 		"/>
		<polygon opacity="0.8" fill="#FFFFFF" points="333.7,284.6 322.7,275.9 317,189.5 328,189 		"/>
		<polygon opacity="0.4" fill="#FFFFFF" points="340.1,288.3 333.7,284.6 328.2,192.9 334.4,192.7 		"/>
		<polygon opacity="0.3" fill="#FFFFFF" points="473,256.8 475.3,253.2 473.2,192.8 470.7,192.6 		"/>
		<polygon opacity="0.3" fill="#FFFFFF" points="458.1,274.4 468.3,263.4 467.3,192.7 456.2,192.2 		"/>
		<path fill="#D31F00" d="M503,201.8c0,0-12.5-4.3-32.3-6.8c-21.3-2.7-50.3-4.7-77.3-4.7c-28.3,0-60.5,1.8-82.4,4.7
			c-18.4,2.4-29.5,6.8-29.5,6.8l-4.8-12.2c0,0,7.4-10.8,20.1-15c25.9-8.7,63.2-11.6,95.5-11.6c35.2,0,77,5.4,98.2,13.8
			c10.7,4.2,15,12.9,15,12.9L503,201.8z"/>
		<path fill="#861400" d="M483.8,174.4c0,0-5.9,15.1-23.4,14.6s-87,1.6-87,1.6s84.7,3.8,96.5,4.3c17.5,0.9,33.1,6.9,33.1,6.9
			l2.4-12.2C505.4,189.7,499.6,177.7,483.8,174.4z"/>
		<polygon fill="#D31F00" points="391.7,118.9 397.9,131.5 411.7,133.5 401.7,143.3 404.1,157.1 391.7,150.5 379.3,157.1 
			381.6,143.3 371.6,133.5 385.5,131.5 		"/>
	</g>
</g>
</svg>