<?xml version="1.0" encoding="utf-8"?>
<svg version="1.0" id="layer_1" xmlns="http://www.w3.org/2000/svg" xmlns:xlink="http://www.w3.org/1999/xlink" x="0px" y="0px" viewBox="0 0 800 800" enable-background="new 0 0 800 800" xml:space="preserve">
<g id="_x31__2_">
	<g id="身体_9_">
		<path fill="#C8826A" stroke="#000000" stroke-width="1.4173" stroke-miterlimit="10" d="M291.3,599.9c0.9-16.5,4-26.1,6.4-31.4
			C293.8,577.2,292.1,589,291.3,599.9l-0.4,14.5c0,9.2,0.5,24.7,0.5,24.7l13.1,58.4l71.6,1.9l9.4-39.9c0,0,3.8,0.4,6.6,0.4
			c2.8,0,6.6-0.4,6.6-0.4l9.4,39.9l71.6-1.9l13.1-58.4c0,0,0.5-15.2,0.5-24.1c0,0-0.2-33.1-6.8-46.5c2.1,3.2,5.8,16.1,6.5,34.5
			l0.4,12c3.6,39.4,49.8,38.6,49.8-5c0-45.3-33.4-74.5-41.8-80c-15.2-10.7-43.5-17.3-43.5-17.3h-65.7H392h-65.7
			c0,0-28.3,6.6-43.5,17.3c-8.4,5.5-41.8,34.7-41.8,80c0,43.8,46.6,44.3,49.8,4.4L291.3,599.9z"/>
		<path opacity="0.1" fill="#FFD2BE" d="M437.7,576.5c-10.9-19-1-39.8-11.4-39.8c-10.4,0-14.2,9.4-33,9.4c-0.1,0-0.7,0-0.8,0
			c-18.8,0-22.6-9.4-33-9.4s-0.5,20.8-11.4,39.8c-22.8,39.7,5.8,74.2,42.6,74.2c0.8,0,3.7,0,4.4,0
			C431.9,650.8,460.5,616.2,437.7,576.5z"/>
		<path fill="#AA5834" d="M335,647.2c0,0,21.3,7.5,57,7.5s56.3-7.5,56.3-7.5s-22.2,12.3-55.9,12.3c-2.9,0-4.9-0.1-7.6-0.3l-9.2,39.1
			l-3.2-4c2.3-7.2,1.4-30.3-0.1-36.2C352.5,655.2,340.1,650.3,335,647.2z"/>
		<path fill="#AA5834" d="M493.4,633l-13.7,59.8l-5.5-1c1.4-4.1,8.4-36.4,12.4-61.3c2.6-37.6-1.1-65.5-1.1-65.5
			C493.8,592.7,494.5,622.4,493.4,633z"/>
		<path fill="#AA5834" d="M542.8,609.5c0,10.4-6.2,31.3-16,29.3c4.2-12,3.7-32.8,3.7-32.8c1.9-45.3-26.9-73.4-26.9-73.4
			C534.1,556.9,542.8,591.9,542.8,609.5z"/>
		<path fill="#AA5834" d="M274.7,616.1c0,5.8-1.1,21.3-7.7,26.7c11.5,0,18.5-11.9,19.9-14.8c3.3-7.1,3.3-18,3.3-18
			c-0.3-34.8,10.2-48.6,10.2-48.6C282,576.8,274.7,606.2,274.7,616.1z"/>
		<path fill="#AA5834" d="M459.6,514.5c-4.6-8.2-28.1-15.9-64-17c-13.9-0.4-69.1-2.1-64.6,6.1c4.9,8.9,20.3,23,61.8,26
			C428.7,532.2,465.3,524.7,459.6,514.5z"/>
	</g>
	<g id="衣服_6_">
		<path fill="#7C22B4" stroke="#000000" stroke-width="0.7087" stroke-miterlimit="10" d="M316.9,511.2
			c-24.6,2.3-54.5,27.6-50.9,34.8c4.5-3.4,31.2,0.6,36,13c-10.5,18-14.5,50-13.9,65.4c1,1.2,8.8,39.5,8.8,39.5
			c11.6,5.9,52.1,10.5,84.4,13.1c0,0,1.6-17,10.7-17c5.6,0,10.7,17,10.7,17c38.7-2.2,64-5.6,84.9-11.2l8.1-41
			c0,0,1.3-43.1-12.5-65.8c1.5-6.7,26.2-16.5,34.2-13c5.4-6.4-22.2-30.1-46.1-34.8c-11.1-1.5-33.9,4.1-33.9,4.1
			c4.9,16.3-4.3,40.5-46.7,40.5s-47.2-25.6-43.3-40.5L316.9,511.2z"/>
		<g>
			<defs>
				<path id="SVGID_126_" d="M316.9,511.2c-24.6,2.3-54.5,27.6-50.9,34.8c4.5-3.4,31.2,0.6,36,13c-10.5,18-14.5,50-13.9,65.4
					c1,1.2,8.8,39.5,8.8,39.5c11.6,5.9,52.1,10.5,84.4,13.1c0,0,1.6-17,10.7-17c5.6,0,10.7,17,10.7,17c38.7-2.2,64-5.6,84.9-11.2
					l8.1-41c0,0,1.3-43.1-12.5-65.8c1.5-6.7,26.2-16.5,34.2-13c5.4-6.4-22.2-30.1-46.1-34.8c-11.1-1.5-33.9,4.1-33.9,4.1
					c4.9,16.3-4.3,40.5-46.7,40.5s-47.2-25.6-43.3-40.5L316.9,511.2z"/>
			</defs>
			<clipPath id="SVGID_2_">
				<use xlink:href="#SVGID_126_"  overflow="visible"/>
			</clipPath>
			<g clip-path="url(#SVGID_2_)">
				
					<rect x="269.5" y="496.5" fill="#502CB4" stroke="#000000" stroke-width="0.2353" stroke-miterlimit="10" width="2" height="186"/>
				
					<rect x="277.5" y="496.5" fill="#502CB4" stroke="#000000" stroke-width="0.2353" stroke-miterlimit="10" width="2" height="186"/>
				
					<rect x="285.5" y="496.5" fill="#502CB4" stroke="#000000" stroke-width="0.2353" stroke-miterlimit="10" width="2" height="186"/>
				
					<rect x="293.5" y="496.5" fill="#502CB4" stroke="#000000" stroke-width="0.2353" stroke-miterlimit="10" width="2" height="186"/>
				
					<rect x="301.5" y="496.5" fill="#502CB4" stroke="#000000" stroke-width="0.2353" stroke-miterlimit="10" width="2" height="186"/>
				
					<rect x="309.5" y="496.5" fill="#502CB4" stroke="#000000" stroke-width="0.2353" stroke-miterlimit="10" width="2" height="186"/>
				
					<rect x="317.5" y="496.5" fill="#502CB4" stroke="#000000" stroke-width="0.2353" stroke-miterlimit="10" width="2" height="186"/>
				
					<rect x="325.5" y="496.5" fill="#502CB4" stroke="#000000" stroke-width="0.2353" stroke-miterlimit="10" width="2" height="186"/>
				
					<rect x="333.5" y="496.5" fill="#502CB4" stroke="#000000" stroke-width="0.2353" stroke-miterlimit="10" width="2" height="186"/>
				
					<rect x="341.5" y="496.5" fill="#502CB4" stroke="#000000" stroke-width="0.2353" stroke-miterlimit="10" width="2" height="186"/>
				
					<rect x="349.5" y="496.5" fill="#502CB4" stroke="#000000" stroke-width="0.2353" stroke-miterlimit="10" width="2" height="186"/>
				
					<rect x="357.5" y="496.5" fill="#502CB4" stroke="#000000" stroke-width="0.2353" stroke-miterlimit="10" width="2" height="186"/>
				
					<rect x="365.5" y="496.5" fill="#502CB4" stroke="#000000" stroke-width="0.2353" stroke-miterlimit="10" width="2" height="186"/>
				
					<rect x="373.5" y="496.5" fill="#502CB4" stroke="#000000" stroke-width="0.2353" stroke-miterlimit="10" width="2" height="186"/>
				
					<rect x="381.5" y="496.5" fill="#502CB4" stroke="#000000" stroke-width="0.2353" stroke-miterlimit="10" width="2" height="186"/>
				
					<rect x="389.5" y="496.5" fill="#502CB4" stroke="#000000" stroke-width="0.2353" stroke-miterlimit="10" width="2" height="186"/>
				
					<rect x="397.5" y="496.5" fill="#502CB4" stroke="#000000" stroke-width="0.2353" stroke-miterlimit="10" width="2" height="186"/>
				
					<rect x="405.5" y="496.5" fill="#502CB4" stroke="#000000" stroke-width="0.2353" stroke-miterlimit="10" width="2" height="186"/>
				
					<rect x="413.5" y="496.5" fill="#502CB4" stroke="#000000" stroke-width="0.2353" stroke-miterlimit="10" width="2" height="186"/>
				
					<rect x="421.5" y="496.5" fill="#502CB4" stroke="#000000" stroke-width="0.2353" stroke-miterlimit="10" width="2" height="186"/>
				
					<rect x="429.5" y="496.5" fill="#502CB4" stroke="#000000" stroke-width="0.2353" stroke-miterlimit="10" width="2" height="186"/>
				
					<rect x="437.5" y="496.5" fill="#502CB4" stroke="#000000" stroke-width="0.2353" stroke-miterlimit="10" width="2" height="186"/>
				
					<rect x="445.5" y="496.5" fill="#502CB4" stroke="#000000" stroke-width="0.2353" stroke-miterlimit="10" width="2" height="186"/>
				
					<rect x="453.5" y="496.5" fill="#502CB4" stroke="#000000" stroke-width="0.2353" stroke-miterlimit="10" width="2" height="186"/>
				
					<rect x="461.5" y="496.5" fill="#502CB4" stroke="#000000" stroke-width="0.2353" stroke-miterlimit="10" width="2" height="186"/>
				
					<rect x="469.5" y="496.5" fill="#502CB4" stroke="#000000" stroke-width="0.2353" stroke-miterlimit="10" width="2" height="186"/>
				
					<rect x="477.5" y="496.5" fill="#502CB4" stroke="#000000" stroke-width="0.2353" stroke-miterlimit="10" width="2" height="186"/>
				
					<rect x="485.5" y="496.5" fill="#502CB4" stroke="#000000" stroke-width="0.2353" stroke-miterlimit="10" width="2" height="186"/>
				
					<rect x="493.5" y="496.5" fill="#502CB4" stroke="#000000" stroke-width="0.2353" stroke-miterlimit="10" width="2" height="186"/>
				
					<rect x="501.5" y="496.5" fill="#502CB4" stroke="#000000" stroke-width="0.2353" stroke-miterlimit="10" width="2" height="186"/>
				
					<rect x="509.5" y="496.5" fill="#502CB4" stroke="#000000" stroke-width="0.2353" stroke-miterlimit="10" width="2" height="186"/>
			</g>
		</g>
		<path fill="#682873" d="M482.9,559.3c10.9,31.6,4.9,67.2,4.9,67.2l5.2-2.8C493,623.7,496.9,583.2,482.9,559.3z"/>
		<path opacity="0.8" fill="#580080" d="M335,647.2c0,0,21.3,7.5,57,7.5s56.3-7.5,56.3-7.5s-22.2,12.3-55.9,12.3
			c-2.9,0-4.6,1.2-6.2,2.8c-3.8,3.9-5.5,14.2-5.5,14.2l-7-0.6c0.4-3.6,0.1-11.8-1.5-17.7C352.5,655.2,340.1,650.3,335,647.2z"/>
		<path opacity="0.8" fill="#580080" d="M493.4,633l-6.4,33l-6.8,1.8c1.4-4.1,2.4-12.3,6.5-37.2c2.6-37.6-1.1-65.5-1.1-65.5
			C493.8,592.7,494.5,622.4,493.4,633z"/>
		<path fill="#7C4AB4" stroke="#000000" stroke-width="0.7087" stroke-miterlimit="10" d="M341.9,516.5c0,0-12.4,45,50.1,45
			s52.1-44.3,52.1-44.3l-5.7,0.8c0,0,6.9,37.7-46.5,37.7s-45.5-38.4-45.5-38.4L341.9,516.5z"/>
		<path fill="#7C4AB4" stroke="#000000" stroke-width="0.7087" stroke-miterlimit="10" d="M296.9,663.8c0,0,26,7.2,45.1,8.9
			c30.7,2.8,38.8,3.7,38.8,3.7l0.7-4.5c0,0-11.8-1.9-39.5-6.1c-30.1-4.6-46.2-8.4-46.2-8.4L296.9,663.8z"/>
		<path fill="#7C4AB4" stroke="#000000" stroke-width="0.7087" stroke-miterlimit="10" d="M486.9,665.8c0,0-26,7.2-45.1,8.9
			c-30.7,2.8-38.8,3.7-38.8,3.7l-0.7-4.5c0,0,11.8-1.9,39.5-6.1c30.1-4.6,46.2-8.4,46.2-8.4L486.9,665.8z"/>
		<path fill="#7C4AB4" stroke="#000000" stroke-width="0.498" stroke-miterlimit="10" d="M518.2,545.9c-4.8-1.6-10.8-0.8-19,2.1
			c-14.6,5-15.9,11-15.9,11l-3.4-5.8c0,0,0.4-5.1,16.9-10.9c8.8-3.1,14.9-3.3,19.5-3.7C519.2,542.7,518.7,545.5,518.2,545.9z"/>
		<path fill="#7C4AB4" stroke="#000000" stroke-width="0.498" stroke-miterlimit="10" d="M266.1,545.3c4.8-1.6,10.8-0.8,19,2.1
			c14.6,5,16.9,11.7,16.9,11.7l4.2-5.5c0,0-1.7-6.6-18.3-12.4c-8.8-3.1-14.7-2.6-19.3-3C265.8,542.1,265.6,544.8,266.1,545.3z"/>
		<g opacity="0.6">
			<path fill="#7A0097" d="M398.1,571.8l2.4,1.7c1.6,0.9,2.9,2,4,3.1c1.3,0.8,2.1,1.6,2.4,2.6c0.5,0.6,0.8,1,0.8,1.4l-0.8,1.4
				c-0.5,0.6-1.1,1.5-1.6,2.8c-0.3,0.6-0.7,1.4-1.2,2.6c-0.3,0.6-0.5,0.9-0.8,1.1c-0.8,1.1-1.5,2.3-2,3.4c0,0.2-0.3,0.7-0.8,1.4
				c-0.5,0.8-1.1,1.5-1.6,2.3l0.8,1.1c0.5,0.6,1.3,1.3,2.4,2.3c1.3,0.6,2.1,1.3,2.4,2.3c0.5,0.6,0.9,1.3,1.2,2.3
				c0.3,0.2,0.5,0.6,0.8,1.1c0.5,0.8,0.9,1.5,1.2,2.3l-0.4,0.6c-0.3,0.2-0.4,0.4-0.4,0.6c-0.3,0.4-0.4,0.7-0.4,0.9
				c0,0.2-0.1,0.4-0.4,0.6c-0.3,0.6-0.5,1-0.8,1.4h8l-0.8-3.4l0.4,0.3c0.5,0,0.9,0.6,1.2,1.7c0.3,0.4,0.8,0.9,1.6,1.7
				c0.3,0.4,0.5,0.7,0.8,0.9l0.4-1.1c0.5-0.9,0.9-2.3,1.2-4c0-0.2,0-0.5,0-0.9c0.5-1.5,0.7-2.6,0.4-3.1c0-0.2-0.1-0.5-0.4-0.9
				c0-0.6-0.1-0.9-0.4-1.1v-0.3c-0.5-0.9-1.5-1.9-2.8-2.8l-3.2-0.6v-0.6l2.4-0.3c1.6-0.2,2.9-0.3,4-0.3l1.2,0.6
				c0.8,0.2,1.7,0.6,2.8,1.1c1.3,0.2,2.1,0.6,2.4,1.1c0.5,0.4,1.1,0.9,1.6,1.4c0.5,0.4,0.9,1.1,1.2,2.3c0.3,0.8,0.4,1.3,0.4,1.7
				l-0.4,0.9c-0.3,0.2-0.4,1-0.4,2.6c0,1.1-0.3,2.5-0.8,4c-0.3,1.1-0.7,2-1.2,2.6c-0.3,0.2-0.4,0.6-0.4,1.1
				c-0.3,0.4-0.4,0.7-0.4,0.9c-0.3,0.8-0.8,1.7-1.6,2.8c-0.8,0.8-1.2,1.3-1.2,1.7l-0.4,0.9c-0.3,0.4-0.7,0.9-1.2,1.4
				c0,0.2-0.1,0.4-0.4,0.6c-0.5,0.6-0.9,1-1.2,1.4l-0.8,0.3h-0.4c-0.5,0.2-0.9,0.3-1.2,0.3l-0.8-0.9c-0.3-0.6-0.7-1.1-1.2-1.7
				c-0.3-0.6-0.3-1.4,0-2.6c0.5-1.1,0.4-2.6-0.4-4.5h-2.4c-0.5,0-1.3,0-2.4,0c-1.1-0.2-2-0.3-2.8-0.3c-1.9-0.4-3.3-0.4-4.4,0
				c-0.5,0-1.7,0.1-3.6,0.3c1.3-0.2,0.9-0.1-1.2,0.3c-2.1,0-3.9,0.2-5.2,0.6c-0.5,0-1.7,0.1-3.6,0.3c1.3-0.2,0.9-0.1-1.2,0.3
				c-1.9,0-3.3,0.3-4.4,0.9c-0.5,0.2-1.1,0.3-1.6,0.3c-0.5,0.2-1.1,0.4-1.6,0.6c-0.5,0-1.3,0.3-2.4,0.9c-0.3,0.2-0.5,0.3-0.8,0.3
				c-0.5,0.2-1.1,0.4-1.6,0.6c-0.8,0.4-1.5,0.7-2,0.9c-1.1,0.4-2.3,0.9-3.6,1.4c-0.8,0.4-2.1,0.9-4,1.4l-1.6-1.1l-0.8,1.1l-1.6-0.6
				c-0.3-0.2-0.7-0.4-1.2-0.6c-0.3-0.2-0.7-0.4-1.2-0.6c-0.3-0.2-0.9-0.6-2-1.1c-1.1-0.4-2-0.8-2.8-1.1l-0.4-1.1
				c-0.3-0.4-0.4-0.9-0.4-1.7c-0.3-0.8-0.4-1.3-0.4-1.7c0-0.4-0.1-0.9-0.4-1.7c0-0.6-0.1-1.1-0.4-1.7l-0.4-1.4
				c0-0.4,0.1-0.7,0.4-0.9c0.3-0.2,0.4-0.7,0.4-1.4c0.3-0.4,0.4-0.8,0.4-1.1c0-0.4,0.1-0.9,0.4-1.7c0-0.4,0.1-0.9,0.4-1.4
				c0-0.2,0.1-0.5,0.4-0.9c0-0.6,0.1-0.9,0.4-1.1c0-0.2,0.1-0.5,0.4-0.9c0-0.2,0.1-0.4,0.4-0.6c0.3-0.2,0.5-0.5,0.8-0.9
				c0-0.2,0.1-0.4,0.4-0.6c0.5-0.6,1.2-1.3,2-2.3c0.5-1.1,2-2,4.4-2.6l1.6,0.6c1.1,0.2,2.1,0.6,3.2,1.1v0.6l-1.6,0.6l1.2,0.6
				c0.8,0.2,1.7,0.5,2.8,0.9c1.1,0,2.1,0.3,3.2,0.9v1.1l-2-0.6c-0.8-0.6-3.3-0.9-7.6-1.1l-0.4,1.1c-0.3,0.6-0.3,1.6,0,3.1
				c0.3,1.1,0.4,1.9,0.4,2.3l-0.4,0.9c-0.3,0.4-0.7,0.9-1.2,1.4c0,0.2-0.1,0.4-0.4,0.6c-0.3,0-0.7,0.6-1.2,1.7
				c-0.3,0.8-0.7,1.7-1.2,2.8c-0.3,0.8-0.4,1.8-0.4,3.1l1.2,0.3c0.8,0,2.1-0.1,4-0.3c1.9-0.6,3.6-0.9,5.2-0.9
				c1.6-0.4,3.1-0.7,4.4-0.9c1.3-0.6,2.8-0.9,4.4-1.1c1.6-0.6,3.2-0.9,4.8-1.1c1.6-0.6,3.1-0.9,4.4-0.9c1.3-0.4,2.8-0.6,4.4-0.6
				c0.8-0.2,1.7-0.3,2.8-0.3c0.5,0,2.4,0,5.6,0l-1.6-1.1c-0.8-0.9-1.6-1.8-2.4-2.6c-0.8-1.1-1.3-1.8-1.6-2c-0.3-0.4-0.9-0.9-2-1.7
				l-0.8,0.3c-0.5,0-1.2,0.4-2,1.1c-0.8,0.6-1.5,1.2-2,2c-0.5,0.6-1.2,1.1-2,1.7c-0.8,0.4-1.5,0.9-2,1.4c-0.3,0.4-0.8,0.8-1.6,1.1
				c0.8-0.4,0.5-0.3-0.8,0.3c-0.3,0-0.7,0.1-1.2,0.3c-0.5,0.2-0.9,0.3-1.2,0.3l-2.4-1.1h-2c-1.1,0-2.3-0.2-3.6-0.6l-0.4-0.9
				c-0.3-0.6-0.7-1-1.2-1.4c-0.3-0.6-0.7-0.9-1.2-1.1c-0.3-0.4-0.4-0.9-0.4-1.7l2,0.6c0.3,0,0.7,0.1,1.2,0.3
				c0.5,0.2,0.9,0.3,1.2,0.3h0.8c0.5-0.2,1.1-0.3,1.6-0.3c1.3-0.4,2.4-0.7,3.2-0.9c0.8-0.6,1.6-1.1,2.4-1.7c0.3-0.2,0.7-0.5,1.2-0.9
				c0.3-0.6,0.5-0.9,0.8-1.1c0-0.2,0.3-0.6,0.8-1.1c0.5-0.4,0.8-0.7,0.8-0.9c0.3-0.8,1.3-1.9,3.2-3.4l-0.8-0.9
				c-0.3-0.6-1.1-1-2.4-1.4c-1.1-0.6-2.4-0.9-4-1.1v-1.1l-1.6-0.9c-0.5-0.2-1.1-0.6-1.6-1.1c-0.8-0.4-1.5-0.7-2-0.9
				c-0.8-0.6-2.1-1.3-4-2.3c0.3,0.2-0.1,0-1.2-0.6l-4,2.8l0.8-2.3l-2.4,1.7l0.8-1.7l-0.8-1.1l1.6-0.6c1.1-0.6,2-0.9,2.8-1.1
				c0.8-0.6,1.9-0.9,3.2-0.9c1.3-0.2,2.4-0.3,3.2-0.3c0.8,0,2,0.1,3.6,0.3c1.6,0,2.8,0.3,3.6,0.9c0.8,0.4,1.9,0.9,3.2,1.4
				c0.3,0.2,0.7,0.4,1.2,0.6c1.1,0.4,1.7,0.7,2,0.9c0.5,0,1.7,0.8,3.6,2.3l1.6-1.7V586l1.6-0.6l-0.8-1.1l0.4-0.3
				c0.5-0.4,0.9-0.9,1.2-1.7c0-0.4,0.1-0.9,0.4-1.4c0.5-0.9,0.9-1.9,1.2-2.8l-0.8-0.6c0-0.2-0.3-0.5-0.8-0.9
				c-0.5-0.4-0.8-0.7-0.8-0.9c-0.3-0.4-0.5-0.9-0.8-1.4c-0.3-0.6-0.5-1-0.8-1.4l0.8-1.1H398.1z"/>
		</g>
	</g>
	<g id="脚_20_">
		<g id="鞋_8_">
			<path fill="#4F00DE" stroke="#000000" stroke-miterlimit="10" d="M482.8,707.7c0,0,3.2-16.7-12.5-18.4c-16.1,0-50.7,0-50.7,0
				s-14.2,1.1-14.2,19.1l38.7,1.6L482.8,707.7z"/>
			<path fill="#FFFFFF" stroke="#000000" stroke-width="0.982" stroke-miterlimit="10" d="M403,716.2c0,0,10,3.9,39.5,3.9
				c29.5,0,41.5-3.9,41.5-3.9s1.6-9.3,0-10c-1.6-0.7-15,3.9-41.5,3.9c-26.5,0-38.3-5.1-39.5-3.9C401.8,707.4,403,716.2,403,716.2z"
				/>
			<path fill="#BFBFBF" d="M484.2,708.1c0,0-15.2,6.3-39.7,4.9c0,6-28.3,5.1-28.3,5.1s39.4,4.7,67.6-2.4L484.2,708.1z"/>
			<line fill="none" stroke="#000000" stroke-width="0.982" stroke-miterlimit="10" x1="479" y1="706.8" x2="479" y2="717.3"/>
			<line fill="none" stroke="#000000" stroke-width="0.982" stroke-miterlimit="10" x1="473.5" y1="707.7" x2="473.5" y2="718.1"/>
			<line fill="none" stroke="#000000" stroke-width="0.982" stroke-miterlimit="10" x1="467.8" y1="708.4" x2="467.8" y2="718.8"/>
			<line fill="none" stroke="#000000" stroke-width="0.982" stroke-miterlimit="10" x1="461.4" y1="709.2" x2="461.4" y2="719.4"/>
			<line fill="none" stroke="#000000" stroke-width="0.982" stroke-miterlimit="10" x1="454.4" y1="709.7" x2="454.4" y2="719.8"/>
			<line fill="none" stroke="#000000" stroke-width="0.982" stroke-miterlimit="10" x1="447" y1="710" x2="447" y2="720.1"/>
			<line fill="none" stroke="#000000" stroke-width="0.982" stroke-miterlimit="10" x1="439" y1="709.8" x2="439" y2="719.8"/>
			<line fill="none" stroke="#000000" stroke-width="0.982" stroke-miterlimit="10" x1="432" y1="709.8" x2="432" y2="719.8"/>
			<line fill="none" stroke="#000000" stroke-width="0.982" stroke-miterlimit="10" x1="423.4" y1="709.2" x2="423.4" y2="719.2"/>
			<line fill="none" stroke="#000000" stroke-width="0.982" stroke-miterlimit="10" x1="415.8" y1="707.6" x2="415.8" y2="718.6"/>
			<line fill="none" stroke="#000000" stroke-width="0.982" stroke-miterlimit="10" x1="409.5" y1="706.7" x2="409.5" y2="717.7"/>
			<path fill="#A668FF" d="M448.4,691.4c0,0-19-2-29.1,1.9c-5.3,1.8-7.4,11.3-7.5,12.7c4.5,1.3,9.6,1.6,9.6,1.6s-2.3-6.6,2.1-10.1
				S438.3,690.6,448.4,691.4z"/>
		</g>
		<g id="鞋_7_">
			<path fill="#4F00DE" stroke="#000000" stroke-miterlimit="10" d="M378.8,707.7c0,0,3.2-16.7-12.5-18.4c-16.1,0-50.7,0-50.7,0
				s-14.2,1.1-14.2,19.1l38.7,1.6L378.8,707.7z"/>
			<path fill="#FFFFFF" stroke="#000000" stroke-width="0.982" stroke-miterlimit="10" d="M301,716.2c0,0,10,3.9,39.5,3.9
				c29.5,0,41.5-3.9,41.5-3.9s1.6-9.3,0-10c-1.6-0.7-15,3.9-41.5,3.9c-26.5,0-38.3-5.1-39.5-3.9C299.8,707.4,301,716.2,301,716.2z"
				/>
			<path fill="#BFBFBF" d="M382.2,708.1c0,0-15.3,6.3-39.7,4.9c0,6-28.3,5.1-28.3,5.1s39.4,4.7,67.6-2.4L382.2,708.1z"/>
			<line fill="none" stroke="#000000" stroke-width="0.982" stroke-miterlimit="10" x1="375" y1="706.8" x2="375" y2="717.3"/>
			<line fill="none" stroke="#000000" stroke-width="0.982" stroke-miterlimit="10" x1="369.5" y1="707.7" x2="369.5" y2="718.1"/>
			<line fill="none" stroke="#000000" stroke-width="0.982" stroke-miterlimit="10" x1="363.8" y1="708.4" x2="363.8" y2="718.8"/>
			<line fill="none" stroke="#000000" stroke-width="0.982" stroke-miterlimit="10" x1="357.4" y1="709.2" x2="357.4" y2="719.4"/>
			<line fill="none" stroke="#000000" stroke-width="0.982" stroke-miterlimit="10" x1="350.4" y1="709.7" x2="350.4" y2="719.8"/>
			<line fill="none" stroke="#000000" stroke-width="0.982" stroke-miterlimit="10" x1="343" y1="710" x2="343" y2="720.1"/>
			<line fill="none" stroke="#000000" stroke-width="0.982" stroke-miterlimit="10" x1="335" y1="709.8" x2="335" y2="719.8"/>
			<line fill="none" stroke="#000000" stroke-width="0.982" stroke-miterlimit="10" x1="328" y1="709.8" x2="328" y2="719.8"/>
			<line fill="none" stroke="#000000" stroke-width="0.982" stroke-miterlimit="10" x1="319.4" y1="709.2" x2="319.4" y2="719.2"/>
			<line fill="none" stroke="#000000" stroke-width="0.982" stroke-miterlimit="10" x1="311.8" y1="707.6" x2="311.8" y2="718.6"/>
			<line fill="none" stroke="#000000" stroke-width="0.982" stroke-miterlimit="10" x1="305.5" y1="706.7" x2="305.5" y2="717.7"/>
			<path fill="#A668FF" d="M344.4,691.4c0,0-19-2-29.1,1.9c-5.3,1.8-7.4,11.3-7.5,12.7c4.5,1.3,9.6,1.6,9.6,1.6s-2.3-6.6,2.1-10.1
				C323.8,694,334.3,690.6,344.4,691.4z"/>
		</g>
	</g>
	<g id="手_29_">
		<g id="手_31_">
			<g id="左手_22_">
				<path fill="#FFD2BE" stroke="#000000" stroke-width="1.4173" stroke-miterlimit="10" d="M497.9,632.8
					c-3.6,16.8,3.9,27.2,20.5,27.2c16.6,0,29-17.2,29-32.7c0-15.5-10.2-28.6-26.8-28.6c-12.7,0-19.4,3.8-25.4,14.1
					C491.3,619.7,498.6,629.3,497.9,632.8z"/>
				<path fill="#FFD2BE" stroke="#000000" stroke-width="1.4173" stroke-miterlimit="10" d="M514.6,627.5
					c-1.5,13-12.8,16.2-19.6,11.8c-6.1-3.8-9.1-14.5,0-25.9"/>
			</g>
			<path fill="#E6A082" d="M514.6,618.2c0,0,0,22.3-21,19C502.1,645.9,519.4,636.7,514.6,618.2z"/>
			<path fill="#E6A082" d="M510.4,638.2c0,0-3.7,4.8-12.5,3.3C497.1,651.7,510.1,643.2,510.4,638.2z"/>
			<path fill="#E6A082" d="M538.6,606.6c2.8,5.9,5.8,23.3-2.8,37c-6,9.5-11.9,15.1-21.2,15.5c16.1,2.1,24.9-10.8,27.2-14.6
				C547.3,635.9,550.3,618.5,538.6,606.6z"/>
		</g>
		<g id="手_30_">
			<g id="左手_21_">
				<path fill="#FFD2BE" stroke="#000000" stroke-width="1.4173" stroke-miterlimit="10" d="M287.8,632.8
					c3.6,16.8-3.9,27.2-20.5,27.2s-29-17.2-29-32.7c0-15.5,10.2-28.6,26.8-28.6c12.7,0,19.4,3.8,25.4,14.1
					C294.4,619.7,287.1,629.3,287.8,632.8z"/>
				<path fill="#FFD2BE" stroke="#000000" stroke-width="1.4173" stroke-miterlimit="10" d="M271.1,627.5
					c1.5,13,12.8,16.2,19.6,11.8c6.1-3.8,9.1-14.5,0-25.9"/>
			</g>
			<path fill="#E6A082" d="M292,616.4c1.5,2.4,2.9,11.3-0.7,17.3c-1.8,3-7.3,6.4-12.2,5.5c6.1,3.2,12.8,0.3,15.3-5.2
				C297.9,626.6,293.5,618.2,292,616.4z"/>
			<path fill="#E6A082" d="M273,621.6c-8,10.9,4.5,21.2,2.9,28.4c-0.8,3.5-5.9,10.4-15,8.3c7.4,2.5,19.4,0.3,23.5-5.7
				c1.1-1.6,3.4-4.2,3.7-11.2C277.2,644.1,266.8,632.9,273,621.6z"/>
		</g>
		<g id="手套_12_">
			<g id="手套_14_">
				<path fill="#43FF48" d="M492.7,617.9c0,0,17.3-1.4,21.4,13.4c3-2,22.1,6.4,19.9,22.1c4.6-2.6,10.5-11.3,12.1-20.8
					c2-11.1-1.4-23.3-10.8-28.9c-16.1-9.6-31.8-1.7-35.1,3.3C498.2,609.2,493.7,616.2,492.7,617.9z"/>
				<path fill="#32BF36" d="M514.1,631.3c0,0,2.1-9.2,2.1-12.3c-1.9,5.9-3.6,8.5-3.6,8.5L514.1,631.3z"/>
				<path fill="#32BF36" d="M534,653.4c0.9,0.3,21.5-17.6,8.6-42.5c4.8,22.1-8.9,35.9-8.9,35.9S534.5,651.7,534,653.4z"/>
			</g>
			<g id="手套_13_">
				<path fill="#43FF48" d="M292.8,617.9c0,0-16.6-3.3-20.7,11.4c-3.9,1-22.8,8.3-20.6,24.1c-4.6-2.6-10.5-11.3-12.1-20.8
					c-2-11.1,1.4-23.3,10.8-28.9c16.1-9.6,31.8-1.7,35.1,3.3C287.3,609.2,291.9,616.2,292.8,617.9z"/>
				<path fill="#32BF36" d="M270.2,630c0,0-1.1-5.8,2-11.6c-1.9,7-0.1,11-0.1,11L270.2,630z"/>
			</g>
		</g>
	</g>
	<g id="耳朵_1_">
		<g id="耳朵_3_">
			<path fill="#FF975E" stroke="#000000" stroke-width="1.4173" stroke-miterlimit="10" d="M237.7,242.4
				c-15.4,11.3-31.4-77.1-86.8-24.7c-44.5,42.3,6,137.9,72.5,92.6L237.7,242.4z"/>
			<path fill="#AA5834" d="M153.2,217c49.3-31.5,56.4,22.9,77.8,35l5.3-7.3C213.7,236.2,202.2,173.5,153.2,217z"/>
			<path fill="#FFBEBA" stroke="#000000" stroke-width="0.7087" stroke-miterlimit="10" d="M214.9,301.2c-20,14-54.9-20.5-33.5-48.3
				c25.8-33.4,45.7,4,52.3,0L214.9,301.2z"/>
		</g>
		<g id="耳朵_7_">
			<path fill="#FF975E" stroke="#000000" stroke-width="1.4173" stroke-miterlimit="10" d="M544.1,242.4
				c15.4,11.3,31.4-77.1,86.8-24.7c44.5,42.3-6,137.9-72.5,92.6L544.1,242.4z"/>
			<path fill="#AA5834" d="M628.6,217c-49.3-31.5-56.4,22.9-77.8,35l-5.3-7.3C568.1,236.2,579.6,173.5,628.6,217z"/>
			<path fill="#FFBEBA" stroke="#000000" stroke-width="0.7087" stroke-miterlimit="10" d="M566.8,301.2c20,14,54.9-20.5,33.5-48.3
				c-25.8-33.4-45.7,4-52.3,0L566.8,301.2z"/>
		</g>
	</g>
	<g id="面部_9_">
		<path id="面部_10_" fill="#FF96BE" stroke="#000000" stroke-width="1.4173" stroke-miterlimit="10" d="M214.3,278.3
			c11.2-30.5,46.9-77.2,129.7-100c36.3-10,61.8-8.8,96.6,0.5c41.8,11.2,105.2,42.4,128.8,98.9c11.7,28,11.7,87.7,11.7,87.7
			s23.3,12,23.3,49.3c0,32.5-52.7,87.4-157.3,100.9c-15.4,2-29.3,11.1-53.3,11.1s-38-9.3-54.8-11.6C236.1,501,179,448.5,179,414.7
			c0-34.2,25.5-48.8,25.5-48.8S201,314.7,214.3,278.3z"/>
		<path fill="#D264D2" d="M532.7,227.5c34.8,34.5,46.6,60.2,47.7,138.2c0,0-7.3,1.1-13.4,5.4C573.9,347.5,572.5,271,532.7,227.5z"/>
		<path fill="#D264D2" d="M267,496.2c18.9,9.2,64.8,17.7,77.4,19.2c6.4,1.4,29.4,10.5,47,10.5s30.2-3.9,46.7-9.6
			c29.3-2.6,80.2-15.3,104.8-31c-30.3,13.1-68.9,21.4-97.6,25.7c3.7-3.3,8.2-5.9,11.8-11.9c-15.7,13.9-34.1,19.9-61.5,20.6
			C384.7,519.9,312,509.5,267,496.2z"/>
	</g>
	<g id="鼻子_33_">
		<ellipse fill="#B4D4D0" stroke="#000000" stroke-width="1.4173" stroke-miterlimit="10" cx="391.3" cy="421.3" rx="90" ry="59"/>
		<path fill="#658783" d="M392,467.5c-28.1,1.3-47.3-1.5-68.3-8.4c6.1,6,32.9,20.6,67.2,20.6c48.4,0,89.7-24.6,89.7-58.4
			C475.8,438.2,445.9,465,392,467.5z"/>
		<g id="鼻子_34_">
			<path fill="#69301B" stroke="#000000" stroke-miterlimit="10" d="M404.4,385.7c-5.2,0-8,2.3-13.5,2.4c-5.5-0.1-8.3-2.4-13.5-2.4
				c-10,0-18.5,8.3-18.5,15.5c0,7.3,6.2,16.9,19.6,18.3c3.1,0.3,22,0.4,24.7,0c13.3-2,19.6-11,19.6-18.3
				C422.9,394,414.4,385.7,404.4,385.7z"/>
			<path fill="#3F1000" d="M420.8,406c0,4.5-6.4,10.1-14,12.3c-4.9,1.4-10,1-16.5,1c-5.7,0-10.3,0.4-14.8-0.7
				c-8.7-2.1-14.9-8.3-14.9-12.6c0-6.6,13.4-9,30-9S420.8,399.3,420.8,406z"/>
		</g>
	</g>
	<g id="眼睛_28_">
		<linearGradient id="SVGID_4_" gradientUnits="userSpaceOnUse" x1="443.1915" y1="327.1581" x2="530.4346" y2="368.58">
			<stop  offset="0" style="stop-color:#AA5834;stop-opacity:0.6"/>
			<stop  offset="1" style="stop-color:#C87A4A;stop-opacity:0"/>
		</linearGradient>
		<path fill="url(#SVGID_4_)" d="M524.7,326.7c17.5,42.8,2.8,76.1-24.6,76.1s-47.7-28.8-50.6-44.6c-4-20.6,4.9-42.7,20.5-51.1
			C489.5,296.5,512.7,297.3,524.7,326.7z"/>
		<linearGradient id="SVGID_5_" gradientUnits="userSpaceOnUse" x1="237.0114" y1="334.1588" x2="297.4662" y2="365.2986">
			<stop  offset="0" style="stop-color:#AA5834"/>
			<stop  offset="1" style="stop-color:#C87A4A;stop-opacity:0"/>
		</linearGradient>
		<path fill="url(#SVGID_5_)" d="M304.6,326.7c20.7,41.4-1.1,75.1-24.6,76.1c-18.5,0.8-31.7-19.4-34.5-35.2
			c-4-20.6,0.4-34.5,11-48.8C264.4,308,291.7,300.7,304.6,326.7z"/>
		<g id="眼睛_30_">
			<radialGradient id="SVGID_6_" cx="281.6733" cy="358.1066" r="37.8513" gradientUnits="userSpaceOnUse">
				<stop  offset="0" style="stop-color:#4D4D4D"/>
				<stop  offset="1" style="stop-color:#1A1A1A"/>
			</radialGradient>
			<ellipse fill="url(#SVGID_6_)" stroke="#000000" stroke-miterlimit="10" cx="281.7" cy="358.1" rx="30" ry="44.3"/>
			
				<radialGradient id="SVGID_7_" cx="285.6263" cy="358.1066" r="28.178" gradientTransform="matrix(0.9851 0 0 1 0.3083 0)" gradientUnits="userSpaceOnUse">
				<stop  offset="0" style="stop-color:#333333"/>
				<stop  offset="1" style="stop-color:#000000"/>
			</radialGradient>
			<ellipse fill="url(#SVGID_7_)" cx="281.7" cy="358.1" rx="22" ry="33"/>
			
				<ellipse transform="matrix(0.3609 -0.9326 0.9326 0.3609 -147.2983 475.2638)" fill="#F2F2F2" cx="273.1" cy="345.1" rx="7" ry="5.7"/>
			<ellipse cx="281.7" cy="358.1" rx="8" ry="13"/>
			<path fill="#FFFFFF" d="M298.1,378.9c-1.4,2.5-3.6,4.4-4.3,3.6c-0.8-0.8,0.9-0.9,2.7-4.4c1.9-3.5,1.5-4.6,2.6-4.5
				C300.1,373.7,299.5,376.4,298.1,378.9z"/>
			<ellipse fill="#FFFFFF" cx="264.4" cy="359.7" rx="2.8" ry="4.1"/>
		</g>
		<g id="眼睛_29_">
			<radialGradient id="SVGID_8_" cx="502.6734" cy="358.1066" r="37.8513" gradientUnits="userSpaceOnUse">
				<stop  offset="0" style="stop-color:#4D4D4D"/>
				<stop  offset="1" style="stop-color:#1A1A1A"/>
			</radialGradient>
			<ellipse fill="url(#SVGID_8_)" stroke="#000000" stroke-miterlimit="10" cx="502.7" cy="358.1" rx="30" ry="44.3"/>
			
				<radialGradient id="SVGID_10_" cx="509.9735" cy="358.1066" r="28.178" gradientTransform="matrix(0.9851 0 0 1 0.3083 0)" gradientUnits="userSpaceOnUse">
				<stop  offset="0" style="stop-color:#333333"/>
				<stop  offset="1" style="stop-color:#000000"/>
			</radialGradient>
			<ellipse fill="url(#SVGID_10_)" cx="502.7" cy="358.1" rx="22" ry="33"/>
			
				<ellipse transform="matrix(0.3609 -0.9326 0.9326 0.3609 -6.0616 681.3678)" fill="#F2F2F2" cx="494.1" cy="345.1" rx="7" ry="5.7"/>
			<ellipse cx="502.7" cy="358.1" rx="8" ry="13"/>
			<path fill="#FFFFFF" d="M519.1,378.9c-1.4,2.5-3.6,4.4-4.3,3.6c-0.8-0.8,0.9-0.9,2.7-4.4c1.9-3.5,1.5-4.6,2.6-4.5
				C521.1,373.7,520.5,376.4,519.1,378.9z"/>
			<ellipse fill="#FFFFFF" cx="485.4" cy="359.7" rx="2.8" ry="4.1"/>
		</g>
	</g>
	<g id="眼镜_6_">
		<radialGradient id="SVGID_11_" cx="386.1436" cy="338.9491" r="137.8149" gradientUnits="userSpaceOnUse">
			<stop  offset="0" style="stop-color:#4D4D4D"/>
			<stop  offset="1" style="stop-color:#1A1A1A"/>
		</radialGradient>
		<path fill="url(#SVGID_11_)" stroke="#000000" stroke-width="1.1232" stroke-miterlimit="10" d="M486.7,270.8
			c-33.8,0-62.8,16.7-75.3,40.5h-51.8c-13.2-22.6-41.4-38.2-74-38.2c-45.3,0-82,30-82,67c0,37,36.7,67,82,67s82-30,82-67
			c0,0,0-0.1,0-0.1c0-5.9,10.6-10.7,16.5-10.7h6.4c4.6,0,14.2,3.8,14.2,8.4c0,0,0,0.1,0,0.1c0,37,36.7,67,82,67s82-30,82-67
			S532,270.8,486.7,270.8z M285.5,391.1c-36.5,0-66-22.4-66-50c0-27.6,29.5-50,66-50s66,22.4,66,50
			C351.5,368.7,321.9,391.1,285.5,391.1z M488.2,388.9c-36.5,0-66-22.4-66-50c0-27.6,29.5-50,66-50c36.5,0,66,22.4,66,50
			C554.2,366.6,524.7,388.9,488.2,388.9z"/>
		<path fill="#FFFFFF" d="M361.1,312.8l52.3,0.2c0,0,13.5-24.6,33.8-31.7c-8.8,4.6-27,22.5-30.5,35.3c-10.2,0-52.1,0.8-52.1,0.8
			S363.8,313.2,361.1,312.8z"/>
		<path fill="#FFFFFF" d="M287.5,275.5c-8.7,0-67.4,5.3-78.3,49.6c2.4-3.6,7.8-19.5,27.4-32.1C253.3,282.1,276.5,278,287.5,275.5z"
			/>
		<path fill="#FFFFFF" d="M557.1,329c0,5.2,4.4,27.4-10.8,44.1c-10.2,11.3-33.1,21-52.2,21c8.6-1.6,31.2-4.4,47.2-21.1
			C551.8,361.6,555.1,351.8,557.1,329z"/>
		<path fill="#FFFFFF" d="M356.6,329c0,5.2,4.4,27.4-10.8,44.1c-10.2,11.3-33.1,21-52.2,21c8.6-1.6,31.2-4.4,47.2-21.1
			C351.4,361.6,354.6,351.8,356.6,329z"/>
		<radialGradient id="SVGID_12_" cx="387.5439" cy="350.1958" r="30.4873" gradientUnits="userSpaceOnUse">
			<stop  offset="0" style="stop-color:#4D4D4D"/>
			<stop  offset="1" style="stop-color:#1A1A1A"/>
		</radialGradient>
		<path fill="url(#SVGID_12_)" d="M364.3,331.2c12.9-12.9,34.7-6.9,41.3-4c4.6,2,3.9,6.3,3.8,9.3c0.8,2.3-0.9,26.9,11.8,40.6
			c-12.7-12.4-15.3-28.8-15.8-39.1c-0.3-5.5-6.8-7-6.8-7s-20.2-8.6-31.1,6.2c0-1.1,0,24.4-13.6,38.6
			C360.1,364.7,365.6,345.1,364.3,331.2z"/>
		<radialGradient id="SVGID_13_" cx="304.7236" cy="313.2535" r="39.9392" gradientUnits="userSpaceOnUse">
			<stop  offset="0" style="stop-color:#4D4D4D"/>
			<stop  offset="1" style="stop-color:#1A1A1A"/>
		</radialGradient>
		<path fill="url(#SVGID_13_)" d="M255.6,295.2c0,0,35.3-20.8,69.8-2c36.6,19.9,27.4,47.9,27.4,47.9s-0.1-26.1-27.4-40.8
			C301.8,287.6,280.1,288.1,255.6,295.2z"/>
		
			<radialGradient id="SVGID_14_" cx="2591.0522" cy="310.2535" r="39.9392" gradientTransform="matrix(-1 0 0 1 3059.7761 0)" gradientUnits="userSpaceOnUse">
			<stop  offset="0" style="stop-color:#4D4D4D"/>
			<stop  offset="1" style="stop-color:#1A1A1A"/>
		</radialGradient>
		<path fill="url(#SVGID_14_)" d="M517.9,292.2c0,0-35.3-20.8-69.8-2c-36.6,19.9-27.4,47.9-27.4,47.9s0.1-26.1,27.4-40.8
			C471.7,284.6,493.4,285.1,517.9,292.2z"/>
	</g>
	<g id="口罩_1_">
		<path fill="#BDC3FF" stroke="#000000" stroke-width="1.0614" stroke-miterlimit="10" d="M188.8,412c21.2-11.7,130,34,211.2,35.5
			s187.8-48,198.4-36.6c12.6,13.5,6.8,56.5-109.2,98.1s-227.1-12.9-238.3-18.8C239.7,484.2,165.9,444.7,188.8,412z"/>
		<path fill="#B2A8EA" d="M490.4,450.5c0,0-7,3.5-15.2,5.7c-0.3,3.8-8.7,16.6-18.8,26c2.8-0.9,15-9.2,24.2-16.4
			c0.9-0.7,45.5-13.4,46.4-14.1c-6.3,0-33.2,3.5-32.3,2.8c3.1-2.8,18-18.5,20.7-20.2C518.1,432.7,496.6,447.7,490.4,450.5z"/>
		<path fill="#B2A8EA" d="M293,450.5c0,0,7,3.5,15.2,5.7c0.3,3.8,8.7,16.6,18.8,26c-2.8-0.9-15-9.2-24.2-16.4
			c-0.9-0.7-45.5-13.4-46.4-14.1c6.3,0,33.2,3.5,32.3,2.8c-3.1-2.8-18-18.5-20.7-20.2C265.3,432.7,286.8,447.7,293,450.5z"/>
		<path fill="#B2A8EA" d="M335.4,492.7c0,0,35,18.3,87.5,11.3c9.9-1,35.7-6.9,46.2-12.7c-4.2,4-10,7.3-24.9,11.2
			c3.1,2,55.4,0.9,102.5-22.8c-67.6,32.9-102.1,47.9-155.9,44.7c-53.8-3.2-115.5-26-123.7-28.2c37.8,9.4,66.9,13.7,84.3,14
			C345,505.6,335.4,492.7,335.4,492.7z"/>
		<g>
			<path fill="#BDC3FF" stroke="#000000" stroke-width="1.0614" stroke-miterlimit="10" d="M591,412c0,0,10.2-10.9,7.5-26.3
				c3.4,4.6,3.8,11.1,3.8,11.1s0.7,12.5-4.5,17.5L591,412z"/>
			<line fill="none" stroke="#000000" stroke-width="1.0614" stroke-miterlimit="10" x1="593.8" y1="411.2" x2="595.6" y2="412"/>
			<line fill="none" stroke="#000000" stroke-width="1.0614" stroke-miterlimit="10" x1="596.7" y1="412.5" x2="598.3" y2="413.3"/>
		</g>
		<g>
			<path fill="#BDC3FF" stroke="#000000" stroke-width="1.0614" stroke-miterlimit="10" d="M193.4,412c0,0-10.2-10.9-7.5-26.3
				c-3.4,4.6-3.8,11.1-3.8,11.1s-0.7,12.5,4.5,17.5L193.4,412z"/>
			<line fill="none" stroke="#000000" stroke-width="1.0614" stroke-miterlimit="10" x1="190.5" y1="411.2" x2="188.8" y2="412"/>
			<line fill="none" stroke="#000000" stroke-width="1.0614" stroke-miterlimit="10" x1="187.7" y1="412.5" x2="186.1" y2="413.3"/>
		</g>
	</g>
	<g id="头发_14_">
		<path fill="#A66AFF" stroke="#000000" stroke-width="1.4173" stroke-miterlimit="10" d="M364.8,196.7
			c-26.6-6.4-37.6-38.8-23.1-58.7c-3.2,16.8,9.8,36.2,37.8,33.6"/>
		<path fill="#8C54A2" d="M340.5,141.2c0,0-1.2,8.3,0.4,14.6c2.3,8.7,10.2,15.5,10.2,15.5s-6.1,0.6-8.9-2.4c0.3,0.6,4.9,4.7,5.9,5.3
			c12.1,7.9,23.3,8.5,23.3,8.5s-8.9,1.1-14.9-0.6c6.7,4.3,21.7,4.9,21.7,4.9s-4.8,2.7-9.9,1.4c6.3,2.5,15.9,3.4,22.8,1.7l-14.4-17.4
			C371.2,173.3,340.9,171.3,340.5,141.2z"/>
		<path fill="#A66AFF" stroke="#000000" stroke-width="1.4173" stroke-miterlimit="10" d="M445.2,180.1c-16.5-4.2-20.3-24.4-6-27.6
			c-14.9-3.3-21.7,16.3-17.7,21.8c-13.6-1-48-22.5-40.8-55.3c-13,15.5-24.8,68.8,30.3,77.7"/>
		<path fill="#8C54A2" d="M400.3,184.9c-23.7-12-27.2-38.2-20.8-62.1c-4.5,32.1,32,54.1,47.5,53.1c-4-5.5-4.3-18,8.8-23
			c-10.9,5.4-7.1,23.8,9.3,28c0,0-7.1,0.9-18.1-5c0,1.1,15.7,9,15.7,9l-21.8-8.9l20.7,13.1l-15-3l6.8,5l-17.1-6.9l22.3,14.4
			L400.3,184.9z"/>
	</g>
	<g id="帽子_13_">
		<path fill="#FDAA8A" d="M390.7,72.5c0,0-261.7,110.3-276.4,129.5s48.2,80.8,276.4,80.8s291.6-75.3,274.3-91.7
			S390.7,72.5,390.7,72.5z"/>
		<path fill="#DC8E64" d="M392.1,269.8c-191.2,0-266.3-43.3-277-68.6c-0.3,0.3-0.5,0.6-0.7,0.8c-14.7,19.2,48.2,80.8,276.4,80.8
			c219.1,0,286.3-69.4,276-89.4C652.7,220.9,575.8,269.8,392.1,269.8z"/>
		<path fill="#DC8E64" d="M388.8,74.1l0.9-1.2c0,0,0,0-0.1,0l-1.2,1.4l-256,159.8c5.4,3.7,11.9,7.5,19.7,11.3L387.7,75.1
			L220.9,267.6c6.1,1.3,12.4,2.6,19.1,3.7L388.3,74.6l2.5-1.8l0.2,0.6l-70.2,207.3c4.9,0.3,10,0.6,15.2,0.9l55-208l75.5,206.2
			c5.3-0.5,10.6-1,15.7-1.5L391.1,73.4l0.1-0.4l184.7,187.1c6.9-2.1,13.4-4.3,19.5-6.5L391.2,72.9l0-0.1L649,224.9
			c6.7-5.4,11.5-10.7,14.5-15.4L391.3,72.7l0-0.1c0,0,0,0,0,0l0,0.1l-0.2-0.1l0,0c0,0,0,0,0,0l0,0l-0.4-0.2l0.3,0.2l-0.1,0l-0.3-0.2
			l0.2,0.3l-0.1,0.1l-0.1-0.3l0.1,0.3L388.8,74.1z M391.1,72.7l0.2,0.1l0,0.1L391.1,72.7L391.1,72.7z M391,72.7l0.2,0.2l-0.1,0.3
			l-0.2-0.5L391,72.7z"/>
		<path fill="#FFC28E" d="M388.5,74.1l0.9-1.2c0,0-0.1,0-0.1,0l-1.2,1.4L143.4,227.1c5.3,3.8,7.2,3.6,14.9,7.5l229-159.5
			L225.8,255.3c6,1.4,11.6,2.3,18.3,3.6L388,74.7l2.5-1.8l0.2,0.6l-69.4,194.1l9.7,0.6l59.8-194.5L458,267.5l10.4-0.8L390.8,73.5
			l0.1-0.4l170.2,178.5l10.3-3.5L390.9,73l0-0.1l243.9,149.7l6.8-4.9L391,72.9l0-0.1c0,0,0,0,0,0l0,0.1l-0.2-0.1l0,0c0,0,0,0,0,0
			l0,0l-0.4-0.2l0.3,0.2l-0.1,0l-0.3-0.2l0.2,0.3l-0.1,0.1l-0.1-0.3l0.1,0.3L388.5,74.1z M390.8,72.8l0.2,0.1l0,0.1L390.8,72.8
			L390.8,72.8z M390.7,72.8l0.2,0.2l-0.1,0.3l-0.2-0.5L390.7,72.8z"/>
		<path opacity="0.2" fill="#6E5237" d="M665,191.5C647.6,175.2,390.7,72.9,390.7,72.9s142.5,100.1,156,112.8
			c16.8,15.8,14.6,92.2-195.6,96.9c12.6,0.4,25.8,0.7,39.6,0.7C618.9,283.2,682.3,207.9,665,191.5z"/>
	</g>
</g>
</svg>