<?xml version="1.0" encoding="utf-8"?>
<svg version="1.0" id="layer_1" xmlns="http://www.w3.org/2000/svg" xmlns:xlink="http://www.w3.org/1999/xlink" x="0px" y="0px" viewBox="0 0 800 800" enable-background="new 0 0 800 800" xml:space="preserve">
<g id="_x31__2_">
	<g id="身体_14_">
		<path fill="#FFB5A8" stroke="#000000" stroke-width="1.4173" stroke-miterlimit="10" d="M291.3,599.9c0.9-16.5,4-26.1,6.4-31.4
			C293.8,577.2,292.1,589,291.3,599.9l-0.4,14.5c0,9.2,0.5,24.7,0.5,24.7l13.1,58.4l71.6,1.9l9.4-39.9c0,0,3.8,0.4,6.6,0.4
			c2.8,0,6.6-0.4,6.6-0.4l9.4,39.9l71.6-1.9l13.1-58.4c0,0,0.5-15.2,0.5-24.1c0,0-0.2-33.1-6.8-46.5c2.1,3.2,5.8,16.1,6.5,34.5
			l0.4,12c3.6,39.4,49.8,38.6,49.8-5c0-45.3-33.4-74.5-41.8-80c-15.2-10.7-43.5-17.3-43.5-17.3h-65.7H392h-65.7
			c0,0-28.3,6.6-43.5,17.3c-8.4,5.5-41.8,34.7-41.8,80c0,43.8,46.6,44.3,49.8,4.4L291.3,599.9z"/>
		<path opacity="0.1" fill="#FFD2BE" d="M437.7,576.5c-10.9-19-1-39.8-11.4-39.8c-10.4,0-14.2,9.4-33,9.4c-0.1,0-0.7,0-0.8,0
			c-18.8,0-22.6-9.4-33-9.4s-0.5,20.8-11.4,39.8c-22.8,39.7,5.8,74.2,42.6,74.2c0.8,0,3.7,0,4.4,0
			C431.9,650.8,460.5,616.2,437.7,576.5z"/>
		<path fill="#EA969E" d="M335,647.2c0,0,21.3,7.5,57,7.5s56.3-7.5,56.3-7.5s-22.2,12.3-55.9,12.3c-2.9,0-4.9-0.1-7.6-0.3l-9.2,39.1
			l-3.2-4c2.3-7.2,1.4-30.3-0.1-36.2C352.5,655.2,340.1,650.3,335,647.2z"/>
		<path fill="#EA969E" d="M493.4,633l-13.7,59.8l-5.5-1c1.4-4.1,8.4-36.4,12.4-61.3c2.6-37.6-1.1-65.5-1.1-65.5
			C493.8,592.7,494.5,622.4,493.4,633z"/>
		<path fill="#EA969E" d="M542.8,609.5c0,10.4-6.2,31.3-16,29.3c4.2-12,3.7-32.8,3.7-32.8c1.9-45.3-26.9-73.4-26.9-73.4
			C534.1,556.9,542.8,591.9,542.8,609.5z"/>
		<path fill="#EA969E" d="M274.7,616.1c0,5.8-1.1,21.3-7.7,26.7c11.5,0,18.5-11.9,19.9-14.8c3.3-7.1,3.3-18,3.3-18
			c-0.3-34.8,10.2-48.6,10.2-48.6C282,576.8,274.7,606.2,274.7,616.1z"/>
		<path fill="#EA969E" d="M459.6,514.5c-4.6-8.2-28.1-15.9-64-17c-13.9-0.4-69.1-2.1-64.6,6.1c4.9,8.9,20.3,23,61.8,26
			C428.7,532.2,465.3,524.7,459.6,514.5z"/>
	</g>
	<g id="衣服_9_">
		<path fill="#67A153" stroke="#000000" stroke-width="0.7087" stroke-miterlimit="10" d="M291.4,632.1c1,1.2,13.5,67.3,13.5,67.3
			h71.2c0,0,6.9-39.5,16-39.5c5.6,0,16,39.5,16,39.5l71.6-1.9l13.1-66.1c0,0-44.9,8.9-103.1,9.4C359,641,324.7,637.9,291.4,632.1z"
			/>
		<path opacity="0.8" fill="#345129" d="M335,647.2c0,0,21.3,7.5,57,7.5s56.3-7.5,56.3-7.5s-22.2,12.3-55.9,12.3
			c-2.9,0-4.9,2.2-6,4.1c-5.9,9.9-10.4,35.8-10.4,35.8l-7.3,0.2c0.4-3.6,5.1-35.6,3.5-41.5C352.5,655.2,340.1,650.3,335,647.2z"/>
		<path opacity="0.8" fill="#345129" d="M492.3,631.4L481,692.7l-6.8,1.8c1.4-4.1,11.8-62.1,11.8-62.1L492.3,631.4z"/>
		<path fill="#FF67BB" stroke="#000000" stroke-miterlimit="10" d="M265.5,546.2c2.9,0.5,11.6,1.4,20.7,6
			c6.3,3.2,12.2,6.9,12.8,11.9c-6.2,11.4-9.7,40.1-7.5,68.2c26.4,3.7,80.6,10,103.9,8.3s58.9-2,97.4-10c0.7-8.8,1.6-50.9-7.2-65.8
			c1.4-4.8,9.4-10.3,16.3-13.2c5.5-2.3,11.3-3.6,17.6-4.5c-5.4-7.7-19.1-20-32.9-25.3c-16.4-6.3-27.3-10.1-27.3-10.1l-67.5,30.6
			l-64.3-31.7c0,0-25.7,8.9-34.8,13.3C283.6,528.4,269,541.1,265.5,546.2z"/>
		<polygon fill="#4233FF" stroke="#000000" stroke-width="0.5" stroke-miterlimit="10" points="404.1,612.4 391.7,640.8 
			378.7,611.8 387,556.8 381.7,555.8 390,543.3 394.1,543.6 402.7,555 397.1,556.8 		"/>
		<g opacity="0.6">
			<defs>
				<polygon id="SVGID_94_" opacity="0.6" points="404.1,612.4 391.7,640.8 378.7,611.8 387,556.8 381.7,555.8 390,543.3 
					394.1,543.6 402.7,555 397.1,556.8 				"/>
			</defs>
			<clipPath id="SVGID_2_">
				<use xlink:href="#SVGID_94_"  overflow="visible"/>
			</clipPath>
			<g clip-path="url(#SVGID_2_)">
				<rect x="377.3" y="634.7" fill="#4A50EE" width="29.8" height="1.9"/>
				<rect x="377.3" y="629.7" fill="#4A50EE" width="29.8" height="1.9"/>
				<rect x="377.3" y="624.7" fill="#4A50EE" width="29.8" height="1.9"/>
				<rect x="377.3" y="619.7" fill="#4A50EE" width="29.8" height="1.9"/>
				<rect x="377.3" y="614.7" fill="#4A50EE" width="29.8" height="1.9"/>
				<rect x="377.3" y="609.7" fill="#4A50EE" width="29.8" height="1.9"/>
				<rect x="377.3" y="604.7" fill="#4A50EE" width="29.8" height="1.9"/>
				<rect x="377.3" y="599.7" fill="#4A50EE" width="29.8" height="1.9"/>
				<rect x="377.3" y="594.7" fill="#4A50EE" width="29.8" height="1.9"/>
				<rect x="377.3" y="589.7" fill="#4A50EE" width="29.8" height="1.9"/>
				<rect x="377.3" y="584.7" fill="#4A50EE" width="29.8" height="1.9"/>
				<rect x="377.3" y="579.7" fill="#4A50EE" width="29.8" height="1.9"/>
				<rect x="377.3" y="574.7" fill="#4A50EE" width="29.8" height="1.9"/>
				<rect x="377.3" y="569.7" fill="#4A50EE" width="29.8" height="1.9"/>
				<rect x="377.3" y="564.7" fill="#4A50EE" width="29.8" height="1.9"/>
				<rect x="377.3" y="559.7" fill="#4A50EE" width="29.8" height="1.9"/>
				<rect x="377.3" y="554.7" fill="#4A50EE" width="29.8" height="1.9"/>
				<rect x="377.3" y="549.7" fill="#4A50EE" width="29.8" height="1.9"/>
				<rect x="377.3" y="544.7" fill="#4A50EE" width="29.8" height="1.9"/>
			</g>
		</g>
		<polygon fill="#221AFF" points="389.3,557.3 395.5,557.3 392.5,576.8 		"/>
		<polygon fill="#F2B5FF" stroke="#000000" stroke-miterlimit="10" points="322.7,508.7 390.9,542.1 372.3,569.8 316.8,514.5 
			320.1,508.7 		"/>
		<polygon fill="#F2B5FF" stroke="#000000" stroke-miterlimit="10" points="461.1,508.7 392.8,542.1 415.4,569.8 466.9,514.5 
			463.7,508.7 		"/>
		<path opacity="0.5" fill="#404040" d="M481.2,556c13.9,23.9,13.1,70.3,11.1,74l-7.9,1.4C484.4,631.4,490.4,588,481.2,556z"/>
		<path opacity="0.6" fill="#404040" d="M313.3,540.9c-5.9,5.2-13.4,15-15.5,20.1c1,2.3,1.4,4.5,1.4,4.5S306.5,549.2,313.3,540.9z"
			/>
	</g>
	<g id="鞋子_2_">
		<g>
			<path stroke="#000000" stroke-width="1.4173" stroke-miterlimit="10" d="M484.8,704.2c-0.5-19.5-18.2-35.1-40-35.1
				c-21.8,0-39.5,15.6-40,35.1h-3v12h86v-12H484.8z"/>
			<path fill="#808080" d="M435.9,675.7c0,0-17.7,4-22.3,19.7h10.7C424.3,695.3,421.9,685.3,435.9,675.7z"/>
			<path fill="#EDEDF5" d="M435.9,675.7c0,0-13.3,5.2-16.5,19.7h5.3C424.8,695.3,426.3,681.9,435.9,675.7z"/>
			<rect x="402.8" y="706.1" fill="#606060" width="84" height="2"/>
		</g>
		<g>
			<path stroke="#000000" stroke-width="1.4173" stroke-miterlimit="10" d="M378.8,704.2c-0.5-19.5-18.2-35.1-40-35.1
				c-21.8,0-39.5,15.6-40,35.1h-3v12h86v-12H378.8z"/>
			<path fill="#808080" d="M327.7,674.4c0,0-17.7,4-22.3,19.7H316C316,694.1,313.7,684.1,327.7,674.4z"/>
			<path fill="#EDEDF5" d="M327.7,674.4c0,0-13.3,5.2-16.5,19.7h5.3C316.5,694.1,318.1,680.7,327.7,674.4z"/>
			<rect x="296.8" y="706.1" fill="#606060" width="84" height="2"/>
		</g>
	</g>
	<g id="手_9_">
		<g id="手_11_">
			<g id="左手_7_">
				<path fill="#FFD2BE" stroke="#000000" stroke-width="1.4173" stroke-miterlimit="10" d="M497.2,632.8
					c-3.6,16.8,3.9,27.2,20.5,27.2c16.6,0,29-17.2,29-32.7c0-15.5-10.2-28.6-26.8-28.6c-12.7,0-19.4,3.8-25.4,14.1
					C490.7,619.7,498,629.3,497.2,632.8z"/>
				<path fill="#FFD2BE" stroke="#000000" stroke-width="1.4173" stroke-miterlimit="10" d="M513.9,627.5
					c-1.5,13-12.7,16.2-19.6,11.8c-6.1-3.8-9.1-14.5,0-25.9"/>
			</g>
			<path fill="#E6A082" d="M513.9,618.2c0,0,0,22.3-21,19C501.5,645.9,518.7,636.7,513.9,618.2z"/>
			<path fill="#E6A082" d="M509.8,638.2c0,0-3.7,4.8-12.5,3.3C496.4,651.7,509.4,643.2,509.8,638.2z"/>
			<path fill="#E6A082" d="M537.9,606.6c2.8,5.9,5.8,23.3-2.8,37c-6,9.5-11.9,15.1-21.2,15.5c16.1,2.1,24.9-10.8,27.2-14.6
				C546.7,635.9,549.6,618.5,537.9,606.6z"/>
		</g>
		<g id="手_10_">
			<g id="左手_6_">
				<path fill="#FFD2BE" stroke="#000000" stroke-width="1.4173" stroke-miterlimit="10" d="M287.2,632.8
					c3.6,16.8-3.9,27.2-20.5,27.2s-29-17.2-29-32.7c0-15.5,10.2-28.6,26.8-28.6c12.7,0,19.4,3.8,25.4,14.1
					C293.8,619.7,286.4,629.3,287.2,632.8z"/>
				<path fill="#FFD2BE" stroke="#000000" stroke-width="1.4173" stroke-miterlimit="10" d="M270.5,627.5
					c1.5,13,12.8,16.2,19.6,11.8c6.1-3.8,9.1-14.5,0-25.9"/>
			</g>
			<path fill="#E6A082" d="M291.4,616.4c1.5,2.4,2.9,11.3-0.7,17.3c-1.8,3-7.3,6.4-12.2,5.5c6.1,3.2,12.8,0.3,15.3-5.2
				C297.3,626.6,292.9,618.2,291.4,616.4z"/>
			<path fill="#E6A082" d="M272.3,621.6c-8,10.9,4.5,21.2,2.9,28.4c-0.8,3.5-5.9,10.4-15,8.3c7.4,2.5,19.4,0.3,23.5-5.7
				c1.1-1.6,3.4-4.2,3.7-11.2C276.6,644.1,266.1,632.9,272.3,621.6z"/>
		</g>
		<g id="手套_2_">
			<g id="手套">
				<path fill="#0082F0" d="M492.1,617.9c0,0,17.3-1.4,21.4,13.4c3-2,22.1,6.4,19.9,22.1c4.6-2.6,10.5-11.3,12.1-20.8
					c2-11.1-1.4-23.3-10.8-28.9c-16.1-9.6-31.8-1.7-35.1,3.3C497.6,609.2,493.1,616.2,492.1,617.9z"/>
				<path fill="#0044F0" d="M513.5,631.3c0,0,2.1-9.2,2.1-12.3c-1.9,5.9-3.6,8.5-3.6,8.5L513.5,631.3z"/>
				<path fill="#0044F0" d="M533.4,653.4c0.9,0.3,21.5-17.6,8.6-42.5c4.8,22.1-8.9,35.9-8.9,35.9S533.9,651.7,533.4,653.4z"/>
			</g>
			<g id="手套_1_">
				<path fill="#0082F0" d="M292.2,617.9c0,0-17.3-1.4-21.4,13.4c-3-2-22.1,6.4-19.9,22.1c-4.6-2.6-10.5-11.3-12.1-20.8
					c-2-11.1,1.4-23.3,10.8-28.9c16.1-9.6,31.8-1.7,35.1,3.3C286.7,609.2,291.2,616.2,292.2,617.9z"/>
				<path fill="#0044F0" d="M269.7,631c0,0-1.2-6.8,1.9-12.6c-1.9,7-0.8,12.9-0.8,12.9L269.7,631z"/>
			</g>
		</g>
	</g>
	<g id="耳朵_22_">
		<g id="耳朵_24_">
			<path fill="#FFCA59" stroke="#000000" stroke-width="1.4173" stroke-miterlimit="10" d="M299.6,220.5
				c-4.2-24.9-52.4-67-110.8-33.3c-40.6,21.2-44.6,99.3,32.9,108.8L299.6,220.5z"/>
			<linearGradient id="SVGID_3_" gradientUnits="userSpaceOnUse" x1="256.5774" y1="248.0823" x2="223.5741" y2="190.9191">
				<stop  offset="2.564103e-03" style="stop-color:#EED2BE;stop-opacity:0.5"/>
				<stop  offset="1" style="stop-color:#FFAE96"/>
			</linearGradient>
			<path fill="url(#SVGID_3_)" d="M221.5,268.3c-5-0.4-49.3-42.5-11-69.7c29-20.5,72,2.3,76.5,8L221.5,268.3z"/>
			<path fill="none" stroke="#000000" stroke-miterlimit="10" d="M188.1,213.6c32.4-39.6,93.5-15.1,97.1-10.3"/>
		</g>
		<g id="耳朵_23_">
			<path fill="#FFCA59" stroke="#000000" stroke-width="1.4173" stroke-miterlimit="10" d="M490.3,220.5
				c4.2-24.9,52.4-67,110.8-33.3c40.6,21.2,44.6,99.3-32.9,108.8L490.3,220.5z"/>
			<path fill="#E2A048" d="M618.5,202.5c32.2,55.3-17.8,90.8-42.7,92.3l-3.5-8.3C580.4,288,639.5,268.3,618.5,202.5z"/>
			
				<linearGradient id="SVGID_4_" gradientUnits="userSpaceOnUse" x1="12514.1631" y1="248.0823" x2="12481.1602" y2="190.9191" gradientTransform="matrix(-1 0 0 1 13047.4883 0)">
				<stop  offset="2.564103e-03" style="stop-color:#EED2BE;stop-opacity:0.5"/>
				<stop  offset="1" style="stop-color:#FFAE96"/>
			</linearGradient>
			<path fill="url(#SVGID_4_)" d="M568.4,268.3c5-0.4,49.3-42.5,11-69.7c-29-20.5-72,2.3-76.5,8L568.4,268.3z"/>
			<path fill="none" stroke="#000000" stroke-miterlimit="10" d="M601.8,213.6c-32.4-39.6-95.3-11.6-98.8-6.9"/>
		</g>
	</g>
	<g id="面部_33_">
		<path id="面部_34_" fill="#32D2C8" stroke="#000000" stroke-width="1.4173" stroke-miterlimit="10" d="M214.3,278.3
			c11.2-30.5,46.9-77.2,129.7-100c36.3-10,61.8-8.8,96.6,0.5c41.8,11.2,105.2,42.4,128.8,98.9c11.7,28,11.7,87.7,11.7,87.7
			s23.3,12,23.3,49.3c0,32.5-52.7,87.4-157.3,100.9c-15.4,2-29.3,11.1-53.3,11.1s-38-9.3-54.8-11.6C236.1,501,179,448.5,179,414.7
			c0-34.2,25.5-48.8,25.5-48.8S201,314.7,214.3,278.3z"/>
		<path fill="#269E96" d="M532.7,227.5c34.8,34.5,46.6,60.2,47.7,138.2c0,0-7.3,1.1-13.4,5.4C573.9,347.5,572.5,271,532.7,227.5z"/>
		<path fill="#269E96" d="M267,496.2c18.9,9.2,64.8,17.7,77.4,19.2c6.4,1.4,29.4,10.5,47,10.5s30.2-3.9,46.7-9.6
			c29.3-2.6,80.2-15.3,104.8-31c-30.3,13.1-68.9,21.4-97.6,25.7c3.7-3.3,8.2-5.9,11.8-11.9c-15.7,13.9-34.1,19.9-61.5,20.6
			C384.7,519.9,312,509.5,267,496.2z"/>
	</g>
	<g id="鼻子_29_">
		<ellipse fill="#FFD6DA" stroke="#000000" stroke-width="1.4173" stroke-miterlimit="10" cx="391.3" cy="421.3" rx="90" ry="59"/>
		<path fill="#E6B4AA" d="M392,467.5c-28.1,1.3-47.3-1.5-68.3-8.4c6.1,6,32.9,20.6,67.2,20.6c48.4,0,89.7-24.6,89.7-58.4
			C475.8,438.2,445.9,465,392,467.5z"/>
		<g id="鼻子_30_">
			<path fill="#69301B" stroke="#000000" stroke-miterlimit="10" d="M404.4,385.7c-5.2,0-8,2.3-13.5,2.4c-5.5-0.1-8.3-2.4-13.5-2.4
				c-10,0-18.5,8.3-18.5,15.5c0,7.3,6.2,16.9,19.6,18.3c3.1,0.3,22,0.4,24.7,0c13.3-2,19.6-11,19.6-18.3
				C422.9,394,414.4,385.7,404.4,385.7z"/>
			<path fill="#3F1000" d="M420.8,406c0,4.5-6.4,10.1-14,12.3c-4.9,1.4-10,1-16.5,1c-5.7,0-10.3,0.4-14.8-0.7
				c-8.7-2.1-14.9-8.3-14.9-12.6c0-6.6,13.4-9,30-9S420.8,399.3,420.8,406z"/>
		</g>
	</g>
	<g id="眼睛_28_">
		<linearGradient id="SVGID_4_" gradientUnits="userSpaceOnUse" x1="443.1915" y1="327.1581" x2="530.4346" y2="368.58">
			<stop  offset="0" style="stop-color:#AA5834;stop-opacity:0.6"/>
			<stop  offset="1" style="stop-color:#C87A4A;stop-opacity:0"/>
		</linearGradient>
		<path fill="url(#SVGID_4_)" d="M524.7,326.7c17.5,42.8,2.8,76.1-24.6,76.1s-47.7-28.8-50.6-44.6c-4-20.6,4.9-42.7,20.5-51.1
			C489.5,296.5,512.7,297.3,524.7,326.7z"/>
		<linearGradient id="SVGID_5_" gradientUnits="userSpaceOnUse" x1="237.0114" y1="334.1588" x2="297.4662" y2="365.2986">
			<stop  offset="0" style="stop-color:#AA5834"/>
			<stop  offset="1" style="stop-color:#C87A4A;stop-opacity:0"/>
		</linearGradient>
		<path fill="url(#SVGID_5_)" d="M304.6,326.7c20.7,41.4-1.1,75.1-24.6,76.1c-18.5,0.8-31.7-19.4-34.5-35.2
			c-4-20.6,0.4-34.5,11-48.8C264.4,308,291.7,300.7,304.6,326.7z"/>
		<g id="眼睛_30_">
			<radialGradient id="SVGID_6_" cx="281.6733" cy="358.1066" r="37.8513" gradientUnits="userSpaceOnUse">
				<stop  offset="0" style="stop-color:#4D4D4D"/>
				<stop  offset="1" style="stop-color:#1A1A1A"/>
			</radialGradient>
			<ellipse fill="url(#SVGID_6_)" stroke="#000000" stroke-miterlimit="10" cx="281.7" cy="358.1" rx="30" ry="44.3"/>
			
				<radialGradient id="SVGID_7_" cx="285.6263" cy="358.1066" r="28.178" gradientTransform="matrix(0.9851 0 0 1 0.3083 0)" gradientUnits="userSpaceOnUse">
				<stop  offset="0" style="stop-color:#333333"/>
				<stop  offset="1" style="stop-color:#000000"/>
			</radialGradient>
			<ellipse fill="url(#SVGID_7_)" cx="281.7" cy="358.1" rx="22" ry="33"/>
			
				<ellipse transform="matrix(0.3609 -0.9326 0.9326 0.3609 -147.2983 475.2638)" fill="#F2F2F2" cx="273.1" cy="345.1" rx="7" ry="5.7"/>
			<ellipse cx="281.7" cy="358.1" rx="8" ry="13"/>
			<path fill="#FFFFFF" d="M298.1,378.9c-1.4,2.5-3.6,4.4-4.3,3.6c-0.8-0.8,0.9-0.9,2.7-4.4c1.9-3.5,1.5-4.6,2.6-4.5
				C300.1,373.7,299.5,376.4,298.1,378.9z"/>
			<ellipse fill="#FFFFFF" cx="264.4" cy="359.7" rx="2.8" ry="4.1"/>
		</g>
		<g id="眼睛_29_">
			<radialGradient id="SVGID_8_" cx="502.6734" cy="358.1066" r="37.8513" gradientUnits="userSpaceOnUse">
				<stop  offset="0" style="stop-color:#4D4D4D"/>
				<stop  offset="1" style="stop-color:#1A1A1A"/>
			</radialGradient>
			<ellipse fill="url(#SVGID_8_)" stroke="#000000" stroke-miterlimit="10" cx="502.7" cy="358.1" rx="30" ry="44.3"/>
			
				<radialGradient id="SVGID_10_" cx="509.9735" cy="358.1066" r="28.178" gradientTransform="matrix(0.9851 0 0 1 0.3083 0)" gradientUnits="userSpaceOnUse">
				<stop  offset="0" style="stop-color:#333333"/>
				<stop  offset="1" style="stop-color:#000000"/>
			</radialGradient>
			<ellipse fill="url(#SVGID_10_)" cx="502.7" cy="358.1" rx="22" ry="33"/>
			
				<ellipse transform="matrix(0.3609 -0.9326 0.9326 0.3609 -6.0616 681.3678)" fill="#F2F2F2" cx="494.1" cy="345.1" rx="7" ry="5.7"/>
			<ellipse cx="502.7" cy="358.1" rx="8" ry="13"/>
			<path fill="#FFFFFF" d="M519.1,378.9c-1.4,2.5-3.6,4.4-4.3,3.6c-0.8-0.8,0.9-0.9,2.7-4.4c1.9-3.5,1.5-4.6,2.6-4.5
				C521.1,373.7,520.5,376.4,519.1,378.9z"/>
			<ellipse fill="#FFFFFF" cx="485.4" cy="359.7" rx="2.8" ry="4.1"/>
		</g>
	</g>
	<g id="眼镜_6_">
		<radialGradient id="SVGID_11_" cx="386.1436" cy="338.9491" r="137.8149" gradientUnits="userSpaceOnUse">
			<stop  offset="0" style="stop-color:#4D4D4D"/>
			<stop  offset="1" style="stop-color:#1A1A1A"/>
		</radialGradient>
		<path fill="url(#SVGID_11_)" stroke="#000000" stroke-width="1.1232" stroke-miterlimit="10" d="M486.7,270.8
			c-33.8,0-62.8,16.7-75.3,40.5h-51.8c-13.2-22.6-41.4-38.2-74-38.2c-45.3,0-82,30-82,67c0,37,36.7,67,82,67s82-30,82-67
			c0,0,0-0.1,0-0.1c0-5.9,10.6-10.7,16.5-10.7h6.4c4.6,0,14.2,3.8,14.2,8.4c0,0,0,0.1,0,0.1c0,37,36.7,67,82,67s82-30,82-67
			S532,270.8,486.7,270.8z M285.5,391.1c-36.5,0-66-22.4-66-50c0-27.6,29.5-50,66-50s66,22.4,66,50
			C351.5,368.7,321.9,391.1,285.5,391.1z M488.2,388.9c-36.5,0-66-22.4-66-50c0-27.6,29.5-50,66-50c36.5,0,66,22.4,66,50
			C554.2,366.6,524.7,388.9,488.2,388.9z"/>
		<path fill="#FFFFFF" d="M361.1,312.8l52.3,0.2c0,0,13.5-24.6,33.8-31.7c-8.8,4.6-27,22.5-30.5,35.3c-10.2,0-52.1,0.8-52.1,0.8
			S363.8,313.2,361.1,312.8z"/>
		<path fill="#FFFFFF" d="M287.5,275.5c-8.7,0-67.4,5.3-78.3,49.6c2.4-3.6,7.8-19.5,27.4-32.1C253.3,282.1,276.5,278,287.5,275.5z"
			/>
		<path fill="#FFFFFF" d="M557.1,329c0,5.2,4.4,27.4-10.8,44.1c-10.2,11.3-33.1,21-52.2,21c8.6-1.6,31.2-4.4,47.2-21.1
			C551.8,361.6,555.1,351.8,557.1,329z"/>
		<path fill="#FFFFFF" d="M356.6,329c0,5.2,4.4,27.4-10.8,44.1c-10.2,11.3-33.1,21-52.2,21c8.6-1.6,31.2-4.4,47.2-21.1
			C351.4,361.6,354.6,351.8,356.6,329z"/>
		<radialGradient id="SVGID_12_" cx="387.5439" cy="350.1958" r="30.4873" gradientUnits="userSpaceOnUse">
			<stop  offset="0" style="stop-color:#4D4D4D"/>
			<stop  offset="1" style="stop-color:#1A1A1A"/>
		</radialGradient>
		<path fill="url(#SVGID_12_)" d="M364.3,331.2c12.9-12.9,34.7-6.9,41.3-4c4.6,2,3.9,6.3,3.8,9.3c0.8,2.3-0.9,26.9,11.8,40.6
			c-12.7-12.4-15.3-28.8-15.8-39.1c-0.3-5.5-6.8-7-6.8-7s-20.2-8.6-31.1,6.2c0-1.1,0,24.4-13.6,38.6
			C360.1,364.7,365.6,345.1,364.3,331.2z"/>
		<radialGradient id="SVGID_13_" cx="304.7236" cy="313.2535" r="39.9392" gradientUnits="userSpaceOnUse">
			<stop  offset="0" style="stop-color:#4D4D4D"/>
			<stop  offset="1" style="stop-color:#1A1A1A"/>
		</radialGradient>
		<path fill="url(#SVGID_13_)" d="M255.6,295.2c0,0,35.3-20.8,69.8-2c36.6,19.9,27.4,47.9,27.4,47.9s-0.1-26.1-27.4-40.8
			C301.8,287.6,280.1,288.1,255.6,295.2z"/>
		
			<radialGradient id="SVGID_14_" cx="2591.0522" cy="310.2535" r="39.9392" gradientTransform="matrix(-1 0 0 1 3059.7761 0)" gradientUnits="userSpaceOnUse">
			<stop  offset="0" style="stop-color:#4D4D4D"/>
			<stop  offset="1" style="stop-color:#1A1A1A"/>
		</radialGradient>
		<path fill="url(#SVGID_14_)" d="M517.9,292.2c0,0-35.3-20.8-69.8-2c-36.6,19.9-27.4,47.9-27.4,47.9s0.1-26.1,27.4-40.8
			C471.7,284.6,493.4,285.1,517.9,292.2z"/>
	</g>
	<g id="胡子_1_">
		<path fill="#FFFFFF" stroke="#000000" stroke-miterlimit="10" d="M479.6,501.2c-11.9,3.5-71.3,4.1-87,4.1c-15.7,0-75.1-1.6-87-5
			c-38.8-11.3-98.4-37-105.1-44.7c3.7,20.3,14.1,37,27.1,52.4c18.1,21.3,47.8,8.7,59.3,22c-2.2,30.2,32.2,25.1,60.9,31.5
			c29.5,6.2,34.5,13.8,44.8,29.3c10.3-15.4,15.3-23.1,44.8-29.3c28.7-6.5,63.1-1.4,60.9-31.5c11.4-13.3,41.2-0.6,59.3-22
			c13-15.3,23.9-33.6,27.6-53.9C578.5,461.7,518.4,489.9,479.6,501.2z"/>
		<g>
			<path fill="#E0DFD9" d="M281.7,520.4c-11.4-13.3-41.2-0.6-59.2-22c-4.3-5.1-8.3-10.3-11.8-15.7c4.7,8.7,10.6,16.9,17.2,24.6
				c15.7,18.6,40.3,11.4,53.9,18C281.5,523.8,281.5,522.1,281.7,520.4z"/>
			<path fill="#E0DFD9" d="M574.5,461.9c-5.3,14.1-13.2,25.7-22.8,37c-18.1,21.3-47.8,8.7-59.3,22c2.2,30.2-32.2,25.1-60.9,31.5
				c-29.5,6.2-31.6,13.4-41.9,28.8c-10.3-15.4-18.3-22.6-47.8-28.8c-20.5-4.6-43.2-3.7-54.1-13.6c5.2,19.8,34.3,16.4,59.6,22.1
				c29.5,6.2,34.9,13.5,45.2,29c10.3-15.4,14.8-22.3,44.3-28.5c28.7-6.5,63.1-1.4,60.9-31.5c11.4-13.3,41.2-0.6,59.3-22
				c13-15.3,23.6-31.7,27.2-52C583,457.3,579.4,459.1,574.5,461.9z"/>
		</g>
		<path fill="#FFFFFF" stroke="#000000" stroke-miterlimit="10" d="M487.2,459c14.4,4.7,12.9,22.4,1.5,24.3
			c-11.8,1.9-31.4-24.6-53.5-23.8c-15.2,0.6-35.7,9.4-41.1,11.9c-5.4-2.5-25.9-11.3-41.1-11.9c-22.1-0.9-41.8,25.6-53.5,23.8
			c-11.4-1.8-12.9-19.6,1.5-24.3c-19.7-4-27.1,25.8-3.2,38c22.8,11.7,70.6,12.7,96.4-2.2c25.8,14.9,73.5,13.9,96.4,2.2
			C514.3,484.8,507,455,487.2,459z"/>
		<path fill="#E0DFD9" d="M322.7,504.9c1.3,4.1,10.7,15.8,42.9,16.7c11.9,0.3,29.9-6.6,39.3-9c67.8,16.9,86.5-4.4,95.5-8.6
			c8.9-4.2,6.4-11.3,6.4-11.3s-16.6,8.5-42.6,11.8c-17.5,2.2-82.7,4.2-99.8,0.5C344.6,507.3,332.9,506.7,322.7,504.9z"/>
		<path fill="#E0DFD9" d="M379.5,466.1c8.6,8.4,3.4,36.5-42.9,39.1c17.7,0.3,38.6-0.4,57.4-11c12.7,8.4,42,13.3,65.1,10.2
			c22.2-1.8,37-8.5,42.2-17.7c5.8-7.5,6.4-27.5-12-27.5c14.2,2.6,16.1,15.5,11.1,25.2c-3.3,6.5-12.6,11-18.6,12.6
			c-15,3.9-37.4,4.9-45.8,3.8c-17.7-2.3-27.4-5.4-33.9-10.8c-9.3-7.7-8.1-17.9-8.1-17.9S381.9,466.4,379.5,466.1z"/>
	</g>
	<g id="头发_12_">
		<path fill="#FFB5A8" stroke="#000000" stroke-width="1.4173" stroke-miterlimit="10" d="M364.8,196.7
			c-26.6-6.4-37.6-38.8-23.1-58.7c-3.2,16.8,9.8,36.2,37.8,33.6"/>
		<path fill="#EA969E" d="M340.5,141.2c0,0-1.2,8.3,0.4,14.6c2.3,8.7,10.2,15.5,10.2,15.5s-6.1,0.6-8.9-2.4c0.3,0.6,4.9,4.7,5.9,5.3
			c12.1,7.9,23.3,8.5,23.3,8.5s-8.9,1.1-14.9-0.6c6.7,4.3,21.7,4.9,21.7,4.9s-4.8,2.7-9.9,1.4c6.3,2.5,15.9,3.4,22.8,1.7l-14.4-17.4
			C371.2,173.3,340.9,171.3,340.5,141.2z"/>
		<path fill="#FFB5A8" stroke="#000000" stroke-width="1.4173" stroke-miterlimit="10" d="M445.2,180.1c-16.5-4.2-20.3-24.4-6-27.6
			c-14.9-3.3-21.7,16.3-17.7,21.8c-13.6-1-48-22.5-40.8-55.3c-13,15.5-24.8,68.8,30.3,77.7"/>
		<path fill="#EA969E" d="M400.3,184.9c-23.7-12-27.2-38.2-20.8-62.1c-4.5,32.1,32,54.1,47.5,53.1c-4-5.5-4.3-18,8.8-23
			c-10.9,5.4-7.1,23.8,9.3,28c0,0-7.1,0.9-18.1-5c0,1.1,15.7,9,15.7,9l-21.8-8.9l20.7,13.1l-15-3l6.8,5l-17.1-6.9l22.3,14.4
			L400.3,184.9z"/>
	</g>
	<g id="头巾">
		<path fill="#FF58FF" stroke="#000000" stroke-miterlimit="10" d="M407.6,195.8c0,0-3.9-18.3-1.2-20.7c2.7-2.4,30.3,12.9,36.3,14.7
			s33.2-3.5,33.2,1c0,4.5-38.8,24.5-48.5,26.5C417.6,219.3,407.6,195.8,407.6,195.8z"/>
		<path fill="#FF58FF" stroke="#000000" stroke-miterlimit="10" d="M337.4,235.1c0,0-10.6,5.4-19.9,12.2c-7.7,5.5-14.5,12-13.8,17
			c1.6,11.1,34.1-4.8,39.5-1.8c5.5,3.1,20,14.4,26.7,13.5c6.7-1,27.1-32.5,21.8-40.9C386.4,226.7,337.4,235.1,337.4,235.1z"/>
		<path fill="#B058DC" d="M354.5,236.2c0,0-19.2,8-38,12.4c10.9-8.6,32.2-18.8,32.2-18.8l41.5,17.5c0,0-3.4,7.6-7.8,14.4
			c-4.3,6.7-9.9,15.5-15.2,13.5c5,1.5,17.1-17.4,17.8-26c0.6-8.4-15.7-8.2-16.1-8.1c-4.7,0.7-9.3,8-11.4,11.5c0,2.6,2.2-7.9,2.8-9.9
			c-2.8,1.4-18,6.5-31.8,9.9C345.4,244.1,354.5,236.2,354.5,236.2z"/>
		<path fill="#B058DC" d="M427.4,215.2c0,0-9.9-2.8-9.8-3.2c1-3.8,4.7-12.3,6.8-15.8c0.6,3.1,0.1,10.3-0.5,12.3
			c2.8-1.4,15.6-8.7,29.4-12.1C436.5,204.9,427.4,215.2,427.4,215.2z"/>
		<path fill="#B058DC" d="M464,196.7l-42,21.6l7.2,0.2c0,0,49.1-24.9,45.9-28C469.8,193.9,464,196.7,464,196.7z"/>
		<path fill="#FF58FF" stroke="#000000" stroke-miterlimit="10" d="M545.2,190.6c0,0,49.3,69.5,25.6,86.7
			C537.7,289,376.7,249,342.3,233.2c14-6,39.8-14.3,67.5-18.5c40-6,77.3-14.6,84.2-14.9c2-0.1-13.1-6.8-17.3-8
			C494.3,185,535.3,182.2,545.2,190.6z"/>
		<path fill="#B058DC" d="M361.4,225.3c1.5-0.7,56.5-26.2,58-11.6c-4.2,2.5-15.1,3-24.2,4.8c-11.9,2.4-21.6,5.9-20.5,8.3
			c9.5,0,22.1-3,36.2-3.1c13.3,1-1.9,11.3,19.6,16.3c-22.7-3-49.1-9.3-61.7-12.6c-0.6-0.1-10.5,8.2,9.8,17.8
			c-11.3-2.9-32.9-10.9-35.3-12.2C342.3,230.9,359.2,226.4,361.4,225.3z"/>
		<path fill="#FF58FF" stroke="#000000" stroke-miterlimit="10" d="M237,191.1c-7.7,4.6-51.3,69.5-27.6,86.7
			c31.6,6.2,154.5-61.7,209.7-64.5c1.8-30.7-117.7-14.3-129.4-14.8c8.7-3.2,20.2-8.1,18-8.8C297.9,187.1,244.7,186.5,237,191.1z"/>
		<path fill="#B058DC" d="M478.3,191.7c12.5-4.3,50.6-6.6,57.1,1c2,2.9,4.2,5.8-8.6,5.8c-5.6,0-22.5,2.5-32,1.1
			C489.1,195.7,479.7,192.4,478.3,191.7z"/>
		<path fill="#B058DC" d="M307.2,190.1c-3-0.7-49.7-4.2-56.2,3.4c-2,2.9-4.9,7.2,7.8,7.2c6.1,0,18.3,0.8,28.4-1.8
			C295,196.2,306.4,191.3,307.2,190.1z"/>
		<path fill="#B058DC" d="M418.6,212.7c0.3-3.8-3.3-10.3-11.1-11.1c-18.6-2.1-51.6,7.1-56.2,12.5c23.5-7.3,33-6.1,44.3-6.1
			c5.6,2.8-19.2,8.8-45.3,18.6c-11.7,4.4-151,75.6-147.3,31.5c-1.1,8,2.1,16.8,6.8,19.2c12,3.1,55.1-12.8,95.9-29.2
			c23.4-9.4,47.4-18.9,79.6-28.9C392.7,217.1,409,213.1,418.6,212.7z"/>
		<path fill="#B058DC" d="M546,192.6c0,0-0.8,11.8,1.1,15.8c6.4,11.5,18,44.5,12.4,59.2c-5.7,14.7-116.4-5.1-116.4-5.1
			s103.2,24.5,126.2,15.2C592.3,268.3,556,205.4,546,192.6z"/>
		<path fill="#FF92FF" d="M261.5,189.2c0,0-16.4,4.9-11.1,10c3.9,3.7,37.9-0.8,73.4-2.6c30.2-1.6,42.4-3.1,70.8,1.8
			c-36.2-2.3-108.3,8.6-127.3,8c-21-0.7-42.4,7.5-51.3,16.6c-4.3,4.4-14.6,32.6,117.6,4.1C330.9,230.5,220,258,208.3,241
			c-3-4.3,21.9-42.5,26.4-47.8C238.6,188.4,261.5,189.2,261.5,189.2z"/>
		<path fill="#FF92FF" d="M368,225.9c2.1,0,85.1,20.6,117.4,19.8c-11.7,2.8-71.3-3.1-92-7.1c-20.7-4-25.4-4.4-27-6
			C364.8,231.1,365.6,225.9,368,225.9z"/>
		<path fill="#FF92FF" d="M538.4,197.3c-5.3,1.4-28.4,1.8-54.7,5.3c-22.6,3-47.8,9.1-62.9,11.3c6.3-1,43.8-0.8,64.5-4.8
			c20.7-4,37.8-5.1,39.4-6.7C526.2,200.9,540.6,196.7,538.4,197.3z"/>
	</g>
</g>
</svg>