<?xml version="1.0" encoding="utf-8"?>
<svg version="1.0" id="layer_1" xmlns="http://www.w3.org/2000/svg" xmlns:xlink="http://www.w3.org/1999/xlink" x="0px" y="0px" viewBox="0 0 800 800" enable-background="new 0 0 800 800" xml:space="preserve">
<g id="_x31__2_">
	<g id="身体_14_">
		<path fill="#FFB5A8" stroke="#000000" stroke-width="1.4173" stroke-miterlimit="10" d="M291.3,599.9c0.9-16.5,4-26.1,6.4-31.4
			C293.8,577.2,292.1,589,291.3,599.9l-0.4,14.5c0,9.2,0.5,24.7,0.5,24.7l13.1,58.4l71.6,1.9l9.4-39.9c0,0,3.8,0.4,6.6,0.4
			c2.8,0,6.6-0.4,6.6-0.4l9.4,39.9l71.6-1.9l13.1-58.4c0,0,0.5-15.2,0.5-24.1c0,0-0.2-33.1-6.8-46.5c2.1,3.2,5.8,16.1,6.5,34.5
			l0.4,12c3.6,39.4,49.8,38.6,49.8-5c0-45.3-33.4-74.5-41.8-80c-15.2-10.7-43.5-17.3-43.5-17.3h-65.7H392h-65.7
			c0,0-28.3,6.6-43.5,17.3c-8.4,5.5-41.8,34.7-41.8,80c0,43.8,46.6,44.3,49.8,4.4L291.3,599.9z"/>
		<path opacity="0.1" fill="#FFD2BE" d="M437.7,576.5c-10.9-19-1-39.8-11.4-39.8c-10.4,0-14.2,9.4-33,9.4c-0.1,0-0.7,0-0.8,0
			c-18.8,0-22.6-9.4-33-9.4s-0.5,20.8-11.4,39.8c-22.8,39.7,5.8,74.2,42.6,74.2c0.8,0,3.7,0,4.4,0
			C431.9,650.8,460.5,616.2,437.7,576.5z"/>
		<path fill="#EA969E" d="M335,647.2c0,0,21.3,7.5,57,7.5s56.3-7.5,56.3-7.5s-22.2,12.3-55.9,12.3c-2.9,0-4.9-0.1-7.6-0.3l-9.2,39.1
			l-3.2-4c2.3-7.2,1.4-30.3-0.1-36.2C352.5,655.2,340.1,650.3,335,647.2z"/>
		<path fill="#EA969E" d="M493.4,633l-13.7,59.8l-5.5-1c1.4-4.1,8.4-36.4,12.4-61.3c2.6-37.6-1.1-65.5-1.1-65.5
			C493.8,592.7,494.5,622.4,493.4,633z"/>
		<path fill="#EA969E" d="M542.8,609.5c0,10.4-6.2,31.3-16,29.3c4.2-12,3.7-32.8,3.7-32.8c1.9-45.3-26.9-73.4-26.9-73.4
			C534.1,556.9,542.8,591.9,542.8,609.5z"/>
		<path fill="#EA969E" d="M274.7,616.1c0,5.8-1.1,21.3-7.7,26.7c11.5,0,18.5-11.9,19.9-14.8c3.3-7.1,3.3-18,3.3-18
			c-0.3-34.8,10.2-48.6,10.2-48.6C282,576.8,274.7,606.2,274.7,616.1z"/>
		<path fill="#EA969E" d="M459.6,514.5c-4.6-8.2-28.1-15.9-64-17c-13.9-0.4-69.1-2.1-64.6,6.1c4.9,8.9,20.3,23,61.8,26
			C428.7,532.2,465.3,524.7,459.6,514.5z"/>
	</g>
	<g id="衣服_11_">
		<path d="M482.9,559.3c10.9,31.6,4.9,67.2,4.9,67.2l5.2-2.8C493,623.7,496.9,583.2,482.9,559.3z"/>
		<path fill="#007CD0" stroke="#000000" stroke-width="1.4173" stroke-miterlimit="10" d="M291.4,639.1l13.1,58.4l71.6,1.9l9.4-39.9
			c0,0,3.8,0.4,6.6,0.4c2.8,0,6.6-0.4,6.6-0.4l9.4,39.9l71.6-1.9l13.1-58.4H291.4z"/>
		<path fill="#3C5EA4" d="M335,647.2c0,0,21.3,7.5,57,7.5s56.3-7.5,56.3-7.5s-22.2,12.3-55.9,12.3c-2.9,0-4.9-0.1-7.6-0.3l-9.2,39.1
			l-3.2-4c2.3-7.2,1.4-30.3-0.1-36.2C352.5,655.2,340.1,650.3,335,647.2z"/>
		<path fill="#3C5EA4" d="M492.7,639.1l-13.1,58.4l-5.4-5.8c1.4-4.1,11.9-52.7,11.9-52.7H492.7z"/>
		<path fill="#FFFFFF" stroke="#000000" stroke-miterlimit="10" d="M496.9,592.9l-14-81.8c0,0-70.9,35-89.7,35c-0.1,0-0.7,0-0.8,0
			c-18.8,0-89.6-33.6-89.6-33.6l-11.3,84l1.3,49l198.5-0.3L496.9,592.9z"/>
		<polygon fill="#E0DFD9" points="370.5,543.4 375,598.1 371.8,645.6 292.8,645.7 312.9,558.6 330.8,529.3 		"/>
		<g>
			<path fill="#8FDAFF" stroke="#000000" stroke-miterlimit="10" d="M331,503.6c0,0-63.3,17.7-63.8,23c-2.3,0-18.5,22.8-19.5,28.8
				c-3.7,3.8-8.8,20.7-6.7,28c2,7.3,3.1,3,3.1,3s-2.2,10.8-2.4,12.7c5.9-2.6,35.4-7.2,49.6,4.3c-0.1,2.3,0.1,35.6,0.1,35.6
				l69.4,11.7c0,0,8.6-44.3,8.8-51.5s-5.8-57.9-5.8-57.9l-6.4-2.3v-8.8L331,503.6z"/>
			<path fill="#6BA3BF" d="M343.8,555.4l11.7,0.7c0,0,5.3,1,6.1-4.5c0.8-5.5-4.1-11.9-4.1-11.9v-8.4l-7.1-4.6L343.8,555.4z"/>
			<path fill="#A5E1FF" stroke="#000000" stroke-miterlimit="10" d="M357.4,530.2l-3.3,0.7L343.9,555c0,0-26.8-30.9-34-45.2
				c3.4-2,21.2-6.2,21.2-6.2L357.4,530.2z"/>
			<path fill="#7CA9BF" stroke="#000000" stroke-width="0.25" stroke-miterlimit="10" d="M361.8,556.7c0,0-2.3-2.5-3,0
				s0,4.8,1.5,4.8S364.8,560.2,361.8,556.7z"/>
			<path fill="#7CA9BF" stroke="#000000" stroke-width="0.25" stroke-miterlimit="10" d="M364.9,591.9c0,0-2.3-2.5-3,0
				s0,4.8,1.5,4.8S367.9,595.4,364.9,591.9z"/>
			<path fill="#7CA9BF" stroke="#000000" stroke-width="0.25" stroke-miterlimit="10" d="M360.7,624.5c0,0-2.3-2.5-3,0
				s0,4.8,1.5,4.8C360.7,629.3,363.7,628,360.7,624.5z"/>
			<path fill="#7ACCE8" d="M246.3,585.9c0,0-2.5-1.6-2.6-3.9c2.6,2.8,3.9,2.6,3.9,2.6s3.3-0.9,3.6-0.7s5.4,0,5.4,0s-1.6-3.3-1.4-5.1
				c1.4,2,1.4,4.4,3,5.1s5.6,1.4,6.8,0.4s2.8-3.1,3.2-5.5c1,2.9-0.4,4.1,0.8,5.4s4.4,1.8,5.5,1.6s4.1-2.8,4.7-2.1
				c0.6,0.6,0.1,2,0.9,2.9s2.5,1.3,3.8,1.6c1.3,0.4,5.2,1.9,5.2,1.9s2.5,2.1,2.6,2.6c0.1,0.5,0,2.9,0,2.9l-0.8-1.2l-1.3,3.7
				l-0.3-4.2l-3.3,0.2l-1.9,1.8l-0.8-4.3l-3.7-0.9l-2.5,1.2l-1.6-2.8l-0.8,4.8l-1.8-4.7l-2.4,0.8l-4.7-0.7l-3.4-1.6l-3.6,5.2
				l1.1-5.8l-4.8-0.3l0.7,5.8l-2.9-6.7l-3.7,0.3l-1.8,2.1L246.3,585.9z"/>
			<path opacity="0.8" fill="#6BA3BF" d="M291.1,602.9c0,0-2.7-4.4-12.8-6.3c1.5-2.8,8-28.3,19.5-43
				C293.8,570.8,291.6,591.6,291.1,602.9z"/>
		</g>
		<g>
			<path fill="#8FDAFF" stroke="#000000" stroke-miterlimit="10" d="M454.1,503.6c0,0,63.3,17.7,63.8,23c2.3,0,18.5,22.8,19.5,28.8
				c3.7,3.8,8.8,20.7,6.7,28c-2,7.3-3.1,3-3.1,3s2.2,10.8,2.4,12.7c-5.9-2.6-35.4-7.2-49.6,4.3c0.1,2.3-0.1,35.6-0.1,35.6
				l-69.4,11.7c0,0-8.6-44.3-8.8-51.5s5.8-57.9,5.8-57.9l6.4-2.3v-8.8L454.1,503.6z"/>
			<path fill="#6BA3BF" d="M441.2,555c0,0,37.9-6,41.7-12.5c3.8-6.5,3.7-17.8,14-20.8s6.7-2.5,6.7-2.5l-29.4-9.9L427.7,531
				l-0.9,17.5L441.2,555z"/>
			<path fill="#A5E1FF" stroke="#000000" stroke-miterlimit="10" d="M427.7,530.2l3.3,0.7l10.3,24.1c0,0,26.8-30.9,34-45.2
				c-3.4-2-21.2-6.2-21.2-6.2L427.7,530.2z"/>
			<path fill="#7CA9BF" stroke="#000000" stroke-width="0.2396" stroke-miterlimit="10" d="M424.7,557.7c0,0,4.6-1.1,6.1,0
				c1.5,1.1,0,2.1-3.1,2.1S418.5,559.3,424.7,557.7z"/>
			<path fill="#7CA9BF" stroke="#000000" stroke-width="0.2034" stroke-miterlimit="10" d="M421.7,593.2c0,0,4.9-0.8,6.5,0
				c1.6,0.8,0,1.4-3.3,1.4C421.7,594.7,415.2,594.3,421.7,593.2z"/>
			<path fill="#7CA9BF" stroke="#000000" stroke-width="0.1927" stroke-miterlimit="10" d="M425.4,625.7c0,0,4.1-0.8,5.4,0
				c1.4,0.8,0,1.6-2.7,1.6S420,626.9,425.4,625.7z"/>
			<path fill="#7ACCE8" d="M538.8,585.9c0,0,2.5-1.6,2.6-3.9c-2.6,2.8-3.9,2.6-3.9,2.6s-3.3-0.9-3.6-0.7s-5.4,0-5.4,0
				s1.6-3.3,1.4-5.1c-1.4,2-1.4,4.4-3,5.1s-5.6,1.4-6.8,0.4c-1.3-1-2.8-3.1-3.2-5.5c-1,2.9,0.4,4.1-0.8,5.4s-4.4,1.8-5.5,1.6
				s-4.1-2.8-4.7-2.1c-0.6,0.6-0.1,2-0.9,2.9s-2.5,1.3-3.8,1.6c-1.3,0.4-5.2,1.9-5.2,1.9s-2.5,2.1-2.6,2.6c-0.1,0.5,0,2.9,0,2.9
				l0.8-1.2l1.3,3.7l0.3-4.2l3.3,0.2l1.9,1.8l0.8-4.3l3.7-0.9l2.5,1.2l1.6-2.8l0.8,4.8l1.8-4.7l2.4,0.8l4.7-0.7l3.4-1.6l3.6,5.2
				l-1.1-5.8l4.8-0.3l-0.7,5.8l2.9-6.7l3.7,0.3l1.8,2.1L538.8,585.9z"/>
			<path opacity="0.8" fill="#6BA3BF" d="M494,602.9c0,0,2.7-4.4,12.8-6.3c-1.5-2.8-8-28.3-19.5-43
				C491.3,570.8,493.5,591.6,494,602.9z"/>
		</g>
	</g>
	<g id="脚_20_">
		<g id="鞋_8_">
			<path fill="#4F00DE" stroke="#000000" stroke-miterlimit="10" d="M482.8,707.7c0,0,3.2-16.7-12.5-18.4c-16.1,0-50.7,0-50.7,0
				s-14.2,1.1-14.2,19.1l38.7,1.6L482.8,707.7z"/>
			<path fill="#FFFFFF" stroke="#000000" stroke-width="0.982" stroke-miterlimit="10" d="M403,716.2c0,0,10,3.9,39.5,3.9
				c29.5,0,41.5-3.9,41.5-3.9s1.6-9.3,0-10c-1.6-0.7-15,3.9-41.5,3.9c-26.5,0-38.3-5.1-39.5-3.9C401.8,707.4,403,716.2,403,716.2z"
				/>
			<path fill="#BFBFBF" d="M484.2,708.1c0,0-15.2,6.3-39.7,4.9c0,6-28.3,5.1-28.3,5.1s39.4,4.7,67.6-2.4L484.2,708.1z"/>
			<line fill="none" stroke="#000000" stroke-width="0.982" stroke-miterlimit="10" x1="479" y1="706.8" x2="479" y2="717.3"/>
			<line fill="none" stroke="#000000" stroke-width="0.982" stroke-miterlimit="10" x1="473.5" y1="707.7" x2="473.5" y2="718.1"/>
			<line fill="none" stroke="#000000" stroke-width="0.982" stroke-miterlimit="10" x1="467.8" y1="708.4" x2="467.8" y2="718.8"/>
			<line fill="none" stroke="#000000" stroke-width="0.982" stroke-miterlimit="10" x1="461.4" y1="709.2" x2="461.4" y2="719.4"/>
			<line fill="none" stroke="#000000" stroke-width="0.982" stroke-miterlimit="10" x1="454.4" y1="709.7" x2="454.4" y2="719.8"/>
			<line fill="none" stroke="#000000" stroke-width="0.982" stroke-miterlimit="10" x1="447" y1="710" x2="447" y2="720.1"/>
			<line fill="none" stroke="#000000" stroke-width="0.982" stroke-miterlimit="10" x1="439" y1="709.8" x2="439" y2="719.8"/>
			<line fill="none" stroke="#000000" stroke-width="0.982" stroke-miterlimit="10" x1="432" y1="709.8" x2="432" y2="719.8"/>
			<line fill="none" stroke="#000000" stroke-width="0.982" stroke-miterlimit="10" x1="423.4" y1="709.2" x2="423.4" y2="719.2"/>
			<line fill="none" stroke="#000000" stroke-width="0.982" stroke-miterlimit="10" x1="415.8" y1="707.6" x2="415.8" y2="718.6"/>
			<line fill="none" stroke="#000000" stroke-width="0.982" stroke-miterlimit="10" x1="409.5" y1="706.7" x2="409.5" y2="717.7"/>
			<path fill="#A668FF" d="M448.4,691.4c0,0-19-2-29.1,1.9c-5.3,1.8-7.4,11.3-7.5,12.7c4.5,1.3,9.6,1.6,9.6,1.6s-2.3-6.6,2.1-10.1
				S438.3,690.6,448.4,691.4z"/>
		</g>
		<g id="鞋_7_">
			<path fill="#4F00DE" stroke="#000000" stroke-miterlimit="10" d="M378.8,707.7c0,0,3.2-16.7-12.5-18.4c-16.1,0-50.7,0-50.7,0
				s-14.2,1.1-14.2,19.1l38.7,1.6L378.8,707.7z"/>
			<path fill="#FFFFFF" stroke="#000000" stroke-width="0.982" stroke-miterlimit="10" d="M301,716.2c0,0,10,3.9,39.5,3.9
				c29.5,0,41.5-3.9,41.5-3.9s1.6-9.3,0-10c-1.6-0.7-15,3.9-41.5,3.9c-26.5,0-38.3-5.1-39.5-3.9C299.8,707.4,301,716.2,301,716.2z"
				/>
			<path fill="#BFBFBF" d="M382.2,708.1c0,0-15.3,6.3-39.7,4.9c0,6-28.3,5.1-28.3,5.1s39.4,4.7,67.6-2.4L382.2,708.1z"/>
			<line fill="none" stroke="#000000" stroke-width="0.982" stroke-miterlimit="10" x1="375" y1="706.8" x2="375" y2="717.3"/>
			<line fill="none" stroke="#000000" stroke-width="0.982" stroke-miterlimit="10" x1="369.5" y1="707.7" x2="369.5" y2="718.1"/>
			<line fill="none" stroke="#000000" stroke-width="0.982" stroke-miterlimit="10" x1="363.8" y1="708.4" x2="363.8" y2="718.8"/>
			<line fill="none" stroke="#000000" stroke-width="0.982" stroke-miterlimit="10" x1="357.4" y1="709.2" x2="357.4" y2="719.4"/>
			<line fill="none" stroke="#000000" stroke-width="0.982" stroke-miterlimit="10" x1="350.4" y1="709.7" x2="350.4" y2="719.8"/>
			<line fill="none" stroke="#000000" stroke-width="0.982" stroke-miterlimit="10" x1="343" y1="710" x2="343" y2="720.1"/>
			<line fill="none" stroke="#000000" stroke-width="0.982" stroke-miterlimit="10" x1="335" y1="709.8" x2="335" y2="719.8"/>
			<line fill="none" stroke="#000000" stroke-width="0.982" stroke-miterlimit="10" x1="328" y1="709.8" x2="328" y2="719.8"/>
			<line fill="none" stroke="#000000" stroke-width="0.982" stroke-miterlimit="10" x1="319.4" y1="709.2" x2="319.4" y2="719.2"/>
			<line fill="none" stroke="#000000" stroke-width="0.982" stroke-miterlimit="10" x1="311.8" y1="707.6" x2="311.8" y2="718.6"/>
			<line fill="none" stroke="#000000" stroke-width="0.982" stroke-miterlimit="10" x1="305.5" y1="706.7" x2="305.5" y2="717.7"/>
			<path fill="#A668FF" d="M344.4,691.4c0,0-19-2-29.1,1.9c-5.3,1.8-7.4,11.3-7.5,12.7c4.5,1.3,9.6,1.6,9.6,1.6s-2.3-6.6,2.1-10.1
				C323.8,694,334.3,690.6,344.4,691.4z"/>
		</g>
	</g>
	<g id="手_4_">
		<g id="手_21_">
			<g id="左手_14_">
				<path fill="#FFFFFF" stroke="#000000" stroke-width="1.4173" stroke-miterlimit="10" d="M287.2,632.8
					c3.6,16.8-3.9,27.2-20.5,27.2s-29-17.2-29-32.7c0-15.5,10.2-28.6,26.8-28.6c12.7,0,19.4,3.8,25.4,14.1
					C293.8,619.7,286.4,629.3,287.2,632.8z"/>
				<path fill="#FFFFFF" stroke="#000000" stroke-width="1.4173" stroke-miterlimit="10" d="M270.5,627.5
					c1.5,13,12.8,16.2,19.6,11.8c6.1-3.8,9.1-14.5,0-25.9"/>
			</g>
			<g>
				<defs>
					<path id="SVGID_104_" d="M289.9,613.9c0,0-0.4-0.3-0.5-0.5c-6-10.3-14.1-13.7-24.9-14.1c-16.1-0.5-26,12.5-26,27.9
						s12.3,32.1,28.3,32.1c13.9,0,20.7-7.4,20.7-18.9c0.7-0.3,1.5-1.2,2.2-1.6C295.3,635.2,299,625.3,289.9,613.9z"/>
				</defs>
				<clipPath id="SVGID_2_">
					<use xlink:href="#SVGID_104_"  overflow="visible"/>
				</clipPath>
				<g clip-path="url(#SVGID_2_)">
					
						<rect x="240.4" y="600.3" transform="matrix(0.9795 -0.2016 0.2016 0.9795 -123.5847 61.6661)" fill="#EBEBEB" width="1" height="74.3"/>
					
						<rect x="246.4" y="599.7" transform="matrix(0.9795 -0.2016 0.2016 0.9795 -123.3329 62.8558)" fill="#EBEBEB" width="1" height="74.3"/>
					
						<rect x="252.4" y="599.1" transform="matrix(0.9795 -0.2016 0.2016 0.9795 -123.0812 64.0454)" fill="#EBEBEB" width="1" height="74.3"/>
					
						<rect x="258.3" y="598.4" transform="matrix(0.9795 -0.2016 0.2016 0.9795 -122.8295 65.235)" fill="#EBEBEB" width="1" height="74.3"/>
					
						<rect x="264.3" y="597.8" transform="matrix(0.9795 -0.2016 0.2016 0.9795 -122.5778 66.4246)" fill="#EBEBEB" width="1" height="74.3"/>
					
						<rect x="270.3" y="597.1" transform="matrix(0.9795 -0.2016 0.2016 0.9795 -122.326 67.6143)" fill="#EBEBEB" width="1" height="74.3"/>
					<polygon fill="#EBEBEB" points="268.7,597.4 277.5,638.7 278.5,638.5 269.7,597.2 					"/>
					<polygon fill="#EBEBEB" points="274.7,596.7 283.2,639.2 284.2,639 275.7,596.5 					"/>
					
						<rect x="288.1" y="595.2" transform="matrix(0.9795 -0.2016 0.2016 0.9795 -121.5709 71.1831)" fill="#EBEBEB" width="1" height="74.3"/>
					
						<rect x="294.1" y="594.6" transform="matrix(0.9795 -0.2014 0.2014 0.9795 -121.2053 72.2881)" fill="#EBEBEB" width="1" height="74.3"/>
				</g>
			</g>
			<path fill="#999999" d="M291.4,616.4c1.5,2.4,2.9,11.3-0.7,17.3c-1.8,3-7.3,6.4-12.2,5.5c6.1,3.2,12.8,0.3,15.3-5.2
				C297.3,626.6,292.9,618.2,291.4,616.4z"/>
			<path fill="#999999" d="M272.3,621.6c-8,10.9,4.5,21.2,2.9,28.4c-0.8,3.5-5.9,10.4-15,8.3c7.4,2.5,19.4,0.3,23.5-5.7
				c1.1-1.6,3.4-4.2,3.7-11.2C276.6,644.1,266.1,632.9,272.3,621.6z"/>
		</g>
		<g id="手_20_">
			<g id="左手_13_">
				<path fill="#FFFFFF" stroke="#000000" stroke-width="1.4173" stroke-miterlimit="10" d="M496.3,632.8
					c-3.6,16.8,3.9,27.2,20.5,27.2s29-17.2,29-32.7c0-15.5-10.2-28.6-26.8-28.6c-12.7,0-19.4,3.8-25.4,14.1
					C489.7,619.7,497.1,629.3,496.3,632.8z"/>
				<path fill="#FFFFFF" stroke="#000000" stroke-width="1.4173" stroke-miterlimit="10" d="M513,627.5c-1.5,13-12.8,16.2-19.6,11.8
					c-6.1-3.8-9.1-14.5,0-25.9"/>
			</g>
			<g>
				<defs>
					<path id="SVGID_106_" d="M493.6,613.9c0,0,0.4-0.3,0.5-0.5c6-10.3,14.1-13.7,24.9-14.1c16.1-0.5,26,12.5,26,27.9
						s-12.3,32.1-28.3,32.1c-13.9,0-20.7-7.4-20.7-18.9c-0.7-0.3-1.5-1.2-2.2-1.6C488.2,635.2,484.5,625.3,493.6,613.9z"/>
				</defs>
				<clipPath id="SVGID_3_">
					<use xlink:href="#SVGID_106_"  overflow="visible"/>
				</clipPath>
				<g clip-path="url(#SVGID_3_)">
					
						<rect x="505.4" y="637" transform="matrix(0.2016 -0.9795 0.9795 0.2016 -191.2233 1040.4143)" fill="#EBEBEB" width="74.3" height="1"/>
					
						<rect x="499.4" y="636.4" transform="matrix(0.2016 -0.9795 0.9795 0.2016 -195.3584 1034.0594)" fill="#EBEBEB" width="74.3" height="1"/>
					
						<rect x="493.5" y="635.7" transform="matrix(0.2016 -0.9795 0.9795 0.2016 -199.4936 1027.7046)" fill="#EBEBEB" width="74.3" height="1"/>
					
						<rect x="487.5" y="635.1" transform="matrix(0.2016 -0.9795 0.9795 0.2016 -203.6287 1021.3498)" fill="#EBEBEB" width="74.3" height="1"/>
					
						<rect x="481.6" y="634.4" transform="matrix(0.2016 -0.9795 0.9795 0.2016 -207.7639 1014.9949)" fill="#EBEBEB" width="74.3" height="1"/>
					
						<rect x="475.6" y="633.8" transform="matrix(0.2016 -0.9795 0.9795 0.2016 -211.899 1008.6401)" fill="#EBEBEB" width="74.3" height="1"/>
					<polygon fill="#EBEBEB" points="514.8,597.4 506,638.7 505,638.5 513.8,597.2 					"/>
					<polygon fill="#EBEBEB" points="508.8,596.7 500.3,639.2 499.4,639 507.8,596.5 					"/>
					
						<rect x="457.7" y="631.9" transform="matrix(0.2016 -0.9795 0.9795 0.2016 -224.3044 989.5756)" fill="#EBEBEB" width="74.3" height="1"/>
					
						<rect x="451.7" y="631.2" transform="matrix(0.2014 -0.9795 0.9795 0.2014 -228.368 983.3666)" fill="#EBEBEB" width="74.3" height="1"/>
				</g>
			</g>
			<path fill="#999999" d="M492.2,616.4c-1.5,2.4-2.9,11.3,0.7,17.3c1.8,3,7.3,6.4,12.2,5.5c-6.1,3.2-12.8,0.3-15.3-5.2
				C486.3,626.6,490.7,618.2,492.2,616.4z"/>
			<path fill="#999999" d="M511.2,621.6c8,10.9-4.5,21.2-2.9,28.4c0.8,3.5,5.9,10.4,15,8.3c-7.4,2.5-19.4,0.3-23.5-5.7
				c-1.1-1.6-3.4-4.2-3.7-11.2C506.9,644.1,517.4,632.9,511.2,621.6z"/>
		</g>
	</g>
	<g id="耳朵_8_">
		<g id="耳朵_25_">
			<path fill="#FFCDAD" stroke="#000000" stroke-width="1.4173" stroke-miterlimit="10" d="M340.9,204.1
				c-4.2-24.9-60.1-92.9-138.2-48.3c-54.6,31.9-53.8,113.9,4.8,166.6L340.9,204.1z"/>
			<path fill="#E4B27A" d="M254,141c43,6.6,70.9,44.8,73.8,62.1l13,1C337.6,185.1,304.3,141,254,141z"/>
			<path fill="#FF9A5C" d="M228.6,273.5c-5-0.4-41.5-52.2-2-77.4c38.8-24.8,76.6,15.4,76,22.4L228.6,273.5z"/>
		</g>
		<g id="耳朵_12_">
			<path fill="#FFCDAD" stroke="#000000" stroke-width="1.4173" stroke-miterlimit="10" d="M440.6,204.1
				c4.2-24.9,60.1-92.9,138.2-48.3c54.6,31.9,53.8,113.9-4.8,166.6L440.6,204.1z"/>
			<path fill="#E4B27A" d="M578.8,155.8c-1.1-0.6-2.2-1.2-3.3-1.8c45.7,34.7,42.6,109.7-11.4,159.6l9.9,8.7
				C632.6,269.7,633.4,187.7,578.8,155.8z"/>
			<path fill="#FF9A5C" d="M552.8,273.5c5-0.4,41.5-52.2,2-77.4c-38.8-24.8-76.6,15.4-76,22.4L552.8,273.5z"/>
		</g>
	</g>
	<g id="面部_9_">
		<path id="面部_10_" fill="#FF96BE" stroke="#000000" stroke-width="1.4173" stroke-miterlimit="10" d="M214.3,278.3
			c11.2-30.5,46.9-77.2,129.7-100c36.3-10,61.8-8.8,96.6,0.5c41.8,11.2,105.2,42.4,128.8,98.9c11.7,28,11.7,87.7,11.7,87.7
			s23.3,12,23.3,49.3c0,32.5-52.7,87.4-157.3,100.9c-15.4,2-29.3,11.1-53.3,11.1s-38-9.3-54.8-11.6C236.1,501,179,448.5,179,414.7
			c0-34.2,25.5-48.8,25.5-48.8S201,314.7,214.3,278.3z"/>
		<path fill="#D264D2" d="M532.7,227.5c34.8,34.5,46.6,60.2,47.7,138.2c0,0-7.3,1.1-13.4,5.4C573.9,347.5,572.5,271,532.7,227.5z"/>
		<path fill="#D264D2" d="M267,496.2c18.9,9.2,64.8,17.7,77.4,19.2c6.4,1.4,29.4,10.5,47,10.5s30.2-3.9,46.7-9.6
			c29.3-2.6,80.2-15.3,104.8-31c-30.3,13.1-68.9,21.4-97.6,25.7c3.7-3.3,8.2-5.9,11.8-11.9c-15.7,13.9-34.1,19.9-61.5,20.6
			C384.7,519.9,312,509.5,267,496.2z"/>
	</g>
	<g id="鼻子_9_">
		<ellipse fill="#FFBECC" stroke="#000000" stroke-width="1.4173" stroke-miterlimit="10" cx="391.3" cy="421.3" rx="90" ry="59"/>
		<path fill="#E6A082" d="M392,467.5c-28.1,1.3-47.3-1.5-68.3-8.4c6.1,6,32.9,20.6,67.2,20.6c48.4,0,89.7-24.6,89.7-58.4
			C475.8,438.2,445.9,465,392,467.5z"/>
		<g id="鼻子_10_">
			<path fill="#69301B" stroke="#000000" stroke-miterlimit="10" d="M404.4,385.7c-5.2,0-8,2.3-13.5,2.4c-5.5-0.1-8.3-2.4-13.5-2.4
				c-10,0-18.5,8.3-18.5,15.5c0,7.3,6.2,16.9,19.6,18.3c3.1,0.3,22,0.4,24.7,0c13.3-2,19.6-11,19.6-18.3
				C422.9,394,414.4,385.7,404.4,385.7z"/>
			<path fill="#3F1000" d="M420.8,406c0,4.5-6.4,10.1-14,12.3c-4.9,1.4-10,1-16.5,1c-5.7,0-10.3,0.4-14.8-0.7
				c-8.7-2.1-14.9-8.3-14.9-12.6c0-6.6,13.4-9,30-9S420.8,399.3,420.8,406z"/>
		</g>
	</g>
	<g id="眼睛_4_">
		<linearGradient id="SVGID_3_" gradientUnits="userSpaceOnUse" x1="448.5415" y1="351.7919" x2="532.2632" y2="351.7919">
			<stop  offset="0" style="stop-color:#6EA0DC"/>
			<stop  offset="1" style="stop-color:#8BBBFF;stop-opacity:0"/>
		</linearGradient>
		<path fill="url(#SVGID_3_)" d="M524.7,326.7c17.5,42.8,2.8,76.1-24.6,76.1s-47.7-28.8-50.6-44.6c-4-20.6,4.9-42.7,20.5-51.1
			C489.5,296.5,512.7,297.3,524.7,326.7z"/>
		<linearGradient id="SVGID_4_" gradientUnits="userSpaceOnUse" x1="237.0114" y1="334.1588" x2="297.4662" y2="365.2986">
			<stop  offset="0" style="stop-color:#6EA0DC"/>
			<stop  offset="1" style="stop-color:#8BBBFF;stop-opacity:0"/>
		</linearGradient>
		<path fill="url(#SVGID_4_)" d="M304.6,326.7c20.7,41.4-1.1,75.1-24.6,76.1c-18.5,0.8-31.7-19.4-34.5-35.2
			c-4-20.6,0.4-34.5,11-48.8C264.4,308,291.7,300.7,304.6,326.7z"/>
		<g id="眼睛_6_">
			<radialGradient id="SVGID_5_" cx="281.6733" cy="358.1066" r="37.8513" gradientUnits="userSpaceOnUse">
				<stop  offset="0" style="stop-color:#4D4D4D"/>
				<stop  offset="1" style="stop-color:#1A1A1A"/>
			</radialGradient>
			<ellipse fill="url(#SVGID_5_)" stroke="#000000" stroke-miterlimit="10" cx="281.7" cy="358.1" rx="30" ry="44.3"/>
			
				<radialGradient id="SVGID_6_" cx="311.0702" cy="358.1066" r="28.178" gradientTransform="matrix(0.9851 0 0 1 -24.756 0)" gradientUnits="userSpaceOnUse">
				<stop  offset="0" style="stop-color:#333333"/>
				<stop  offset="1" style="stop-color:#000000"/>
			</radialGradient>
			<ellipse fill="url(#SVGID_6_)" cx="281.7" cy="358.1" rx="22" ry="33"/>
			
				<ellipse transform="matrix(0.3609 -0.9326 0.9326 0.3609 -147.2983 475.2638)" fill="#F2F2F2" cx="273.1" cy="345.1" rx="7" ry="5.7"/>
			<ellipse cx="281.7" cy="358.1" rx="8" ry="13"/>
			<path fill="#FFFFFF" d="M298.1,378.9c-1.4,2.5-3.6,4.4-4.3,3.6c-0.8-0.8,0.9-0.9,2.7-4.4c1.9-3.5,1.5-4.6,2.6-4.5
				C300.1,373.7,299.5,376.4,298.1,378.9z"/>
			<ellipse fill="#FFFFFF" cx="264.4" cy="359.7" rx="2.8" ry="4.1"/>
		</g>
		<g id="眼睛_5_">
			<radialGradient id="SVGID_7_" cx="502.6734" cy="358.1066" r="37.8513" gradientUnits="userSpaceOnUse">
				<stop  offset="0" style="stop-color:#4D4D4D"/>
				<stop  offset="1" style="stop-color:#1A1A1A"/>
			</radialGradient>
			<ellipse fill="url(#SVGID_7_)" stroke="#000000" stroke-miterlimit="10" cx="502.7" cy="358.1" rx="30" ry="44.3"/>
			
				<radialGradient id="SVGID_8_" cx="535.4174" cy="358.1066" r="28.178" gradientTransform="matrix(0.9851 0 0 1 -24.756 0)" gradientUnits="userSpaceOnUse">
				<stop  offset="0" style="stop-color:#333333"/>
				<stop  offset="1" style="stop-color:#000000"/>
			</radialGradient>
			<ellipse fill="url(#SVGID_8_)" cx="502.7" cy="358.1" rx="22" ry="33"/>
			
				<ellipse transform="matrix(0.3609 -0.9326 0.9326 0.3609 -6.0616 681.3678)" fill="#F2F2F2" cx="494.1" cy="345.1" rx="7" ry="5.7"/>
			<ellipse cx="502.7" cy="358.1" rx="8" ry="13"/>
			<path fill="#FFFFFF" d="M519.1,378.9c-1.4,2.5-3.6,4.4-4.3,3.6c-0.8-0.8,0.9-0.9,2.7-4.4c1.9-3.5,1.5-4.6,2.6-4.5
				C521.1,373.7,520.5,376.4,519.1,378.9z"/>
			<ellipse fill="#FFFFFF" cx="485.4" cy="359.7" rx="2.8" ry="4.1"/>
		</g>
	</g>
	<g id="眉毛_1_">
		<linearGradient id="SVGID_10_" gradientUnits="userSpaceOnUse" x1="455.7762" y1="303.4955" x2="552.3399" y2="303.4955">
			<stop  offset="5.128205e-03" style="stop-color:#333333"/>
			<stop  offset="1" style="stop-color:#601D00"/>
		</linearGradient>
		<polygon fill="url(#SVGID_10_)" points="458.5,313.7 519,285.5 552.3,305.5 514.6,303.8 455.8,321.5 		"/>
		<path fill="#320014" d="M460,313.8c0,0,21.2-12.7,37.1-13.9c20.5-0.6,25.4,4.3,25.4,4.3l-7.9-0.3l-58.8,17.7L460,313.8z"/>
		
			<linearGradient id="SVGID_11_" gradientUnits="userSpaceOnUse" x1="-3645.2368" y1="303.4955" x2="-3548.6731" y2="303.4955" gradientTransform="matrix(-1 0 0 1 -3321.897 0)">
			<stop  offset="5.128205e-03" style="stop-color:#333333"/>
			<stop  offset="1" style="stop-color:#601D00"/>
		</linearGradient>
		<polygon fill="url(#SVGID_11_)" points="320.6,313.7 260.1,285.5 226.8,305.5 264.5,303.8 323.3,321.5 		"/>
		<path fill="#320014" d="M319.1,313.8c0,0-21.2-12.7-37.1-13.9c-20.5-0.6-25.4,4.3-25.4,4.3l7.9-0.3l58.8,17.7L319.1,313.8z"/>
	</g>
	<g id="嘴巴">
		<polygon id="嘴巴_3_" fill="#FF6D39" stroke="#000000" stroke-width="0.7087" stroke-miterlimit="10" points="419,495.5 
			358.9,496 364.4,484.4 415.3,484.4 		"/>
		<polygon id="嘴巴_12_" fill="#1F1F26" stroke="#000000" stroke-width="0.7087" stroke-miterlimit="10" points="474.2,496.8 
			418,492 358.9,492.5 316.3,497.1 364.4,480.9 421.3,480.9 		"/>
		<g>
			<polygon fill="#1F1F26" stroke="#000000" stroke-width="0.7087" stroke-miterlimit="10" points="358.1,480.4 353.9,480.4 
				301.3,497.5 307.8,496.8 			"/>
		</g>
		<g>
			<polygon fill="#1F1F26" stroke="#000000" stroke-width="0.7087" stroke-miterlimit="10" points="426.9,479.7 431.1,479.7 
				483.7,496.8 477.3,496.1 			"/>
		</g>
	</g>
	<g id="头巾_1_">
		<path fill="#FF0000" stroke="#000000" stroke-miterlimit="10" d="M237.7,235.1c0,0,16.2,3,81.7,7.4c4.6,0.3,19.7-0.3,24.7,0
			c9.2,0.5,21.8-2.7,35.5-2.8c17.5-0.2,39.1,2.9,53.2,2.8c10.4,0,19.9,4.1,30.7,4.3c29.1,0.7,59.9,1.5,93.1-2.4
			c8.5,7.6,18.5,28.2,17.3,33.4c-1.1,5.2-53.7,6.8-72.4,8.1c-10.6,0.8-26.1,5.1-52.9,6.7c-26.2,1.6-59.1,1.9-74.1,1.9
			c-6.5,0-31.5-5.7-39.1-6.6c-30-3.2-54.3-6.4-61.6-7.1c-9.3-0.9-54.9-11.4-54.7-16.1C219.3,258.6,231.8,235.1,237.7,235.1z"/>
		<g>
			<path fill="#621700" d="M409.3,244.5l2.1,1.5c1.4,0.8,2.5,1.7,3.5,2.7c1.2,0.7,1.9,1.4,2.1,2.2c0.5,0.5,0.7,0.9,0.7,1.2l-0.7,1.2
				c-0.5,0.5-0.9,1.3-1.4,2.5c-0.2,0.5-0.6,1.2-1,2.2c-0.2,0.5-0.5,0.8-0.7,1c-0.7,1-1.3,2-1.7,3c0,0.2-0.2,0.6-0.7,1.2
				c-0.5,0.7-0.9,1.3-1.4,2l0.7,1c0.5,0.5,1.2,1.2,2.1,2c1.2,0.5,1.9,1.2,2.1,2c0.5,0.5,0.8,1.2,1,2c0.2,0.2,0.5,0.5,0.7,1
				c0.5,0.7,0.8,1.3,1,2l-0.3,0.5c-0.2,0.2-0.3,0.3-0.3,0.5c-0.2,0.3-0.3,0.6-0.3,0.7c0,0.2-0.1,0.3-0.3,0.5
				c-0.2,0.5-0.5,0.9-0.7,1.2h7l-0.7-3l0.3,0.2c0.5,0,0.8,0.5,1,1.5c0.2,0.3,0.7,0.8,1.4,1.5c0.2,0.3,0.5,0.6,0.7,0.7l0.3-1
				c0.5-0.8,0.8-2,1-3.5c0-0.2,0-0.4,0-0.7c0.5-1.3,0.6-2.2,0.3-2.7c0-0.2-0.1-0.4-0.3-0.7c0-0.5-0.1-0.8-0.3-1v-0.2
				c-0.5-0.8-1.3-1.6-2.4-2.5l-2.8-0.5v-0.5l2.1-0.2c1.4-0.2,2.5-0.2,3.5-0.2l1,0.5c0.7,0.2,1.5,0.5,2.4,1c1.2,0.2,1.9,0.5,2.1,1
				c0.5,0.3,0.9,0.7,1.4,1.2c0.5,0.3,0.8,1,1,2c0.2,0.7,0.3,1.2,0.3,1.5l-0.3,0.7c-0.2,0.2-0.3,0.9-0.3,2.2c0,1-0.2,2.1-0.7,3.5
				c-0.2,1-0.6,1.7-1,2.2c-0.2,0.2-0.3,0.5-0.3,1c-0.2,0.3-0.3,0.6-0.3,0.7c-0.2,0.7-0.7,1.5-1.4,2.5c-0.7,0.7-1,1.2-1,1.5l-0.3,0.7
				c-0.2,0.3-0.6,0.7-1,1.2c0,0.2-0.1,0.3-0.3,0.5c-0.5,0.5-0.8,0.9-1,1.2l-0.7,0.2h-0.3c-0.5,0.2-0.8,0.2-1,0.2l-0.7-0.7
				c-0.2-0.5-0.6-1-1-1.5c-0.2-0.5-0.2-1.2,0-2.2c0.5-1,0.3-2.3-0.3-3.9h-2.1c-0.5,0-1.2,0-2.1,0c-0.9-0.2-1.7-0.2-2.4-0.2
				c-1.6-0.3-2.9-0.3-3.8,0c-0.5,0-1.5,0.1-3.1,0.2c1.2-0.2,0.8-0.1-1,0.2c-1.9,0-3.4,0.2-4.5,0.5c-0.5,0-1.5,0.1-3.1,0.2
				c1.2-0.2,0.8-0.1-1,0.2c-1.6,0-2.9,0.2-3.8,0.7c-0.5,0.2-0.9,0.2-1.4,0.2c-0.5,0.2-0.9,0.3-1.4,0.5c-0.5,0-1.2,0.2-2.1,0.7
				c-0.2,0.2-0.5,0.2-0.7,0.2c-0.5,0.2-0.9,0.3-1.4,0.5c-0.7,0.3-1.3,0.6-1.7,0.7c-0.9,0.3-2,0.7-3.1,1.2c-0.7,0.3-1.9,0.7-3.5,1.2
				l-1.4-1l-0.7,1l-1.4-0.5c-0.2-0.2-0.6-0.3-1-0.5c-0.2-0.2-0.6-0.3-1-0.5c-0.2-0.2-0.8-0.5-1.7-1c-0.9-0.3-1.7-0.7-2.4-1l-0.3-1
				c-0.2-0.3-0.3-0.8-0.3-1.5c-0.2-0.7-0.3-1.1-0.3-1.5c0-0.3-0.1-0.8-0.3-1.5c0-0.5-0.1-1-0.3-1.5l-0.3-1.2c0-0.3,0.1-0.6,0.3-0.7
				c0.2-0.2,0.3-0.6,0.3-1.2c0.2-0.3,0.3-0.7,0.3-1c0-0.3,0.1-0.8,0.3-1.5c0-0.3,0.1-0.7,0.3-1.2c0-0.2,0.1-0.4,0.3-0.7
				c0-0.5,0.1-0.8,0.3-1c0-0.2,0.1-0.4,0.3-0.7c0-0.2,0.1-0.3,0.3-0.5c0.2-0.2,0.5-0.4,0.7-0.7c0-0.2,0.1-0.3,0.3-0.5
				c0.5-0.5,1-1.1,1.7-2c0.5-1,1.7-1.7,3.8-2.2l1.4,0.5c0.9,0.2,1.9,0.5,2.8,1v0.5l-1.4,0.5l1,0.5c0.7,0.2,1.5,0.4,2.4,0.7
				c0.9,0,1.9,0.2,2.8,0.7v1l-1.7-0.5c-0.7-0.5-2.9-0.8-6.6-1l-0.3,1c-0.2,0.5-0.2,1.4,0,2.7c0.2,1,0.3,1.6,0.3,2l-0.3,0.7
				c-0.2,0.3-0.6,0.7-1,1.2c0,0.2-0.1,0.3-0.3,0.5c-0.2,0-0.6,0.5-1,1.5c-0.2,0.7-0.6,1.5-1,2.5c-0.2,0.7-0.3,1.6-0.3,2.7l1,0.2
				c0.7,0,1.9-0.1,3.5-0.2c1.6-0.5,3.1-0.7,4.5-0.7c1.4-0.3,2.7-0.6,3.8-0.7c1.2-0.5,2.4-0.8,3.8-1c1.4-0.5,2.8-0.8,4.2-1
				c1.4-0.5,2.7-0.7,3.8-0.7c1.2-0.3,2.4-0.5,3.8-0.5c0.7-0.2,1.5-0.2,2.4-0.2c0.5,0,2.1,0,4.9,0l-1.4-1c-0.7-0.8-1.4-1.6-2.1-2.2
				c-0.7-1-1.2-1.6-1.4-1.7c-0.2-0.3-0.8-0.8-1.7-1.5l-0.7,0.2c-0.5,0-1,0.3-1.7,1c-0.7,0.5-1.3,1.1-1.7,1.7c-0.5,0.5-1,1-1.7,1.5
				c-0.7,0.3-1.3,0.7-1.7,1.2c-0.2,0.3-0.7,0.7-1.4,1c0.7-0.3,0.5-0.2-0.7,0.2c-0.2,0-0.6,0.1-1,0.2c-0.5,0.2-0.8,0.2-1,0.2l-2.1-1
				h-1.7c-0.9,0-2-0.2-3.1-0.5l-0.3-0.7c-0.2-0.5-0.6-0.9-1-1.2c-0.2-0.5-0.6-0.8-1-1c-0.2-0.3-0.3-0.8-0.3-1.5l1.7,0.5
				c0.2,0,0.6,0.1,1,0.2c0.5,0.2,0.8,0.2,1,0.2h0.7c0.5-0.2,0.9-0.2,1.4-0.2c1.2-0.3,2.1-0.6,2.8-0.7c0.7-0.5,1.4-1,2.1-1.5
				c0.2-0.2,0.6-0.4,1-0.7c0.2-0.5,0.5-0.8,0.7-1c0-0.2,0.2-0.5,0.7-1c0.5-0.3,0.7-0.6,0.7-0.7c0.2-0.7,1.2-1.6,2.8-3l-0.7-0.7
				c-0.2-0.5-0.9-0.9-2.1-1.2c-0.9-0.5-2.1-0.8-3.5-1v-1l-1.4-0.7c-0.5-0.2-0.9-0.5-1.4-1c-0.7-0.3-1.3-0.6-1.7-0.7
				c-0.7-0.5-1.9-1.1-3.5-2c0.2,0.2-0.1,0-1-0.5l-3.5,2.5l0.7-2l-2.1,1.5l0.7-1.5l-0.7-1l1.4-0.5c0.9-0.5,1.7-0.8,2.4-1
				c0.7-0.5,1.6-0.7,2.8-0.7c1.2-0.2,2.1-0.2,2.8-0.2c0.7,0,1.7,0.1,3.1,0.2c1.4,0,2.4,0.2,3.1,0.7c0.7,0.3,1.6,0.7,2.8,1.2
				c0.2,0.2,0.6,0.3,1,0.5c0.9,0.3,1.5,0.6,1.7,0.7c0.5,0,1.5,0.7,3.1,2l1.4-1.5v-1l1.4-0.5l-0.7-1l0.3-0.2c0.5-0.3,0.8-0.8,1-1.5
				c0-0.3,0.1-0.7,0.3-1.2c0.5-0.8,0.8-1.6,1-2.5l-0.7-0.5c0-0.2-0.2-0.4-0.7-0.7c-0.5-0.3-0.7-0.6-0.7-0.7
				c-0.2-0.3-0.5-0.7-0.7-1.2c-0.2-0.5-0.5-0.9-0.7-1.2l0.7-1H409.3z"/>
		</g>
	</g>
	<g id="头发_3_">
		<path fill="#FF96BE" stroke="#000000" stroke-width="1.4173" stroke-miterlimit="10" d="M364.8,196.7
			c-26.6-6.4-37.6-38.8-23.1-58.7c-3.2,16.8,9.8,36.2,37.8,33.6"/>
		<path fill="#D264D2" d="M340.5,141.2c0,0-1.2,8.3,0.4,14.6c2.3,8.7,10.2,15.5,10.2,15.5s-6.1,0.6-8.9-2.4c0.3,0.6,4.9,4.7,5.9,5.3
			c12.1,7.9,23.3,8.5,23.3,8.5s-8.9,1.1-14.9-0.6c6.7,4.3,21.7,4.9,21.7,4.9s-4.8,2.7-9.9,1.4c6.3,2.5,15.9,3.4,22.8,1.7l-14.4-17.4
			C371.2,173.3,340.9,171.3,340.5,141.2z"/>
		<path fill="#FF96BE" stroke="#000000" stroke-width="1.4173" stroke-miterlimit="10" d="M445.2,180.1c-16.5-4.2-20.3-24.4-6-27.6
			c-14.9-3.3-21.7,16.3-17.7,21.8c-13.6-1-48-22.5-40.8-55.3c-13,15.5-24.8,68.8,30.3,77.7"/>
		<path fill="#D264D2" d="M400.3,184.9c-23.7-12-27.2-38.2-20.8-62.1c-4.5,32.1,32,54.1,47.5,53.1c-4-5.5-4.3-18,8.8-23
			c-10.9,5.4-7.1,23.8,9.3,28c0,0-7.1,0.9-18.1-5c0,1.1,15.7,9,15.7,9l-21.8-8.9l20.7,13.1l-15-3l6.8,5l-17.1-6.9l22.3,14.4
			L400.3,184.9z"/>
	</g>
</g>
</svg>