<?xml version="1.0" standalone="no"?><!DOCTYPE svg PUBLIC "-//W3C//DTD SVG 1.1//EN" "http://www.w3.org/Graphics/SVG/1.1/DTD/svg11.dtd"><svg t="1514013433365" class="icon" style="" viewBox="0 0 1024 1024" version="1.1" xmlns="http://www.w3.org/2000/svg" p-id="5494" xmlns:xlink="http://www.w3.org/1999/xlink" width="32" height="32"><defs><style type="text/css"></style></defs><path d="M879.616 497.664l-351.232-267.776c-10.24-7.68-24.064-7.68-33.792 0L142.848 497.664c-12.288 9.216-29.696 7.168-39.424-5.12l-22.528-29.184c-9.216-12.288-7.168-29.696 5.12-39.424L494.08 112.64c10.24-7.68 24.064-7.68 33.792 0l407.552 311.296c12.288 9.216 14.848 27.136 5.12 39.424l-22.016 29.184c-8.704 11.776-26.624 14.336-38.912 5.12z" fill="#799AC9" p-id="5495"></path><path d="M514.048 329.216l-322.048 236.032v267.776c0 29.696 24.576 53.76 54.272 53.76h166.912v-264.192h195.072v264.192h168.96c29.696 0 53.248-24.064 53.248-53.76v-267.776c-0.512 0-316.416-236.032-316.416-236.032z" fill="#799AC9" p-id="5496"></path></svg>